<svg width="280" height="280" viewBox="0 0 280 280" fill="none" xmlns="http://www.w3.org/2000/svg">
<g clip-path="url(#clip0_511_1856)">
<path d="M168.315 111.927C168.224 111.927 168.133 111.896 168.073 111.82C167.936 111.684 167.936 111.472 168.073 111.335L169.18 110.259C169.316 110.122 169.528 110.122 169.665 110.259C169.801 110.395 169.801 110.607 169.665 110.744L168.558 111.82C168.482 111.896 168.406 111.927 168.315 111.927Z" fill="#003359"/>
<path d="M163.054 117.112C162.963 117.112 162.872 117.082 162.812 117.006C162.675 116.869 162.675 116.657 162.812 116.521L163.918 115.444C164.055 115.308 164.267 115.308 164.404 115.444C164.54 115.581 164.54 115.793 164.404 115.929L163.297 117.006C163.221 117.082 163.13 117.112 163.054 117.112Z" fill="#003359"/>
<path d="M164.191 111.881C164.1 111.881 164.009 111.851 163.949 111.775L162.872 110.668C162.736 110.532 162.751 110.319 162.872 110.183C163.009 110.046 163.221 110.062 163.357 110.183L164.434 111.29C164.57 111.426 164.555 111.638 164.434 111.775C164.358 111.851 164.267 111.881 164.191 111.881Z" fill="#003359"/>
<path d="M169.362 117.188C169.271 117.188 169.18 117.158 169.119 117.082L168.043 115.975C167.906 115.838 167.921 115.626 168.043 115.49C168.179 115.353 168.391 115.368 168.528 115.49L169.604 116.597C169.741 116.733 169.726 116.945 169.604 117.082C169.528 117.158 169.437 117.188 169.362 117.188Z" fill="#003359"/>
<path d="M198.594 249.159C198.412 249.159 198.261 249.008 198.261 248.826C198.261 248.644 198.412 248.492 198.594 248.492L200.141 248.477C200.323 248.477 200.474 248.629 200.474 248.811C200.474 248.993 200.323 249.144 200.141 249.144L198.594 249.159Z" fill="#003359"/>
<path d="M191.21 249.205C191.028 249.205 190.877 249.053 190.877 248.871C190.877 248.689 191.028 248.538 191.21 248.538L192.757 248.523C192.939 248.523 193.09 248.674 193.09 248.856C193.09 249.038 192.939 249.19 192.757 249.19L191.21 249.205Z" fill="#003359"/>
<path d="M195.668 246.248C195.486 246.248 195.334 246.097 195.334 245.915V244.368C195.334 244.186 195.486 244.035 195.668 244.035C195.85 244.035 196.001 244.186 196.001 244.368V245.915C196.001 246.097 195.85 246.248 195.668 246.248Z" fill="#003359"/>
<path d="M195.683 253.663C195.501 253.663 195.35 253.511 195.35 253.329V251.783C195.35 251.601 195.501 251.449 195.683 251.449C195.865 251.449 196.017 251.601 196.017 251.783V253.329C196.017 253.511 195.865 253.663 195.683 253.663Z" fill="#003359"/>
<path d="M219.791 108.833C219.791 108.833 223.248 108.363 224.34 100.57C225.416 92.7767 225.644 85.9386 232.785 83.8159C239.926 81.6932 248.736 85.1198 248.523 92.6706C248.311 100.221 249.433 106.68 253.951 110.031C259.789 114.352 262.078 111.911 272.904 122.449C286.535 135.716 282.578 176.093 243.171 165.009L219.791 108.833Z" fill="#003359"/>
<path d="M229.525 102.162C229.525 102.162 230.708 103.451 233.149 102.996L229.525 102.162Z" fill="white"/>
<path d="M232.133 103.436C230.253 103.436 229.313 102.435 229.267 102.39C229.146 102.253 229.146 102.041 229.298 101.919C229.434 101.798 229.646 101.798 229.768 101.935C229.813 101.98 230.875 103.087 233.088 102.678C233.27 102.647 233.452 102.769 233.482 102.951C233.513 103.132 233.391 103.314 233.209 103.345C232.815 103.405 232.467 103.436 232.133 103.436Z" fill="#003359"/>
<path d="M230.42 255.452C230.42 255.452 228.373 261.729 226.326 263.639C224.279 265.55 216.137 269.325 216.031 273.404C215.894 278.165 218.654 279.044 226.053 277.316C231.39 276.072 235.802 272.812 237.379 270.947C238.774 269.295 238.001 267.9 237.652 265.974C237.228 263.609 237.152 261.198 237.152 258.787V254.86L230.42 255.452Z" fill="white"/>
<path d="M220.488 278.468C218.942 278.468 217.835 278.149 217.062 277.528C216.061 276.709 215.621 275.405 215.682 273.404C215.773 270.265 220.155 267.415 223.354 265.337C224.537 264.564 225.553 263.912 226.098 263.397C228.054 261.562 230.086 255.406 230.101 255.346C230.147 255.224 230.253 255.133 230.389 255.118L237.121 254.527C237.212 254.512 237.303 254.557 237.379 254.618C237.455 254.678 237.485 254.769 237.485 254.86V258.787C237.485 260.925 237.546 263.457 237.97 265.914C238.031 266.293 238.122 266.656 238.198 267.005C238.531 268.4 238.835 269.719 237.622 271.175C236.075 273.009 231.572 276.391 226.114 277.664C223.779 278.195 221.929 278.468 220.488 278.468ZM230.662 255.755C230.283 256.892 228.449 262.093 226.553 263.867C225.962 264.412 224.931 265.095 223.718 265.883C220.64 267.885 216.44 270.614 216.364 273.404C216.319 275.178 216.668 276.315 217.501 276.997C218.79 278.058 221.413 278.043 225.977 276.982C231.284 275.754 235.635 272.494 237.121 270.72C238.122 269.537 237.895 268.537 237.561 267.142C237.47 266.778 237.394 266.414 237.318 266.02C236.879 263.503 236.818 260.94 236.818 258.772V255.209L230.662 255.755Z" fill="#003359"/>
<path d="M216.319 275.708C216.137 275.708 216 275.572 215.985 275.39C215.97 275.208 216.107 275.041 216.304 275.026L218.927 274.829C225.568 274.344 231.784 271.493 236.424 266.778C237.046 266.141 237.394 265.747 237.394 265.732C237.516 265.595 237.728 265.58 237.864 265.701C238.001 265.823 238.016 266.035 237.895 266.171C237.879 266.186 237.531 266.596 236.894 267.248C232.133 272.085 225.765 275.011 218.957 275.511L216.334 275.708H216.319Z" fill="#003359"/>
<path d="M232.178 265.625C232.163 265.625 232.148 265.625 232.118 265.625C231.966 265.595 228.433 264.989 227.008 263.139C226.902 262.987 226.917 262.775 227.069 262.669C227.22 262.563 227.433 262.578 227.539 262.729C228.797 264.367 232.194 264.958 232.224 264.958C232.406 264.989 232.527 265.17 232.497 265.352C232.482 265.504 232.345 265.625 232.178 265.625Z" fill="#003359"/>
<path d="M229.055 267.748C229.025 267.748 229.01 267.748 228.979 267.748C228.843 267.718 225.462 266.99 224.37 265.155C224.279 264.989 224.324 264.792 224.491 264.685C224.658 264.594 224.855 264.64 224.961 264.807C225.901 266.384 229.101 267.081 229.131 267.081C229.313 267.127 229.434 267.293 229.389 267.475C229.358 267.642 229.207 267.748 229.055 267.748Z" fill="#003359"/>
<path d="M225.689 269.75C225.644 269.75 225.613 269.75 225.568 269.734C225.446 269.689 222.672 268.643 221.808 266.808C221.732 266.641 221.792 266.444 221.974 266.353C222.141 266.277 222.338 266.338 222.429 266.52C223.187 268.112 225.795 269.098 225.826 269.098C226.007 269.158 226.083 269.355 226.023 269.537C225.962 269.674 225.826 269.75 225.689 269.75Z" fill="#003359"/>
<path d="M246.203 240.017C246.446 240.017 250.009 239.668 252.071 239.456C252.875 239.38 253.587 239.956 253.663 240.76L254.073 244.489C254.209 245.809 254.482 247.112 254.846 248.386C255.528 250.691 256.514 254.678 255.968 256.498C255.392 258.439 253.557 261.153 252.359 262.684C251.798 263.397 250.873 263.67 250.009 263.397C248.478 262.881 246.037 261.896 244.611 260.47C242.413 258.272 244.793 254.042 244.793 254.042L246.203 240.017Z" fill="white"/>
<path d="M250.691 263.821C250.434 263.821 250.161 263.776 249.918 263.7C248.19 263.124 245.824 262.123 244.384 260.683C242.155 258.454 244.157 254.481 244.475 253.92L245.87 239.986C245.885 239.819 246.037 239.683 246.203 239.683C246.385 239.683 248.569 239.471 252.041 239.122C253.011 239.031 253.906 239.744 254.012 240.714L254.421 244.444C254.558 245.718 254.816 247.006 255.195 248.28C256.013 251.07 256.862 254.769 256.317 256.574C255.74 258.499 253.982 261.168 252.647 262.866C252.147 263.488 251.434 263.821 250.691 263.821ZM246.507 240.335L245.127 254.057C245.127 254.102 245.112 254.148 245.081 254.193C245.066 254.239 242.853 258.226 244.854 260.213C246.264 261.623 248.766 262.608 250.13 263.063C250.843 263.306 251.631 263.063 252.101 262.472C253.496 260.683 255.134 258.12 255.649 256.392C256.165 254.648 255.164 250.691 254.527 248.477C254.148 247.173 253.875 245.839 253.739 244.535L253.33 240.805C253.269 240.198 252.708 239.744 252.101 239.804C249.084 240.092 247.219 240.274 246.507 240.335Z" fill="#003359"/>
<path d="M249.054 263.199C248.993 263.199 248.917 263.184 248.857 263.139C248.705 263.033 248.675 262.82 248.781 262.669C252.981 256.771 252.693 255.239 252.086 251.919C251.95 251.191 251.798 250.357 251.677 249.387C251.343 246.855 250.373 239.865 250.358 239.789C250.327 239.607 250.464 239.44 250.646 239.41C250.828 239.38 250.995 239.516 251.025 239.698C251.04 239.774 252.01 246.748 252.344 249.296C252.465 250.251 252.617 251.07 252.753 251.782C253.375 255.194 253.693 256.907 249.342 263.048C249.266 263.154 249.16 263.199 249.054 263.199Z" fill="#003359"/>
<path d="M249.645 252.525C249.63 252.525 249.615 252.525 249.6 252.525L245.582 251.934C245.4 251.904 245.263 251.737 245.294 251.555C245.324 251.373 245.491 251.237 245.673 251.267L249.691 251.858C249.873 251.889 250.009 252.055 249.979 252.237C249.948 252.404 249.812 252.525 249.645 252.525Z" fill="#003359"/>
<path d="M249.236 255.421C249.221 255.421 249.205 255.421 249.19 255.421L245.172 254.83C244.99 254.8 244.854 254.633 244.884 254.451C244.915 254.269 245.081 254.132 245.263 254.163L249.281 254.754C249.463 254.784 249.6 254.951 249.569 255.133C249.539 255.3 249.403 255.421 249.236 255.421Z" fill="#003359"/>
<path fill-rule="evenodd" clip-rule="evenodd" d="M210.542 170.195L248.038 168.087C248.038 168.087 247.955 169.044 247.796 170.743L248.766 170.559C248.766 170.559 250.813 191.528 248.584 212.634C246.552 231.905 246.476 248.325 246.507 253.541C246.507 254.8 245.9 255.997 244.869 256.71C242.534 258.317 237.576 260.395 229.267 257.908L229.981 242.149C225.135 237.722 219.703 230.085 216.091 224.642C213.438 220.639 211.967 216 211.816 211.208L210.542 170.195Z" fill="url(#paint0_linear_511_1856)"/>
<path d="M229.404 242.761H229.389C229.207 242.746 229.055 242.594 229.07 242.412L230.313 215.833C230.329 215.651 230.48 215.499 230.662 215.514C230.844 215.53 230.996 215.681 230.981 215.863L229.737 242.443C229.737 242.625 229.586 242.761 229.404 242.761Z" fill="white"/>
<path d="M186.495 100.904C186.737 100.858 186.919 100.646 186.919 100.388C186.889 99.0841 186.616 95.1571 184.418 93.3528C181.749 91.1694 179.49 86.1659 177.883 86.6511C176.275 87.1363 179.823 91.4878 179.414 91.973C179.005 92.4582 178.156 90.8055 177.276 89.1832C176.382 87.576 177.185 87.2121 175.896 87.3182C174.122 87.4698 172.955 87.7428 175.29 92.9889C177.519 97.9772 181.946 97.8256 182.537 101.131C182.583 101.419 182.856 101.601 183.144 101.54L186.495 100.904Z" fill="white"/>
<path d="M183.023 101.919C182.856 101.919 182.689 101.874 182.537 101.768C182.356 101.631 182.219 101.449 182.189 101.222C181.931 99.7816 180.87 99.0538 179.52 98.1289C178.034 97.113 176.169 95.8394 174.972 93.1557C173.698 90.2901 173.364 88.698 173.865 87.8489C174.274 87.1515 175.154 87.0757 175.851 87.015C176.715 86.9392 176.958 87.0908 177.094 87.7731C177.155 88.0612 177.231 88.4554 177.564 89.0468L177.761 89.4258C178.095 90.0323 178.535 90.8511 178.883 91.3362C178.732 91.0482 178.55 90.6994 178.383 90.3962C177.488 88.8042 176.882 87.6064 177.185 86.8634C177.291 86.6057 177.488 86.4389 177.777 86.3479C178.944 85.9992 180.081 87.5609 181.537 89.532C182.462 90.7904 183.523 92.2157 184.615 93.1102C186.889 94.96 187.207 98.8264 187.238 100.388C187.253 100.797 186.95 101.161 186.54 101.237L183.174 101.889C183.144 101.904 183.083 101.919 183.023 101.919ZM176.23 87.667C176.154 87.667 176.048 87.667 175.912 87.6822C175.214 87.7428 174.668 87.8186 174.441 88.1825C174.077 88.789 174.456 90.3355 175.593 92.8676C176.715 95.3845 178.413 96.5369 179.899 97.5527C181.324 98.5231 182.553 99.3722 182.856 101.086C182.871 101.146 182.901 101.176 182.932 101.192C182.977 101.222 183.023 101.237 183.068 101.222L186.434 100.57C186.525 100.555 186.586 100.479 186.586 100.388C186.555 99.2357 186.313 95.3391 184.205 93.6106C183.053 92.6705 181.961 91.1998 181.006 89.911C179.869 88.3645 178.686 86.7724 177.974 86.9847C177.868 87.015 177.837 87.0605 177.822 87.106C177.61 87.6064 178.429 89.0771 178.974 90.0626C179.687 91.3362 179.96 91.8669 179.672 92.2005C179.551 92.3521 179.384 92.4279 179.187 92.3976C178.626 92.3369 178.11 91.4424 177.17 89.7291L176.973 89.3652C176.594 88.6829 176.503 88.1977 176.442 87.8944C176.427 87.8186 176.412 87.7125 176.397 87.667C176.366 87.667 176.321 87.667 176.23 87.667Z" fill="#003359"/>
<path d="M265.778 178.549C266.02 178.504 266.248 178.64 266.339 178.852C266.779 179.868 267.991 182.37 269.902 183.31C271.251 183.977 272.464 184.402 274.117 185.963C275.77 187.525 278.59 191.558 277.968 192.559C277.24 193.742 274.89 192.544 273.086 191.437C271.282 190.33 269.493 187.707 267.734 187.434C265.975 187.161 269.69 191.391 269.159 192.059C268.628 192.726 266.733 191.74 265.52 189.739C265.035 188.95 262.184 182.006 261.32 179.898C261.199 179.595 261.381 179.246 261.714 179.186L265.778 178.549Z" fill="white"/>
<path d="M276.967 193.393C275.83 193.393 274.269 192.559 272.904 191.725C272.161 191.27 271.418 190.557 270.706 189.875C269.69 188.905 268.643 187.904 267.688 187.768C267.643 187.768 267.628 187.752 267.597 187.752C267.612 188.086 268.189 189.072 268.552 189.663C269.356 191.012 269.781 191.801 269.432 192.256C269.295 192.422 269.038 192.62 268.583 192.589C267.552 192.529 266.157 191.391 265.247 189.906C264.777 189.117 262.139 182.734 261.017 180.02C260.911 179.777 260.941 179.504 261.062 179.277C261.184 179.049 261.411 178.898 261.669 178.852L265.732 178.216C266.127 178.155 266.506 178.367 266.657 178.716C267.082 179.717 268.264 182.127 270.054 183.007C270.266 183.113 270.478 183.219 270.69 183.31C271.797 183.825 272.934 184.371 274.344 185.706C275.633 186.934 279.09 191.376 278.256 192.726C277.968 193.211 277.513 193.393 276.967 193.393ZM267.597 187.085C267.658 187.085 267.719 187.085 267.794 187.101C268.947 187.282 270.084 188.359 271.176 189.39C271.873 190.042 272.586 190.724 273.268 191.149C275.755 192.665 277.24 193.09 277.68 192.377C278.089 191.725 275.815 188.041 273.89 186.206C272.54 184.932 271.509 184.447 270.402 183.932C270.19 183.825 269.978 183.735 269.75 183.628C267.764 182.643 266.49 180.065 266.036 179.004C266.005 178.928 265.914 178.883 265.838 178.898L261.79 179.535C261.714 179.55 261.684 179.595 261.669 179.626C261.654 179.656 261.639 179.717 261.654 179.777C263.428 184.114 265.459 188.965 265.838 189.572C266.703 190.997 267.946 191.892 268.643 191.937C268.765 191.952 268.856 191.922 268.901 191.877C268.916 191.589 268.34 190.618 267.991 190.027C267.173 188.647 266.733 187.843 267.051 187.358C267.112 187.222 267.279 187.085 267.597 187.085Z" fill="#003359"/>
<path d="M228.752 108.288C225.416 107.529 222.929 106.802 219.518 106.984C215.606 107.196 213.605 106.817 210.36 108.424C204.28 111.456 201.869 119.765 198.306 118.31C194.743 116.854 187.465 97.8257 187.465 97.8257L181.082 100.509C181.082 100.509 189.194 135.731 195.668 137.839C202.142 139.946 210.011 129.879 210.011 129.879C210.011 129.879 210.299 155.412 206.069 172.318C206.069 172.318 212.741 172.287 217.077 174.076C240.199 183.659 249.948 172.318 249.948 172.318C249.797 165.752 248.356 161.249 243.626 153.941C241.033 149.938 240.305 143.479 245.415 137.642C245.415 137.642 257.878 176.123 260.198 180.657C260.365 180.975 268.022 179.262 268.037 179.08C269.28 165.282 259.819 139.537 258.439 133.29C258.015 131.395 257.469 129.545 256.726 127.756C254.391 122.176 249.175 113.033 239.441 110.698L228.752 108.288Z" fill="white"/>
<path d="M260.365 181.021C259.986 181.021 259.94 180.93 259.88 180.793C257.696 176.533 246.886 143.297 245.263 138.309C240.593 144.01 241.579 150.15 243.899 153.744C248.569 160.976 250.115 165.479 250.267 172.302C250.267 172.393 250.237 172.469 250.191 172.53C250.085 172.651 247.629 175.456 242.261 177.109C237.349 178.625 228.964 179.368 216.925 174.38C212.71 172.636 206.13 172.651 206.054 172.651C205.948 172.651 205.857 172.606 205.781 172.515C205.72 172.439 205.69 172.333 205.72 172.227C209.435 157.368 209.647 135.564 209.647 130.803C207.889 132.85 202.627 138.46 197.533 138.46C196.866 138.46 196.199 138.369 195.547 138.142C188.966 135.989 181.067 102.01 180.733 100.57C180.703 100.403 180.779 100.252 180.93 100.176L187.314 97.4921C187.405 97.4618 187.495 97.4618 187.571 97.4921C187.662 97.5224 187.723 97.5982 187.753 97.6892C189.77 102.95 195.592 116.839 198.412 117.991C200.08 118.674 201.566 116.778 203.446 114.398C205.235 112.139 207.267 109.576 210.178 108.121C212.771 106.817 214.605 106.771 217.153 106.726C217.881 106.711 218.623 106.696 219.473 106.65C222.49 106.483 224.81 107.029 227.509 107.651C227.933 107.742 228.358 107.848 228.797 107.954L239.471 110.365C249.448 112.745 254.74 122.191 256.999 127.619C257.712 129.333 258.288 131.167 258.743 133.214C259.061 134.67 259.834 137.217 260.805 140.431C263.989 150.924 269.296 168.497 268.34 179.11C268.31 179.383 268.31 179.429 266.354 179.899C265.293 180.156 264.004 180.429 262.912 180.642C261.487 180.914 260.759 181.021 260.365 181.021ZM245.4 137.293C245.43 137.293 245.445 137.293 245.476 137.293C245.597 137.323 245.688 137.399 245.733 137.52C245.855 137.899 257.969 175.274 260.426 180.338C261.396 180.323 266.703 179.186 267.719 178.837C268.583 168.33 263.337 150.999 260.183 140.613C259.197 137.384 258.424 134.837 258.106 133.351C257.666 131.334 257.105 129.545 256.408 127.862C254.194 122.555 249.024 113.321 239.35 111.002L228.691 108.591C228.236 108.485 227.812 108.394 227.387 108.288C224.628 107.651 222.459 107.135 219.548 107.302C218.684 107.348 217.896 107.363 217.213 107.378C214.666 107.438 212.983 107.469 210.527 108.712C207.752 110.107 205.766 112.609 204.022 114.807C202.036 117.309 200.323 119.477 198.2 118.598C194.758 117.203 188.299 100.858 187.298 98.2502L181.491 100.691C182.265 103.997 189.861 135.564 195.789 137.505C201.96 139.522 209.678 129.757 209.754 129.666C209.845 129.56 209.996 129.515 210.133 129.56C210.269 129.606 210.36 129.727 210.36 129.879C210.36 130.136 210.588 155.23 206.509 171.984C208.071 172.014 213.453 172.211 217.213 173.773C229.04 178.67 237.243 177.958 242.049 176.487C246.704 175.062 249.145 172.697 249.63 172.196C249.463 165.601 247.932 161.188 243.368 154.123C240.851 150.241 239.82 143.524 245.188 137.414C245.218 137.338 245.309 137.293 245.4 137.293Z" fill="#003359"/>
<path d="M224.628 171.954C224.506 171.954 224.385 171.878 224.324 171.772L215.166 153.107C215.091 152.94 215.151 152.743 215.318 152.652C215.485 152.561 215.682 152.637 215.773 152.804L224.931 171.468C225.007 171.635 224.946 171.832 224.779 171.923C224.734 171.938 224.673 171.954 224.628 171.954Z" fill="#003359"/>
<path d="M216.622 165.783C216.486 165.783 216.364 165.707 216.304 165.57L213.802 159.49C213.726 159.324 213.817 159.126 213.984 159.051C214.151 158.975 214.348 159.066 214.424 159.233L216.925 165.313C217.001 165.479 216.91 165.676 216.743 165.752C216.698 165.783 216.652 165.783 216.622 165.783Z" fill="#003359"/>
<path d="M184.311 97.4011H176.548C176.003 97.4011 175.548 96.9766 175.533 96.4307L174.79 82.2693C174.759 81.6779 175.229 81.1927 175.805 81.1927H184.963C185.555 81.1927 186.01 81.6779 185.979 82.2693L185.312 96.4307C185.312 96.9766 184.857 97.4011 184.311 97.4011Z" fill="#003359"/>
<path d="M184.19 95.4603C184.084 95.4603 183.978 95.4148 183.917 95.3238C183.811 95.1722 183.841 94.9599 183.993 94.8538C189.057 91.1694 190.573 86.2265 189.391 84.4374C188.617 83.2699 186.783 83.4215 184.372 84.8619C184.205 84.9529 184.008 84.9074 183.902 84.7406C183.811 84.5739 183.857 84.3767 184.023 84.2706C187.95 81.9205 189.482 83.3306 189.952 84.0583C191.483 86.3933 189.436 91.7304 184.387 95.3996C184.327 95.4451 184.266 95.4603 184.19 95.4603Z" fill="#003359"/>
<path d="M175.593 94.7023C172.106 89.5623 172.743 87.1515 174.729 85.6201C174.85 85.5291 175.017 85.5291 175.138 85.6201C178.974 88.3038 179.93 91.3211 177.17 94.7781C176.746 95.2784 175.957 95.233 175.593 94.7023Z" fill="white"/>
<path d="M176.397 95.4603C176.382 95.4603 176.366 95.4603 176.336 95.4603C175.912 95.4452 175.533 95.2329 175.29 94.8842C172.151 90.2749 171.909 87.3334 174.502 85.3472C174.729 85.1652 175.063 85.1652 175.305 85.332C177.519 86.8785 178.777 88.5464 179.02 90.2597C179.232 91.7759 178.686 93.3528 177.398 94.9751C177.17 95.2935 176.791 95.4603 176.397 95.4603ZM174.926 85.893C173.41 87.0453 172.167 89.0619 175.866 94.5051C175.987 94.6719 176.169 94.778 176.382 94.7932C176.594 94.8083 176.776 94.7174 176.897 94.5657C178.065 93.1102 178.565 91.7001 178.368 90.381C178.14 88.8345 176.988 87.3334 174.926 85.893Z" fill="#003359"/>
<path d="M229.692 102.329C227.311 100.691 230.025 90.8359 232.724 89.3803C235.438 87.9247 241.109 89.5168 241.109 89.5168C239.001 96.4459 242.792 98.1592 243.323 98.1592C243.853 98.1592 245.536 98.2653 244.475 100.509C243.414 102.753 241.048 101.525 241.048 101.525C240.578 101.95 239.669 102.42 238.577 102.829C237.258 106.726 238.698 109.789 239.941 111.517C240.563 112.397 240.123 113.64 239.077 113.882C237.394 114.277 234.832 114.519 231.602 113.67C229.131 113.018 227.478 112.124 226.386 111.29C225.492 110.607 225.628 109.197 226.659 108.727C229.419 107.484 231.269 103.42 229.692 102.329Z" fill="white"/>
<path d="M235.893 114.595C234.635 114.595 233.164 114.443 231.527 114.004C229.358 113.428 227.569 112.609 226.205 111.563C225.689 111.168 225.416 110.532 225.492 109.88C225.568 109.228 225.962 108.682 226.538 108.424C228.403 107.56 229.813 105.361 229.935 103.845C229.965 103.436 229.919 102.875 229.51 102.587C228.722 102.041 228.358 100.767 228.464 98.887C228.661 95.3239 230.541 90.1536 232.573 89.0619C235.363 87.5608 240.973 89.1074 241.215 89.168C241.306 89.1984 241.382 89.2438 241.427 89.3348C241.473 89.4258 241.488 89.5016 241.458 89.5926C240.305 93.368 240.973 95.4603 241.731 96.5369C242.383 97.4618 243.186 97.7953 243.353 97.7953C244.339 97.7953 244.778 98.1744 244.975 98.4776C245.294 98.978 245.233 99.7058 244.809 100.615C244.475 101.328 243.975 101.813 243.323 102.026C242.428 102.329 241.518 102.041 241.124 101.889C240.609 102.283 239.82 102.693 238.865 103.057C237.713 106.665 238.971 109.516 240.23 111.29C240.594 111.805 240.685 112.457 240.457 113.048C240.245 113.625 239.76 114.049 239.168 114.186C238.319 114.428 237.212 114.595 235.893 114.595ZM229.874 102.056C230.405 102.42 230.662 103.087 230.586 103.921C230.435 105.619 228.949 108.06 226.796 109.046C226.432 109.212 226.189 109.561 226.144 109.971C226.098 110.395 226.265 110.789 226.599 111.032C227.903 112.017 229.616 112.806 231.693 113.352C234.908 114.201 237.44 113.943 239.002 113.564C239.381 113.473 239.684 113.215 239.82 112.836C239.957 112.457 239.911 112.048 239.669 111.714C238.289 109.789 236.924 106.665 238.259 102.723C238.289 102.632 238.365 102.556 238.456 102.511C239.487 102.132 240.381 101.662 240.821 101.267C240.927 101.176 241.079 101.161 241.2 101.222C241.215 101.222 242.201 101.722 243.095 101.419C243.565 101.267 243.929 100.904 244.187 100.358C244.505 99.6754 244.581 99.1599 244.399 98.8718C244.248 98.6292 243.884 98.4928 243.338 98.4928C243.019 98.4928 242.049 98.1289 241.245 97.0524C240.366 95.8697 239.593 93.656 240.7 89.7442C239.456 89.441 235.09 88.5009 232.891 89.6684C231.269 90.5478 229.328 95.3087 229.131 98.9325C229.04 100.555 229.298 101.647 229.874 102.056Z" fill="#003359"/>
<path d="M163.676 36.0853C163.236 30.3692 163.676 22.2119 168.588 15.4041C182.174 -3.41217 221.808 -0.652648 229.51 14.7066C233.422 22.5 229.192 33.72 222.869 39.891C213.529 49.0187 197.776 48.9277 188.148 43.439C178.99 38.208 176.139 28.5194 170.332 29.414C167.102 29.9295 164.949 33.3865 163.676 36.0853Z" fill="white"/>
<path d="M203.34 47.5631C197.806 47.5631 192.317 46.2137 187.981 43.7422C183.75 41.3314 180.915 38.0564 178.413 35.1604C175.593 31.8854 173.349 29.3078 170.377 29.7627C167.982 30.1266 165.829 32.3099 163.979 36.2369C163.918 36.3734 163.767 36.4492 163.615 36.4189C163.464 36.3886 163.357 36.2673 163.342 36.1156C162.69 27.7158 164.358 20.6805 168.315 15.207C171.803 10.3703 177.291 6.61004 184.175 4.33571C190.316 2.30398 197.563 1.50039 204.553 2.06139C216.759 3.04693 226.447 7.82302 229.813 14.555C233.816 22.5455 229.555 33.8413 223.111 40.1336C218.745 44.4094 212.543 47.0173 205.645 47.4873C204.871 47.5328 204.113 47.5631 203.34 47.5631ZM171.105 29.0197C174.032 29.0197 176.23 31.5518 178.944 34.7056C181.416 37.5561 184.205 40.7856 188.329 43.1509C197.654 48.4728 213.438 48.6548 222.641 39.6484C228.782 33.6594 233.028 22.4697 229.207 14.8583C225.947 8.33853 216.47 3.6989 204.492 2.74368C192.999 1.81879 176.776 4.63896 168.861 15.6012C165.207 20.6654 163.554 27.1245 163.934 34.8117C165.768 31.385 167.906 29.4594 170.286 29.0804C170.559 29.0501 170.832 29.0197 171.105 29.0197Z" fill="#003359"/>
<path d="M216.046 20.5592H182.674C182.492 20.5592 182.34 20.4076 182.34 20.2257C182.34 20.0437 182.492 19.8921 182.674 19.8921H216.046C216.228 19.8921 216.38 20.0437 216.38 20.2257C216.38 20.4076 216.228 20.5592 216.046 20.5592Z" fill="#003359"/>
<path d="M207.161 26.427H190.361C190.179 26.427 190.028 26.2754 190.028 26.0935C190.028 25.9115 190.179 25.7599 190.361 25.7599H207.161C207.343 25.7599 207.495 25.9115 207.495 26.0935C207.495 26.2754 207.343 26.427 207.161 26.427Z" fill="#003359"/>
<path d="M251.207 72.5959C252.056 71.3981 261.623 57.464 255.619 41.5589C251.404 30.3995 240.669 21.3477 228.206 20.8625C226.098 20.7867 212.847 20.256 205.736 30.8544C200.944 37.9806 200.414 47.9422 205.084 55.1897C210.618 63.8018 221.186 65.0299 222.748 65.1816C233.725 66.2884 239.775 59.238 245.764 62.6495C249.418 64.7267 250.692 69.3663 251.207 72.5959Z" fill="white"/>
<path d="M251.207 72.9294C251.177 72.9294 251.162 72.9294 251.131 72.9142C250.995 72.8839 250.904 72.7778 250.874 72.6413C250.085 67.7439 248.311 64.4841 245.597 62.9375C242.64 61.2545 239.653 62.2401 235.878 63.4834C232.224 64.6812 228.1 66.0609 222.717 65.5151C219.852 65.227 210.118 63.6502 204.796 55.3564C200.201 48.2151 200.474 38.0564 205.463 30.6421C211.982 20.9535 223.551 20.3166 228.221 20.4986C234.256 20.7412 240.124 22.9549 245.203 26.9122C249.994 30.6572 253.8 35.7972 255.923 41.4072C261.942 57.3427 252.557 71.2312 251.48 72.7626C251.404 72.8688 251.313 72.9294 251.207 72.9294ZM242.17 61.3758C243.444 61.3758 244.687 61.6487 245.931 62.3462C248.675 63.9079 250.51 67.0465 251.389 71.7013C253.512 68.4414 260.668 55.8871 255.286 41.665C250.828 29.884 239.942 21.6509 228.176 21.196C223.612 21.0141 212.316 21.6206 205.993 31.0363C201.157 38.2232 200.899 48.0786 205.341 55.0077C210.633 63.2408 220.777 64.6509 222.763 64.848C228.009 65.3786 232.072 64.0292 235.651 62.8466C237.986 62.0884 240.124 61.3758 242.17 61.3758Z" fill="#003359"/>
<path d="M244.991 41.0585H213.605C213.423 41.0585 213.271 40.9069 213.271 40.7249C213.271 40.543 213.423 40.3914 213.605 40.3914H244.991C245.173 40.3914 245.324 40.543 245.324 40.7249C245.339 40.9069 245.188 41.0585 244.991 41.0585Z" fill="#003359"/>
<path d="M234.862 45.1522H223.642C223.46 45.1522 223.309 45.0006 223.309 44.8187C223.309 44.6367 223.46 44.4851 223.642 44.4851H234.862C235.044 44.4851 235.196 44.6367 235.196 44.8187C235.196 45.0006 235.044 45.1522 234.862 45.1522Z" fill="#003359"/>
<path d="M20.848 264.746H140.25C145.33 264.746 149.454 260.561 149.454 255.406L137.809 10.4157C137.809 5.26057 133.685 1.07581 128.606 1.07581H9.20345C4.12411 1.07581 0 5.26057 0 10.4157L11.6446 255.421C11.6446 260.577 15.7535 264.746 20.848 264.746Z" fill="#003359"/>
<path d="M28.9295 264.807H148.347C153.426 264.807 157.55 260.652 157.55 255.512L145.906 10.9464C145.906 5.80641 141.782 1.65198 136.702 1.65198H17.3001C12.2207 1.65198 8.09662 5.80641 8.09662 10.9464L19.7412 255.512C19.7412 260.637 23.8501 264.807 28.9295 264.807Z" fill="white"/>
<path d="M136.429 264.822H111.836C111.654 264.822 111.503 264.67 111.503 264.488C111.503 264.306 111.654 264.155 111.836 264.155H136.429C136.611 264.155 136.763 264.306 136.763 264.488C136.778 264.67 136.626 264.822 136.429 264.822Z" fill="#003359"/>
<path d="M98.9484 264.822H28.9295C23.6682 264.822 19.3925 260.501 19.3925 255.194L14.9651 172.408C14.9499 172.226 15.1016 172.06 15.2835 172.06C15.4655 172.06 15.6322 172.196 15.6322 172.378L20.0596 255.179C20.0596 260.137 24.0321 264.155 28.9143 264.155H98.9332C99.1152 264.155 99.2668 264.306 99.2668 264.488C99.282 264.67 99.1303 264.822 98.9484 264.822Z" fill="#003359"/>
<path d="M11.9175 94.3687C11.7355 94.3687 11.5839 94.2323 11.5839 94.0503L7.74786 10.6583C7.76303 5.32122 12.0388 1 17.3 1H136.717C141.979 1 146.254 5.32122 146.254 10.628L147.164 32.8709C147.164 33.0529 147.028 33.2196 146.846 33.2196C146.649 33.2348 146.497 33.0832 146.497 32.9012L145.587 10.6431C145.587 5.68511 141.615 1.66714 136.733 1.66714H17.3C12.4027 1.6823 8.43016 5.70028 8.43016 10.628L12.2662 94.0048C12.2814 94.1868 12.1297 94.3536 11.9478 94.3536C11.9326 94.3687 11.9326 94.3687 11.9175 94.3687Z" fill="#003359"/>
<path d="M34.4788 257.817H143.525C148.165 257.817 151.925 254.011 151.925 249.326L140.432 17.724C140.432 13.0389 136.672 9.23315 132.032 9.23315H22.9859C18.3463 9.23315 14.5861 13.0389 14.5861 17.724L26.079 249.326C26.079 254.011 29.8392 257.817 34.4788 257.817Z" fill="white"/>
<path d="M143.525 258.151H34.4788C29.6572 258.151 25.7454 254.193 25.7454 249.326L14.2373 17.7391C14.2373 12.8569 18.1643 8.89954 22.9707 8.89954H132.017C136.839 8.89954 140.751 12.8569 140.751 17.7239L152.243 249.311C152.259 254.193 148.347 258.151 143.525 258.151ZM22.9859 9.58183C18.5434 9.58183 14.9196 13.2359 14.9196 17.7239L26.4125 249.311C26.4125 253.814 30.0363 257.483 34.4788 257.483H143.525C147.968 257.483 151.591 253.829 151.591 249.341L140.099 17.7391C140.099 13.2359 136.475 9.56667 132.032 9.56667H22.9859V9.58183Z" fill="#003359"/>
<path d="M22.5462 83.2396C22.3642 83.2396 22.2126 83.1032 22.2126 82.9212L21.1664 60.9512C21.1512 60.7693 21.3028 60.6025 21.4848 60.6025C21.6667 60.5873 21.8335 60.7389 21.8335 60.9209L22.8797 82.8909C22.8949 83.0729 22.7433 83.2396 22.5613 83.2396C22.5462 83.2396 22.5462 83.2396 22.5462 83.2396Z" fill="#003359"/>
<path d="M137.688 62.9982C137.506 62.9982 137.354 62.8617 137.354 62.6798L135.414 21.8177C135.414 17.4662 132.093 13.9334 127.999 13.9334H27.3981C23.3043 13.9334 19.9838 17.4662 19.9838 21.8025L21.4545 52.8395C21.4697 53.0215 21.3181 53.1882 21.1361 53.1882C20.9542 53.1882 20.7874 53.0518 20.7874 52.8698L19.3167 21.8177C19.3167 17.0871 22.9404 13.2662 27.3981 13.2662H127.999C132.457 13.2662 136.081 17.1023 136.081 21.8025L138.021 62.6494C138.037 62.8314 137.885 62.9982 137.703 62.9982H137.688Z" fill="#003359"/>
<path d="M146.3 210.602C146.118 210.602 145.966 210.466 145.966 210.284L144.329 175.835C144.314 175.653 144.465 175.486 144.647 175.486C144.814 175.471 144.996 175.623 144.996 175.805L146.634 210.253C146.649 210.435 146.497 210.602 146.315 210.602H146.3Z" fill="white"/>
<path d="M128.833 254.102H63.9844C63.8025 254.102 63.6509 253.951 63.6509 253.769C63.6509 253.587 63.8025 253.435 63.9844 253.435H128.833C129.015 253.435 129.167 253.587 129.167 253.769C129.167 253.951 129.015 254.102 128.833 254.102Z" fill="#003359"/>
<path d="M55.8726 254.102H37.9964C33.5387 254.102 29.915 250.266 29.915 245.566L28.5049 215.681C28.4897 215.499 28.6414 215.333 28.8233 215.333C29.0052 215.317 29.172 215.469 29.172 215.651L30.5821 245.551C30.5821 249.902 33.9026 253.435 37.9964 253.435H55.8726C56.0546 253.435 56.2062 253.587 56.2062 253.769C56.2062 253.951 56.0546 254.102 55.8726 254.102Z" fill="#003359"/>
<path d="M97.2047 1.66711L94.9152 5.50315C93.5203 7.82296 91.1702 9.21788 88.6684 9.21788H65.44C62.9837 9.21788 60.6942 7.88361 59.2841 5.63961L56.7823 1.66711H97.2047Z" fill="#003359"/>
<path d="M152.107 147.391C151.925 147.391 151.773 147.254 151.773 147.073L150.09 113.625C150.075 113.443 150.227 113.276 150.409 113.276C150.591 113.276 150.758 113.412 150.758 113.594L152.441 147.042C152.456 147.224 152.304 147.391 152.122 147.391H152.107Z" fill="#003359"/>
<path d="M80.3292 179.489C113.532 179.489 140.447 152.574 140.447 119.371C140.447 86.1689 113.532 59.2532 80.3292 59.2532C47.127 59.2532 20.2112 86.1689 20.2112 119.371C20.2112 152.574 47.127 179.489 80.3292 179.489Z" fill="white"/>
<path d="M80.3292 179.823C47.0028 179.823 19.8776 152.713 19.8776 119.371C19.8776 86.0295 46.9876 58.9196 80.3292 58.9196C113.671 58.9196 140.781 86.0295 140.781 119.371C140.781 152.713 113.656 179.823 80.3292 179.823ZM80.3292 59.6019C47.3667 59.6019 20.5599 86.4238 20.5599 119.371C20.5599 152.319 47.3667 179.156 80.3292 179.156C113.292 179.156 140.099 152.334 140.099 119.371C140.099 86.4086 113.292 59.6019 80.3292 59.6019Z" fill="#003359"/>
<path d="M113.747 161.188L57.9044 164.327C57.9044 164.327 57.8741 169.224 57.7528 174.819C65.6978 178.701 74.5677 179.474 84.0137 179.474C95.3853 179.474 105.923 173.955 114.99 168.481L113.747 161.188Z" fill="url(#paint1_linear_511_1856)"/>
<path d="M161.144 53.173C161.007 52.0359 161.659 50.7774 161.887 49.6403C162.387 47.1688 162.812 44.6519 162.736 42.1198C162.675 39.891 162.569 37.8744 161.659 35.8427C161.038 34.4629 160.037 32.7193 158.111 32.9012C156.716 33.0377 155.427 33.9171 154.654 35.0542C153.593 36.6311 153.35 38.6022 153.411 40.4975C153.456 42.1956 154.078 44.2728 153.714 45.9407C153.335 47.7147 152.304 47.563 151.409 46.1833C149.165 42.7111 145.436 42.0592 146.755 43.2873C148.074 44.5154 150.439 49.428 151.319 50.7774C151.637 51.2626 152.622 51.8691 153.729 52.4301C153.744 55.6445 153.335 60.5722 151.061 65.9396C148.347 72.338 144.086 76.7502 140.568 79.5704C143.449 84.6194 149.726 92.8525 160.477 94.2171C162.008 91.1846 163.191 88.0006 164.024 84.7104C165.51 78.8729 165.844 72.7626 165.04 66.8038C164.631 63.7866 163.933 60.8148 162.948 57.934C162.448 56.4784 161.75 55.0835 161.25 53.6431C161.189 53.4915 161.159 53.3398 161.144 53.173Z" fill="white"/>
<path d="M160.461 94.5658C160.446 94.5658 160.431 94.5658 160.416 94.5658C149.438 93.1709 143.07 84.6801 140.25 79.7524C140.174 79.6007 140.205 79.4188 140.326 79.3278C145.026 75.5524 148.529 71.0189 150.727 65.8335C152.471 61.7245 153.35 57.2972 153.365 52.6575C152.077 51.9904 151.303 51.4446 151 50.9897C150.712 50.55 150.272 49.7464 149.772 48.8215C148.756 46.9414 147.346 44.3638 146.497 43.5754C146.376 43.4693 146.027 43.1357 146.133 42.7718C146.163 42.6808 146.27 42.4686 146.603 42.4231C147.483 42.3018 149.999 43.4389 151.667 46.0317C152.137 46.7595 152.562 46.9717 152.759 46.9262C153.002 46.8808 153.229 46.5017 153.35 45.8952C153.578 44.8793 153.396 43.6664 153.244 42.4989C153.153 41.8317 153.062 41.1495 153.032 40.5278C152.956 38.1322 153.396 36.2976 154.336 34.8875C155.2 33.5987 156.625 32.7193 158.035 32.5828C160.128 32.3857 161.204 34.1597 161.917 35.7214C162.827 37.738 162.963 39.7242 163.024 42.1198C163.1 44.5306 162.736 46.9111 162.175 49.7161C162.099 50.1255 161.962 50.5348 161.841 50.9442C161.614 51.6872 161.371 52.4604 161.447 53.1427C161.462 53.2944 161.492 53.4157 161.538 53.5521C161.78 54.2496 162.069 54.947 162.357 55.6142C162.66 56.342 162.978 57.0849 163.236 57.843C164.222 60.739 164.934 63.7411 165.344 66.7735C166.147 72.7474 165.798 78.9791 164.328 84.8165C163.494 88.1219 162.281 91.3514 160.749 94.399C160.719 94.49 160.598 94.5658 160.461 94.5658ZM140.993 79.6614C143.798 84.483 149.908 92.4279 160.279 93.8684C161.735 90.9269 162.887 87.8338 163.691 84.6497C165.146 78.9033 165.495 72.7626 164.707 66.8645C164.297 63.8776 163.6 60.9209 162.63 58.0704C162.372 57.3275 162.069 56.5997 161.765 55.8871C161.477 55.2048 161.174 54.4922 160.931 53.7795C160.871 53.6128 160.825 53.4157 160.81 53.2337C160.719 52.415 160.977 51.5659 161.235 50.7623C161.356 50.3529 161.477 49.9738 161.553 49.5948C162.099 46.8353 162.463 44.5155 162.387 42.1502C162.311 39.7545 162.205 37.9047 161.341 36.0095C160.719 34.6449 159.794 33.1135 158.142 33.2651C156.929 33.3864 155.7 34.1445 154.942 35.2665C154.078 36.5553 153.684 38.2686 153.745 40.5126C153.76 41.104 153.851 41.7408 153.942 42.4231C154.108 43.6512 154.29 44.9248 154.048 46.0468C153.79 47.1992 153.29 47.5327 152.911 47.5934C152.334 47.6995 151.698 47.275 151.121 46.3956C149.727 44.2274 147.816 43.2873 147.028 43.1054C147.968 44.0151 149.302 46.4865 150.394 48.4879C150.894 49.3977 151.319 50.1861 151.591 50.6107C151.728 50.8229 152.213 51.3081 153.881 52.142C154.002 52.2027 154.063 52.3088 154.063 52.4453C154.078 57.2517 153.168 61.8307 151.364 66.0912C149.15 71.2919 145.663 75.8557 140.993 79.6614Z" fill="#003359"/>
<path d="M140.553 79.5856C138.294 81.405 136.338 82.5725 135.292 83.179C118.174 93.3528 107.742 81.6931 79.6925 82.4361C69.4428 82.709 62.4076 81.2534 44.1068 89.1984C44.1068 89.1984 10.7803 99.8877 10.7803 134.018C10.7803 143.585 17.0878 151.697 24.5173 154.29C31.1583 145.981 33.281 141.235 38.4816 139.203C38.4513 138.809 34.8427 136.338 34.873 135.943C35.7676 127.271 38.6939 124.799 42.0599 123.192C43.6065 122.464 45.4108 123.344 45.5927 125.042C46.3811 132.486 45.2743 138.415 46.9421 156.109C47.9125 166.389 48.9435 167.89 49.9291 168.906C56.4488 175.547 67.5779 166.662 93.5659 166.268C105.908 166.086 114.035 167.92 116.355 163.66C118.022 160.582 115.248 156.943 113.216 151.606C110.714 144.995 108.971 134.806 113.337 119.674C130.637 121.6 147.634 113.822 157.368 99.5087C158.521 97.8105 159.552 96.0669 160.461 94.2626C149.711 92.8525 143.434 84.6194 140.553 79.5856Z" fill="white"/>
<path d="M56.4185 171.681C53.7045 171.681 51.5514 170.998 49.7016 169.118C48.5796 167.981 47.5638 166.207 46.6237 156.124C45.6382 145.617 45.623 139.325 45.6079 134.26C45.5927 130.803 45.5927 128.074 45.2743 125.057C45.1985 124.405 44.8346 123.844 44.2736 123.526C43.6519 123.177 42.8938 123.162 42.2267 123.48C39.1943 124.921 36.1618 127.058 35.2369 135.883C35.4189 136.141 36.3741 136.899 37.0109 137.399C38.4361 138.536 38.8 138.855 38.8304 139.143C38.8455 139.294 38.7545 139.431 38.6181 139.491C34.9337 140.947 32.8413 143.767 29.3692 148.467C28.0804 150.226 26.6096 152.212 24.7902 154.472C24.6992 154.578 24.5476 154.623 24.4111 154.578C16.3297 151.773 10.4619 143.115 10.4619 134.003C10.4619 116.248 19.5895 104.922 27.2465 98.5383C35.5402 91.6396 43.94 88.8952 44.0158 88.8649C59.4964 82.148 67.0623 82.148 75.0831 82.1329C76.569 82.1329 78.0853 82.1329 79.6773 82.0874C91.1854 81.7841 99.5852 83.5278 106.984 85.0592C117.492 87.2425 125.088 88.8194 135.095 82.8758C136.126 82.2542 138.052 81.117 140.311 79.3127C140.387 79.2521 140.493 79.2217 140.584 79.2369C140.675 79.2521 140.766 79.3127 140.811 79.4037C143.571 84.2252 149.787 92.519 160.477 93.8836C160.583 93.8987 160.674 93.9594 160.734 94.0655C160.78 94.1565 160.78 94.2778 160.734 94.3687C159.809 96.2034 158.763 97.9773 157.626 99.6452C147.862 114.049 131.001 121.827 113.595 120.008C110.199 131.971 110.184 142.554 113.55 151.454C114.08 152.88 114.672 154.153 115.233 155.381C116.764 158.747 117.977 161.401 116.673 163.796C114.884 167.102 109.971 166.95 102.542 166.723C99.8885 166.632 96.8864 166.541 93.5962 166.601C82.0426 166.783 73.2485 168.679 66.8501 170.058C62.6047 170.953 59.2083 171.681 56.4185 171.681ZM43.2122 122.57C43.6974 122.57 44.1674 122.692 44.592 122.934C45.3501 123.359 45.8504 124.117 45.9414 124.981C46.2598 128.029 46.275 130.773 46.275 134.245C46.2902 139.294 46.3053 145.571 47.2909 156.048C48.2157 165.904 49.1861 167.632 50.1868 168.633C53.6741 172.181 58.5715 171.12 66.6985 169.361C73.1424 167.966 81.9516 166.071 93.581 165.889C96.8864 165.843 99.9036 165.934 102.557 166.01C109.744 166.237 114.474 166.389 116.067 163.448C117.204 161.34 116.067 158.823 114.611 155.624C114.065 154.441 113.459 153.107 112.913 151.667C109.456 142.569 109.501 131.759 113.019 119.523C113.064 119.371 113.216 119.265 113.383 119.28C130.637 121.191 147.392 113.519 157.095 99.2661C158.126 97.7499 159.082 96.1427 159.946 94.4749C149.499 92.9283 143.328 84.9682 140.447 80.0557C138.294 81.7538 136.46 82.8455 135.459 83.4368C125.24 89.5472 117.537 87.94 106.878 85.7263C99.5094 84.1949 91.1551 82.4664 79.7228 82.7697C78.1156 82.8152 76.5842 82.8152 75.1135 82.8152C67.1685 82.8152 59.6632 82.8152 44.2736 89.5017C44.1523 89.5472 35.8586 92.246 27.671 99.069C20.1354 105.346 11.1442 116.506 11.1442 134.003C11.1442 142.751 16.7239 151.06 24.4263 153.865C26.1548 151.697 27.58 149.771 28.8385 148.073C32.25 143.464 34.3575 140.613 37.951 139.052C37.6325 138.764 37.0564 138.294 36.6015 137.93C34.8427 136.535 34.5395 136.216 34.5698 135.883C35.525 126.649 38.8758 124.329 41.9538 122.874C42.348 122.677 42.7877 122.57 43.2122 122.57Z" fill="#003359"/>
<path d="M69.0031 137.065C68.9424 137.065 68.8818 137.05 68.8211 137.02C61.9982 132.82 58.8293 126.194 60.5578 123.071C61.0884 122.131 62.8776 120.205 68.0933 122.813C68.2601 122.904 68.3208 123.101 68.245 123.268C68.1692 123.435 67.9569 123.495 67.7901 123.42C64.4696 121.767 62.0588 121.767 61.1339 123.404C59.7693 125.861 62.2104 132.168 69.1547 136.444C69.3063 136.535 69.367 136.747 69.2608 136.914C69.2305 137.02 69.1092 137.065 69.0031 137.065Z" fill="#003359"/>
<path d="M69.079 139.689L79.086 138.915C79.7834 138.855 80.3293 138.263 80.3141 137.566L79.8592 119.22C79.8441 118.461 79.1921 117.87 78.434 117.931L66.6075 118.841C65.8494 118.901 65.3036 119.568 65.3946 120.326L67.6537 138.536C67.7447 139.234 68.3663 139.734 69.079 139.689Z" fill="#003359"/>
<path d="M76.7055 128.984C76.6448 128.847 76.569 128.726 76.478 128.605C74.6889 126.24 70.7619 128.696 68.715 129.348C67.1078 129.863 65.5006 130.379 63.8934 130.894L57.7679 138.127C54.4474 139.006 44.3494 142.402 36.9654 137.596C34.585 136.05 31.4161 136.701 29.7331 138.976C27.2161 142.372 24.8508 146.799 23.3195 153.729C35.1763 157.277 52.1124 152.94 59.739 146.148C63.2111 146.284 65.9252 142.918 68.0024 140.598C69.1699 139.294 70.2767 137.733 71.7626 136.762C73.1272 135.883 74.7799 135.337 75.8109 134.003C76.4629 133.154 76.7661 132.077 76.9026 131.001C76.9784 130.318 76.9784 129.59 76.7055 128.984Z" fill="white"/>
<path d="M32.8262 155.351C29.4905 155.351 26.2154 154.942 23.2133 154.047C23.0466 154.002 22.9404 153.82 22.9859 153.653C24.305 147.694 26.3519 142.964 29.4602 138.779C31.2796 136.322 34.6608 135.686 37.1474 137.308C43.8339 141.66 52.9009 139.127 56.7672 138.051C57.0553 137.975 57.3282 137.899 57.5557 137.839L63.6205 130.682C63.666 130.637 63.7115 130.591 63.7722 130.576L68.5937 129.029C69.0031 128.893 69.5035 128.696 70.019 128.468C72.172 127.559 75.1286 126.315 76.7206 128.408C76.8268 128.544 76.9178 128.696 76.9936 128.863C77.2513 129.439 77.3271 130.136 77.2058 131.061C77.0391 132.395 76.6752 133.426 76.0535 134.23C75.2954 135.2 74.2341 135.777 73.2182 136.322C72.7785 136.55 72.3388 136.792 71.9294 137.065C70.8377 137.763 69.9432 138.824 69.0789 139.855C68.7908 140.189 68.5179 140.522 68.2298 140.841L67.8053 141.326C65.7584 143.646 63.2112 146.511 59.921 146.511C59.8906 146.511 59.8603 146.511 59.8452 146.511C54.2048 151.439 43.1971 155.351 32.8262 155.351ZM23.7137 153.486C35.8889 156.973 52.2792 152.319 59.4964 145.89C59.5571 145.829 59.648 145.799 59.739 145.799C62.8169 145.905 65.3035 143.1 67.3049 140.841L67.7446 140.356C68.0327 140.037 68.3056 139.719 68.5786 139.385C69.4731 138.324 70.398 137.232 71.5655 136.459C71.9901 136.186 72.4601 135.928 72.8998 135.701C73.9005 135.155 74.8557 134.655 75.5228 133.79C76.0687 133.093 76.4022 132.168 76.5387 130.955C76.6297 130.167 76.5842 129.575 76.3719 129.12C76.3264 128.999 76.2506 128.893 76.1748 128.802C74.9012 127.134 72.3388 128.211 70.2767 129.075C69.7309 129.302 69.2305 129.515 68.7908 129.651L64.0602 131.167L57.9954 138.339C57.9499 138.4 57.8892 138.43 57.8286 138.445C57.5708 138.506 57.2676 138.597 56.934 138.688C52.9767 139.795 43.6974 142.387 36.7532 137.869C34.5546 136.429 31.5829 137.005 29.9757 139.173C27.019 143.206 25.0176 147.755 23.7137 153.486Z" fill="#003359"/>
<path d="M74.7951 66.6219C72.7633 67.6529 71.2168 67.8046 70.11 67.7287C66.1071 67.5013 63.5447 64.2718 63.0292 63.635C60.3758 60.2993 59.1022 54.8257 61.3462 51.6113C62.9686 49.2915 65.0003 50.1709 66.8652 47.5782C68.9879 44.6367 66.8046 42.2411 68.7605 39.6635C71.0045 36.7069 75.9626 36.9343 76.8571 36.9647C79.9199 37.1011 80.2838 38.6174 83.1646 38.5415C86.1212 38.4657 86.5003 36.9798 89.2143 36.9647C91.3673 36.9495 94.5059 37.8744 95.9008 40.361C97.6597 43.4844 95.8554 47.5934 93.763 49.7616C91.2461 52.3695 89.4872 50.9745 85.9696 53.0972C79.8744 56.7816 81.33 63.3317 74.7951 66.6219Z" fill="#003359"/>
<path d="M86.1515 80.5105L84.4988 70.2457C84.8627 70.2002 87.8952 69.6695 88.2439 69.5027C91.064 68.1078 90.2756 61.0271 90.2756 61.0271L91.8373 59.1621L87.1825 48.7002C82.2245 52.8395 80.4505 48.776 75.5531 50.8077C70.6406 52.8546 73.294 58.313 73.294 58.313C73.294 58.313 69.2911 56.5542 70.1402 60.4206C70.7922 63.3469 72.9149 63.5288 74.325 63.4075L71.7171 81.026C71.7171 81.026 66.5923 82.4815 63.575 83.3306C63.1201 83.4519 63.1353 84.1039 63.5902 84.21C68.2904 85.3775 80.0866 88.7284 93.3839 83.8158C93.9449 83.6036 93.9145 82.8151 93.3384 82.6332L86.1515 80.5105Z" fill="white"/>
<path d="M78.6007 86.7421C72.2175 86.7421 67.032 85.423 64.1209 84.6952L63.4841 84.5284C63.1353 84.4375 62.8927 84.1342 62.8776 83.7703C62.8776 83.4064 63.105 83.088 63.4537 82.9971C66.1223 82.2541 70.398 81.0411 71.3987 80.7531L73.9156 63.7714C71.6716 63.8321 70.2919 62.7252 69.7915 60.4964C69.5186 59.2834 69.6854 58.4343 70.2615 57.9491C70.9438 57.3881 71.99 57.5398 72.6875 57.7369C72.3539 56.7513 71.899 54.9319 72.5359 53.2489C73.0059 52.0207 73.9611 51.0958 75.3863 50.5045C77.5849 49.5948 79.2375 49.8677 80.6779 50.1103C82.5884 50.4287 84.2259 50.7016 86.9399 48.4576C87.0157 48.397 87.1219 48.3666 87.228 48.3818C87.3341 48.4121 87.4099 48.4728 87.4554 48.5789L92.1254 59.0256C92.1709 59.1469 92.1557 59.2834 92.0799 59.3744L90.6092 61.1332C90.7153 62.1945 91.1702 68.411 88.3803 69.7908C88.0164 69.9727 85.7573 70.367 84.8627 70.5186L86.4244 80.2375L93.399 82.3148C93.8084 82.4361 94.0661 82.7848 94.0813 83.2093C94.0965 83.6339 93.8539 83.9978 93.4597 84.1342C88.1832 86.0901 83.1039 86.7421 78.6007 86.7421ZM74.325 63.0739C74.416 63.0739 74.5069 63.1194 74.5676 63.1801C74.6434 63.2559 74.6737 63.362 74.6586 63.4682L72.0355 81.0715C72.0203 81.2079 71.9142 81.3141 71.7929 81.3444C71.7929 81.3444 66.6681 82.7999 63.6357 83.649C63.5599 83.6642 63.5447 83.7248 63.5447 83.7703C63.5447 83.8158 63.5599 83.8613 63.6357 83.8916L64.2725 84.0584C69.1547 85.2865 80.587 88.1825 93.2322 83.5126C93.399 83.4519 93.4142 83.2851 93.4142 83.2397C93.4142 83.1942 93.399 83.0274 93.2171 82.9819L86.0302 80.844C85.9089 80.8137 85.8179 80.7076 85.7876 80.5711L84.1652 70.2911C84.1501 70.2002 84.1804 70.1092 84.2259 70.0334C84.2865 69.9576 84.3624 69.9121 84.4533 69.8969C84.893 69.8514 87.7738 69.3359 88.0922 69.1843C90.2301 68.123 90.1543 62.9527 89.942 61.0574C89.9269 60.9664 89.9572 60.8754 90.0178 60.7996L91.4431 59.0863L87.046 49.2309C84.3017 51.3687 82.4974 51.0807 80.587 50.7623C79.1617 50.5197 77.691 50.2771 75.6593 51.111C74.416 51.6265 73.5821 52.4149 73.1878 53.4763C72.3842 55.6142 73.582 58.1159 73.5972 58.1462C73.6579 58.2675 73.6427 58.4192 73.5366 58.5253C73.4456 58.6314 73.294 58.6618 73.1575 58.6011C72.6875 58.3888 71.3077 57.9643 70.7012 58.4646C70.2464 58.8285 70.3222 59.6928 70.4738 60.3296C70.9287 62.3765 72.1416 63.2407 74.2947 63.0588C74.3098 63.0739 74.325 63.0739 74.325 63.0739Z" fill="#003359"/>
<path d="M83.3768 70.655C79.2072 70.655 77.2513 67.4254 77.2361 67.38C77.1452 67.2132 77.1906 67.0161 77.3574 66.9251C77.5242 66.8341 77.7213 66.8796 77.8123 67.0464C77.9033 67.1829 79.935 70.5185 84.4382 69.912C84.6201 69.8817 84.7869 70.0182 84.8173 70.2001C84.8476 70.3821 84.7111 70.5489 84.5292 70.5792C84.135 70.6247 83.7559 70.655 83.3768 70.655Z" fill="#003359"/>
<path d="M67.0471 205.174C63.0443 205.174 59.7844 201.914 59.7844 197.911C59.7844 193.908 63.0443 190.649 67.0471 190.649C71.0499 190.649 74.3098 193.908 74.3098 197.911C74.3098 201.914 71.0499 205.174 67.0471 205.174ZM67.0471 191.331C63.4234 191.331 60.4667 194.287 60.4667 197.911C60.4667 201.535 63.4234 204.492 67.0471 204.492C70.6709 204.492 73.6275 201.535 73.6275 197.911C73.6275 194.287 70.6709 191.331 67.0471 191.331Z" fill="#003359"/>
<path d="M86.5608 205.174C82.558 205.174 79.2981 201.914 79.2981 197.911C79.2981 193.908 82.558 190.649 86.5608 190.649C90.5636 190.649 93.8235 193.908 93.8235 197.911C93.8235 201.914 90.5636 205.174 86.5608 205.174ZM86.5608 191.331C82.937 191.331 79.9804 194.287 79.9804 197.911C79.9804 201.535 82.937 204.492 86.5608 204.492C90.1845 204.492 93.1412 201.535 93.1412 197.911C93.1412 194.287 90.1845 191.331 86.5608 191.331Z" fill="#003359"/>
<path d="M106.438 204.461C102.436 204.461 99.1758 201.201 99.1758 197.199C99.1758 193.196 102.436 189.936 106.438 189.936C110.441 189.936 113.701 193.196 113.701 197.199C113.686 201.217 110.426 204.461 106.438 204.461ZM106.438 190.618C102.815 190.618 99.8581 193.575 99.8581 197.199C99.8581 200.822 102.815 203.779 106.438 203.779C110.062 203.779 113.019 200.822 113.019 197.199C113.019 193.575 110.062 190.618 106.438 190.618Z" fill="#003359"/>
<path d="M154.958 256.68C154.958 256.68 162.69 254.269 175.351 229.706C186.04 208.965 176.503 188.935 174.593 175.532C174.395 174.167 172.531 173.97 172.061 175.274C168.861 184.281 163.706 200.656 164.54 210.739C165.723 225.249 154.958 256.68 154.958 256.68Z" fill="white"/>
<path d="M154.958 257.013C154.867 257.013 154.776 256.983 154.715 256.907C154.624 256.816 154.594 256.68 154.639 256.559C154.745 256.24 165.374 225.036 164.191 210.739C163.357 200.58 168.558 184.068 171.742 175.138C172 174.41 172.682 173.97 173.455 174.046C174.229 174.122 174.82 174.698 174.926 175.471C175.366 178.489 176.2 181.9 177.079 185.524C180.157 198.078 183.978 213.71 175.654 229.858C163.069 254.269 155.382 256.907 155.064 257.013C155.033 257.013 154.988 257.013 154.958 257.013ZM173.274 174.713C172.925 174.713 172.546 174.88 172.364 175.365C169.21 184.25 164.025 200.656 164.859 210.693C165.95 223.869 157.156 251.115 155.534 256.028C157.672 254.8 164.737 249.539 175.047 229.555C183.25 213.634 179.46 198.139 176.412 185.691C175.518 182.067 174.684 178.64 174.244 175.577C174.168 175.016 173.728 174.774 173.38 174.728C173.349 174.713 173.304 174.713 173.274 174.713Z" fill="#003359"/>
<path d="M163.342 243.246L166.102 221.473C167.299 212.027 165.753 202.43 161.644 193.848C155.67 181.354 155.2 166.89 160.355 154.017L164.783 142.964C165.344 141.569 163.554 140.432 162.554 141.538L156.337 148.376C142.252 163.872 137.491 185.812 143.874 205.826L155.321 241.685L163.342 243.246Z" fill="white"/>
<path d="M163.342 243.595C163.327 243.595 163.297 243.595 163.282 243.595L155.261 242.048C155.139 242.018 155.033 241.942 155.003 241.821L143.556 205.962C137.142 185.873 141.948 163.736 156.079 148.179L162.296 141.341C162.948 140.629 163.827 140.674 164.419 141.053C165.01 141.432 165.45 142.206 165.086 143.115L160.658 154.168C155.549 166.92 156.019 181.339 161.947 193.727C166.087 202.384 167.633 211.997 166.435 221.534L163.676 243.307C163.661 243.398 163.615 243.489 163.539 243.534C163.479 243.565 163.403 243.595 163.342 243.595ZM155.579 241.412L163.054 242.852L165.768 221.443C166.951 212.042 165.435 202.551 161.341 194C155.337 181.445 154.867 166.829 160.037 153.896L164.464 142.842C164.692 142.251 164.388 141.811 164.055 141.599C163.736 141.402 163.206 141.326 162.796 141.781L156.58 148.619C142.6 163.994 137.855 185.888 144.192 205.75L155.579 241.412Z" fill="#003359"/>
<path d="M159.779 243.959L150.227 219.563C147.513 212.619 141.797 207.327 134.716 205.174L128.211 203.203C126.635 202.718 125.573 204.81 126.877 205.826L130.88 208.934C135.216 212.3 137.809 217.486 137.915 223.005C137.976 226.249 138.901 229.418 140.599 232.193L147.073 242.806L159.779 243.959Z" fill="white"/>
<path d="M159.779 244.308C159.764 244.308 159.764 244.308 159.749 244.308L147.028 243.17C146.921 243.155 146.831 243.095 146.77 243.004L140.296 232.39C138.582 229.57 137.642 226.34 137.566 223.035C137.46 217.592 134.943 212.543 130.653 209.222L126.65 206.114C125.816 205.462 125.801 204.492 126.149 203.809C126.498 203.142 127.286 202.596 128.287 202.9L134.792 204.871C142.009 207.054 147.755 212.376 150.515 219.457L160.067 243.853C160.113 243.959 160.097 244.08 160.022 244.171C159.991 244.247 159.885 244.308 159.779 244.308ZM147.27 242.503L159.279 243.58L149.924 219.699C147.225 212.816 141.645 207.645 134.625 205.523L128.12 203.552C127.453 203.355 126.983 203.734 126.771 204.128C126.559 204.522 126.528 205.144 127.089 205.583L131.092 208.692C135.535 212.149 138.143 217.364 138.264 223.02C138.325 226.204 139.234 229.327 140.887 232.026L147.27 242.503Z" fill="#003359"/>
<path d="M158.369 232.845C158.354 232.845 158.354 232.845 158.339 232.845C158.157 232.83 158.02 232.663 158.035 232.481C159.491 216.894 156.368 206.872 153.608 198.017C152.334 193.924 151.121 190.072 150.409 185.918C147.028 166.328 158.551 149.316 158.657 149.15C158.763 148.998 158.976 148.953 159.127 149.059C159.279 149.165 159.324 149.377 159.218 149.529C159.097 149.696 147.74 166.48 151.076 185.797C151.789 189.906 152.986 193.742 154.245 197.82C157.02 206.736 160.173 216.834 158.703 232.542C158.687 232.708 158.551 232.845 158.369 232.845Z" fill="#003359"/>
<path d="M171.09 222.429C171.075 222.429 171.06 222.429 171.029 222.429C170.847 222.398 170.726 222.216 170.756 222.034C173.364 206.645 172.455 182.961 172.455 182.734C172.455 182.552 172.591 182.385 172.773 182.385C172.955 182.37 173.122 182.522 173.122 182.704C173.137 182.946 174.032 206.69 171.424 222.156C171.393 222.307 171.257 222.429 171.09 222.429Z" fill="#003359"/>
<path d="M148.286 235.165C148.104 235.165 147.953 235.013 147.953 234.831C147.771 215.666 132.457 207.251 132.305 207.16C132.138 207.069 132.078 206.872 132.169 206.705C132.26 206.539 132.457 206.478 132.624 206.569C132.775 206.66 148.438 215.257 148.635 234.831C148.635 235.013 148.483 235.165 148.286 235.165Z" fill="#003359"/>
<path d="M150.363 199.321C150.257 199.321 150.166 199.276 150.09 199.185C145.951 193.863 144.117 186.676 144.086 186.6C144.041 186.418 144.147 186.236 144.329 186.191C144.511 186.145 144.693 186.252 144.738 186.434C144.753 186.509 146.558 193.56 150.606 198.76C150.727 198.912 150.697 199.124 150.545 199.23C150.515 199.291 150.439 199.321 150.363 199.321Z" fill="#003359"/>
<path d="M158.399 272.312H156.656C147.149 272.312 139.432 264.61 139.432 255.088V238.076H175.608V255.088C175.624 264.595 167.906 272.312 158.399 272.312Z" fill="white"/>
<path d="M158.399 272.646H156.656C146.967 272.646 139.098 264.777 139.098 255.088V238.076C139.098 237.894 139.25 237.742 139.431 237.742H175.608C175.79 237.742 175.942 237.894 175.942 238.076V255.088C175.957 264.761 168.073 272.646 158.399 272.646ZM139.765 238.41V255.088C139.765 264.398 147.331 271.963 156.641 271.963H158.384C167.694 271.963 175.26 264.398 175.26 255.088V238.41H139.765Z" fill="#003359"/>
<path d="M172.076 244.444H142.979C142.797 244.444 142.646 244.292 142.646 244.11C142.646 243.928 142.797 243.777 142.979 243.777H172.06C172.242 243.777 172.394 243.928 172.394 244.11C172.409 244.292 172.257 244.444 172.076 244.444Z" fill="#003359"/>
</g>
<defs>
<linearGradient id="paint0_linear_511_1856" x1="235.512" y1="190.873" x2="207.83" y2="253.147" gradientUnits="userSpaceOnUse">
<stop stop-color="#C9EEF7"/>
<stop offset="1" stop-color="#64CFE9"/>
</linearGradient>
<linearGradient id="paint1_linear_511_1856" x1="94.3228" y1="165.768" x2="93.4117" y2="180.703" gradientUnits="userSpaceOnUse">
<stop stop-color="#C9EEF7"/>
<stop offset="1" stop-color="#64CFE9"/>
</linearGradient>
<clipPath id="clip0_511_1856">
<rect width="280" height="280" fill="white"/>
</clipPath>
</defs>
</svg>
