<svg width="280" height="280" viewBox="0 0 280 280" fill="none" xmlns="http://www.w3.org/2000/svg">
<path d="M264.2 0.336182H193.791C191.04 0.336182 188.809 2.5675 188.809 5.31844V83.002C188.809 85.7529 191.04 87.9842 193.791 87.9842H264.2C266.951 87.9842 269.182 85.7529 269.182 83.002V5.31844C269.167 2.5675 266.936 0.336182 264.2 0.336182Z" fill="white"/>
<path d="M264.2 88.3205H193.791C190.857 88.3205 188.473 85.9363 188.473 83.002V5.31849C188.473 2.38415 190.857 0 193.791 0H264.2C267.134 0 269.518 2.38415 269.518 5.31849V83.002C269.503 85.9363 267.119 88.3205 264.2 88.3205ZM193.791 0.687735C191.239 0.687735 189.16 2.76622 189.16 5.31849V83.002C189.16 85.5543 191.239 87.6328 193.791 87.6328H264.2C266.752 87.6328 268.831 85.5543 268.831 83.002V5.31849C268.831 2.76622 266.752 0.687735 264.2 0.687735H193.791Z" fill="#003359"/>
<path d="M265.285 8.84884H192.767C192.584 8.84884 192.431 8.69601 192.431 8.51262C192.431 8.32922 192.584 8.17639 192.767 8.17639H265.285C265.468 8.17639 265.621 8.32922 265.621 8.51262C265.621 8.69601 265.468 8.84884 265.285 8.84884Z" fill="#003359"/>
<path d="M194.036 5.44079C194.736 5.44079 195.304 4.87287 195.304 4.1723C195.304 3.47173 194.736 2.90381 194.036 2.90381C193.335 2.90381 192.767 3.47173 192.767 4.1723C192.767 4.87287 193.335 5.44079 194.036 5.44079Z" fill="#003359"/>
<path d="M199.14 5.44079C199.841 5.44079 200.409 4.87287 200.409 4.1723C200.409 3.47173 199.841 2.90381 199.14 2.90381C198.44 2.90381 197.872 3.47173 197.872 4.1723C197.872 4.87287 198.44 5.44079 199.14 5.44079Z" fill="#003359"/>
<path d="M204.245 5.44079C204.945 5.44079 205.513 4.87287 205.513 4.1723C205.513 3.47173 204.945 2.90381 204.245 2.90381C203.544 2.90381 202.976 3.47173 202.976 4.1723C202.976 4.87287 203.544 5.44079 204.245 5.44079Z" fill="#003359"/>
<path d="M265.285 4.50851H258.102C257.919 4.50851 257.766 4.35568 257.766 4.17229C257.766 3.98889 257.919 3.83606 258.102 3.83606H265.285C265.468 3.83606 265.621 3.98889 265.621 4.17229C265.621 4.35568 265.468 4.50851 265.285 4.50851Z" fill="#003359"/>
<path d="M254.862 4.50851H225.106C224.923 4.50851 224.77 4.35568 224.77 4.17229C224.77 3.98889 224.923 3.83606 225.106 3.83606H254.862C255.045 3.83606 255.198 3.98889 255.198 4.17229C255.198 4.35568 255.045 4.50851 254.862 4.50851Z" fill="#003359"/>
<path d="M217.281 4.50851H210.939C210.755 4.50851 210.602 4.35568 210.602 4.17229C210.602 3.98889 210.755 3.83606 210.939 3.83606H217.281C217.464 3.83606 217.617 3.98889 217.617 4.17229C217.617 4.35568 217.464 4.50851 217.281 4.50851Z" fill="#003359"/>
<path d="M216.792 41.9059C219.115 37.8559 223.425 34.9827 228.438 34.4631L228.789 14.6257C214.393 14.6716 201.677 22.7869 195.9 34.784L216.792 41.9059Z" fill="white"/>
<path d="M216.792 42.2421C216.762 42.2421 216.716 42.2421 216.685 42.2269L195.778 35.105C195.686 35.0744 195.61 34.998 195.579 34.9216C195.549 34.8299 195.549 34.7229 195.579 34.6465C201.524 22.3284 214.561 14.3507 228.774 14.3048C228.881 14.3048 228.957 14.3354 229.019 14.4118C229.08 14.4729 229.126 14.5646 229.11 14.6563L228.759 34.4937C228.759 34.6618 228.621 34.8146 228.453 34.8299C223.639 35.3342 219.39 38.0393 217.067 42.1046C217.037 42.181 216.914 42.2421 216.792 42.2421ZM196.374 34.5854L216.639 41.4933C219.039 37.4738 223.287 34.7535 228.102 34.1574L228.438 14.9773C214.744 15.1454 202.227 22.8022 196.374 34.5854Z" fill="#003359"/>
<path d="M215.814 20.3722C215.676 20.3722 215.554 20.2957 215.493 20.1582C215.417 19.9901 215.508 19.7914 215.676 19.715C218.932 18.4007 222.355 17.5754 225.855 17.2697C226.038 17.2544 226.206 17.392 226.222 17.5754C226.237 17.7588 226.1 17.9269 225.916 17.9422C222.477 18.2325 219.115 19.0425 215.936 20.3416C215.906 20.3569 215.86 20.3722 215.814 20.3722Z" fill="#003359"/>
<path d="M204.336 28.0136C204.245 28.0136 204.168 27.9831 204.092 27.9219C203.954 27.7844 203.954 27.5704 204.092 27.4482C206.553 24.9418 209.395 22.8327 212.559 21.1669C212.727 21.0752 212.926 21.1363 213.017 21.3044C213.109 21.4725 213.048 21.6712 212.88 21.7629C209.777 23.3829 206.996 25.4614 204.581 27.9067C204.52 27.9831 204.428 28.0136 204.336 28.0136Z" fill="#003359"/>
<path d="M244.577 50.6936C243.4 57.2042 237.455 62.324 230.195 62.5532C228.025 62.6143 225.962 62.2475 224.082 61.514L212.727 79.0894C217.999 81.4735 223.96 82.6351 230.195 82.2836C248.321 81.2443 262.58 67.5966 264.169 51.1674L244.577 50.6936Z" fill="white"/>
<path d="M228.01 82.6809C222.661 82.6809 217.358 81.5653 212.574 79.3951C212.482 79.3493 212.421 79.2728 212.391 79.1811C212.36 79.0894 212.375 78.9825 212.436 78.906L223.792 61.3306C223.883 61.1931 224.051 61.1319 224.204 61.1931C226.099 61.9266 228.117 62.2782 230.195 62.217C237.164 62.0031 243.079 57.1278 244.256 50.6325C244.286 50.4644 244.439 50.3574 244.592 50.3574L264.169 50.8312C264.261 50.8312 264.353 50.877 264.414 50.9382C264.475 51.0146 264.506 51.1063 264.506 51.198C262.886 68.0857 248.137 81.5958 230.226 82.6198C229.477 82.6657 228.743 82.6809 228.01 82.6809ZM213.216 78.9519C218.473 81.2443 224.311 82.2836 230.165 81.9474C247.618 80.9387 261.999 67.887 263.772 51.5036L244.852 51.0452C243.491 57.7085 237.378 62.6755 230.195 62.9048C228.117 62.9659 226.115 62.6449 224.204 61.9419L213.216 78.9519Z" fill="#003359"/>
<path d="M227.979 79.8384C224.159 79.8384 220.414 79.2271 216.884 78.035C216.7 77.9739 216.609 77.7752 216.67 77.6071C216.731 77.4237 216.93 77.332 217.098 77.3931C220.567 78.5699 224.22 79.1507 227.979 79.1507C228.652 79.1507 229.339 79.1354 230.012 79.0895C230.195 79.0742 230.363 79.2271 230.379 79.4105C230.394 79.5939 230.241 79.762 230.058 79.7773C229.355 79.8231 228.667 79.8384 227.979 79.8384Z" fill="#003359"/>
<path d="M237.195 78.6157C237.042 78.6157 236.905 78.5087 236.874 78.3712C236.828 78.1878 236.935 78.0044 237.119 77.9585C249.024 74.7185 258.224 65.2584 260.547 53.8725C260.578 53.6891 260.761 53.5668 260.945 53.6127C261.128 53.6433 261.25 53.8267 261.205 54.0101C258.836 65.6404 249.437 75.2993 237.287 78.6157C237.256 78.6157 237.226 78.6157 237.195 78.6157Z" fill="#003359"/>
<path d="M209.166 77.2403L220.613 59.619C217.189 57.082 214.989 53.139 214.989 48.661C214.989 47.5759 215.111 46.5214 215.355 45.5127L194.372 38.4825C193.241 41.7837 192.63 45.2988 192.63 48.9361C192.645 60.9944 199.262 71.3716 209.166 77.2403Z" fill="white"/>
<path d="M209.166 77.5917C209.105 77.5917 209.044 77.5765 208.998 77.5459C198.544 71.341 192.309 60.6582 192.309 48.9361C192.309 45.3293 192.905 41.7837 194.066 38.3603C194.127 38.1769 194.326 38.0852 194.494 38.1463L215.478 45.1765C215.646 45.2376 215.738 45.4057 215.707 45.5738C215.462 46.5825 215.34 47.6065 215.34 48.6457C215.34 52.8485 217.342 56.7457 220.827 59.3285C220.964 59.4355 221.01 59.6342 220.903 59.787L209.456 77.4083C209.38 77.5306 209.273 77.5917 209.166 77.5917ZM194.601 38.9105C193.531 42.1504 192.996 45.528 192.996 48.9361C192.996 60.3067 199.003 70.6838 209.059 76.7817L220.154 59.6953C216.655 56.9902 214.637 52.9708 214.637 48.6457C214.637 47.6676 214.744 46.6742 214.958 45.7114L194.601 38.9105Z" fill="#003359"/>
<path d="M234.948 33.7143C241.566 34.6924 246.655 39.8275 247.266 46.1699L279.284 47.1022C279.284 47.0869 279.284 47.0716 279.284 47.0563C279.284 23.5663 260.563 3.46918 235.529 0.886353L234.948 33.7143Z" fill="white"/>
<path d="M279.284 47.4384C279.269 47.4384 279.284 47.4384 279.284 47.4384L247.266 46.5061C247.098 46.5061 246.961 46.3686 246.93 46.2005C246.334 40.0109 241.398 35.0133 234.902 34.0505C234.734 34.0199 234.612 33.8824 234.612 33.7143L235.193 0.886361C235.193 0.794663 235.239 0.702965 235.315 0.641833C235.391 0.580701 235.483 0.550135 235.575 0.565418C247.725 1.81863 258.912 7.27466 267.058 15.9248C275.173 24.5292 279.636 35.5941 279.636 47.0869C279.636 47.1786 279.605 47.2856 279.529 47.3467C279.452 47.3926 279.376 47.4384 279.284 47.4384ZM247.572 45.849L278.948 46.7507C278.78 23.4288 260.349 3.95825 235.865 1.26844L235.3 33.4239C241.841 34.5243 246.838 39.5677 247.572 45.849Z" fill="#003359"/>
<path d="M199.049 38.6049H157.143C155.079 38.6049 153.398 40.286 153.398 42.3492V98.0252C153.398 100.088 155.079 101.77 157.143 101.77H199.049C201.112 101.77 202.793 100.088 202.793 98.0252V42.3492C202.793 40.286 201.112 38.6049 199.049 38.6049Z" fill="white"/>
<path d="M199.049 102.106H157.143C154.896 102.106 153.062 100.272 153.062 98.0252V42.3492C153.062 40.1026 154.896 38.2687 157.143 38.2687H199.049C201.295 38.2687 203.129 40.1026 203.129 42.3492V98.0252C203.129 100.272 201.295 102.106 199.049 102.106ZM157.143 38.9411C155.263 38.9411 153.75 40.4694 153.75 42.334V98.01C153.75 99.8898 155.278 101.403 157.143 101.403H199.049C200.928 101.403 202.441 99.8745 202.441 98.01V42.3492C202.441 40.4694 200.913 38.9564 199.049 38.9564H157.143V38.9411Z" fill="#003359"/>
<path d="M170.041 56.6542H159.282V92.0038H170.041V56.6542Z" fill="white"/>
<path d="M170.041 92.34H159.282C159.099 92.34 158.946 92.1872 158.946 92.0038V56.6542C158.946 56.4708 159.099 56.318 159.282 56.318H170.041C170.225 56.318 170.378 56.4708 170.378 56.6542V92.0038C170.378 92.1872 170.225 92.34 170.041 92.34ZM159.618 91.6676H169.69V56.9904H159.618V91.6676Z" fill="#003359"/>
<path d="M183.475 46.9036H172.716V92.0037H183.475V46.9036Z" fill="white"/>
<path d="M183.475 92.34H172.716C172.532 92.34 172.38 92.1872 172.38 92.0038V46.9036C172.38 46.7202 172.532 46.5674 172.716 46.5674H183.475C183.659 46.5674 183.811 46.7202 183.811 46.9036V92.0038C183.811 92.1872 183.659 92.34 183.475 92.34ZM173.067 91.6675H183.139V47.2398H173.067V91.6675Z" fill="#003359"/>
<path d="M196.924 70.9285H186.165V92.0037H196.924V70.9285Z" fill="white"/>
<path d="M196.924 92.34H186.165C185.982 92.34 185.829 92.1872 185.829 92.0038V70.9285C185.829 70.7451 185.982 70.5923 186.165 70.5923H196.924C197.108 70.5923 197.26 70.7451 197.26 70.9285V92.0038C197.26 92.1872 197.108 92.34 196.924 92.34ZM186.501 91.6676H196.573V71.2647H186.501V91.6676Z" fill="#003359"/>
<path d="M115.451 228.71L116.398 237.666L122.45 238.384V227.762L115.451 228.71Z" fill="white"/>
<path d="M122.45 238.72C122.435 238.72 122.42 238.72 122.404 238.72L116.352 238.017C116.199 238.002 116.077 237.88 116.047 237.712L115.099 228.756C115.084 228.573 115.206 228.404 115.389 228.389L122.389 227.442C122.481 227.426 122.588 227.457 122.664 227.518C122.741 227.579 122.786 227.671 122.786 227.778V238.4C122.786 238.491 122.741 238.583 122.679 238.659C122.618 238.69 122.542 238.72 122.45 238.72ZM116.704 237.36L122.114 237.987V228.145L115.833 229.001L116.704 237.36Z" fill="#003359"/>
<path d="M123.413 253.973C120.891 254.324 116.75 254.645 111.89 253.973C110.3 253.759 109.246 252.215 109.628 250.641C110.697 246.301 112.547 238.048 115.71 234.227L116.49 236.306L117.575 234.35C117.728 234.09 117.987 233.906 118.293 233.86L120.677 233.555C121.166 233.494 121.64 233.815 121.732 234.304L122.114 236.107L122.939 233.753L125.705 250.947C125.889 252.414 124.865 253.759 123.413 253.973Z" fill="white"/>
<path d="M117.682 254.707C115.909 254.707 113.938 254.6 111.844 254.309C110.988 254.187 110.224 253.713 109.735 252.995C109.246 252.277 109.093 251.39 109.291 250.565L109.521 249.633C110.606 245.155 112.44 237.636 115.435 234.013C115.512 233.922 115.634 233.876 115.756 233.891C115.878 233.906 115.97 233.998 116.016 234.105L116.536 235.496L117.269 234.182C117.468 233.815 117.835 233.57 118.247 233.524L120.631 233.219C121.289 233.127 121.931 233.585 122.068 234.243L122.19 234.854L122.618 233.647C122.664 233.494 122.817 233.402 122.97 233.417C123.123 233.433 123.245 233.555 123.275 233.708L126.042 250.901C126.256 252.567 125.094 254.095 123.459 254.325L123.413 253.988L123.459 254.325C121.961 254.523 119.99 254.707 117.682 254.707ZM115.588 234.915C112.898 238.568 111.202 245.552 110.178 249.786L109.949 250.733C109.781 251.39 109.903 252.063 110.285 252.628C110.667 253.178 111.263 253.56 111.92 253.652C116.688 254.309 120.769 254.019 123.352 253.652C124.62 253.469 125.522 252.292 125.354 251.008L122.802 235.16L122.42 236.26C122.374 236.398 122.221 236.505 122.083 236.489C121.931 236.474 121.808 236.367 121.778 236.214L121.396 234.411C121.334 234.09 121.029 233.876 120.708 233.922L118.324 234.227C118.125 234.258 117.957 234.365 117.865 234.548L116.78 236.505C116.719 236.627 116.597 236.688 116.459 236.673C116.322 236.657 116.215 236.581 116.169 236.459L115.588 234.915Z" fill="#003359"/>
<path d="M116.398 251.818C114.778 251.818 113.036 251.681 111.294 251.283C111.11 251.237 111.003 251.054 111.034 250.871C111.08 250.687 111.263 250.58 111.446 250.611C117.376 251.956 123.596 250.229 123.658 250.213C123.841 250.167 124.024 250.259 124.085 250.443C124.131 250.626 124.04 250.809 123.856 250.871C123.658 250.916 120.433 251.818 116.398 251.818Z" fill="#003359"/>
<path d="M114.946 245.17C114.763 245.17 114.61 245.032 114.61 244.834C114.61 244.65 114.748 244.482 114.946 244.482L120.616 244.299C120.8 244.299 120.968 244.436 120.968 244.635C120.968 244.818 120.83 244.987 120.631 244.987L114.946 245.17Z" fill="#003359"/>
<path d="M143.816 223.942L144.733 237.024H152.007L152.344 223.942H143.816Z" fill="white"/>
<path d="M152.008 237.36H144.733C144.549 237.36 144.412 237.223 144.397 237.039L143.495 223.973C143.495 223.881 143.525 223.789 143.587 223.713C143.648 223.636 143.739 223.606 143.831 223.606H152.359C152.451 223.606 152.542 223.636 152.604 223.713C152.665 223.774 152.695 223.866 152.695 223.957L152.359 237.024C152.344 237.208 152.191 237.36 152.008 237.36ZM145.038 236.673H151.671L151.992 224.278H144.167L145.038 236.673Z" fill="#003359"/>
<path d="M142.822 244.391C142.807 245.628 143.648 246.714 144.855 246.989C149.043 247.967 158.472 250.137 161.177 250.534C164.677 251.054 168.956 249.984 170.806 247.936C172.655 245.888 166.679 241.013 163.837 239.24C159.618 236.596 155.568 231.385 153.872 231.155C152.176 230.926 148.997 235.847 148.997 235.847L143.816 233.677C143.816 233.677 142.914 238.125 142.822 244.391Z" fill="white"/>
<path d="M162.996 251.008C162.354 251.008 161.727 250.962 161.116 250.87C158.396 250.473 148.783 248.257 144.779 247.325C143.434 247.004 142.471 245.781 142.486 244.39C142.578 238.155 143.48 233.662 143.495 233.616C143.51 233.509 143.587 233.433 143.663 233.387C143.755 233.341 143.862 233.341 143.953 233.371L148.874 235.435C149.684 234.227 152.237 230.59 153.918 230.835C154.881 230.972 156.256 232.271 158.151 234.074C159.924 235.756 161.941 237.666 164.005 238.965C166.282 240.386 171.111 244.161 171.463 246.713C171.539 247.294 171.402 247.783 171.05 248.165C169.491 249.908 166.19 251.008 162.996 251.008ZM144.076 234.166C143.862 235.404 143.235 239.317 143.159 244.406C143.143 245.476 143.892 246.423 144.931 246.668C148.936 247.6 158.518 249.801 161.223 250.213C164.723 250.733 168.819 249.648 170.546 247.722C170.76 247.478 170.836 247.187 170.79 246.82C170.485 244.65 165.991 241.013 163.653 239.546C161.529 238.216 159.481 236.275 157.693 234.579C156.088 233.051 154.575 231.614 153.826 231.522C152.756 231.369 150.479 234.227 149.287 236.061C149.195 236.199 149.027 236.26 148.874 236.184L144.076 234.166Z" fill="#003359"/>
<path d="M162.92 248.624C155.355 248.624 145.161 244.513 144.595 244.283C144.427 244.207 144.335 244.008 144.412 243.84C144.488 243.672 144.687 243.58 144.855 243.657C145.038 243.733 163.5 251.191 168.926 246.286C169.063 246.163 169.277 246.163 169.4 246.316C169.522 246.454 169.522 246.668 169.369 246.79C167.887 248.12 165.564 248.624 162.92 248.624Z" fill="#003359"/>
<path d="M154.85 240.707C154.759 240.707 154.667 240.677 154.59 240.6C154.468 240.463 154.468 240.249 154.621 240.127L158.319 236.78C158.457 236.657 158.671 236.657 158.793 236.81C158.915 236.948 158.915 237.162 158.763 237.284L155.064 240.631C155.003 240.677 154.927 240.707 154.85 240.707Z" fill="#003359"/>
<path d="M113.387 138.754C113.387 138.754 111.125 179.606 109.949 193.712C108.772 207.818 112.715 230.483 112.715 230.483L123.963 229.887C123.963 229.887 124.727 202.316 125.568 194.675C125.568 194.675 130.321 184.298 131.727 175.052C133.133 165.79 137.932 151.179 137.932 151.179C137.932 151.179 141.829 224.141 142.196 229.872C142.196 229.872 151.014 230.269 154.178 228.282C154.178 228.282 159.786 201.675 158.976 187.202C158.166 172.729 159.053 136.768 159.053 136.768L113.387 138.754Z" fill="url(#paint0_linear_27_3)"/>
<path d="M123.489 195.011H120.051C119.867 195.011 119.714 194.858 119.714 194.675C119.714 194.491 119.867 194.339 120.051 194.339H123.489C123.673 194.339 123.826 194.491 123.826 194.675C123.841 194.858 123.688 195.011 123.489 195.011Z" fill="white"/>
<path d="M147.988 216.239C147.973 216.239 147.988 216.239 147.988 216.239C147.789 216.239 147.637 216.086 147.652 215.888C147.774 209.148 155.171 197.059 155.492 196.539C155.584 196.387 155.798 196.326 155.966 196.432C156.119 196.524 156.18 196.738 156.073 196.906C155.996 197.029 148.447 209.347 148.34 215.903C148.324 216.086 148.171 216.239 147.988 216.239Z" fill="white"/>
<path d="M162.614 73.4196C163.439 73.3585 167.459 81.5808 180.021 81.2445C192.599 80.893 202.686 66.8327 202.686 66.8327C202.686 66.8327 207.026 59.5121 210.327 56.8682C213.628 54.2242 214.133 53.8727 214.133 53.8727C214.133 53.8727 215.172 55.2482 214.133 56.8682C213.094 58.4882 210.251 61.5142 210.251 61.5142C210.251 61.5142 213.399 63.2412 211.978 66.8327C210.343 70.9591 205.758 70.6381 205.758 70.6381C205.758 70.6381 196.435 111.918 157.891 92.3094L162.614 73.4196Z" fill="white"/>
<path d="M177.01 97.9183C171.157 97.9183 164.723 96.1455 157.739 92.5998C157.601 92.5234 157.525 92.3706 157.555 92.2177L162.262 73.3432C162.293 73.2057 162.415 73.0987 162.568 73.0834C162.904 73.0529 163.164 73.3585 163.821 74.0768C165.732 76.2012 170.194 81.1834 180.006 80.9083C192.278 80.5721 202.304 66.7715 202.411 66.634C202.579 66.3589 206.812 59.2523 210.113 56.5931C213.384 53.9644 213.934 53.5976 213.949 53.5823C214.102 53.4753 214.301 53.5212 214.408 53.6587C214.454 53.7198 215.569 55.2481 214.423 57.0363C213.567 58.3812 211.519 60.6431 210.771 61.4531C211.596 62.0797 213.506 63.8983 212.299 66.9549C210.847 70.6534 207.087 70.9591 206.018 70.9744C205.437 73.2668 200.867 89.4668 187.877 95.5647C184.53 97.1236 180.908 97.9183 177.01 97.9183ZM158.304 92.1108C169.613 97.8113 179.471 98.7589 187.602 94.9534C201.219 88.5651 205.391 70.7298 205.437 70.5617C205.467 70.3936 205.62 70.2866 205.788 70.3019C205.972 70.3172 210.159 70.5617 211.672 66.7104C212.956 63.4398 210.22 61.881 210.098 61.8198C210.006 61.774 209.945 61.6823 209.93 61.5753C209.915 61.4683 209.945 61.3614 210.022 61.2849C210.052 61.2544 212.864 58.2589 213.873 56.6847C214.5 55.6914 214.255 54.8049 214.056 54.377C213.644 54.698 212.666 55.4468 210.557 57.1432C207.347 59.7261 203.037 66.9549 202.992 67.0161C202.869 67.1842 192.645 81.2598 180.036 81.5961C179.777 81.5961 179.517 81.6113 179.257 81.6113C169.675 81.6113 165.243 76.6749 163.332 74.5353C163.149 74.3366 162.981 74.1379 162.828 73.9851L158.304 92.1108Z" fill="#003359"/>
<path d="M100.29 92.2941C100.29 92.2941 104.065 67.933 117.391 61.942C130.718 55.9511 148.767 56.7764 153.734 59.7718C158.701 62.7673 171.677 76.2928 171.677 76.2928L160.214 92.2941C160.214 92.2941 162.828 135.346 160.765 146.717C160.765 146.717 148.019 148.199 142.608 146.075C137.198 143.951 119.424 140.971 110.927 144.868L112.486 90.3532L100.29 92.2941Z" fill="white"/>
<path d="M151.778 147.558C148.401 147.558 144.809 147.298 142.501 146.381C137.183 144.287 119.577 141.261 111.095 145.158C110.988 145.204 110.866 145.204 110.759 145.128C110.667 145.066 110.606 144.944 110.606 144.837L112.134 90.7353L100.336 92.6151C100.229 92.6304 100.122 92.5998 100.045 92.5234C99.9688 92.447 99.9382 92.34 99.9535 92.233C100.106 91.2243 103.912 67.6273 117.254 61.6211C130.397 55.7219 148.553 56.2415 153.918 59.4662C158.869 62.4464 171.402 75.4981 171.921 76.0483C172.028 76.1705 172.043 76.3539 171.952 76.4762L160.566 92.3705C160.719 94.9075 163.103 135.774 161.101 146.748C161.07 146.9 160.948 147.007 160.81 147.023C160.505 147.084 156.317 147.558 151.778 147.558ZM122.496 142.606C130.55 142.606 139.261 144.363 142.746 145.739C147.591 147.649 158.671 146.579 160.474 146.381C162.43 134.811 159.909 92.7221 159.878 92.2941C159.878 92.2177 159.893 92.1413 159.939 92.0802L171.233 76.3234C169.598 74.627 158.105 62.7979 153.566 60.0622C148.89 57.2502 130.871 56.2415 117.529 62.2477C105.532 67.6426 101.314 88.4887 100.702 91.8815L112.44 90.017C112.547 90.0017 112.638 90.0322 112.715 90.0934C112.791 90.1545 112.837 90.2615 112.837 90.3532L111.309 144.333C114.32 143.08 118.324 142.606 122.496 142.606Z" fill="#003359"/>
<path d="M122.664 133.971C122.496 133.971 122.358 133.849 122.328 133.696C122.297 133.512 122.42 133.329 122.603 133.298C142.868 129.707 148.783 115.677 148.844 115.539C148.92 115.371 149.119 115.28 149.287 115.356C149.455 115.433 149.547 115.631 149.471 115.799C149.409 115.937 143.373 130.318 122.725 133.971C122.695 133.956 122.679 133.971 122.664 133.971Z" fill="#003359"/>
<path d="M159.252 109.319H133.316L141.432 80.3275H167.382L159.252 109.319Z" fill="#003359"/>
<path d="M102.567 92.3858L115.695 86.5171C115.695 86.5171 113.846 108.769 140.408 98.499C140.408 98.499 139.43 95.6411 139.567 92.2941C139.705 88.9471 141.707 92.1871 141.982 94.9075C142.257 97.6278 148.492 96.5275 152.252 95.4576C155.996 94.3878 160.917 95.0909 152.252 99.8744C143.587 104.658 141.691 102.518 141.691 102.518C141.691 102.518 130.627 117.985 116.857 114.699C99.9077 110.649 102.567 92.3858 102.567 92.3858Z" fill="white"/>
<path d="M120.693 115.494C119.409 115.494 118.11 115.356 116.765 115.035C107.855 112.911 104.37 106.844 103.025 102.121C101.574 97.0318 102.2 92.5234 102.231 92.34C102.246 92.2177 102.322 92.126 102.429 92.0801L115.558 86.2115C115.664 86.1656 115.802 86.1809 115.894 86.242C115.985 86.3185 116.047 86.4254 116.031 86.5477C116.031 86.6241 115.42 94.7088 120.723 98.6671C124.819 101.724 131.299 101.601 139.995 98.3003C139.751 97.4598 139.124 95.0451 139.231 92.2941C139.246 91.8662 139.307 90.5671 140.087 90.5518H140.102C141.126 90.5518 142.135 93.1347 142.318 94.8922C142.349 95.259 142.532 95.5494 142.853 95.7633C144.412 96.8179 148.829 96.0843 152.145 95.1367C153.887 94.6477 156.837 94.3115 157.341 95.5341C157.769 96.5886 156.164 98.1017 152.405 100.165C145.298 104.077 142.608 103.466 141.737 102.992C140.347 104.826 131.696 115.494 120.693 115.494ZM102.888 92.6151C102.781 93.5167 102.429 97.5667 103.698 101.953C105.593 108.54 110.04 112.727 116.933 114.363C118.217 114.668 119.47 114.806 120.708 114.806C132.338 114.806 141.325 102.427 141.416 102.289C141.478 102.197 141.569 102.152 141.676 102.152C141.783 102.152 141.875 102.182 141.951 102.259C141.967 102.274 143.908 104.062 152.099 99.5382C157.005 96.8332 156.776 95.855 156.73 95.7633C156.516 95.259 154.529 95.1367 152.359 95.7633C150.601 96.2677 144.702 97.7807 142.501 96.2983C142.012 95.962 141.722 95.5035 141.661 94.9381C141.462 92.9666 140.454 91.2701 140.117 91.209C140.117 91.2243 139.949 91.4077 139.919 92.3094C139.781 95.5341 140.729 98.3615 140.744 98.3767C140.805 98.5449 140.713 98.7435 140.545 98.8047C131.467 102.32 124.666 102.442 120.326 99.202C115.512 95.5952 115.298 89.0235 115.344 87.052L102.888 92.6151Z" fill="#003359"/>
<path d="M137.626 50.8313C136.495 51.8706 134.279 53.139 132.537 52.2679C131.238 51.6107 130.52 49.9296 130.565 48.004C129.969 48.0498 129.19 48.004 128.624 47.5149C127.769 46.7507 127.921 45.3447 127.952 44.4277C128.105 40.1791 125.644 39.5219 126.24 36.6334C126.714 34.3715 128.502 33.0113 128.823 32.7668C130.504 31.4983 131.65 31.8957 134.463 31.1621C139.216 29.9089 139.368 27.861 142.501 27.861C142.685 27.861 146.949 27.9068 148.401 30.8564C149.577 33.2559 148.202 36.1596 146.781 37.6879C144.947 39.6747 143.617 38.6966 141.768 40.3472C138.543 43.2662 140.988 47.7441 137.626 50.8313Z" fill="#003359"/>
<path d="M147.117 43.2509L146.933 43.0828C145.986 42.2728 145.008 41.3253 144.763 40.1179C143.709 34.9369 138.956 33.0724 138.742 37.8102C138.681 39.0022 134.31 38.9411 134.829 40.2096C136.189 43.4954 136.22 42.609 134.31 43.8164C134.096 43.8317 133.882 43.8775 133.668 43.9692C132.69 44.4277 132.338 45.7573 132.888 46.9494C133.225 47.6677 133.821 48.1568 134.447 48.3402V53.5211C134.447 55.462 133.27 57.2196 131.467 57.9532L129.709 58.6715C129.709 58.6715 137.871 64.0053 146.154 58.1519L145.054 57.6628C143.113 56.7917 141.829 54.8813 141.768 52.7417L141.752 51.733C142.303 51.7788 142.853 51.7483 143.342 51.5954C145.665 50.923 146.429 48.2485 146.032 44.932L146.979 44.4277C147.422 44.1832 147.499 43.5719 147.117 43.2509Z" fill="white"/>
<path d="M137.794 61.2085C133.087 61.2085 129.587 58.9925 129.541 58.9466C129.434 58.8702 129.373 58.7479 129.389 58.6257C129.404 58.5034 129.48 58.3964 129.603 58.3506L131.36 57.6323C133.041 56.9445 134.126 55.3245 134.126 53.5211V48.5847C133.469 48.3249 132.934 47.79 132.598 47.087C131.971 45.7268 132.384 44.1985 133.53 43.6636C133.744 43.5719 133.958 43.5108 134.203 43.4802C134.524 43.2815 134.783 43.144 134.982 43.037C135.227 42.9147 135.456 42.7925 135.456 42.7313C135.471 42.5785 135.288 42.1353 135.013 41.5393C134.875 41.2183 134.707 40.821 134.508 40.3472C134.417 40.1179 134.417 39.8887 134.524 39.69C134.783 39.1551 135.639 38.9106 136.617 38.6355C137.32 38.4368 138.39 38.1311 138.406 37.8102C138.528 35.1968 139.888 34.7995 140.484 34.7536C142.165 34.6161 144.397 36.6181 145.1 40.0568C145.329 41.1878 146.292 42.0894 147.163 42.8383L147.346 43.0064C147.606 43.2357 147.744 43.5719 147.698 43.9234C147.667 44.2749 147.453 44.5653 147.147 44.7334L146.414 45.1308C146.796 48.7987 145.726 51.2745 143.449 51.9317C143.036 52.054 142.578 52.1151 142.104 52.0998V52.757C142.165 54.7438 143.373 56.5472 145.191 57.3572L146.292 57.8462C146.399 57.8921 146.475 57.9991 146.49 58.1213C146.506 58.2436 146.444 58.3659 146.353 58.427C143.373 60.5208 140.392 61.2085 137.794 61.2085ZM130.504 58.7174C132.445 59.7413 138.91 62.477 145.482 58.213L144.931 57.9685C142.883 57.0515 141.508 55.0036 141.432 52.757L141.416 51.733C141.416 51.6413 141.462 51.5496 141.523 51.4732C141.6 51.4121 141.691 51.3815 141.783 51.3815C142.318 51.4274 142.807 51.3815 143.25 51.2593C145.207 50.6938 146.108 48.386 145.696 44.9627C145.68 44.8251 145.757 44.6876 145.879 44.6264L146.827 44.1221C146.934 44.061 147.01 43.954 147.025 43.8317C147.04 43.7094 146.995 43.5872 146.903 43.5108L146.72 43.3427C145.757 42.5174 144.717 41.524 144.442 40.1791C143.831 37.1989 141.936 35.3191 140.545 35.4261C139.689 35.4872 139.17 36.3736 139.093 37.8255C139.063 38.6508 137.962 38.9564 136.801 39.2774C136.159 39.4608 135.273 39.7053 135.135 39.9651C135.135 39.9804 135.12 40.011 135.15 40.0721C135.349 40.5459 135.517 40.9279 135.655 41.2489C136.296 42.7161 136.434 43.037 135.318 43.633C135.104 43.7553 134.829 43.8928 134.493 44.1068C134.447 44.1374 134.386 44.1527 134.325 44.1527C134.142 44.1527 133.973 44.1985 133.821 44.2749C133.011 44.657 132.736 45.7879 133.209 46.7966C133.484 47.3927 133.989 47.8511 134.554 48.004C134.707 48.0498 134.799 48.1721 134.799 48.3249V53.5059C134.799 55.5996 133.546 57.4642 131.62 58.2436L130.504 58.7174Z" fill="#003359"/>
<path d="M141.753 52.054C141.737 52.054 141.722 52.054 141.707 52.054C138.36 51.5343 136.862 48.9974 136.801 48.8904C136.709 48.7223 136.77 48.5236 136.923 48.4319C137.091 48.3402 137.29 48.4013 137.382 48.5541C137.397 48.5847 138.788 50.923 141.798 51.3968C141.982 51.4274 142.119 51.5955 142.089 51.7789C142.074 51.9317 141.921 52.054 141.753 52.054Z" fill="#003359"/>
<path d="M63.2323 86.457C62.8044 86.457 62.3765 86.3653 61.9639 86.1972C61.1691 85.861 60.5578 85.2344 60.2369 84.4397C59.5644 82.7891 60.3744 80.9093 62.025 80.2369C63.6755 79.5644 65.5554 80.3744 66.2278 82.025C66.9003 83.6755 66.0903 85.5553 64.4397 86.2278C64.0423 86.3806 63.645 86.457 63.2323 86.457ZM63.2323 80.6801C62.9114 80.6801 62.5905 80.7412 62.2848 80.8635C60.9857 81.3831 60.3591 82.8808 60.8788 84.1799C61.1386 84.8065 61.6123 85.3108 62.2389 85.5706C62.8655 85.8304 63.5533 85.8457 64.1799 85.5859C65.4789 85.0663 66.1208 83.5686 65.5859 82.2695C65.1886 81.2914 64.2257 80.6801 63.2323 80.6801Z" fill="#003359"/>
<path d="M272.881 105.178C272.789 105.178 272.713 105.147 272.651 105.086C272.514 104.948 272.514 104.734 272.636 104.612L274.226 102.946C274.348 102.809 274.577 102.809 274.699 102.931C274.837 103.069 274.837 103.283 274.715 103.405L273.125 105.071C273.064 105.132 272.972 105.178 272.881 105.178Z" fill="#003359"/>
<path d="M267.302 111.001C267.211 111.001 267.134 110.97 267.073 110.909C266.936 110.771 266.936 110.557 267.058 110.435L268.647 108.769C268.785 108.632 268.999 108.632 269.121 108.754C269.259 108.891 269.259 109.105 269.136 109.228L267.547 110.894C267.486 110.97 267.394 111.001 267.302 111.001Z" fill="#003359"/>
<path d="M268.861 105.269C268.77 105.269 268.693 105.239 268.617 105.178L266.997 103.588C266.859 103.451 266.859 103.237 266.997 103.115C267.134 102.977 267.348 102.977 267.486 103.115L269.106 104.704C269.243 104.841 269.243 105.055 269.106 105.178C269.045 105.224 268.953 105.269 268.861 105.269Z" fill="#003359"/>
<path d="M274.531 110.848C274.44 110.848 274.363 110.817 274.287 110.756L272.667 109.167C272.529 109.029 272.529 108.815 272.667 108.693C272.804 108.555 273.018 108.555 273.156 108.693L274.776 110.282C274.913 110.42 274.913 110.634 274.776 110.756C274.715 110.817 274.623 110.848 274.531 110.848Z" fill="#003359"/>
<path d="M75.5466 45.3599C75.4549 45.3599 75.3784 45.3294 75.3173 45.2682C75.1798 45.1307 75.1798 44.9167 75.302 44.7944L76.8915 43.1286C77.029 42.991 77.243 42.991 77.3652 43.1133C77.5028 43.2509 77.5028 43.4648 77.3805 43.5871L75.7911 45.2529C75.7299 45.3293 75.6383 45.3599 75.5466 45.3599Z" fill="#003359"/>
<path d="M69.9683 51.1981C69.8766 51.1981 69.8002 51.1675 69.7391 51.1064C69.6015 50.9688 69.6015 50.7548 69.7238 50.6326L71.3132 48.9667C71.4508 48.8292 71.6647 48.8292 71.787 48.9514C71.9245 49.089 71.9245 49.303 71.8023 49.4252L70.2128 51.0911C70.1364 51.1675 70.0447 51.1981 69.9683 51.1981Z" fill="#003359"/>
<path d="M71.5271 45.4517C71.4354 45.4517 71.359 45.4211 71.2826 45.36L69.6626 43.7705C69.5251 43.633 69.5251 43.419 69.6626 43.2968C69.8002 43.1592 70.0141 43.1592 70.1517 43.2968L71.7717 44.8862C71.9092 45.0238 71.9092 45.2377 71.7717 45.36C71.6952 45.4211 71.6188 45.4517 71.5271 45.4517Z" fill="#003359"/>
<path d="M77.1972 51.0299C77.1055 51.0299 77.0291 50.9993 76.9526 50.9382L75.3327 49.3488C75.1951 49.2112 75.1951 48.9973 75.3327 48.875C75.4702 48.7375 75.6842 48.7375 75.8064 48.875L77.4264 50.4644C77.564 50.602 77.564 50.8159 77.4264 50.9382C77.3653 50.9993 77.2889 51.0299 77.1972 51.0299Z" fill="#003359"/>
<path d="M104.309 220.61L99.1434 273.535L95.4449 273.382L97.2789 217.737L104.309 220.61Z" fill="white"/>
<path d="M99.1434 273.871C99.1282 273.871 99.1282 273.871 99.1434 273.871L95.4449 273.719C95.2615 273.703 95.1087 273.55 95.124 273.367L96.958 217.721C96.958 217.614 97.0191 217.508 97.1108 217.446C97.2025 217.385 97.3247 217.37 97.4317 217.416L104.462 220.289C104.6 220.35 104.691 220.488 104.676 220.641L99.4797 273.566C99.4644 273.734 99.3116 273.871 99.1434 273.871ZM95.7964 273.046L98.8225 273.168L103.942 220.809L97.5998 218.226L95.7964 273.046Z" fill="#003359"/>
<path d="M34.9701 218.7L40.0135 273.657L43.8343 273.367L42.0003 215.735L34.9701 218.7Z" fill="white"/>
<path d="M40.0135 274.009C39.8454 274.009 39.6926 273.871 39.6773 273.703L34.6339 218.746C34.6186 218.593 34.7103 218.455 34.8325 218.394L41.8627 215.429C41.9697 215.383 42.092 215.399 42.1837 215.46C42.2754 215.521 42.3365 215.628 42.3365 215.735L44.1705 273.382C44.1705 273.566 44.0329 273.719 43.8495 273.734L40.0288 274.024C40.0441 273.994 40.0288 274.009 40.0135 274.009ZM35.3369 218.914L40.3344 273.291L43.4827 273.046L41.6794 216.224L35.3369 218.914Z" fill="#003359"/>
<path d="M17.4253 205.77L18.9077 263.479L21.8879 262.837L24.6083 203.019L17.4253 205.77Z" fill="white"/>
<path d="M18.9077 263.815C18.8313 263.815 18.7549 263.785 18.6937 263.739C18.6173 263.678 18.5715 263.586 18.5562 263.479L17.0737 205.77C17.0737 205.633 17.1501 205.495 17.2877 205.449L24.486 202.698C24.593 202.653 24.7152 202.668 24.8069 202.744C24.8986 202.805 24.9598 202.928 24.9445 203.035L22.2088 262.852C22.2088 263.005 22.0866 263.143 21.9337 263.173L18.9535 263.815C18.9535 263.815 18.923 263.815 18.9077 263.815ZM17.7615 206L19.2286 263.066L21.5516 262.562L24.2415 203.524L17.7615 206Z" fill="#003359"/>
<path d="M75.6077 204.471L77.0901 262.195L80.1773 262.21L82.7907 201.736L75.6077 204.471Z" fill="white"/>
<path d="M60.6456 159.402V172.835C60.6456 185.963 71.0075 196.616 83.7841 196.616C96.5607 196.616 106.923 207.268 106.923 220.396C106.923 221.573 105.975 222.52 104.814 222.52H43.5592C24.4096 222.52 8.88208 206.565 8.88208 186.865V158.209C8.88208 150.385 15.0564 144.027 22.6826 144.027H45.6989C53.9517 144.027 60.6456 150.919 60.6456 159.402Z" fill="white"/>
<path d="M104.813 222.857H43.5592C24.2414 222.857 8.53052 206.718 8.53052 186.865V158.21C8.53052 150.201 14.873 143.691 22.6673 143.691H45.6988C54.135 143.691 60.9971 150.736 60.9971 159.402V172.835C60.9971 185.765 71.2214 196.28 83.7993 196.28C96.744 196.28 107.274 207.1 107.274 220.396C107.259 221.741 106.158 222.857 104.813 222.857ZM22.6826 144.363C15.2703 144.363 9.23354 150.568 9.23354 158.194V186.85C9.23354 206.32 24.6388 222.154 43.5744 222.154H104.813C105.792 222.154 106.586 221.359 106.586 220.381C106.586 207.451 96.3619 196.937 83.784 196.937C70.8393 196.937 60.3093 186.116 60.3093 172.82V159.402C60.3093 151.118 53.7529 144.363 45.6988 144.363H22.6826Z" fill="#003359"/>
<path d="M2.95225 134.353C2.01998 133.971 1.17942 133.283 0.659796 132.366C-0.104354 130.991 -0.516995 128.79 1.20998 125.657C5.12243 118.566 11.6483 121.912 14.1394 121.087C19.733 119.238 18.4187 116.227 20.6805 113.278C22.3769 111.077 28.2609 106.935 37.1709 114.653C37.1709 114.653 41.175 120.124 45.7141 118.046C51.2924 115.494 62.4948 121.271 58.9645 129.875C57.9405 132.351 56.1065 134.261 53.8599 135.3C53.4473 135.484 53.0041 135.667 52.5303 135.835C51.1396 136.324 50.0545 137.562 49.703 139.167C48.5567 144.409 44.2469 154.511 28.2303 144.333C27.023 143.569 25.5864 143.462 24.3332 144.042C22.8049 144.761 21.139 147.527 13.7268 146.35C8.97375 145.601 7.46073 140.069 6.20753 137.547C5.21413 135.545 3.77753 134.689 2.95225 134.353Z" fill="#003359"/>
<path d="M85.343 172.988C79.0464 174.96 66.9728 169.489 64.9096 160.319C63.2743 153.044 60.722 149.361 59.7439 148.138C59.2701 147.328 58.6588 146.579 57.8335 145.861C51.9649 140.696 41.8017 142.377 37.4002 143.095C32.4179 143.92 28.2762 144.593 25.4641 147.756C24.7153 148.597 24.1956 149.483 23.8288 150.415C18.4645 160.533 22.8049 170.971 25.4947 175.801C25.9379 195.134 19.5496 192.107 21.2766 200.681C23.7219 212.785 43.1924 208.262 50.2837 206.718C52.7749 206.183 65.796 210.034 68.9748 199.994C70.8394 194.125 67.309 191.42 64.1913 181.455C80.1467 191.374 92.0063 174.456 92.0063 174.456L93.229 168.526C93.229 168.526 90.0043 171.537 85.343 172.988Z" fill="white"/>
<path d="M35.0772 209.179C31.3023 209.179 27.6649 208.583 24.9598 206.825C22.8049 205.419 21.46 203.371 20.9251 200.742C20.1457 196.891 20.9557 195.302 22.0713 193.116C23.4621 190.396 25.3725 186.651 25.1279 175.877C22.2089 170.589 18.1589 160.319 23.4926 150.247C23.89 149.254 24.4402 148.367 25.1891 147.527C28.0775 144.272 32.3568 143.569 37.3238 142.759C41.7253 142.04 52.0413 140.344 58.0323 145.601C58.8575 146.32 59.4994 147.084 60.0038 147.94C61.043 149.223 63.5953 152.968 65.2305 160.242C66.117 164.185 69.0971 167.884 73.4222 170.375C77.5028 172.729 82.1336 173.63 85.236 172.652C89.7598 171.231 92.9539 168.297 92.9845 168.266C93.0915 168.159 93.2596 168.144 93.3819 168.22C93.5041 168.297 93.5805 168.434 93.55 168.587L92.3273 174.517C92.312 174.563 92.2968 174.608 92.2662 174.639C92.2356 174.685 89.2096 178.964 84.2426 181.96C79.78 184.649 72.8262 186.82 64.7721 182.204C65.7654 185.23 66.7894 187.584 67.63 189.494C69.3722 193.498 70.5337 196.142 69.2805 200.085C66.6977 208.262 57.8183 207.513 53.05 207.115C51.8579 207.008 50.8187 206.932 50.3296 207.039L49.8864 207.131C46.3713 207.91 40.5943 209.179 35.0772 209.179ZM24.104 150.614C18.923 160.426 22.9272 170.497 25.7851 175.632C25.8157 175.678 25.8309 175.739 25.8309 175.785C26.0908 186.804 24.1192 190.625 22.6979 193.437C21.5976 195.577 20.8792 196.998 21.6128 200.62C22.1019 203.065 23.3704 204.961 25.3572 206.26C31.7455 210.432 43.926 207.757 49.7641 206.474L50.2073 206.382C50.7881 206.26 51.7662 206.336 53.1264 206.458C58.0323 206.871 66.2239 207.543 68.6539 199.902C69.8307 196.188 68.7762 193.789 67.0339 189.784C66.1017 187.675 64.9555 185.031 63.8704 181.562C63.8245 181.425 63.8704 181.272 63.9926 181.195C64.0996 181.104 64.2524 181.104 64.3747 181.18C70.87 185.215 77.4417 185.291 83.8911 181.409C88.4302 178.674 91.3186 174.838 91.6854 174.333L92.6941 169.443C91.4715 170.421 88.8428 172.27 85.45 173.34C82.1794 174.364 77.3347 173.447 73.1013 171.002C68.6234 168.419 65.5209 164.567 64.5887 160.426C62.9839 153.258 60.4775 149.621 59.4841 148.383C59.4689 148.367 59.4689 148.352 59.4536 148.337C58.9798 147.542 58.3838 146.809 57.6043 146.136C51.8579 141.062 41.7558 142.728 37.446 143.431C32.4179 144.256 28.4443 144.914 25.7087 147.985C25.0057 148.78 24.486 149.605 24.1345 150.538C24.1345 150.568 24.1192 150.584 24.104 150.614Z" fill="#003359"/>
<path d="M57.4821 171.414C57.4821 171.414 68.9748 167.227 72.5663 159.57L79.9633 152.677C79.9633 152.677 79.8563 156.009 77.6556 157.4C77.6556 157.4 79.5354 161.19 76.7539 163.819C76.7539 163.819 74.6601 165.484 73.4222 165.515C73.4222 165.515 69.7848 177.482 59.9426 181.043C59.9579 181.027 57.1917 176.824 57.4821 171.414Z" fill="white"/>
<path d="M59.9578 181.364C59.8509 181.364 59.7439 181.302 59.6675 181.211C59.5452 181.043 56.8401 176.855 57.1458 171.384C57.1458 171.246 57.2375 171.124 57.375 171.078C57.482 171.032 68.7761 166.845 72.2607 159.402C72.276 159.356 72.3065 159.325 72.3371 159.295L79.7341 152.402C79.8411 152.311 79.9786 152.28 80.1009 152.341C80.2231 152.402 80.2996 152.525 80.2996 152.662C80.2996 152.8 80.1773 155.948 78.0835 157.492C78.4656 158.439 79.4895 161.694 76.9984 164.033C76.8914 164.109 75.0269 165.592 73.682 165.79C73.1165 167.456 69.2041 178.017 60.0648 181.318C60.0343 181.364 60.0037 181.364 59.9578 181.364ZM57.8182 171.644C57.6501 176.076 59.5605 179.682 60.1107 180.599C69.4792 177.023 73.086 165.5 73.1165 165.378C73.1624 165.24 73.2846 165.133 73.4375 165.133C74.3697 165.118 76.005 163.956 76.5705 163.513C79.1075 161.114 77.4416 157.66 77.3805 157.507C77.3041 157.354 77.3499 157.155 77.5028 157.064C78.8477 156.208 79.352 154.542 79.5354 153.518L72.872 159.738C69.4486 166.936 59.4535 171.017 57.8182 171.644Z" fill="#003359"/>
<path d="M47.1202 184.833C37.5377 184.833 32.0511 180.095 31.9747 180.019C31.8371 179.896 31.8218 179.682 31.9441 179.545C32.0664 179.407 32.2803 179.392 32.4179 179.514C32.5096 179.606 42.2907 188.012 58.5824 181.975C58.7505 181.914 58.9492 182.005 59.0256 182.174C59.0868 182.357 58.9951 182.54 58.8269 182.617C54.456 184.237 50.5283 184.833 47.1202 184.833Z" fill="#003359"/>
<path d="M53.0041 171.873C44.6596 171.873 39.7996 167.12 37.1404 162.932C34.0073 158.011 33.1821 152.769 33.1668 152.723C33.1362 152.54 33.2585 152.356 33.4571 152.341C33.6405 152.311 33.8239 152.433 33.8392 152.631C33.8545 152.677 34.6645 157.797 37.7211 162.596C41.8017 169 47.7162 171.857 55.3118 171.078C55.4952 171.063 55.6633 171.2 55.6786 171.384C55.6939 171.567 55.5564 171.735 55.373 171.75C54.563 171.827 53.7683 171.873 53.0041 171.873Z" fill="#003359"/>
<path d="M59.4689 165.836C59.4536 165.836 59.4383 165.836 59.423 165.836C59.2396 165.805 59.1021 165.637 59.1327 165.454C60.6304 155.199 55.9385 149.392 55.8927 149.33C55.7704 149.193 55.7857 148.964 55.9385 148.857C56.0761 148.734 56.29 148.75 56.4123 148.903C56.611 149.147 61.3487 154.985 59.8051 165.561C59.7898 165.714 59.637 165.836 59.4689 165.836Z" fill="#003359"/>
<path d="M57.3597 136.997C57.0387 134.857 57.5584 129.187 57.4514 129.325C56.5344 130.67 53.5236 129.08 50.8033 128.973C48.0829 128.866 48.9999 132.947 48.9999 132.947C48.9999 132.947 48.2051 130.181 46.5087 131.908C45.5306 132.916 46.6157 134.215 47.6244 135.056C47.3493 135.377 42.4587 140.634 39.4633 143.767L46.1114 148.811L49.4431 145.708L48.7706 144.623C48.2816 143.859 48.251 142.881 48.6636 142.071L50.2836 139.32C50.6504 139.778 51.1242 140.283 51.5674 140.588C52.4385 141.2 53.5084 141.093 54.2725 140.374C55.327 139.381 56.0453 138.25 56.3816 137.165L57.3597 136.997Z" fill="white"/>
<path d="M46.1114 149.162C46.035 149.162 45.9739 149.147 45.9128 149.086L39.2647 144.042C39.1882 143.981 39.1424 143.889 39.1271 143.798C39.1118 143.706 39.1577 143.599 39.2188 143.538C41.9545 140.68 46.0962 136.217 47.1354 135.086C46.4935 134.49 45.8211 133.696 45.7905 132.87C45.7752 132.412 45.928 132.015 46.2796 131.663C46.8145 131.113 47.3647 130.899 47.8843 131.021C48.1288 131.082 48.3428 131.22 48.5262 131.403C48.5414 130.685 48.679 129.86 49.1375 129.309C49.5348 128.836 50.1003 128.606 50.8186 128.637C51.8426 128.683 52.9124 128.927 53.8599 129.141C55.3882 129.493 56.7179 129.798 57.1611 129.141C57.2528 129.019 57.4056 128.958 57.5584 129.004C57.8182 129.095 57.8182 129.095 57.7418 130.593C57.6501 132.305 57.4667 135.499 57.6807 136.951C57.7113 137.134 57.589 137.302 57.4056 137.333L56.6262 137.471C56.2441 138.571 55.5105 139.656 54.4865 140.634C53.6001 141.475 52.3469 141.582 51.3535 140.879C51.0479 140.665 50.7116 140.344 50.3143 139.916L48.9235 142.254C48.572 142.942 48.6179 143.782 49.0305 144.455L49.703 145.54C49.7947 145.678 49.7641 145.861 49.6418 145.968L46.3101 149.07C46.2796 149.131 46.2031 149.162 46.1114 149.162ZM39.983 143.737L46.0962 148.367L48.9999 145.647L48.465 144.806C47.9148 143.935 47.869 142.835 48.3428 141.918L49.978 139.136C50.0392 139.045 50.1309 138.984 50.2379 138.968C50.3448 138.953 50.4518 138.999 50.5282 139.091C51.002 139.656 51.4146 140.069 51.7356 140.298C52.4692 140.802 53.3556 140.741 54.0128 140.115C55.0214 139.152 55.7092 138.097 56.0301 137.043C56.0607 136.92 56.1677 136.829 56.3052 136.813L56.9624 136.706C56.7943 135.086 56.9624 132.167 57.0541 130.532C57.0694 130.349 57.0694 130.181 57.0846 130.028C56.2746 130.379 55.052 130.104 53.7071 129.783C52.7443 129.569 51.7509 129.34 50.788 129.294C50.2837 129.279 49.9169 129.416 49.6571 129.722C48.9999 130.517 49.1986 132.244 49.3362 132.84C49.382 133.023 49.2597 133.191 49.0916 133.237C48.9082 133.283 48.7248 133.176 48.679 133.008C48.5873 132.702 48.2205 131.801 47.7009 131.663C47.4411 131.602 47.1201 131.755 46.7533 132.121C46.5394 132.335 46.4477 132.565 46.463 132.825C46.4935 133.359 46.9826 134.062 47.8384 134.781C47.9148 134.842 47.9454 134.918 47.9607 135.01C47.9607 135.102 47.9301 135.193 47.8843 135.255C47.6397 135.575 43.0548 140.512 39.983 143.737Z" fill="#003359"/>
<path d="M49.7488 138.602L50.2684 139.32L49.7488 138.602Z" fill="white"/>
<path d="M50.2684 139.671C50.1615 139.671 50.0545 139.625 49.9934 139.534L49.4737 138.815C49.3668 138.663 49.3973 138.449 49.5502 138.342C49.703 138.235 49.9169 138.265 50.0239 138.418L50.5435 139.136C50.6505 139.289 50.62 139.503 50.4671 139.61C50.406 139.656 50.3449 139.671 50.2684 139.671Z" fill="#003359"/>
<path d="M107.488 246.27C107.427 246.545 110.606 261.095 110.606 261.095L103.3 259.872L101.1 247.569L107.488 246.27Z" fill="white"/>
<path d="M110.606 261.446C110.59 261.446 110.575 261.446 110.545 261.446L103.239 260.224C103.102 260.193 102.98 260.086 102.964 259.949L100.763 247.646C100.733 247.462 100.855 247.294 101.023 247.248L107.427 245.949C107.549 245.919 107.656 245.965 107.733 246.041C107.794 246.102 107.84 246.194 107.824 246.301C107.87 246.912 109.704 255.425 110.927 261.034C110.957 261.141 110.911 261.263 110.835 261.339C110.789 261.4 110.697 261.446 110.606 261.446ZM103.591 259.582L110.163 260.682C107.992 250.733 107.381 247.661 107.213 246.683L101.482 247.844L103.591 259.582Z" fill="#003359"/>
<path d="M106.724 256.327C107.167 255.944 107.809 255.578 108.619 255.547C109.842 255.501 110.957 256.265 111.462 257.396C112.73 260.208 116.077 268.064 117.025 274.483C117.361 276.745 115.649 278.594 112.975 277.111C108.604 274.681 102.536 269.088 99.3727 260.835C99.0059 259.888 99.1435 258.818 99.7395 257.992C100.229 257.32 100.886 256.51 101.665 255.822C102.399 255.165 103.514 255.15 104.263 255.776L104.951 256.342C105.471 256.77 106.22 256.754 106.724 256.327Z" fill="white"/>
<path d="M114.793 277.982C114.258 277.982 113.601 277.83 112.822 277.402C108.252 274.849 102.231 269.195 99.0671 260.942C98.6545 259.872 98.8073 258.695 99.4797 257.778C100.122 256.907 100.779 256.158 101.451 255.562C102.307 254.783 103.591 254.768 104.493 255.516L105.18 256.082C105.562 256.403 106.128 256.388 106.51 256.067C107.137 255.532 107.87 255.241 108.619 255.211C109.933 255.15 111.217 255.975 111.798 257.259C113.158 260.285 116.444 268.033 117.376 274.437C117.575 275.751 117.132 276.943 116.245 277.555C115.94 277.753 115.466 277.982 114.793 277.982ZM102.995 255.654C102.597 255.654 102.215 255.792 101.894 256.067C101.268 256.632 100.641 257.335 100.015 258.176C99.4797 258.894 99.3728 259.842 99.6937 260.697C102.796 268.782 108.68 274.315 113.143 276.806C114.197 277.386 115.16 277.463 115.833 276.989C116.505 276.515 116.841 275.583 116.673 274.529C115.741 268.217 112.501 260.545 111.141 257.534C110.682 256.51 109.674 255.853 108.619 255.899C108.008 255.929 107.442 256.158 106.923 256.602C106.281 257.136 105.364 257.136 104.722 256.617L104.034 256.051C103.744 255.776 103.362 255.654 102.995 255.654Z" fill="#003359"/>
<path d="M115.374 275.415C114.793 275.415 108.634 275.048 101.161 260.285C101.069 260.117 101.146 259.918 101.314 259.826C101.482 259.735 101.68 259.811 101.772 259.979C109.261 274.788 115.328 274.743 115.389 274.743C115.588 274.743 115.741 274.88 115.741 275.063C115.741 275.247 115.603 275.415 115.42 275.415C115.405 275.415 115.389 275.415 115.374 275.415Z" fill="#003359"/>
<path d="M110.682 267.284C110.545 267.284 110.422 267.208 110.361 267.07C110.285 266.902 110.377 266.704 110.56 266.627L114.029 265.267C114.197 265.191 114.396 265.282 114.472 265.466C114.549 265.634 114.457 265.832 114.274 265.909L110.804 267.269C110.774 267.284 110.728 267.284 110.682 267.284Z" fill="#003359"/>
<path d="M109.475 264.64C109.337 264.64 109.215 264.564 109.154 264.426C109.093 264.258 109.169 264.06 109.353 263.983L113.418 262.394C113.586 262.333 113.785 262.409 113.861 262.592C113.922 262.761 113.846 262.959 113.662 263.036L109.597 264.625C109.551 264.625 109.521 264.64 109.475 264.64Z" fill="#003359"/>
<path d="M76.0357 247.6C75.8676 247.814 72.6276 262.363 72.6276 262.363L66.5144 258.176L69.6933 246.087L76.0357 247.6Z" fill="white"/>
<path d="M72.6275 262.699C72.5664 262.699 72.49 262.684 72.4289 262.638L66.3157 258.451C66.1934 258.374 66.1475 258.221 66.1781 258.084L69.357 245.995C69.4028 245.812 69.5862 245.705 69.7696 245.751L76.1273 247.264C76.2343 247.294 76.326 247.371 76.3719 247.478C76.4024 247.569 76.4024 247.661 76.3566 247.753C76.1426 248.318 74.2323 256.815 72.979 262.44C72.9485 262.547 72.8721 262.638 72.7651 262.684C72.704 262.699 72.6581 262.699 72.6275 262.699ZM66.8964 258.023L72.3983 261.782C74.6143 251.833 75.3479 248.792 75.6077 247.829L69.9224 246.469L66.8964 258.023Z" fill="#003359"/>
<path d="M71.1145 256.388C71.68 256.235 72.4136 256.174 73.1624 256.479C74.2934 256.953 74.9811 258.115 74.9811 259.352C74.9505 262.44 74.6754 270.968 72.8415 277.188C72.1843 279.388 69.8613 280.336 68.0732 277.875C65.1388 273.825 61.9752 266.215 62.5713 257.381C62.6324 256.372 63.2132 255.455 64.0996 254.966C64.8179 254.569 65.7654 254.11 66.7588 253.805C67.7064 253.514 68.7151 253.973 69.143 254.859L69.5251 255.654C69.7849 256.265 70.4573 256.571 71.1145 256.388Z" fill="white"/>
<path d="M70.4115 279.679C69.739 279.679 68.7456 279.404 67.7828 278.074C64.7109 273.841 61.6238 266.169 62.2198 257.366C62.2962 256.219 62.9381 255.211 63.9162 254.676C64.8638 254.156 65.7807 253.744 66.6366 253.484C67.737 253.147 68.9138 253.667 69.4181 254.722L69.8002 255.516C70.0141 255.96 70.5185 256.204 71.0075 256.067C71.8022 255.853 72.5817 255.883 73.2847 256.174C74.5073 256.678 75.3173 257.962 75.302 259.368C75.2715 262.699 74.9811 271.105 73.1471 277.295C72.7651 278.563 71.8787 279.465 70.8088 279.648C70.7019 279.664 70.5643 279.679 70.4115 279.679ZM67.309 254.064C67.1562 254.064 66.9881 254.095 66.82 254.141C66.01 254.385 65.1389 254.768 64.2372 255.272C63.4577 255.7 62.9534 256.51 62.8923 257.411C62.3115 266.046 65.3223 273.55 68.333 277.677C69.036 278.655 69.8766 279.113 70.7019 278.976C71.5119 278.838 72.1996 278.12 72.5053 277.096C74.3086 270.983 74.599 262.654 74.6296 259.352C74.6449 258.221 74.003 257.198 73.0249 256.8C72.4594 256.571 71.8481 256.54 71.1909 256.724C70.3962 256.938 69.5404 256.556 69.1889 255.807L68.8068 255.012C68.5164 254.416 67.9356 254.064 67.309 254.064Z" fill="#003359"/>
<path d="M71.084 277.401C71.0381 277.401 70.9923 277.386 70.9464 277.371C70.7019 277.264 64.9708 274.666 64.3748 257.641C64.3748 257.457 64.5123 257.289 64.6957 257.289C64.8791 257.289 65.0472 257.427 65.0472 257.61C65.628 274.192 71.1451 276.714 71.2063 276.729C71.3744 276.805 71.4661 277.004 71.3897 277.172C71.3438 277.325 71.2215 277.401 71.084 277.401Z" fill="#003359"/>
<path d="M73.9572 268.262H73.9419L70.2281 268.048C70.0447 268.033 69.8919 267.88 69.9072 267.682C69.9225 267.498 70.0753 267.345 70.274 267.361L73.9877 267.575C74.1711 267.59 74.324 267.743 74.3087 267.941C74.2934 268.109 74.1406 268.262 73.9572 268.262Z" fill="#003359"/>
<path d="M74.6143 265.389H74.599L70.2434 265.114C70.06 265.099 69.9072 264.946 69.9224 264.747C69.9377 264.564 70.1058 264.411 70.2892 264.426L74.6449 264.701C74.8283 264.717 74.9811 264.87 74.9658 265.068C74.9353 265.252 74.7824 265.389 74.6143 265.389Z" fill="#003359"/>
<path d="M41.8323 190.258C41.8323 190.258 86.3517 188.332 91.227 192.841C97.8292 198.985 109.169 250.03 109.169 250.03L98.2113 253.102C98.2113 253.102 81.7056 211.211 77.6251 211.211C73.5292 211.211 34.9855 209.836 34.9855 209.836L41.8323 190.258Z" fill="#003359"/>
<path d="M38.8826 189.142C35.3675 188.959 32.2192 191.313 31.3939 194.736C30.1102 200.039 28.9945 207.299 31.8677 209.224C36.5443 212.373 70.2281 212.097 69.0513 211.715C67.8898 211.318 66.0405 239.943 66.0405 250.947L76.6469 251.359C76.6469 251.359 93.55 207.1 91.7313 202.148C88.476 193.299 63.3813 191.282 55.3577 190.105C54.2726 189.952 45.1181 189.463 38.8826 189.142Z" fill="#003359"/>
<path d="M86.1224 226.509C86.0918 226.509 86.0459 226.509 86.0154 226.494C85.832 226.433 85.7403 226.25 85.8014 226.066C86.1835 224.874 86.5656 223.697 86.9324 222.551C89.8973 213.381 92.4648 205.465 91.4103 202.255C89.1637 195.454 72.3065 192.856 66.7741 191.985C66.5907 191.954 66.4684 191.786 66.4837 191.603C66.5143 191.42 66.6824 191.282 66.8658 191.313C76.6469 192.826 89.9125 195.592 92.0522 202.041C93.1831 205.449 90.7073 213.091 87.5895 222.765C87.2227 223.911 86.8407 225.088 86.4586 226.265C86.4127 226.418 86.2752 226.509 86.1224 226.509Z" fill="white"/>
<path d="M183.659 212.755L188.824 265.68L192.523 265.527L190.689 209.882L183.659 212.755Z" fill="white"/>
<path d="M188.824 266.016C188.656 266.016 188.503 265.878 188.488 265.71L183.322 212.785C183.307 212.632 183.399 212.495 183.536 212.434L190.566 209.561C190.673 209.515 190.78 209.53 190.887 209.591C190.979 209.652 191.04 209.759 191.04 209.866L192.874 265.512C192.874 265.695 192.737 265.848 192.553 265.863L188.824 266.016C188.84 266.016 188.84 266.016 188.824 266.016ZM184.025 212.969L189.145 265.328L192.171 265.206L190.368 210.401L184.025 212.969Z" fill="#003359"/>
<path d="M252.998 210.845L247.939 265.802L244.134 265.527L245.967 207.88L252.998 210.845Z" fill="white"/>
<path d="M247.939 266.154C247.924 266.154 247.924 266.154 247.908 266.154L244.103 265.863C243.92 265.848 243.782 265.695 243.782 265.512L245.616 207.864C245.616 207.757 245.677 207.65 245.769 207.589C245.86 207.528 245.983 207.513 246.09 207.559L253.12 210.524C253.257 210.585 253.334 210.722 253.319 210.875L248.275 265.833C248.275 266.016 248.122 266.154 247.939 266.154ZM244.485 265.206L247.633 265.451L252.631 211.058L246.288 208.384L244.485 265.206Z" fill="#003359"/>
<path d="M270.543 197.915L269.06 255.624L266.08 254.982L263.359 195.164L270.543 197.915Z" fill="white"/>
<path d="M269.06 255.96C269.029 255.96 269.014 255.96 268.984 255.945L266.003 255.303C265.851 255.272 265.744 255.135 265.728 254.982L262.993 195.164C262.993 195.057 263.039 194.935 263.13 194.874C263.222 194.812 263.344 194.797 263.451 194.828L270.649 197.579C270.787 197.625 270.879 197.762 270.863 197.9L269.381 255.608C269.381 255.715 269.335 255.807 269.243 255.868C269.213 255.945 269.136 255.96 269.06 255.96ZM266.416 254.707L268.739 255.211L270.206 198.144L263.726 195.668L266.416 254.707Z" fill="#003359"/>
<path d="M212.36 196.616L210.878 254.34L207.79 254.355L205.177 193.88L212.36 196.616Z" fill="white"/>
<path d="M207.79 254.692C207.607 254.692 207.454 254.554 207.454 254.371L204.841 193.896C204.841 193.789 204.887 193.666 204.978 193.605C205.07 193.544 205.192 193.529 205.299 193.559L212.498 196.31C212.635 196.356 212.727 196.494 212.712 196.631L211.229 254.34C211.229 254.523 211.076 254.676 210.893 254.676L207.79 254.692ZM205.544 194.385L208.127 254.019L210.557 254.004L212.024 196.861L205.544 194.385Z" fill="#003359"/>
<path d="M227.322 151.546V164.98C227.322 178.108 216.96 188.76 204.184 188.76C191.407 188.76 181.045 199.413 181.045 212.541C181.045 213.718 181.993 214.665 183.154 214.665H244.393C263.543 214.665 279.071 198.71 279.071 179.01V150.354C279.071 142.529 272.896 136.172 265.27 136.172H242.254C234.016 136.172 227.322 143.064 227.322 151.546Z" fill="white"/>
<path d="M244.393 215.001H183.154C181.794 215.001 180.694 213.901 180.694 212.541C180.694 199.245 191.224 188.424 204.168 188.424C216.731 188.424 226.971 177.91 226.971 164.98V151.546C226.971 142.881 233.833 135.835 242.269 135.835H265.285C273.08 135.835 279.422 142.346 279.422 150.354V179.01C279.422 198.847 263.711 215.001 244.393 215.001ZM242.269 136.523C234.215 136.523 227.658 143.263 227.658 151.562V164.995C227.658 178.292 217.128 189.112 204.184 189.112C191.621 189.112 181.381 199.627 181.381 212.556C181.381 213.534 182.176 214.329 183.154 214.329H244.393C263.329 214.329 278.734 198.496 278.734 179.025V150.354C278.734 142.728 272.697 136.523 265.285 136.523H242.269Z" fill="#003359"/>
<path d="M222.951 152.188C222.951 152.188 219.619 182.54 197.199 184.527L222.951 184.894C222.951 184.894 232.488 165.546 232.87 158.011C233.252 150.477 222.951 152.188 222.951 152.188Z" fill="white"/>
<path d="M222.951 185.215C222.936 185.215 222.936 185.215 222.951 185.215L197.199 184.848C197.016 184.848 196.878 184.695 196.863 184.527C196.863 184.344 196.985 184.191 197.169 184.176C208.585 183.167 214.882 174.532 218.168 167.471C221.744 159.769 222.615 152.219 222.615 152.142C222.63 151.99 222.752 151.867 222.89 151.837C223.119 151.791 228.652 150.92 231.54 153.487C232.748 154.557 233.313 156.085 233.206 158.011C232.824 165.53 223.639 184.237 223.242 185.016C223.196 185.154 223.073 185.215 222.951 185.215ZM200.944 184.221L222.737 184.527C223.731 182.494 232.167 164.95 232.534 157.98C232.625 156.269 232.136 154.939 231.097 154.007C228.774 151.944 224.357 152.341 223.257 152.479C223.073 153.9 222.034 160.762 218.794 167.746C214.637 176.687 208.509 182.326 200.944 184.221Z" fill="#003359"/>
<path d="M254.847 132.901C250.491 131.877 248.688 131.862 232.87 132.442C229.003 132.58 224.418 137.44 223.96 141.276C225.182 144.959 230.852 163.161 220.964 177.39C219.558 179.407 217.648 181.623 215.035 183.748C216.502 184.94 218.794 186.483 221.866 187.4C226.971 188.913 229.538 187.278 233.634 187.4C244.5 187.721 248.489 199.841 255.519 198.328C257.399 197.915 259.875 196.463 262.213 191.542C263.528 187.477 264.704 182.693 265.362 177.283C267.134 162.626 264.231 150.431 261.648 142.774C260.868 140.359 259.967 134.108 254.847 132.901Z" fill="url(#paint1_linear_27_3)"/>
<path d="M220.001 155.581C220.001 155.581 222.554 135.056 229.92 133.314L228.224 160.304L220.001 155.581Z" fill="url(#paint2_linear_27_3)"/>
<path d="M257.445 150.11C260.807 151.531 264.765 153.212 268.25 154.71C268.25 154.756 268.25 154.802 268.25 154.832L257.46 150.171L257.445 150.11Z" fill="white"/>
<path d="M268.235 155.184C268.189 155.184 268.143 155.168 268.097 155.153L257.307 150.492C257.185 150.446 257.109 150.324 257.109 150.201V150.125C257.109 150.003 257.154 149.896 257.261 149.835C257.353 149.773 257.475 149.758 257.582 149.804C261.694 151.546 265.423 153.136 268.387 154.404C268.51 154.45 268.586 154.572 268.586 154.71V154.847C268.586 154.97 268.525 155.077 268.433 155.138C268.372 155.153 268.311 155.184 268.235 155.184Z" fill="#003359"/>
<path d="M242.269 130.746L241.841 124.587C241.551 124.572 241.337 124.556 241.291 124.556C239.579 124.541 239.014 123.976 238.861 122.57C238.769 121.683 238.738 120.369 239.166 118.734C239.212 118.566 239.197 118.367 239.136 118.199L238.845 117.511C238.784 117.282 238.861 117.037 239.044 116.9L239.197 116.777C239.762 116.319 240.221 115.753 240.603 115.127C240.939 114.546 241.535 113.461 241.933 113.278C243.064 112.743 247.648 110.343 250.201 114.531C252.203 117.801 248.932 122.295 247.755 123.777C247.465 124.129 249.696 131.113 249.696 131.113L252.57 131.801C252.57 131.801 250.354 135.744 243.614 134.108C238.815 132.947 239.579 131.159 239.579 131.159L242.269 130.746Z" fill="white"/>
<path d="M246.686 134.842C245.753 134.842 244.699 134.72 243.507 134.429C241.23 133.879 239.839 133.115 239.35 132.137C239.044 131.526 239.228 131.067 239.243 131.021C239.289 130.914 239.396 130.838 239.503 130.823L241.902 130.471L241.505 124.923C241.382 124.908 241.291 124.908 241.26 124.908C239.426 124.893 238.677 124.266 238.509 122.616C238.372 121.286 238.479 119.987 238.83 118.657C238.861 118.55 238.845 118.443 238.815 118.352L238.524 117.664C238.524 117.649 238.509 117.633 238.509 117.618C238.418 117.267 238.54 116.884 238.815 116.655L238.968 116.533C239.472 116.12 239.915 115.585 240.297 114.974L240.45 114.714C240.954 113.858 241.367 113.186 241.764 112.987L241.887 112.926C245.83 111.016 248.718 111.505 250.476 114.363C252.508 117.679 249.498 122.111 248.046 123.93C248.046 124.526 248.978 127.812 249.941 130.838L252.631 131.495C252.738 131.526 252.814 131.587 252.86 131.694C252.906 131.785 252.89 131.908 252.845 131.999C252.753 132.091 251.148 134.842 246.686 134.842ZM239.854 131.449C239.854 131.556 239.885 131.694 239.976 131.862C240.206 132.29 241 133.115 243.675 133.772C248.81 135.01 251.209 132.901 251.973 131.999L249.589 131.419C249.467 131.388 249.375 131.312 249.345 131.189C247.068 124.037 247.343 123.685 247.465 123.533C248.81 121.867 251.714 117.679 249.895 114.684C247.572 110.893 243.522 112.85 242.192 113.507L242.07 113.568C241.826 113.69 241.291 114.592 241.046 115.02L240.893 115.28C240.481 115.967 239.992 116.548 239.411 117.022L239.258 117.144C239.182 117.205 239.151 117.297 239.166 117.389L239.441 118.046C239.533 118.275 239.564 118.55 239.487 118.795C239.151 120.048 239.059 121.271 239.197 122.509C239.319 123.655 239.64 124.174 241.291 124.19C241.352 124.19 241.566 124.205 241.871 124.22C242.04 124.236 242.177 124.373 242.192 124.541L242.62 130.7C242.636 130.884 242.513 131.037 242.33 131.067L239.854 131.449Z" fill="#003359"/>
<path d="M248.764 109.182C247.526 108.907 246.09 109.105 245.494 108.876C244.515 108.525 244.5 107.348 243.155 107.027C241.535 106.63 240.847 107.333 240.206 108.295C240.099 108.463 240.007 108.632 239.931 108.846C238.907 111.596 240.206 112.926 240.771 113.369C240.771 113.369 244.439 115.264 245.066 115.799C245.646 116.304 246.334 117.511 245.906 119.223C245.845 119.452 245.952 119.681 246.135 119.788C246.349 119.926 246.64 119.865 246.793 119.635C247.266 118.948 248.306 117.603 249.054 117.924C249.987 118.321 249.696 121.118 247.648 121.439C247.022 121.53 246.502 122.188 246.563 122.845C246.609 123.273 247.007 123.792 247.618 123.93C247.985 124.022 248.351 123.869 248.672 123.655C250.017 122.799 253.792 119.177 254.251 115.922C254.816 112.009 250.415 109.533 248.764 109.182Z" fill="#003359"/>
<path d="M241.367 124.862C241.184 124.862 241.031 124.725 241.031 124.541C241.031 124.358 241.168 124.19 241.352 124.19C241.367 124.19 242.681 124.129 243.568 123.364C243.705 123.242 243.919 123.257 244.042 123.41C244.164 123.548 244.149 123.762 243.996 123.884C242.941 124.801 241.444 124.862 241.367 124.862C241.382 124.862 241.382 124.862 241.367 124.862Z" fill="#003359"/>
<path d="M212.009 248.578C211.382 247.936 207.76 236.673 207.76 236.673L200.607 241.777L208.448 252.323L212.009 248.578Z" fill="white"/>
<path d="M208.463 252.659H208.448C208.341 252.659 208.249 252.598 208.188 252.521L200.348 241.976C200.287 241.9 200.271 241.808 200.287 241.716C200.302 241.625 200.348 241.548 200.424 241.487L207.576 236.382C207.668 236.321 207.775 236.306 207.882 236.337C207.989 236.367 208.066 236.459 208.096 236.551C209.472 240.83 211.81 247.799 212.268 248.334C212.375 248.471 212.391 248.67 212.268 248.808L208.707 252.567C208.646 252.628 208.555 252.659 208.463 252.659ZM201.097 241.854L208.493 251.803L211.596 248.532C210.755 246.912 208.371 239.622 207.592 237.223L201.097 241.854Z" fill="#003359"/>
<path d="M199.125 262.822L203.878 262.791C207.026 262.776 209.945 261.171 211.672 258.527L216.379 251.069C217.679 249.006 216.945 246.286 214.805 245.139C212.849 244.1 210.786 243.076 210.297 243.122C209.319 243.214 208.921 247.845 208.921 247.845L204.688 248.013C204.688 248.013 202.594 256.724 200.745 257.717C199.4 258.436 198.468 259.505 197.841 260.468C197.184 261.492 197.917 262.837 199.125 262.822Z" fill="#003359"/>
<path d="M199.599 261.309C199.431 261.309 199.293 261.187 199.262 261.019C199.232 260.835 199.369 260.652 199.553 260.637L206.063 259.658C207.424 259.46 208.616 258.65 209.319 257.473L215.065 247.86C215.157 247.692 215.371 247.646 215.539 247.738C215.707 247.829 215.753 248.043 215.661 248.211L209.915 257.824C209.105 259.185 207.744 260.102 206.17 260.331L199.66 261.309C199.645 261.309 199.614 261.309 199.599 261.309Z" fill="white"/>
<path d="M207.638 254.08C207.607 254.08 207.576 254.08 207.546 254.065L203.924 253.071C203.74 253.025 203.633 252.842 203.679 252.659C203.725 252.475 203.909 252.368 204.092 252.414L207.714 253.408C207.897 253.453 208.004 253.637 207.959 253.82C207.928 253.973 207.79 254.08 207.638 254.08Z" fill="white"/>
<path d="M205.742 255.945C205.712 255.945 205.681 255.945 205.666 255.929L203.236 255.333C203.053 255.287 202.946 255.104 202.992 254.921C203.037 254.737 203.221 254.63 203.404 254.676L205.834 255.272C206.018 255.318 206.125 255.501 206.079 255.685C206.033 255.838 205.895 255.945 205.742 255.945Z" fill="white"/>
<path d="M187.602 246.423L179.303 254.768L174.901 253.148L182.558 242.465L187.602 246.423Z" fill="white"/>
<path d="M179.303 255.119C179.257 255.119 179.227 255.119 179.181 255.104L174.779 253.484C174.672 253.453 174.596 253.362 174.565 253.27C174.535 253.163 174.55 253.056 174.611 252.964L182.268 242.282C182.329 242.205 182.405 242.159 182.497 242.144C182.589 242.129 182.68 242.159 182.757 242.22L187.815 246.179C187.892 246.24 187.938 246.332 187.953 246.423C187.953 246.515 187.922 246.622 187.861 246.683L179.563 255.043C179.486 255.073 179.395 255.119 179.303 255.119ZM175.436 252.995L179.211 254.386L187.097 246.454L182.635 242.954L175.436 252.995Z" fill="#003359"/>
<path d="M231.571 184.756C231.571 184.756 193.623 180.095 182.329 190.396C171.05 200.696 200.149 244.987 200.149 244.987L209.349 237.788L200.623 206.489L235.713 195.989L231.571 184.756Z" fill="white"/>
<path d="M200.149 245.323C200.134 245.323 200.118 245.323 200.088 245.323C199.996 245.308 199.904 245.246 199.858 245.17C198.666 243.351 170.729 200.513 182.1 190.136C193.378 179.85 230.058 184.221 231.617 184.405C231.739 184.42 231.846 184.512 231.892 184.619L236.018 195.852C236.049 195.943 236.049 196.035 236.003 196.127C235.957 196.203 235.881 196.28 235.789 196.295L201.02 206.703L209.655 237.681C209.685 237.819 209.64 237.956 209.533 238.048L200.332 245.246C200.286 245.292 200.225 245.323 200.149 245.323ZM212.849 184.053C201.616 184.053 188.381 185.322 182.558 190.64C172.105 200.177 197.673 240.524 200.225 244.482L208.952 237.651L200.286 206.565C200.241 206.382 200.332 206.198 200.516 206.152L235.254 195.745L231.311 185.047C229.951 184.909 222.08 184.053 212.849 184.053Z" fill="#003359"/>
<path d="M252.463 205.129C246.945 206.978 237.088 209.362 223.303 209.163C219.39 209.102 215.768 211.395 213.995 215.062C209.915 223.499 201.066 238.705 186.669 248.563L179.792 244.65L197.337 203.004C198.941 199.199 201.937 196.249 205.635 194.813L240.419 181.363C240.419 181.363 251.209 178.185 256.497 188.333C257.445 190.151 259.202 186.911 259.615 188.363C261.036 193.391 257.185 203.554 252.463 205.129Z" fill="white"/>
<path d="M186.654 248.914C186.593 248.914 186.532 248.899 186.486 248.869L179.609 244.956C179.456 244.864 179.395 244.681 179.456 244.528L197.001 202.882C198.636 199.015 201.723 195.959 205.498 194.507L240.282 181.058C240.42 181.012 251.423 177.909 256.772 188.195C256.879 188.409 257.002 188.531 257.139 188.562C257.414 188.638 257.827 188.348 258.194 188.103C258.622 187.813 259.034 187.538 259.447 187.675C259.676 187.752 259.829 187.966 259.921 188.271C261.373 193.376 257.491 203.784 252.554 205.434L252.447 205.113L252.554 205.434C246.716 207.39 236.889 209.683 223.272 209.484C223.226 209.484 223.18 209.484 223.135 209.484C219.375 209.484 215.982 211.67 214.27 215.2C210.266 223.499 201.356 238.889 186.837 248.838C186.792 248.899 186.73 248.914 186.654 248.914ZM180.205 244.513L186.639 248.165C200.928 238.308 209.701 223.117 213.674 214.925C215.493 211.165 219.268 208.766 223.303 208.827C236.813 209.026 246.563 206.749 252.356 204.808C256.925 203.279 260.639 193.223 259.294 188.47C259.264 188.348 259.233 188.317 259.233 188.317C259.141 188.302 258.805 188.531 258.606 188.669C258.117 188.99 257.582 189.356 257.002 189.219C256.681 189.143 256.406 188.898 256.207 188.501C251.118 178.719 240.954 181.577 240.527 181.7L205.773 195.133C202.182 196.524 199.217 199.443 197.658 203.142L180.205 244.513Z" fill="#003359"/>
<path d="M181.932 253.469C181.932 253.469 182.329 257.03 181.656 260.163C181.29 261.844 179.792 263.021 178.08 263.021H157.693C156.241 263.021 155.568 261.202 156.699 260.27C160.321 257.228 166.985 252.582 175.192 251.222L177.484 254.432L181.932 253.469Z" fill="#003359"/>
<path d="M179.777 260.545H158.656C158.472 260.545 158.319 260.392 158.319 260.209C158.319 260.025 158.472 259.872 158.656 259.872H179.777C179.96 259.872 180.113 260.025 180.113 260.209C180.113 260.392 179.96 260.545 179.777 260.545Z" fill="white"/>
<path d="M170.439 256.785C170.301 256.785 170.179 256.709 170.118 256.571L169.002 253.851C168.926 253.683 169.017 253.484 169.186 253.408C169.354 253.331 169.552 253.423 169.629 253.591L170.745 256.311C170.821 256.479 170.729 256.678 170.561 256.755C170.531 256.785 170.485 256.785 170.439 256.785Z" fill="white"/>
<path d="M166.771 257.503C166.633 257.503 166.496 257.412 166.45 257.274L165.64 254.829C165.579 254.645 165.671 254.462 165.854 254.401C166.037 254.34 166.221 254.432 166.282 254.615L167.092 257.06C167.153 257.244 167.061 257.427 166.878 257.488C166.832 257.503 166.801 257.503 166.771 257.503Z" fill="white"/>
<path d="M258.969 154.341C255.271 167.821 244.282 176.425 228.327 180.949L230.757 185.488C252.917 184.709 264.532 175.08 269.178 156.603L258.969 154.341Z" fill="white"/>
<path d="M230.772 185.84C230.65 185.84 230.528 185.763 230.467 185.656L228.037 181.117C227.991 181.026 227.991 180.919 228.021 180.827C228.067 180.735 228.144 180.659 228.235 180.628C244.909 175.89 255.134 167.011 258.633 154.25C258.679 154.082 258.863 153.975 259.031 154.005L269.24 156.282C269.331 156.298 269.408 156.359 269.454 156.435C269.5 156.512 269.515 156.603 269.5 156.695C264.716 175.814 252.398 185.076 230.772 185.84ZM228.831 181.163L230.971 185.152C251.985 184.357 264.013 175.356 268.766 156.863L259.214 154.739C255.592 167.485 245.383 176.364 228.831 181.163Z" fill="#003359"/>
<path d="M270.13 159.341C270.13 159.341 269.412 147.145 268.357 142.438C266.141 132.534 253.319 132.427 253.319 132.427L255.566 157.644L270.13 159.341Z" fill="url(#paint3_linear_27_3)"/>
<path d="M232.473 183.228C232.243 182.785 231.861 182.433 231.403 182.265C231.066 182.143 230.746 181.99 230.425 181.822L226.084 179.514C225.274 179.117 224.113 180.049 223.272 180.324C220.72 181.165 215.463 183.136 215.89 184.986C216.364 186.988 220.888 186.04 222.493 185.628C222.86 185.536 226.191 186.743 227.246 186.82C228.698 186.927 229.034 186.56 229.752 186.193C230.073 186.025 230.44 185.949 230.822 185.949C231.418 185.949 231.999 185.689 232.366 185.23L232.381 185.215C232.793 184.695 232.87 183.992 232.564 183.396L232.473 183.228Z" fill="white"/>
<path d="M227.719 187.186C227.567 187.186 227.398 187.186 227.215 187.171C226.634 187.125 225.503 186.789 224.403 186.468C223.654 186.254 222.737 185.964 222.538 185.979C220.857 186.407 217.77 186.988 216.318 186.101C215.906 185.857 215.646 185.505 215.554 185.077C215.096 183.121 219.436 181.241 223.165 180.019C223.394 179.942 223.654 179.805 223.945 179.667C224.678 179.3 225.519 178.872 226.237 179.224L230.593 181.532C230.959 181.73 231.25 181.853 231.525 181.96C232.06 182.158 232.518 182.556 232.778 183.091L232.87 183.259C233.237 183.962 233.145 184.818 232.641 185.444C232.197 185.994 231.54 186.3 230.822 186.3C230.47 186.3 230.165 186.376 229.905 186.514C229.798 186.575 229.691 186.621 229.599 186.682C229.141 186.927 228.698 187.186 227.719 187.186ZM222.554 185.291C222.829 185.291 223.318 185.429 224.602 185.811C225.61 186.117 226.757 186.453 227.276 186.499C228.392 186.59 228.759 186.376 229.263 186.086C229.37 186.025 229.477 185.964 229.584 185.903C229.935 185.719 230.363 185.612 230.822 185.612C231.342 185.612 231.8 185.398 232.106 185.016C232.442 184.588 232.503 184.023 232.259 183.549L232.167 183.381C231.968 182.999 231.662 182.724 231.28 182.586C230.975 182.479 230.654 182.326 230.256 182.128L225.916 179.82C225.503 179.621 224.831 179.958 224.235 180.263C223.929 180.416 223.639 180.569 223.364 180.645C218.687 182.174 215.951 183.809 216.211 184.894C216.272 185.154 216.425 185.352 216.67 185.505C217.571 186.055 219.711 185.979 222.401 185.291C222.462 185.291 222.508 185.291 222.554 185.291Z" fill="#003359"/>
<path d="M70.442 189.311H240.893C244.072 189.311 246.533 191.404 246.181 193.788L234.413 271.869H225.916L233.282 198.587C233.405 197.304 232.06 196.188 230.348 196.188H84.0286C81.461 196.188 79.4437 197.838 79.6423 199.764L86.9323 272.328H78.435L66.4684 192.688C66.1933 190.885 68.0578 189.311 70.442 189.311Z" fill="white"/>
<path d="M86.9323 272.664H78.435C78.2669 272.664 78.1293 272.542 78.0987 272.374L66.1321 192.734C66.0099 191.939 66.2544 191.129 66.8352 190.472C67.6452 189.54 69.0054 188.974 70.4572 188.974H240.909C242.819 188.974 244.576 189.708 245.631 190.931C246.365 191.786 246.686 192.826 246.533 193.85L234.765 271.931C234.734 272.099 234.597 272.221 234.429 272.221H225.931C225.84 272.221 225.748 272.175 225.671 272.114C225.61 272.038 225.58 271.946 225.58 271.854L232.946 198.572C232.992 198.052 232.747 197.655 232.533 197.411C232.044 196.876 231.234 196.555 230.348 196.555H84.0285C82.6684 196.555 81.3999 197.059 80.6357 197.9C80.1314 198.45 79.9021 199.107 79.9633 199.764L87.2533 272.313C87.2685 272.404 87.238 272.511 87.1616 272.572C87.1157 272.618 87.024 272.664 86.9323 272.664ZM78.7253 271.976H86.5502L79.2908 199.795C79.1991 198.939 79.5048 198.098 80.1314 197.411C81.0178 196.432 82.4697 195.852 84.0285 195.852H230.348C231.418 195.852 232.427 196.249 233.038 196.937C233.481 197.426 233.695 198.022 233.634 198.618L226.298 271.533H234.123L245.845 193.743C245.967 192.902 245.707 192.092 245.096 191.374C244.179 190.304 242.605 189.662 240.893 189.662H70.442C69.1735 189.662 68.012 190.136 67.3395 190.931C66.8963 191.45 66.7129 192.046 66.8046 192.658L78.7253 271.976Z" fill="#003359"/>
<path d="M211.917 186.804L202.762 159.814C202.212 158.974 201.249 158.454 200.225 158.454H175.803C174.703 158.454 173.984 159.524 174.351 160.487C174.489 160.869 174.657 161.236 174.779 161.618L183.063 186.865C183.093 188.348 184.285 189.524 185.768 189.524H230.822C232.32 189.524 233.527 188.317 233.527 186.804H211.917Z" fill="white"/>
<path d="M230.822 189.861H185.768C184.132 189.861 182.787 188.546 182.726 186.926L174.458 161.725C174.366 161.465 174.259 161.19 174.168 160.93L174.046 160.609C173.832 160.059 173.908 159.432 174.259 158.928C174.611 158.408 175.192 158.118 175.834 158.118H200.256C201.402 158.118 202.457 158.683 203.083 159.631C203.099 159.662 203.114 159.677 203.114 159.707L212.192 186.468H233.527C233.71 186.468 233.863 186.621 233.863 186.804C233.879 188.485 232.503 189.861 230.822 189.861ZM183.368 186.712C183.383 186.758 183.399 186.804 183.399 186.85C183.429 188.134 184.484 189.173 185.768 189.173H230.822C232.014 189.173 233.007 188.287 233.16 187.14H211.917C211.764 187.14 211.642 187.049 211.596 186.911L202.457 159.952C201.968 159.218 201.142 158.775 200.225 158.775H175.803C175.39 158.775 175.024 158.958 174.794 159.295C174.58 159.6 174.535 159.998 174.657 160.334L174.779 160.655C174.886 160.93 174.993 161.205 175.085 161.495L183.368 186.712Z" fill="#003359"/>
<path d="M193.776 172.285C194.127 173.431 193.592 174.593 192.599 174.899C191.606 175.204 190.521 174.517 190.184 173.37C189.833 172.224 190.368 171.063 191.361 170.757C192.339 170.467 193.424 171.154 193.776 172.285Z" fill="#003359"/>
<path d="M112.287 189.907H67.2325C65.9946 189.907 65.0012 188.913 65.0012 187.675V187.247H114.503V187.675C114.518 188.913 113.525 189.907 112.287 189.907Z" fill="white"/>
<path d="M112.287 190.243H67.2326C65.8113 190.243 64.665 189.097 64.665 187.675V187.247C64.665 187.064 64.8179 186.911 65.0013 186.911H114.503C114.686 186.911 114.839 187.064 114.839 187.247V187.675C114.854 189.097 113.708 190.243 112.287 190.243ZM65.3528 187.599V187.691C65.3528 188.73 66.1933 189.586 67.2479 189.586H112.302C113.341 189.586 114.197 188.745 114.197 187.691V187.599H65.3528Z" fill="#003359"/>
<path d="M114.518 187.293H86.1835L95.1852 160.793C95.7201 159.967 96.6676 159.463 97.6763 159.463H121.625C122.71 159.463 123.413 160.517 123.061 161.45C122.924 161.816 122.771 162.183 122.649 162.565L114.518 187.293Z" fill="white"/>
<path d="M114.518 187.645H86.1835C86.0765 187.645 85.9696 187.599 85.9084 187.507C85.8473 187.415 85.832 187.308 85.8626 187.201L94.8643 160.701C94.8796 160.67 94.8796 160.655 94.8948 160.624C95.5062 159.692 96.5301 159.142 97.6611 159.142H121.61C122.236 159.142 122.802 159.432 123.153 159.937C123.489 160.426 123.566 161.037 123.352 161.587L123.23 161.908C123.123 162.168 123.031 162.428 122.939 162.687L114.824 187.415C114.793 187.538 114.671 187.645 114.518 187.645ZM86.6573 186.957H114.258L122.297 162.458C122.389 162.183 122.496 161.908 122.603 161.648L122.725 161.343C122.847 161.006 122.802 160.624 122.588 160.319C122.358 159.998 122.007 159.814 121.61 159.814H97.6763C96.7899 159.814 95.9799 160.242 95.5062 160.961L86.6573 186.957Z" fill="#003359"/>
<path d="M104.003 173.034C103.667 174.15 104.187 175.296 105.15 175.602C106.128 175.892 107.182 175.22 107.519 174.104C107.855 172.988 107.335 171.842 106.372 171.536C105.409 171.246 104.34 171.903 104.003 173.034Z" fill="#003359"/>
<path d="M270.13 273.581H223.746C220.964 273.581 218.871 271.029 219.436 268.293L226.482 234.075C227.078 231.201 229.599 229.138 232.549 229.138H272.346L270.13 273.581Z" fill="white"/>
<path d="M270.13 273.933H223.746C222.309 273.933 220.98 273.291 220.078 272.19C219.176 271.075 218.825 269.638 219.115 268.247L226.161 234.029C226.787 231.003 229.477 228.817 232.549 228.817H272.346C272.438 228.817 272.529 228.863 272.59 228.924C272.652 228.985 272.682 229.077 272.682 229.169L270.481 273.612C270.466 273.78 270.313 273.933 270.13 273.933ZM232.534 229.49C229.767 229.49 227.368 231.461 226.802 234.166L219.772 268.37C219.528 269.562 219.833 270.8 220.598 271.747C221.377 272.695 222.523 273.245 223.746 273.245H269.809L271.964 229.49H232.534Z" fill="#003359"/>
<path d="M276.075 273.581H267.073C264.292 273.581 262.198 271.029 262.763 268.293L270.512 230.62C270.695 229.765 271.444 229.153 272.315 229.153H274.623C275.586 229.153 276.381 229.887 276.457 230.85L279.621 269.714C279.819 271.808 278.169 273.581 276.075 273.581Z" fill="white"/>
<path d="M276.075 273.933H267.073C265.637 273.933 264.307 273.291 263.405 272.19C262.504 271.075 262.152 269.638 262.443 268.247L270.191 230.559C270.405 229.551 271.291 228.817 272.331 228.817H274.638C275.769 228.817 276.717 229.704 276.808 230.819L279.972 269.684C280.064 270.769 279.682 271.854 278.948 272.664C278.215 273.474 277.175 273.933 276.075 273.933ZM272.331 229.49C271.628 229.49 271.001 229.994 270.863 230.697L263.115 268.385C262.87 269.577 263.176 270.815 263.94 271.762C264.72 272.71 265.866 273.26 267.089 273.26H276.09C277.007 273.26 277.848 272.893 278.474 272.221C279.101 271.548 279.391 270.677 279.315 269.76L276.151 230.896C276.09 230.116 275.433 229.52 274.654 229.52H272.331V229.49Z" fill="#003359"/>
<path d="M263.818 247.447H227.49C227.307 247.447 227.154 247.294 227.154 247.111C227.154 246.927 227.307 246.775 227.49 246.775H263.818C264.735 246.775 265.53 246.148 265.744 245.246L268.938 231.736C268.984 231.553 269.167 231.446 269.35 231.476C269.534 231.522 269.641 231.706 269.61 231.889L266.416 245.399C266.126 246.607 265.056 247.447 263.818 247.447Z" fill="#003359"/>
<path d="M249.803 247.111L248.779 251.222C248.611 251.91 248 252.414 247.282 252.414H240.083C239.304 252.414 238.738 251.665 238.937 250.916L239.992 247.126H249.803V247.111Z" fill="white"/>
<path d="M247.282 252.735H240.083C239.61 252.735 239.166 252.521 238.876 252.139C238.586 251.757 238.494 251.268 238.616 250.809L239.671 247.019C239.717 246.866 239.839 246.775 239.992 246.775H249.788C249.895 246.775 249.987 246.821 250.063 246.912C250.124 246.989 250.155 247.096 250.124 247.203L249.1 251.314C248.917 252.139 248.153 252.735 247.282 252.735ZM240.267 247.447L239.289 250.993C239.212 251.253 239.273 251.512 239.426 251.726C239.594 251.94 239.839 252.063 240.099 252.063H247.297C247.862 252.063 248.336 251.681 248.458 251.146L249.375 247.462H240.267V247.447Z" fill="#003359"/>
<path d="M260.502 270.494H221.912C221.728 270.494 221.576 270.341 221.576 270.158C221.576 269.974 221.728 269.821 221.912 269.821H260.502C260.685 269.821 260.838 269.974 260.838 270.158C260.838 270.341 260.685 270.494 260.502 270.494Z" fill="#003359"/>
<path d="M241.703 227.594H238.693C237.883 227.594 237.225 228.252 237.225 229.062H243.186C243.186 228.252 242.513 227.594 241.703 227.594Z" fill="#003359"/>
<path d="M243.186 229.413H237.225C237.042 229.413 236.889 229.26 236.889 229.077C236.889 228.084 237.699 227.258 238.708 227.258H241.719C242.712 227.258 243.537 228.068 243.537 229.077C243.522 229.26 243.369 229.413 243.186 229.413ZM237.607 228.725H242.788C242.651 228.267 242.208 227.931 241.703 227.931H238.693C238.188 227.931 237.76 228.267 237.607 228.725Z" fill="#003359"/>
<path d="M265.851 227.594H262.84C262.03 227.594 261.373 228.252 261.373 229.062H267.333C267.318 228.252 266.661 227.594 265.851 227.594Z" fill="#003359"/>
<path d="M267.318 229.413H261.357C261.174 229.413 261.021 229.26 261.021 229.077C261.021 228.084 261.831 227.258 262.84 227.258H265.851C266.844 227.258 267.669 228.068 267.669 229.077C267.654 229.26 267.501 229.413 267.318 229.413ZM261.755 228.725H266.936C266.798 228.267 266.355 227.931 265.851 227.931H262.84C262.32 227.931 261.892 228.267 261.755 228.725Z" fill="#003359"/>
<path d="M265.056 227.518L265.545 224.629C265.896 222.581 264.506 220.931 262.473 220.931H244.408C242.36 220.931 240.435 222.581 240.083 224.629L239.594 227.518H240.97L241.352 225.271C241.627 223.682 243.125 222.383 244.714 222.383H261.648C263.237 222.383 264.307 223.667 264.047 225.271L263.665 227.518H265.056Z" fill="white"/>
<path d="M265.056 227.854H263.68C263.573 227.854 263.482 227.808 263.421 227.732C263.36 227.655 263.329 227.548 263.344 227.457L263.726 225.21C263.833 224.538 263.68 223.896 263.283 223.437C262.901 222.979 262.32 222.734 261.663 222.734H244.729C243.293 222.734 241.933 223.896 241.703 225.332L241.321 227.579C241.291 227.747 241.153 227.869 240.985 227.869H239.61C239.503 227.869 239.411 227.824 239.35 227.747C239.289 227.671 239.258 227.564 239.273 227.472L239.762 224.584C240.129 222.383 242.223 220.595 244.424 220.595H262.488C263.573 220.595 264.521 221.023 265.163 221.787C265.82 222.566 266.08 223.605 265.896 224.706L265.407 227.594C265.362 227.732 265.224 227.854 265.056 227.854ZM264.078 227.182H264.766L265.209 224.584C265.362 223.682 265.148 222.841 264.628 222.23C264.108 221.619 263.344 221.282 262.473 221.282H244.409C242.529 221.282 240.741 222.811 240.42 224.706L240.007 227.197H240.695L241.031 225.241C241.321 223.499 242.987 222.077 244.729 222.077H261.663C262.534 222.077 263.283 222.413 263.803 223.025C264.338 223.651 264.536 224.477 264.399 225.348L264.078 227.182Z" fill="#003359"/>
<path d="M261.571 219.739H245.707C245.066 219.739 244.47 220.259 244.347 220.901L244.118 222.291C244.011 222.933 244.439 223.453 245.081 223.453H260.945C261.587 223.453 262.183 222.933 262.305 222.291L262.534 220.901C262.641 220.259 262.213 219.739 261.571 219.739Z" fill="#003359"/>
<path d="M260.945 223.774H245.081C244.668 223.774 244.317 223.606 244.057 223.315C243.812 223.025 243.705 222.627 243.782 222.215L244.011 220.824C244.149 220.014 244.882 219.387 245.692 219.387H261.556C261.969 219.387 262.32 219.556 262.58 219.846C262.824 220.136 262.931 220.534 262.855 220.946L262.626 222.337C262.503 223.147 261.755 223.774 260.945 223.774ZM245.708 220.075C245.234 220.075 244.775 220.473 244.684 220.946L244.454 222.337C244.424 222.551 244.47 222.75 244.592 222.887C244.714 223.025 244.882 223.101 245.096 223.101H260.96C261.434 223.101 261.892 222.704 261.984 222.23L262.213 220.839C262.244 220.625 262.198 220.427 262.076 220.289C261.953 220.152 261.785 220.075 261.571 220.075H245.708Z" fill="#003359"/>
<path d="M266.997 270.494C266.875 270.494 266.768 270.433 266.706 270.326C266.615 270.158 266.676 269.959 266.829 269.867L272.881 266.429V231.828C272.881 231.645 273.034 231.492 273.217 231.492C273.4 231.492 273.553 231.645 273.553 231.828V266.627C273.553 266.75 273.492 266.857 273.385 266.918L267.165 270.463C267.104 270.479 267.043 270.494 266.997 270.494Z" fill="#003359"/>
<defs>
<linearGradient id="paint0_linear_27_3" x1="141.245" y1="160.24" x2="116.614" y2="228.131" gradientUnits="userSpaceOnUse">
<stop stop-color="#C9EEF7"/>
<stop offset="1" stop-color="#64CFE9"/>
</linearGradient>
<linearGradient id="paint1_linear_27_3" x1="247.537" y1="148.688" x2="234.762" y2="199.94" gradientUnits="userSpaceOnUse">
<stop stop-color="#C9EEF7"/>
<stop offset="1" stop-color="#64CFE9"/>
</linearGradient>
<linearGradient id="paint2_linear_27_3" x1="226.339" y1="140.074" x2="217.286" y2="157.496" gradientUnits="userSpaceOnUse">
<stop stop-color="#C9EEF7"/>
<stop offset="1" stop-color="#64CFE9"/>
</linearGradient>
<linearGradient id="paint3_linear_27_3" x1="264.06" y1="139.168" x2="257.891" y2="159.346" gradientUnits="userSpaceOnUse">
<stop stop-color="#C9EEF7"/>
<stop offset="1" stop-color="#64CFE9"/>
</linearGradient>
</defs>
</svg>
