<svg width="280" height="280" viewBox="0 0 280 280" fill="none" xmlns="http://www.w3.org/2000/svg">
<path d="M213.172 44.2847C213.637 38.3747 213.172 29.9519 208.1 22.9096C194.062 3.45796 153.095 6.31211 145.138 22.1805C141.105 30.2311 145.464 41.8183 151.994 48.2091C161.642 57.6402 177.93 57.5472 187.873 51.8854C197.335 46.4873 200.282 36.4668 206.285 37.3975C209.62 37.9249 211.854 41.5081 213.172 44.2847Z" fill="white"/>
<path d="M172.175 56.1511C171.384 56.1511 170.593 56.12 169.801 56.0735C162.682 55.5771 156.26 52.8781 151.746 48.4728C145.091 41.9734 140.671 30.2931 144.812 22.0409C148.302 15.0917 158.307 10.1435 170.918 9.13519C178.162 8.56126 185.639 9.38338 191.983 11.493C199.103 13.8352 204.765 17.7287 208.363 22.7234C212.443 28.3852 214.165 35.6446 213.498 44.3157C213.482 44.4708 213.374 44.6104 213.219 44.6259C213.064 44.6569 212.908 44.5794 212.846 44.4242C210.923 40.3757 208.705 38.1265 206.223 37.7387C203.152 37.2579 200.84 39.9259 197.924 43.3074C195.334 46.3012 192.417 49.6827 188.043 52.1801C183.576 54.755 177.899 56.1511 172.175 56.1511ZM175.277 9.66259C173.788 9.66259 172.361 9.72464 170.98 9.83322C158.602 10.826 148.814 15.6191 145.448 22.3511C141.508 30.2156 145.898 41.7717 152.242 47.9764C161.766 57.2834 178.054 57.0973 187.702 51.5906C191.968 49.1553 194.853 45.8203 197.397 42.8731C200.453 39.3364 202.872 36.5288 206.331 37.0717C208.798 37.4595 211 39.445 212.893 42.9972C213.296 35.0552 211.59 28.3697 207.805 23.1422C200.577 13.0907 186.616 9.66259 175.277 9.66259Z" fill="#003359"/>
<path d="M193.55 28.2456H159.052C158.866 28.2456 158.695 28.0905 158.695 27.8889C158.695 27.7027 158.85 27.5321 159.052 27.5321H193.55C193.736 27.5321 193.907 27.6872 193.907 27.8889C193.891 28.0905 193.736 28.2456 193.55 28.2456Z" fill="#003359"/>
<path d="M185.577 34.3106H168.235C168.049 34.3106 167.878 34.1555 167.878 33.9538C167.878 33.7677 168.033 33.597 168.235 33.597H185.592C185.778 33.597 185.949 33.7522 185.949 33.9538C185.934 34.1555 185.778 34.3106 185.577 34.3106Z" fill="#003359"/>
<path d="M121.591 84.0256C120.785 82.8933 111.741 69.7083 117.419 54.662C121.405 44.0986 131.565 35.5361 143.354 35.0863C145.34 35.0087 157.888 34.5124 164.621 44.5329C169.15 51.2805 169.646 60.7116 165.241 67.5677C159.998 75.7114 150.009 76.8747 148.519 77.0299C138.127 78.0691 132.403 71.4146 126.741 74.6255C123.282 76.5955 122.072 80.9853 121.591 84.0256Z" fill="white"/>
<path d="M121.591 84.3513C121.483 84.3513 121.39 84.3048 121.327 84.2117C120.304 82.7691 111.416 69.6307 117.124 54.5534C119.125 49.2484 122.739 44.3777 127.268 40.8411C132.077 37.0873 137.63 34.9932 143.339 34.776C147.759 34.6054 158.711 35.1948 164.884 44.3622C169.6 51.3735 169.848 60.9907 165.505 67.7383C160.463 75.5717 151.25 77.0763 148.55 77.34C143.463 77.8519 139.538 76.5645 136.095 75.4166C132.527 74.2377 129.704 73.307 126.912 74.8892C124.337 76.3473 122.661 79.4341 121.917 84.0566C121.901 84.1807 121.793 84.2893 121.669 84.3203C121.638 84.3358 121.622 84.3513 121.591 84.3513ZM144.533 35.381C144.114 35.381 143.726 35.3965 143.37 35.3965C132.248 35.8308 121.932 43.6177 117.729 54.7706C112.641 68.2192 119.404 80.1011 121.421 83.1879C122.258 78.7826 123.995 75.8199 126.586 74.3463C129.626 72.609 132.713 73.6328 136.296 74.8116C139.693 75.9285 143.525 77.2004 148.488 76.7041C150.365 76.5179 159.967 75.1839 164.977 67.3816C169.181 60.8356 168.933 51.5131 164.357 44.7035C158.85 36.5133 149.373 35.381 144.533 35.381Z" fill="#003359"/>
<path d="M156.989 54.1967H127.299C127.129 54.1967 126.974 54.0571 126.974 53.8709C126.974 53.7003 127.113 53.5452 127.299 53.5452H156.989C157.159 53.5452 157.315 53.6848 157.315 53.8709C157.299 54.0416 157.159 54.1967 156.989 54.1967Z" fill="#003359"/>
<path d="M147.666 58.0591H137.056C136.886 58.0591 136.731 57.9195 136.731 57.7333C136.731 57.5472 136.87 57.4076 137.056 57.4076H147.682C147.852 57.4076 148.008 57.5472 148.008 57.7333C148.008 57.9195 147.852 58.0591 147.666 58.0591Z" fill="#003359"/>
<path d="M146.425 153.549C146.239 153.549 146.069 153.394 146.069 153.192V150.477C146.069 150.291 146.224 150.121 146.425 150.121C146.627 150.121 146.782 150.276 146.782 150.477V153.192C146.767 153.394 146.612 153.549 146.425 153.549Z" fill="#003359"/>
<path d="M146.425 159.847C146.239 159.847 146.069 159.691 146.069 159.49V156.775C146.069 156.589 146.224 156.419 146.425 156.419C146.627 156.419 146.782 156.574 146.782 156.775V159.49C146.767 159.691 146.612 159.847 146.425 159.847Z" fill="#003359"/>
<path d="M144.626 155.348H141.912C141.725 155.348 141.555 155.193 141.555 154.991C141.555 154.805 141.71 154.635 141.912 154.635H144.626C144.812 154.635 144.983 154.79 144.983 154.991C144.967 155.193 144.812 155.348 144.626 155.348Z" fill="#003359"/>
<path d="M150.924 155.348H148.225C148.039 155.348 147.868 155.193 147.868 154.991C147.868 154.805 148.023 154.635 148.225 154.635H150.939C151.125 154.635 151.296 154.79 151.296 154.991C151.281 155.193 151.125 155.348 150.924 155.348Z" fill="#003359"/>
<path d="M238.363 29.502C238.317 29.502 238.27 29.4865 238.223 29.471C238.053 29.3934 237.975 29.1762 238.053 29.0056L239.185 26.5548C239.263 26.3841 239.48 26.3066 239.651 26.3841C239.821 26.4617 239.899 26.6789 239.821 26.8495L238.689 29.3003C238.627 29.4244 238.503 29.502 238.363 29.502Z" fill="#003359"/>
<path d="M235.726 35.2257C235.68 35.2257 235.633 35.2102 235.586 35.1947C235.416 35.1172 235.338 34.9 235.416 34.7294L236.548 32.2785C236.626 32.1079 236.843 32.0303 237.014 32.1079C237.184 32.1855 237.262 32.4026 237.184 32.5732L236.052 35.0241C235.99 35.1482 235.866 35.2257 235.726 35.2257Z" fill="#003359"/>
<path d="M235.974 30.3706C235.928 30.3706 235.881 30.3551 235.835 30.3396L233.384 29.2073C233.213 29.1297 233.136 28.9125 233.213 28.7419C233.291 28.5713 233.508 28.4937 233.679 28.5713L236.129 29.7036C236.3 29.7812 236.378 29.9983 236.3 30.169C236.238 30.2931 236.114 30.3706 235.974 30.3706Z" fill="#003359"/>
<path d="M241.714 33.0231C241.667 33.0231 241.621 33.0076 241.574 32.9921L239.123 31.8597C238.953 31.7822 238.875 31.565 238.953 31.3944C239.03 31.2237 239.247 31.1462 239.418 31.2237L241.869 32.3561C242.039 32.4336 242.117 32.6508 242.039 32.8214C241.962 32.9455 241.838 33.0231 241.714 33.0231Z" fill="#003359"/>
<path d="M84.2391 24.6779C84.115 24.6779 84.0064 24.6159 83.9444 24.5073C83.8513 24.3367 83.8978 24.1195 84.0685 24.0264C107.553 10.19 132.387 3.7992 155.888 5.55202C156.074 5.56753 156.229 5.73816 156.213 5.9243C156.198 6.11044 156.027 6.26556 155.841 6.25005C132.465 4.51274 107.77 10.8725 84.4097 24.6314C84.3632 24.6624 84.3011 24.6779 84.2391 24.6779Z" fill="#003359"/>
<path d="M102.838 10.4847C102.698 10.4847 102.574 10.4071 102.512 10.2675C102.434 10.0969 102.527 9.87973 102.698 9.81768C119.699 2.79089 136.715 -0.497583 153.313 0.0608373C153.499 0.0608373 153.654 0.231466 153.654 0.417606C153.654 0.603746 153.499 0.758863 153.297 0.758863C136.793 0.200442 119.869 3.47341 102.962 10.4537C102.931 10.4692 102.884 10.4847 102.838 10.4847Z" fill="#003359"/>
<path d="M167.506 176.196C166.606 176.196 165.706 175.777 165.148 175.001C164.698 174.381 164.512 173.605 164.636 172.845C164.76 172.085 165.179 171.403 165.8 170.953C167.102 170.022 168.917 170.317 169.864 171.604C170.313 172.225 170.5 173 170.375 173.761C170.251 174.521 169.833 175.203 169.212 175.653C168.685 176.025 168.095 176.196 167.506 176.196ZM167.506 171.108C167.056 171.108 166.606 171.248 166.218 171.527C165.737 171.868 165.427 172.38 165.334 172.954C165.241 173.528 165.381 174.117 165.722 174.598C166.435 175.591 167.816 175.808 168.809 175.095C169.29 174.753 169.6 174.241 169.693 173.667C169.786 173.094 169.646 172.504 169.305 172.023C168.871 171.418 168.188 171.108 167.506 171.108Z" fill="#003359"/>
<path d="M204.935 131.926C203.431 133.492 210.116 140.938 215.437 143.683L224.077 132.174L204.935 131.926Z" fill="white"/>
<path d="M215.437 144.009C215.39 144.009 215.328 143.994 215.282 143.978C210.768 141.651 204.873 135.633 204.424 132.887C204.346 132.375 204.439 131.988 204.703 131.708C204.765 131.646 204.858 131.6 204.951 131.6L224.077 131.833C224.201 131.833 224.31 131.91 224.372 132.019C224.434 132.127 224.418 132.267 224.341 132.36L215.701 143.87C215.623 143.963 215.53 144.009 215.437 144.009ZM205.106 132.267C205.044 132.391 205.044 132.562 205.075 132.779C205.463 135.09 210.768 140.798 215.328 143.265L223.394 132.5L205.106 132.267Z" fill="#003359"/>
<path d="M227.412 251.365C227.412 251.365 225.225 258.066 223.038 260.114C220.85 262.161 212.148 266.179 212.024 270.569C211.885 275.657 214.832 276.587 222.743 274.757C228.451 273.438 233.167 269.933 234.857 267.947C236.347 266.179 235.509 264.69 235.152 262.627C234.702 260.098 234.625 257.508 234.625 254.949V250.745L227.412 251.365Z" fill="white"/>
<path d="M216.786 275.951C215.127 275.951 213.963 275.61 213.141 274.943C212.086 274.075 211.621 272.679 211.683 270.553C211.776 267.218 216.445 264.163 219.858 261.944C221.114 261.122 222.215 260.409 222.789 259.866C224.883 257.896 227.055 251.319 227.071 251.257C227.117 251.133 227.226 251.04 227.35 251.024L234.547 250.388C234.64 250.373 234.733 250.404 234.795 250.481C234.857 250.543 234.904 250.636 234.904 250.729V254.933C234.904 257.229 234.966 259.928 235.431 262.565C235.509 262.968 235.586 263.356 235.68 263.728C236.036 265.217 236.362 266.629 235.059 268.149C233.399 270.104 228.606 273.718 222.774 275.067C220.307 275.657 218.338 275.951 216.786 275.951ZM227.645 251.676C227.241 252.855 225.287 258.454 223.255 260.362C222.634 260.952 221.517 261.665 220.23 262.503C216.941 264.643 212.428 267.575 212.35 270.569C212.303 272.477 212.691 273.702 213.575 274.431C214.971 275.564 217.764 275.564 222.665 274.431C228.343 273.113 232.996 269.623 234.594 267.73C235.68 266.458 235.416 265.372 235.075 263.883C234.982 263.496 234.888 263.108 234.811 262.673C234.346 259.99 234.268 257.26 234.268 254.933V251.086L227.645 251.676Z" fill="#003359"/>
<path d="M212.334 273.004C212.164 273.004 212.009 272.864 212.009 272.694C211.993 272.508 212.133 272.353 212.319 272.337L215.127 272.135C222.246 271.624 228.885 268.552 233.865 263.511C234.532 262.828 234.904 262.41 234.904 262.394C235.028 262.254 235.23 262.239 235.369 262.363C235.509 262.487 235.524 262.689 235.4 262.828C235.385 262.844 235.013 263.278 234.33 263.976C229.258 269.142 222.448 272.275 215.173 272.802L212.366 273.004C212.35 273.004 212.334 273.004 212.334 273.004Z" fill="#003359"/>
<path d="M229.289 262.224C229.273 262.224 229.258 262.224 229.227 262.224C229.072 262.193 225.302 261.541 223.782 259.571C223.674 259.432 223.705 259.214 223.844 259.106C223.984 258.997 224.201 259.028 224.31 259.168C225.659 260.936 229.304 261.557 229.335 261.572C229.521 261.603 229.646 261.774 229.615 261.96C229.599 262.1 229.459 262.224 229.289 262.224Z" fill="#003359"/>
<path d="M225.954 264.488C225.938 264.488 225.907 264.488 225.892 264.488C225.737 264.457 222.138 263.682 220.99 261.727C220.897 261.572 220.943 261.37 221.114 261.277C221.269 261.184 221.471 261.231 221.564 261.401C222.572 263.108 226 263.852 226.031 263.852C226.217 263.883 226.326 264.069 226.295 264.24C226.248 264.38 226.109 264.488 225.954 264.488Z" fill="#003359"/>
<path d="M222.355 266.629C222.324 266.629 222.277 266.629 222.246 266.613C222.122 266.567 219.16 265.45 218.229 263.496C218.151 263.325 218.213 263.139 218.384 263.046C218.555 262.968 218.741 263.03 218.834 263.201C219.656 264.907 222.448 265.962 222.479 265.977C222.65 266.039 222.743 266.226 222.681 266.412C222.619 266.551 222.495 266.629 222.355 266.629Z" fill="#003359"/>
<path d="M244.273 234.861C244.537 234.861 248.337 234.489 250.54 234.256C251.393 234.163 252.153 234.784 252.246 235.637L252.68 239.623C252.835 241.035 253.115 242.431 253.518 243.78C254.247 246.247 255.302 250.497 254.728 252.451C254.107 254.53 252.153 257.415 250.865 259.059C250.276 259.819 249.268 260.114 248.353 259.819C246.724 259.276 244.102 258.222 242.582 256.686C240.224 254.328 242.768 249.814 242.768 249.814L244.273 234.861Z" fill="white"/>
<path d="M249.082 260.285C248.802 260.285 248.523 260.238 248.26 260.145C246.414 259.525 243.885 258.47 242.35 256.934C239.976 254.561 242.132 250.311 242.443 249.721L243.947 234.83C243.963 234.659 244.102 234.535 244.273 234.535C244.459 234.535 246.801 234.318 250.509 233.946C251.533 233.837 252.463 234.597 252.587 235.621L253.022 239.608C253.177 240.973 253.44 242.353 253.844 243.718C254.712 246.696 255.628 250.636 255.054 252.575C254.433 254.623 252.556 257.477 251.145 259.292C250.633 259.928 249.857 260.285 249.082 260.285ZM244.583 235.187L243.11 249.876C243.11 249.923 243.094 249.969 243.063 250C243.032 250.047 240.674 254.328 242.815 256.469C244.335 257.989 247.003 259.028 248.461 259.525C249.237 259.788 250.105 259.525 250.602 258.873C252.091 256.965 253.844 254.204 254.402 252.374C254.961 250.497 253.89 246.262 253.192 243.904C252.789 242.508 252.494 241.081 252.355 239.685L251.92 235.699C251.843 235.032 251.238 234.535 250.571 234.613C247.329 234.923 245.312 235.125 244.583 235.187Z" fill="#003359"/>
<path d="M247.329 259.633C247.267 259.633 247.189 259.618 247.143 259.571C246.988 259.463 246.957 259.261 247.065 259.106C251.564 252.793 251.253 251.164 250.602 247.581C250.462 246.805 250.292 245.921 250.167 244.882C249.811 242.167 248.771 234.706 248.756 234.629C248.725 234.442 248.865 234.272 249.035 234.256C249.221 234.225 249.392 234.365 249.407 234.536C249.423 234.613 250.462 242.074 250.819 244.804C250.943 245.828 251.114 246.697 251.253 247.472C251.951 251.226 252.262 252.948 247.608 259.494C247.546 259.587 247.437 259.633 247.329 259.633Z" fill="#003359"/>
<path d="M247.965 248.217C247.949 248.217 247.934 248.217 247.918 248.217L243.637 247.581C243.451 247.55 243.327 247.379 243.358 247.208C243.389 247.022 243.559 246.898 243.73 246.929L248.011 247.565C248.197 247.596 248.322 247.767 248.291 247.937C248.26 248.093 248.12 248.217 247.965 248.217Z" fill="#003359"/>
<path d="M247.515 251.304C247.499 251.304 247.484 251.304 247.468 251.304L243.187 250.668C243.001 250.637 242.877 250.466 242.908 250.295C242.939 250.109 243.11 249.985 243.28 250.016L247.561 250.652C247.748 250.683 247.872 250.854 247.841 251.024C247.825 251.179 247.686 251.304 247.515 251.304Z" fill="#003359"/>
<path fill-rule="evenodd" clip-rule="evenodd" d="M214.056 130.809L242.784 140.364C242.784 140.364 242.702 141.515 242.544 143.567L245.778 144.149C245.778 144.149 249.206 183.021 246.832 205.591C244.661 226.19 244.568 243.749 244.614 249.318C244.614 250.683 243.963 251.955 242.861 252.715C240.364 254.437 235.075 256.655 226.171 253.987L226.798 237.371C226.657 237.326 226.515 237.255 226.373 237.157C220.649 233.232 205.416 198.052 204.424 184.758L214.056 130.809Z" fill="url(#paint0_linear_511_1164)"/>
<path d="M226.326 237.777C226.14 237.777 226 237.638 226 237.452L224.139 163.678C224.139 163.492 224.278 163.337 224.465 163.337C224.666 163.337 224.806 163.476 224.806 163.662L226.667 237.436C226.667 237.622 226.528 237.777 226.326 237.777C226.342 237.777 226.326 237.777 226.326 237.777Z" fill="white"/>
<path d="M186.058 76.4868C186.29 76.4403 186.446 76.2387 186.446 76.006C186.415 74.8116 186.166 71.1974 184.15 69.5531C181.699 67.5521 179.62 62.9607 178.147 63.395C176.658 63.8448 179.931 67.8468 179.558 68.2812C179.186 68.731 176.596 66.2026 175.773 64.729C174.951 63.2554 173.974 60.3392 172.78 60.4478C171.151 60.5874 170.794 63.0227 172.95 67.8468C174.998 72.4383 181.87 73.6637 182.413 76.704C182.459 76.9677 182.707 77.1383 182.971 77.0763L186.058 76.4868Z" fill="white"/>
<path d="M182.878 77.4331C182.723 77.4331 182.552 77.3866 182.428 77.2935C182.257 77.1694 182.133 76.9833 182.087 76.7816C181.854 75.4786 180.256 74.4859 178.379 73.338C176.208 72.004 173.757 70.4994 172.64 67.9865C171.151 64.6515 170.732 62.1386 171.461 60.9132C171.74 60.4323 172.19 60.1686 172.749 60.1221C173.881 60.029 174.688 61.7198 175.463 63.364C175.68 63.8139 175.867 64.2327 176.053 64.5739C176.72 65.7838 178.395 67.4436 179.139 67.8934C179.015 67.5987 178.767 67.1799 178.581 66.8386C177.759 65.365 177.201 64.2637 177.48 63.5812C177.573 63.3485 177.774 63.1779 178.038 63.1003C179.124 62.7746 180.179 64.2172 181.528 66.032C182.381 67.1954 183.359 68.4984 184.351 69.3205C186.445 71.0268 186.74 74.5789 186.771 76.037C186.787 76.4248 186.508 76.7661 186.12 76.8436L183.033 77.4486C182.971 77.4331 182.924 77.4331 182.878 77.4331ZM172.842 60.7891C172.826 60.7891 172.826 60.7891 172.811 60.7891C172.469 60.8201 172.221 60.9752 172.035 61.2699C171.756 61.7508 171.291 63.3485 173.245 67.7228C174.284 70.034 176.642 71.4921 178.721 72.7796C180.722 74.005 182.443 75.0753 182.723 76.673C182.738 76.7196 182.754 76.7506 182.785 76.7661C182.8 76.7816 182.847 76.7971 182.893 76.7816L185.98 76.1766C186.042 76.1611 186.104 76.0991 186.089 76.037C186.073 74.9823 185.84 71.3991 183.917 69.8324C182.847 68.9637 181.854 67.6142 180.97 66.4198C179.931 65.0083 178.845 63.5502 178.209 63.7363C178.116 63.7673 178.1 63.7983 178.085 63.8294C177.899 64.2792 178.674 65.6908 179.139 66.5284C179.791 67.7073 180.055 68.1881 179.775 68.5294C179.713 68.607 179.574 68.7155 179.326 68.7C178.426 68.607 176.13 66.1716 175.448 64.9152C175.246 64.5584 175.044 64.1241 174.827 63.6743C174.315 62.5109 173.509 60.7891 172.842 60.7891Z" fill="#003359"/>
<path d="M221.843 133.26C221.719 133.26 221.595 133.198 221.548 133.073L213.141 115.918C213.064 115.747 213.126 115.561 213.296 115.468C213.467 115.39 213.653 115.452 213.746 115.623L222.153 132.779C222.231 132.949 222.169 133.135 221.998 133.229C221.936 133.244 221.89 133.26 221.843 133.26Z" fill="#003359"/>
<path d="M214.475 127.598C214.351 127.598 214.227 127.52 214.165 127.396L211.854 121.812C211.776 121.641 211.869 121.455 212.04 121.378C212.21 121.3 212.397 121.393 212.474 121.564L214.785 127.148C214.863 127.319 214.77 127.505 214.599 127.582C214.568 127.582 214.522 127.598 214.475 127.598Z" fill="#003359"/>
<path d="M246.476 95.0543L245.7 96.4194C245.948 95.9695 246.212 95.5042 246.476 95.0543C242.101 92.65 238.099 91.89 236.905 91.6883L227.102 89.4701C224.03 88.7721 220.881 88.5084 217.733 88.6791C214.134 88.8807 209.589 89.4236 206.611 90.9127C201.027 93.7048 198.359 97.1019 195.086 95.7679C192.34 94.651 188.741 80.8457 187.655 76.4403C187.469 75.6958 186.725 75.2149 185.965 75.37L182.521 76.0525C174.672 90.2302 180.21 105.354 189.377 109.123C195.628 111.683 203.927 109.108 210.256 103.291C208.891 107.014 208.333 110.101 208.084 112.164C207.402 117.748 208.317 120.385 207.2 125.24C206.549 128.063 205.509 130.312 204.656 131.848C204.486 132.174 204.687 132.562 205.06 132.593C209.713 133.011 215.189 133.88 221.161 135.664C232.453 139.014 240.969 144.211 246.584 148.337C246.445 142.303 245.126 138.177 240.783 131.445C238.797 128.358 245.84 121.703 249.594 116.817C255.705 116.957 257.908 119.873 257.318 122.324C256.698 124.899 251.222 121.579 249.175 120.23C248.756 119.951 248.182 120.075 247.918 120.509L244.754 125.659C244.645 125.83 244.676 126.047 244.816 126.186C247.034 128.311 263.539 143.42 270.441 129.63C279.903 110.69 246.476 95.0543 246.476 95.0543Z" fill="white"/>
<path d="M246.569 148.647C246.507 148.647 246.429 148.632 246.367 148.585C238.627 142.908 230.111 138.658 221.052 135.959C215.84 134.407 210.458 133.384 205.013 132.903C204.734 132.872 204.486 132.717 204.346 132.469C204.206 132.22 204.222 131.926 204.346 131.677C205.494 129.614 206.332 127.412 206.859 125.163C207.479 122.495 207.464 120.54 207.448 118.291C207.433 116.492 207.433 114.615 207.728 112.133C208.038 109.558 208.643 106.952 209.496 104.392C203.012 109.884 195.163 111.869 189.238 109.434C185.096 107.727 181.668 103.772 179.838 98.5756C177.325 91.4247 178.193 83.1725 182.226 75.8975C182.273 75.8044 182.35 75.7579 182.459 75.7269L185.903 75.0444C186.833 74.8582 187.749 75.4322 187.981 76.3629C190.122 85.0494 193.131 94.6201 195.21 95.4732C197.257 96.3109 199.057 95.1475 201.771 93.3947C203.105 92.526 204.625 91.5488 206.471 90.6336C209.558 89.0979 214.289 88.5395 217.733 88.3534C220.897 88.1827 224.077 88.4464 227.195 89.16L236.998 91.3781C238.875 91.7039 242.644 92.5725 246.646 94.7752C247.205 95.0389 267.044 104.548 271.543 117.5C273.001 121.688 272.722 125.814 270.752 129.785C269.092 133.105 266.734 135.043 263.756 135.571C263.213 135.664 262.639 135.71 262.081 135.71C254.681 135.71 246.305 128.063 244.599 126.434C244.335 126.186 244.289 125.799 244.475 125.488L247.639 120.338C247.81 120.059 248.089 119.858 248.415 119.78C248.74 119.702 249.082 119.764 249.361 119.951C252.758 122.184 255.442 123.27 256.496 122.851C256.76 122.743 256.915 122.557 256.993 122.246C257.21 121.331 256.993 120.4 256.372 119.609C255.224 118.12 252.867 117.252 249.749 117.159C248.911 118.244 247.918 119.408 246.879 120.618C243.482 124.589 239.651 129.102 241.047 131.274C245.343 137.929 246.77 142.07 246.91 148.337C246.91 148.461 246.848 148.585 246.724 148.632C246.677 148.647 246.631 148.647 246.569 148.647ZM210.256 102.965C210.318 102.965 210.38 102.981 210.442 103.027C210.566 103.105 210.628 103.276 210.566 103.415C209.496 106.331 208.767 109.294 208.41 112.21C208.115 114.661 208.115 116.492 208.131 118.291C208.146 120.494 208.162 122.572 207.526 125.318C206.983 127.629 206.13 129.878 204.951 132.003C204.92 132.065 204.935 132.127 204.951 132.158C204.966 132.189 204.998 132.236 205.091 132.251C210.566 132.732 216.011 133.772 221.254 135.338C230.189 137.991 238.58 142.132 246.228 147.654C246.01 141.9 244.552 137.898 240.504 131.615C238.829 129.04 242.675 124.527 246.383 120.168C247.453 118.911 248.477 117.717 249.33 116.6C249.392 116.523 249.485 116.461 249.594 116.476C253.006 116.554 255.612 117.515 256.9 119.191C257.644 120.152 257.892 121.285 257.629 122.386C257.505 122.898 257.194 123.27 256.745 123.456C254.976 124.154 251.129 121.905 248.989 120.494C248.865 120.416 248.709 120.385 248.554 120.416C248.399 120.447 248.275 120.54 248.198 120.68L245.033 125.83C245.002 125.876 245.018 125.923 245.049 125.954C246.848 127.675 256.202 136.207 263.632 134.919C266.393 134.439 268.58 132.608 270.147 129.49C272.055 125.69 272.303 121.734 270.907 117.717C266.734 105.742 249.051 96.6986 246.615 95.5042L245.995 96.6056C245.902 96.7607 245.7 96.8227 245.545 96.7297C245.39 96.6366 245.328 96.4505 245.405 96.2798C245.607 95.892 245.809 95.5353 246.01 95.194C242.195 93.1465 238.642 92.3399 236.843 92.0296L227.024 89.8115C223.968 89.1134 220.85 88.8497 217.748 89.0204C214.382 89.2065 209.744 89.7339 206.75 91.223C204.935 92.1227 203.446 93.0999 202.112 93.9531C199.32 95.7524 197.304 97.0554 194.946 96.0937C192.123 94.9458 188.679 82.0246 187.314 76.5335C187.175 75.9596 186.601 75.5873 186.011 75.7114L182.723 76.3629C178.845 83.4362 178.023 91.4402 180.458 98.3584C182.226 103.384 185.515 107.2 189.486 108.829C195.396 111.249 203.632 108.937 210.008 103.074C210.085 102.996 210.163 102.965 210.256 102.965Z" fill="#003359"/>
<path d="M241.357 126L233.958 126.155C233.601 126.155 233.291 125.892 233.26 125.519L232.05 108.177H243.203L242.163 125.225C242.132 125.659 241.776 126 241.357 126Z" fill="white"/>
<path d="M233.927 126.481C233.399 126.481 232.949 126.078 232.918 125.535L231.709 108.193C231.709 108.1 231.74 108.007 231.802 107.945C231.864 107.882 231.957 107.836 232.05 107.836H243.203C243.296 107.836 243.389 107.867 243.451 107.945C243.513 108.007 243.544 108.1 243.544 108.193L242.505 125.24C242.474 125.845 241.977 126.31 241.372 126.326L233.973 126.481C233.942 126.481 233.942 126.481 233.927 126.481ZM232.391 108.518L233.585 125.504C233.601 125.69 233.756 125.829 233.942 125.829L241.341 125.674C241.605 125.674 241.807 125.457 241.822 125.209L242.83 108.518H232.391Z" fill="#003359"/>
<path d="M243.265 109.527H231.786C231.228 109.527 230.778 109.077 230.778 108.518V107.82C230.778 107.262 231.228 106.812 231.786 106.812H243.265C243.823 106.812 244.273 107.262 244.273 107.82V108.518C244.273 109.077 243.823 109.527 243.265 109.527Z" fill="white"/>
<path d="M243.311 109.868H231.724C231.011 109.868 230.437 109.294 230.437 108.581V107.789C230.437 107.076 231.011 106.502 231.724 106.502H243.311C244.025 106.502 244.599 107.076 244.599 107.789V108.581C244.599 109.279 244.025 109.868 243.311 109.868ZM231.74 107.169C231.398 107.169 231.119 107.448 231.119 107.789V108.581C231.119 108.922 231.398 109.201 231.74 109.201H243.327C243.668 109.201 243.947 108.922 243.947 108.581V107.789C243.947 107.448 243.668 107.169 243.327 107.169H231.74Z" fill="#003359"/>
<path d="M247.515 121.145L243.854 117.345C238.921 117.5 235.106 116.6 231.615 115.375C231.615 115.375 232.282 119.64 237.091 121.145C241.915 122.634 245.064 124.356 245.064 124.356L247.515 121.145Z" fill="white"/>
<path d="M245.08 124.682C245.033 124.682 244.971 124.666 244.925 124.635C244.893 124.62 241.745 122.913 237.014 121.455C232.05 119.92 231.305 115.468 231.305 115.421C231.29 115.313 231.336 115.189 231.414 115.111C231.507 115.033 231.631 115.018 231.74 115.049C234.78 116.104 238.596 117.159 243.854 116.988C243.947 116.988 244.04 117.019 244.102 117.096L247.763 120.897C247.872 121.021 247.887 121.192 247.794 121.331L245.359 124.542C245.281 124.635 245.173 124.682 245.08 124.682ZM232.081 115.887C232.438 117.05 233.616 119.718 237.2 120.819C241.217 122.076 244.133 123.487 244.987 123.922L247.081 121.161L243.715 117.67C238.751 117.81 235.059 116.879 232.081 115.887Z" fill="#003359"/>
<path d="M227.815 83.8394C227.815 83.8394 228.901 85.0338 231.15 84.615L227.815 83.8394Z" fill="white"/>
<path d="M230.219 85.0337C228.482 85.0337 227.613 84.1031 227.567 84.0565C227.443 83.9169 227.458 83.7153 227.582 83.5912C227.722 83.4671 227.924 83.4826 228.048 83.6067C228.094 83.6532 229.056 84.6459 231.073 84.2737C231.259 84.2426 231.429 84.3667 231.46 84.5374C231.491 84.7235 231.367 84.8941 231.197 84.9252C230.855 85.0027 230.514 85.0337 230.219 85.0337Z" fill="#003359"/>
<path d="M224.325 67.5366C224.325 78.1001 231.352 90.1682 241.915 90.1682C252.479 90.1682 263.244 81.0628 263.244 70.4994C263.244 59.9359 254.356 49.7448 243.777 49.7448C233.213 49.7448 224.325 56.9732 224.325 67.5366Z" fill="#003359"/>
<path d="M258.854 76.3783C258.854 77.5882 259.831 78.581 261.057 78.581C262.282 78.581 263.259 77.6038 263.259 76.3783C263.259 75.1684 262.282 74.1757 261.057 74.1757C259.831 74.1757 258.854 75.1684 258.854 76.3783Z" fill="#003359"/>
<path d="M260.802 81.8186C261.507 80.1169 260.699 78.1659 258.997 77.461C257.295 76.7561 255.344 77.5642 254.64 79.2659C253.935 80.9677 254.743 82.9186 256.444 83.6235C258.146 84.3284 260.097 83.5203 260.802 81.8186Z" fill="#003359"/>
<path d="M253.533 88.0276C255.744 88.0276 257.535 86.2358 257.535 84.0256C257.535 81.8153 255.744 80.0236 253.533 80.0236C251.323 80.0236 249.531 81.8153 249.531 84.0256C249.531 86.2358 251.323 88.0276 253.533 88.0276Z" fill="#003359"/>
<path d="M251.864 87.1958C252.383 84.7488 250.821 82.3441 248.374 81.8248C245.927 81.3055 243.522 82.8682 243.003 85.3152C242.483 87.7622 244.046 90.1668 246.493 90.6862C248.94 91.2055 251.345 89.6428 251.864 87.1958Z" fill="#003359"/>
<path d="M245.964 86.7712C245.685 89.5167 243.218 91.5177 240.473 91.2385C237.727 90.9593 235.726 88.4929 236.005 85.7474C236.284 83.0018 238.751 81.0008 241.496 81.28C244.242 81.5592 246.243 84.0256 245.964 86.7712Z" fill="#003359"/>
<path d="M261.103 72.8881C263.356 72.8881 265.183 71.0617 265.183 68.8086C265.183 66.5555 263.356 64.729 261.103 64.729C258.85 64.729 257.024 66.5555 257.024 68.8086C257.024 71.0617 258.85 72.8881 261.103 72.8881Z" fill="#003359"/>
<path d="M258.807 68.4053C261.258 68.4053 263.244 66.4191 263.244 63.9689C263.244 61.5188 261.258 59.5326 258.807 59.5326C256.357 59.5326 254.371 61.5188 254.371 63.9689C254.371 66.4191 256.357 68.4053 258.807 68.4053Z" fill="#003359"/>
<path d="M261.103 75.7889C262.5 75.7889 263.632 74.6569 263.632 73.2605C263.632 71.8641 262.5 70.7321 261.103 70.7321C259.707 70.7321 258.575 71.8641 258.575 73.2605C258.575 74.6569 259.707 75.7889 261.103 75.7889Z" fill="#003359"/>
<path d="M229.046 70.5829C230.385 69.2442 230.385 67.0737 229.046 65.7349C227.707 64.3962 225.537 64.3962 224.198 65.7349C222.859 67.0737 222.859 69.2442 224.198 70.5829C225.537 71.9217 227.707 71.9217 229.046 70.5829Z" fill="#003359"/>
<path d="M226.419 67.3815C228.432 67.3815 230.064 65.7495 230.064 63.7363C230.064 61.7231 228.432 60.0911 226.419 60.0911C224.406 60.0911 222.774 61.7231 222.774 63.7363C222.774 65.7495 224.406 67.3815 226.419 67.3815Z" fill="#003359"/>
<path d="M232.634 60.5124C233.25 58.479 232.101 56.3314 230.067 55.7157C228.034 55.1 225.886 56.2493 225.27 58.2827C224.655 60.3162 225.804 62.4637 227.838 63.0794C229.871 63.6951 232.019 62.5458 232.634 60.5124Z" fill="#003359"/>
<path d="M231.678 58.3072C233.674 58.3072 235.292 56.689 235.292 54.693C235.292 52.6969 233.674 51.0787 231.678 51.0787C229.681 51.0787 228.063 52.6969 228.063 54.693C228.063 56.689 229.681 58.3072 231.678 58.3072Z" fill="#003359"/>
<path d="M236.253 54.6775C237.616 54.6775 238.72 53.5732 238.72 52.2111C238.72 50.849 237.616 49.7448 236.253 49.7448C234.891 49.7448 233.787 50.849 233.787 52.2111C233.787 53.5732 234.891 54.6775 236.253 54.6775Z" fill="#003359"/>
<path d="M237.541 51.4045C237.541 53.1263 238.937 54.5223 240.659 54.5223C242.381 54.5223 243.777 53.1263 243.777 51.4045C243.777 49.6827 242.381 48.2866 240.659 48.2866C238.937 48.2866 237.541 49.6827 237.541 51.4045Z" fill="#003359"/>
<path d="M246.615 57.3888C248.883 56.8533 250.287 54.5808 249.752 52.3131C249.216 50.0454 246.944 48.6411 244.676 49.1766C242.409 49.712 241.004 51.9845 241.54 54.2522C242.075 56.52 244.348 57.9242 246.615 57.3888Z" fill="#003359"/>
<path d="M250.602 57.2834C252.684 57.2834 254.371 55.5958 254.371 53.5141C254.371 51.4323 252.684 49.7448 250.602 49.7448C248.52 49.7448 246.832 51.4323 246.832 53.5141C246.832 55.5958 248.52 57.2834 250.602 57.2834Z" fill="#003359"/>
<path d="M258.305 56.7251C258.961 54.5605 257.737 52.2743 255.573 51.6189C253.408 50.9635 251.122 52.1869 250.467 54.3516C249.811 56.5162 251.035 58.8023 253.199 59.4578C255.364 60.1132 257.65 58.8897 258.305 56.7251Z" fill="#003359"/>
<path d="M262.397 59.8966C262.987 58.4719 262.311 56.8385 260.886 56.2484C259.462 55.6583 257.828 56.3348 257.238 57.7595C256.648 59.1842 257.324 60.8175 258.749 61.4076C260.174 61.9978 261.807 61.3212 262.397 59.8966Z" fill="#003359"/>
<path d="M230.235 67.8778C229.428 68.3276 228.994 68.4052 228.312 68.855C226.947 69.7547 225.302 72.8571 223.239 73.1673C222.82 74.2066 223.658 74.5013 223.875 75.1528C223.534 75.6336 222.665 78.038 221.952 79.465C221.704 79.9614 221.859 80.5819 222.34 80.8766C223.131 81.3885 224.061 81.7918 225.116 82.0865C225.116 82.0865 229.366 91.1919 222.898 94.4493L236.61 93.2704L232.934 81.2334C233.105 81.2023 235.431 80.7835 236.005 79.0462C236.207 78.4102 236.269 77.3244 235.726 76.9987C235.183 76.6729 234.113 77.0607 233.26 78.1931C233.182 77.8673 233.136 77.4795 233.105 77.0142C233.058 76.3937 233.058 75.6802 233.291 75.3699C228.172 72.8726 234.02 68.5448 230.235 67.8778Z" fill="white"/>
<path d="M222.913 94.7906C222.774 94.7906 222.634 94.6975 222.588 94.5424C222.541 94.3873 222.619 94.2322 222.758 94.1546C228.436 91.285 225.364 83.4981 224.883 82.3658C223.875 82.0866 222.96 81.6832 222.169 81.1559C221.564 80.7681 221.347 79.9614 221.672 79.31C221.998 78.643 222.371 77.7433 222.712 76.9522C223.084 76.068 223.332 75.4475 223.518 75.1218C223.456 74.9977 223.363 74.8891 223.27 74.7805C222.991 74.4083 222.588 73.9119 222.929 73.0432C222.975 72.9347 223.069 72.8571 223.193 72.8416C224.387 72.6554 225.488 71.3835 226.45 70.2511C227.04 69.5686 227.598 68.9171 228.125 68.5604C228.529 68.2967 228.854 68.1571 229.196 68.0019C229.459 67.8934 229.723 67.7693 230.064 67.5831C230.126 67.5521 230.204 67.5366 230.282 67.5521C230.98 67.6762 231.429 67.9244 231.693 68.3277C232.096 68.9482 231.895 69.7548 231.678 70.6234C231.29 72.2056 230.871 73.8343 233.43 75.0753C233.523 75.1218 233.586 75.1994 233.601 75.2924C233.617 75.3855 233.601 75.4941 233.539 75.5716C233.492 75.6337 233.322 75.9439 233.415 76.9832C233.43 77.1383 233.446 77.2934 233.461 77.4486C234.284 76.6419 235.245 76.3317 235.881 76.7195C236.626 77.1693 236.548 78.4258 236.316 79.1548C235.804 80.706 234.128 81.2955 233.353 81.4971L236.936 93.1929C236.967 93.286 236.952 93.3946 236.889 93.4721C236.827 93.5497 236.75 93.6117 236.641 93.6117L222.929 94.7906H222.913ZM223.487 73.4621C223.379 73.8654 223.549 74.0825 223.782 74.3772C223.937 74.5634 224.092 74.7805 224.185 75.0598C224.216 75.1528 224.201 75.2614 224.139 75.3545C223.984 75.5716 223.627 76.4093 223.301 77.2159C222.96 78.0225 222.588 78.9222 222.246 79.6202C222.076 79.977 222.184 80.3958 222.51 80.6129C223.301 81.1248 224.201 81.5126 225.194 81.7763C225.287 81.8073 225.364 81.8694 225.411 81.9625C225.457 82.0555 229.18 90.1992 224.232 94.015L236.16 92.9913L232.593 81.342C232.562 81.2489 232.577 81.1558 232.624 81.0628C232.67 80.9852 232.763 80.9232 232.856 80.9077C232.95 80.8921 235.152 80.5044 235.664 78.9377C235.866 78.3172 235.85 77.4796 235.524 77.2779C235.199 77.0763 234.284 77.3555 233.508 78.3793C233.43 78.4878 233.306 78.5344 233.182 78.5034C233.058 78.4723 232.95 78.3793 232.934 78.2552C232.841 77.8829 232.794 77.4175 232.763 77.0297C232.717 76.3627 232.732 75.8664 232.856 75.5096C230.142 74.036 230.669 71.9729 231.042 70.4528C231.228 69.7082 231.398 69.0567 231.15 68.6845C231.011 68.4673 230.731 68.3277 230.297 68.2346C229.987 68.4052 229.723 68.5138 229.49 68.6224C229.165 68.7775 228.87 68.9016 228.513 69.1343C228.048 69.429 227.52 70.0495 226.977 70.701C225.954 71.8488 224.837 73.1518 223.487 73.4621Z" fill="#003359"/>
<path d="M229.692 82.2882C229.692 82.2882 227.629 83.0793 225.287 82.1486L229.692 82.2882Z" fill="white"/>
<path d="M227.691 82.9242C226.962 82.9242 226.093 82.8156 225.178 82.4433C225.008 82.3813 224.93 82.1796 224.992 82.009C225.054 81.8384 225.256 81.7608 225.426 81.8229C227.613 82.6915 229.568 81.9625 229.583 81.9625C229.754 81.9004 229.94 81.978 230.018 82.1486C230.08 82.3192 230.002 82.5054 229.832 82.583C229.754 82.614 228.901 82.9242 227.691 82.9242Z" fill="#003359"/>
<path d="M224.465 164.004C224.356 164.004 224.263 163.957 224.201 163.864L220.168 158.327C220.059 158.171 220.09 157.97 220.245 157.861C220.401 157.753 220.602 157.784 220.711 157.939L224.744 163.476C224.852 163.631 224.821 163.833 224.666 163.942C224.604 163.973 224.542 164.004 224.465 164.004Z" fill="white"/>
<path d="M66.8971 252.963L65.5941 262.255L59.2653 262.782L59.6531 251.722L66.8971 252.963Z" fill="white"/>
<path d="M59.0171 263.03C58.9395 262.968 58.9085 262.86 58.9085 262.766L59.2963 251.707C59.2963 251.598 59.3428 251.505 59.4204 251.443C59.498 251.381 59.6065 251.35 59.6996 251.365L66.9591 252.606C67.1452 252.637 67.2693 252.808 67.2538 252.994L65.9508 262.286C65.9353 262.441 65.7957 262.58 65.6251 262.58L59.2963 263.092C59.2808 263.092 59.2808 263.092 59.2653 263.092C59.1722 263.139 59.0791 263.092 59.0171 263.03ZM66.5092 253.258L59.9788 252.141L59.6221 262.41L65.2838 261.944L66.5092 253.258Z" fill="#003359"/>
<path d="M58.9861 279.379C61.6231 279.674 65.9508 279.876 70.9766 279.038C72.6363 278.759 73.6911 277.13 73.2413 275.517C72.0004 271.019 69.8442 262.472 66.4317 258.578L65.6716 260.765L64.4772 258.764C64.3221 258.485 64.0274 258.315 63.7171 258.284L61.9488 258.206C61.4369 258.159 60.956 258.516 60.863 259.028L60.5217 260.921L58.5362 258.33L58.0243 265.605C57.8537 267.916 57.5745 270.228 57.1712 272.508L56.4887 276.308C56.3491 277.828 57.4504 279.209 58.9861 279.379Z" fill="white"/>
<path d="M58.9395 279.736C57.2177 279.55 55.9768 277.983 56.1474 276.231L56.83 272.43C57.2333 270.166 57.5125 267.854 57.6831 265.559L58.195 258.284C58.2105 258.144 58.3036 258.02 58.4432 257.973C58.5828 257.927 58.7379 257.973 58.8154 258.097L60.3201 260.067L60.5217 258.966C60.6458 258.284 61.2818 257.787 61.9643 257.865L63.7482 257.942C64.1825 257.989 64.5548 258.237 64.7719 258.594L65.5785 259.943L66.0904 258.47C66.137 258.346 66.23 258.268 66.3541 258.237C66.4782 258.206 66.6023 258.253 66.6799 258.346C69.9063 262.037 72.0314 269.809 73.2878 274.447L73.5515 275.424C73.7842 276.277 73.6446 277.208 73.1637 277.968C72.6829 278.728 71.8918 279.255 70.9921 279.395C68.3086 279.845 65.8267 280 63.6861 280C61.8557 280 60.227 279.876 58.9395 279.736ZM66.0129 260.874C65.9663 260.998 65.8577 261.091 65.7181 261.107C65.5785 261.122 65.4544 261.06 65.3769 260.936L64.1825 258.935C64.0739 258.764 63.8878 258.64 63.7016 258.625L61.9178 258.547C61.5765 258.516 61.2663 258.749 61.2198 259.075L60.8785 260.967C60.8475 261.107 60.7544 261.215 60.6148 261.246C60.4752 261.277 60.3356 261.231 60.258 261.122L58.831 259.261L58.3811 265.621C58.2105 267.932 57.9313 270.274 57.528 272.554L56.8455 276.339C56.7059 277.689 57.6831 278.899 59.0171 279.054C61.7161 279.364 65.9663 279.55 70.9145 278.728C71.6126 278.619 72.233 278.201 72.6053 277.611C72.9776 277.022 73.0862 276.324 72.9 275.641L72.6363 274.664C71.4419 270.274 69.472 263.046 66.5558 259.307L66.0129 260.874Z" fill="#003359"/>
<path d="M65.47 276.944C67.3624 276.944 69.472 276.758 71.535 276.231C71.7212 276.184 71.8297 275.998 71.7832 275.796C71.7367 275.61 71.5505 275.501 71.3489 275.548C65.2063 277.13 58.6758 275.501 58.6138 275.486C58.4276 275.439 58.2415 275.548 58.1795 275.734C58.1329 275.92 58.2415 276.106 58.4277 276.168C58.4897 276.168 61.5455 276.944 65.47 276.944Z" fill="#003359"/>
<path d="M67.533 269.964C67.7191 269.964 67.8898 269.809 67.8898 269.607C67.8898 269.421 67.7347 269.25 67.5485 269.25L61.6231 269.219C61.4369 269.219 61.2663 269.374 61.2663 269.576C61.2663 269.762 61.4214 269.933 61.6075 269.933L67.533 269.964Z" fill="#003359"/>
<path d="M37.5179 246.96L36.1064 260.548L28.5056 260.285L28.6297 246.65L37.5179 246.96Z" fill="white"/>
<path d="M36.0909 260.89L28.5057 260.626C28.3195 260.626 28.1644 260.455 28.1644 260.269L28.2885 246.634C28.2885 246.541 28.335 246.448 28.3971 246.386C28.4591 246.324 28.5522 246.278 28.6453 246.293L37.5334 246.603C37.6265 246.603 37.7196 246.65 37.7816 246.727C37.8437 246.805 37.8747 246.898 37.8592 246.991L36.4321 260.579C36.4321 260.766 36.277 260.89 36.0909 260.89ZM28.971 247.007L28.8469 259.928L35.7651 260.176L37.1146 247.286L28.971 247.007Z" fill="#003359"/>
<path d="M37.8127 268.304C37.7817 269.592 36.8665 270.693 35.5945 270.941C31.1892 271.81 21.2772 273.718 18.4696 274.043C14.8089 274.462 9.50387 272.989 8.52663 270.988C7.25468 268.413 13.0871 263.93 16.1118 262.177C20.5947 259.587 25.0155 254.297 26.7839 254.111C28.5677 253.925 31.6856 259.183 31.6856 259.183L37.1612 257.105C37.1612 257.105 37.9523 261.774 37.8127 268.304Z" fill="white"/>
<path d="M8.21639 271.143C6.71175 268.087 13.4593 263.309 15.9412 261.882C18.1439 260.61 20.3155 258.687 22.2234 256.996C24.271 255.181 25.7601 253.878 26.7528 253.77C26.7994 253.77 26.8304 253.77 26.8769 253.77C28.6453 253.77 31.1582 257.632 31.8407 258.765L37.0526 256.795C37.1457 256.764 37.2542 256.764 37.3473 256.826C37.4404 256.872 37.5024 256.965 37.5179 257.074C37.5335 257.12 38.2935 261.836 38.1694 268.335C38.1384 269.778 37.0991 271.034 35.6721 271.313C31.4684 272.136 21.3548 274.09 18.5161 274.416C18.0973 274.462 17.663 274.493 17.1976 274.493C13.661 274.462 9.17811 273.097 8.21639 271.143ZM31.8096 259.509C31.6545 259.571 31.4684 259.509 31.3908 259.354C30.243 257.431 28.0403 254.452 26.8924 254.452C26.8769 254.452 26.8459 254.452 26.8304 254.452C26.0548 254.53 24.4261 255.972 22.6888 257.508C20.7498 259.214 18.5627 261.153 16.298 262.472C13.1646 264.287 7.76655 268.599 8.85237 270.817C9.72102 272.601 14.7468 274.09 18.4386 273.671C21.2617 273.345 31.3443 271.407 35.548 270.569C36.6493 270.352 37.4559 269.39 37.4714 268.273C37.58 262.968 37.0681 258.858 36.8975 257.57L31.8096 259.509Z" fill="#003359"/>
<path d="M17.027 271.096C24.395 271.096 35.2998 268.289 35.9357 268.118C36.1219 268.072 36.2305 267.87 36.1839 267.684C36.1374 267.498 35.9512 267.389 35.7496 267.436C29.8086 268.987 13.8161 272.275 11.3187 268.971C11.1946 268.816 10.9775 268.785 10.8223 268.909C10.6672 269.033 10.6362 269.25 10.7603 269.406C11.7065 270.646 14.0798 271.096 17.027 271.096Z" fill="#003359"/>
<path d="M25.4343 264.007C25.5274 264.007 25.6205 263.976 25.6825 263.899C25.8221 263.759 25.8066 263.542 25.667 263.403L21.9287 259.788C21.7891 259.649 21.5719 259.664 21.4323 259.804C21.2927 259.943 21.3082 260.161 21.4478 260.3L25.1861 263.914C25.2482 263.976 25.3413 264.007 25.4343 264.007Z" fill="#003359"/>
<path d="M71.442 146.134C71.442 146.134 73.1948 201.945 73.9083 216.697C74.4823 228.548 71.4109 246.06 70.17 252.451C69.9063 253.847 68.6188 254.809 67.2073 254.685L60.5217 254.095C59.0792 253.971 57.9933 252.761 57.9933 251.319C58.0244 245.735 58.0554 232.239 57.8382 223.382C57.7452 219.722 57.1092 216.092 55.8993 212.633C54.4722 208.538 52.5643 202.255 51.8817 196.439C50.7494 186.744 46.282 171.341 46.282 171.341C46.282 171.341 40.4496 237.172 39.1622 251.024C39.0536 252.265 37.9833 253.196 36.7268 253.149C34.2605 253.041 30.8789 253.459 28.366 252.467C27.5905 252.156 27.0475 251.489 26.9079 250.667C26.0083 245.254 21.8201 221.335 23.0145 208.103C24.3795 193.057 25.4188 143.032 25.4188 143.032L71.442 146.134Z" fill="url(#paint1_linear_511_1164)"/>
<path d="M79.1513 148.709C79.1513 148.709 61.3439 153.921 45.3203 154.604C35.8582 155.007 29.4984 152.199 29.4984 152.199L38.5262 78.9377C38.5262 78.9377 39.0226 73.1984 49.0741 70.5304C54.4722 69.1033 58.5673 75.3235 58.5673 75.3235L79.1513 148.709Z" fill="white"/>
<path d="M29.3588 152.525C29.2192 152.463 29.1261 152.308 29.1571 152.168L38.1849 78.9222C38.2005 78.674 38.8209 72.9037 48.9966 70.2046C54.5808 68.731 58.7069 74.8892 58.8775 75.1529C58.893 75.1839 58.9085 75.2149 58.924 75.2459L79.508 148.632C79.5546 148.818 79.446 149.004 79.2754 149.066C79.0892 149.113 61.2508 154.293 45.3513 154.976C44.7154 155.007 44.1104 155.023 43.5054 155.023C35.0516 154.992 29.4053 152.541 29.3588 152.525ZM58.2415 75.4786C57.8693 74.9357 54.0224 69.5842 49.1672 70.8716C39.5034 73.4311 38.883 78.9222 38.883 78.9843L29.8862 151.982C31.1271 152.479 37.0371 154.604 45.3048 154.262C59.9168 153.642 76.2041 149.19 78.7325 148.477L58.2415 75.4786Z" fill="#003359"/>
<path d="M33.9192 79.6358C38.4176 73.183 45.6461 71.2285 54.0844 70.7166C57.3108 70.515 60.0254 71.8024 62.3056 73.881C66.6178 75.5408 73.0397 78.519 75.1958 82.2418C77.1813 85.6544 86.7055 96.2023 89.0943 94.7752C95.9349 90.6802 109.384 94.6511 102.295 104.951C95.1593 115.328 82.4863 111.962 75.3664 109.372C75.7542 110.783 76.173 112.195 76.6074 113.529C78.8566 120.432 80.811 160.328 80.811 160.328C77.8018 162.422 70.4182 166.765 70.4182 166.765C64.3842 138.766 66.9591 136.564 65.7182 118.973C64.6789 104.253 62.228 101.383 60.0099 85.4217C59.6686 83.0174 60.1495 79.4497 57.8227 74.6256C56.9851 72.8883 41.7061 78.6276 40.5893 80.1632C35.8892 86.7092 41.2718 106.223 40.9615 115.033C40.5117 128.094 38.7124 141.714 38.0764 144.893C36.7424 151.579 37.2232 163.43 37.2232 163.43C31.3598 163.709 27.6525 161.693 25.0311 159.242C23.2782 157.613 22.6112 155.131 23.2162 152.804L24.0693 149.516C24.7363 146.941 25.0931 144.288 25.0931 141.62C25.0931 140.007 25.1551 137.898 25.3413 135.462C25.7911 129.614 28.0558 122.51 28.0558 122.51C28.0558 122.51 26.2255 124.666 20.0673 127.071C13.9092 129.475 11.691 119.206 10.962 111.481C8.58868 86.1663 33.9192 79.6358 33.9192 79.6358Z" fill="white"/>
<path d="M70.2941 167.106C70.1855 167.06 70.1235 166.967 70.0925 166.858C65.8888 147.375 65.8578 140.24 65.8112 131.972C65.7957 128.234 65.7647 124.371 65.3924 119.02C64.8185 110.783 63.7947 106.285 62.6003 101.073C61.6851 97.0554 60.6458 92.5105 59.6841 85.4992C59.6066 84.9098 59.56 84.2272 59.529 83.5292C59.4049 81.249 59.2653 78.4104 57.528 74.8117C57.528 74.8117 57.4349 74.7031 56.9696 74.6876C53.557 74.579 41.7371 79.248 40.8995 80.3959C37.8747 84.615 39.1622 94.558 40.31 103.322C40.8995 107.82 41.4424 112.071 41.3493 115.08C40.8995 128.125 39.1001 141.76 38.4642 144.986C37.1612 151.548 37.611 163.321 37.6265 163.445C37.642 163.632 37.4869 163.802 37.2853 163.818C32.244 164.05 28.1799 162.654 24.8449 159.536C23.0145 157.83 22.2855 155.24 22.9215 152.758L23.7746 149.469C24.4416 146.91 24.7829 144.273 24.7829 141.651C24.7829 139.65 24.8759 137.556 25.031 135.462C25.3723 131.057 26.7373 125.907 27.4043 123.627C26.303 124.496 24.1159 125.907 20.2379 127.427C18.7488 128.001 17.3993 127.924 16.1894 127.179C12.6217 124.976 11.2101 117.469 10.6517 111.543C9.37976 98.2963 15.7551 90.2303 21.3393 85.7939C26.8924 81.3731 32.7869 79.5892 33.7176 79.3256C38.7744 72.1747 47.2438 70.7786 54.0689 70.3598C57.1092 70.1737 59.9478 71.2595 62.4917 73.5707C67.2538 75.4166 73.3499 78.3638 75.506 82.0711C77.2123 85.0028 84.8751 93.6583 88.1636 94.496C88.5048 94.589 88.753 94.5735 88.9236 94.4649C93.2979 91.8435 100.061 92.4019 103.101 95.6438C104.404 97.0244 106.064 100.096 102.589 105.137C99.4095 109.775 94.7715 112.195 88.8461 112.365C85.1078 112.458 80.8576 111.667 75.8938 109.93C76.2506 111.202 76.6074 112.365 76.9486 113.42C79.1823 120.292 81.0902 158.668 81.1678 160.312C81.1678 160.436 81.1213 160.545 81.0127 160.622C78.0344 162.701 70.6664 167.029 70.5888 167.075C70.5268 167.106 70.4802 167.122 70.4182 167.122C70.3872 167.137 70.3406 167.122 70.2941 167.106ZM76.2816 113.668C75.8783 112.427 75.4595 111.016 75.0407 109.496C75.0097 109.372 75.0407 109.232 75.1338 109.139C75.2268 109.046 75.3664 109.03 75.4905 109.061C88.1791 113.668 96.8501 112.257 102 104.765C104.404 101.275 104.59 98.2963 102.574 96.1402C99.7818 93.1775 93.3134 92.6501 89.2649 95.0854C88.9236 95.2871 88.4893 95.3181 87.9619 95.194C84.4718 94.2943 76.6849 85.5302 74.8856 82.4434C72.7139 78.7206 65.9819 75.6958 62.166 74.2222C62.1195 74.2067 62.0884 74.1757 62.0574 74.1602C59.6376 71.942 56.9696 70.9027 54.0999 71.0888C44.0173 71.7093 38.0608 74.3308 34.1984 79.8529C34.1519 79.915 34.0743 79.977 33.9968 79.9926C33.9347 80.0081 27.668 81.6678 21.7581 86.3523C16.3135 90.6801 10.0933 98.5445 11.3187 111.481C11.7686 116.197 13.0405 124.434 16.5306 126.59C17.5544 127.226 18.6713 127.272 19.9587 126.776C25.9307 124.449 27.7921 122.324 27.8076 122.308C27.9162 122.184 28.1024 122.153 28.242 122.231C28.3816 122.308 28.4591 122.479 28.4126 122.65C28.3971 122.727 26.1634 129.785 25.7136 135.524C25.5584 137.603 25.4654 139.666 25.4654 141.667C25.4654 144.351 25.1086 147.034 24.4261 149.655L23.5729 152.944C22.999 155.162 23.6505 157.504 25.2947 159.025C28.4126 161.941 32.1974 163.275 36.882 163.135C36.8199 161.119 36.5562 150.865 37.7506 144.862C38.3866 141.651 40.1859 128.079 40.6358 115.064C40.7444 112.117 40.1859 107.898 39.612 103.431C38.4486 94.527 37.1457 84.4444 40.3256 80.0081C41.4269 78.4879 54.0068 73.7258 57.1712 74.005C57.6831 74.0516 58.0089 74.2222 58.1485 74.5169C59.9323 78.2397 60.1029 81.28 60.2115 83.4982C60.2425 84.2272 60.2891 84.8477 60.3666 85.4061C61.3439 92.3864 62.3676 96.9313 63.2828 100.933C64.4772 106.176 65.501 110.69 66.0904 118.989C66.4627 124.371 66.4937 128.234 66.5093 131.988C66.5558 140.147 66.6023 147.189 70.6819 166.253C72.2486 165.322 77.8638 162.003 80.4853 160.188C80.3146 157.148 78.4222 120.199 76.2816 113.668Z" fill="#003359"/>
<path d="M51.2303 61.2853L53.3864 69.4289C57.2488 72.3762 58.5363 76.6574 58.5363 76.6574C54.3481 82.2881 49.8187 82.7069 42.8075 79.7597C41.582 79.2478 41.1632 77.7277 41.9543 76.6729C42.8075 75.525 43.6451 73.9273 43.6606 72.0814L41.1942 56.88L51.2303 61.2853Z" fill="white"/>
<path d="M42.6833 80.0854C42.0008 79.7907 41.5045 79.2168 41.3028 78.5033C41.1012 77.7897 41.2563 77.0452 41.6906 76.4557C42.7609 75.0286 43.3038 73.555 43.3348 72.0969L40.8375 56.942C40.8219 56.818 40.8685 56.6939 40.9616 56.6008C41.0701 56.5232 41.1942 56.5077 41.3183 56.5543L51.3544 60.9596C51.4475 61.0061 51.525 61.0837 51.556 61.1922L53.6811 69.2118C57.5125 72.19 58.8155 76.3626 58.862 76.5488C58.8931 76.6574 58.8775 76.766 58.8 76.859C56.2716 80.2561 53.5725 81.9003 50.0979 81.9003C47.9883 81.9158 45.553 81.2954 42.6833 80.0854ZM53.1692 69.7081C53.1072 69.6616 53.0607 69.5996 53.0452 69.522L50.9356 61.549L41.6441 57.4694L44.0329 72.0194C44.0329 72.0349 44.0329 72.0659 44.0329 72.0814C44.0174 73.7102 43.4124 75.3234 42.249 76.8745C41.9388 77.2934 41.8457 77.8207 41.9698 78.3171C42.1094 78.829 42.4662 79.2323 42.947 79.434C50.129 82.4742 54.2706 81.7142 58.1485 76.5953C57.8693 75.8042 56.4732 72.221 53.1692 69.7081Z" fill="#003359"/>
<path d="M60.832 43.2763C57.8538 42.4232 59.6221 46.4562 49.586 40.7169C45.4754 38.3591 46.5302 44.0984 45.4444 43.509C41.4579 41.3374 39.581 42.4077 38.4331 42.9196C37.0991 43.509 35.5169 45.2928 35.3463 47.2318C35.1292 49.7912 38.2625 51.2959 38.914 56.9576C39.3794 60.9441 38.5572 63.1158 39.9223 63.9844C41.3028 64.8686 42.8695 63.1003 44.4517 63.9534C46.4992 65.0547 45.2273 68.7155 47.0111 70.763C48.1279 72.0505 51.1527 73.1984 56.6904 71.8954C57.5901 71.6782 58.2105 70.8561 58.164 69.9409C58.1019 68.762 58.0244 67.2729 57.8227 65.8458C56.8765 59.0827 54.9686 57.1748 56.132 55.7322C57.9313 53.5295 62.3211 56.0114 63.5465 54.15C64.865 52.2266 64.9116 44.4397 60.832 43.2763Z" fill="#003359"/>
<path d="M48.0039 53.1727C48.2365 54.0259 48.4227 54.879 48.5468 55.7477C48.7639 57.3764 49.1672 60.184 49.524 61.7352C49.9583 63.6586 55.4339 63.1623 57.1402 62.9606C57.4194 62.9296 57.6056 62.6659 57.559 62.4022L57.3419 60.7735L58.6604 60.7424C58.8155 60.7114 58.9861 60.6494 59.1102 60.5563C59.4204 60.2926 59.529 59.8738 59.3894 59.517C58.6604 57.6711 57.3109 54.5998 57.0782 51.1097C57.0472 50.7529 56.83 50.4427 56.4887 50.3186C55.3409 49.8998 52.5643 49.1552 49.4154 50.3962C48.2831 50.8305 47.6781 52.0404 48.0039 53.1727Z" fill="white"/>
<path d="M49.1672 61.8283C48.8105 60.2461 48.4072 57.3764 48.19 55.8098C48.0659 54.9566 47.8953 54.1035 47.6626 53.2814C47.2903 51.9629 47.9728 50.5823 49.2603 50.086C52.5488 48.783 55.4805 49.5896 56.5818 50.0084C57.0472 50.179 57.3574 50.6134 57.3884 51.1097C57.5901 54.2276 58.7224 57.0352 59.467 58.8966L59.6686 59.4085C59.8703 59.9204 59.7152 60.4943 59.2963 60.8511C59.1257 60.9907 58.9241 61.0837 58.6759 61.1148C58.6604 61.1148 58.6448 61.1148 58.6293 61.1148L57.6986 61.1458L57.8538 62.3712C57.9003 62.6039 57.8382 62.8365 57.6986 63.0227C57.559 63.2088 57.3574 63.3329 57.1247 63.3484C56.1475 63.457 54.9376 63.5656 53.7587 63.5656C51.587 63.5346 49.462 63.1778 49.1672 61.8283ZM58.862 60.2771C59.0482 60.122 59.1257 59.8583 59.0326 59.6411L58.831 59.1293C58.0709 57.2368 56.9075 54.3672 56.7059 51.1408C56.6904 50.9236 56.5508 50.7374 56.3491 50.6599C55.3254 50.2876 52.5953 49.5275 49.524 50.7374C48.5778 51.1097 48.0659 52.1335 48.3451 53.0952C48.5933 53.9484 48.7639 54.8325 48.888 55.7322C49.1052 57.2834 49.5085 60.1375 49.8497 61.6887C50.0824 62.759 52.921 63.1313 57.0782 62.6349C57.1247 62.6349 57.1557 62.6039 57.1712 62.5884C57.1868 62.5728 57.2023 62.5418 57.1868 62.4643L56.9696 60.8355C56.9541 60.7425 56.9851 60.6339 57.0472 60.5563C57.1092 60.4788 57.2023 60.4322 57.3108 60.4322L58.5983 60.4012C58.7069 60.3702 58.8 60.3237 58.862 60.2771Z" fill="#003359"/>
<path d="M46.0494 58.7569C42.6834 59.3308 42.1094 56.1665 43.1177 54.5222C43.5365 53.8242 44.5758 53.9328 44.886 54.6773L46.3441 58.2295C46.4372 58.4622 46.2976 58.7104 46.0494 58.7569Z" fill="white"/>
<path d="M108.499 68.1261C104.699 64.0155 99.0683 63.1468 94.8181 64.3102C89.451 65.7838 86.752 70.4218 84.8286 73.6948C81.447 79.4806 83.0913 81.5747 80.4388 84.9407C75.7387 90.8972 64.3531 86.9572 58.8 91.5332C45.4754 102.531 52.7349 120.695 64.5548 129.258C72.4347 134.981 83.1533 131.662 86.0695 130.762C94.9112 128.048 109.57 122.696 110.997 109.915C111.958 101.321 103.179 94.4339 107.894 87.2675C109.089 85.4371 110.082 84.9562 110.981 82.6605C112.424 78.9687 112.75 72.733 108.499 68.1261Z" fill="#003359"/>
<path d="M94.6319 69.1498C96.6485 67.5211 95.3765 62.697 94.089 60.091C93.6082 59.1138 91.4365 54.755 88.5979 54.9257C85.6817 55.0963 82.874 60.0135 83.9133 63.8914C85.2163 68.731 92.2741 71.0578 94.6319 69.1498Z" fill="#003359"/>
<path d="M121.808 119.858C121.808 119.858 125.593 137.2 126.632 145.25C127.672 153.301 125.888 164.112 122.475 161.475C119.063 158.838 113.168 124.821 113.168 124.821L121.808 119.858Z" fill="white"/>
<path d="M122.258 161.739C118.784 159.04 113.06 126.264 112.812 124.868C112.781 124.728 112.858 124.573 112.982 124.511L121.638 119.547C121.731 119.485 121.855 119.485 121.948 119.532C122.057 119.578 122.119 119.671 122.15 119.78C122.181 119.951 125.95 137.231 126.974 145.204C127.827 151.781 126.834 160.545 124.29 162.003C124.073 162.127 123.809 162.22 123.484 162.22C123.142 162.22 122.724 162.096 122.258 161.739ZM113.556 124.992C115.231 134.594 120.009 159.102 122.693 161.181C123.313 161.662 123.701 161.522 123.949 161.382C125.981 160.219 127.175 152.091 126.291 145.281C125.361 138.068 122.181 123.208 121.576 120.385L113.556 124.992Z" fill="#003359"/>
<path d="M59.8547 122.448C60.8475 119.051 62.0884 114.956 63.1743 111.993C66.8971 101.864 74.6064 99.5992 77.6001 98.8857C78.0655 98.7771 83.417 98.0636 83.417 98.0636C89.42 96.4969 97.7498 95.7834 107.46 98.8857C107.77 98.9788 108.065 99.1029 108.36 99.2269C115.231 100.856 121.452 115.514 123.173 119.873C123.453 120.571 123.173 121.362 122.522 121.734L117.76 124.464L123.918 159.909C124.368 163.693 123.453 173.636 119.9 174.986C116.178 176.397 106.421 171.449 98.4788 171.449C89.9474 171.449 79.6477 171.403 76.1885 169.883C76.08 169.836 76.5608 175.591 76.4522 175.544C72.0004 173.466 68.805 162.964 69.2393 158.078L71.0697 150.446C72.5588 144.288 73.443 138.006 73.7532 131.693L66.4627 134.687L63.1277 132.748C60.0409 130.297 58.7534 126.233 59.8547 122.448Z" fill="white"/>
<path d="M76.2971 175.855C71.566 173.652 68.4792 162.701 68.8825 158.047C68.8825 158.032 68.8825 158.016 68.898 158.001L70.7284 150.369C72.1555 144.444 73.0397 138.347 73.3809 132.236L66.6023 135.012C66.4937 135.059 66.3851 135.043 66.2921 134.997L62.9571 133.058C62.9416 133.042 62.926 133.042 62.9105 133.027C59.6996 130.483 58.3656 126.295 59.5135 122.37C60.8165 117.888 61.9333 114.366 62.8485 111.9C65.47 104.749 70.4027 100.266 77.5225 98.56C78.0034 98.4514 82.8275 97.7999 83.3704 97.7379H83.3859C91.2659 95.7058 99.4095 95.985 107.553 98.5755C107.832 98.6686 108.112 98.7616 108.437 98.9012C115.449 100.576 121.731 115.297 123.484 119.764C123.825 120.633 123.484 121.595 122.677 122.06L118.132 124.666L124.244 159.878C124.694 163.725 123.778 173.9 119.993 175.327C117.977 176.087 114.425 175.126 110.33 174.009C106.545 172.985 102.264 171.806 98.4478 171.806C88.9856 171.806 80.206 171.698 76.5143 170.41C76.5453 170.953 76.5918 171.884 76.6539 172.675C76.8555 175.7 76.8555 175.7 76.6384 175.855C76.5763 175.901 76.5143 175.917 76.4367 175.917C76.3902 175.886 76.3436 175.886 76.2971 175.855ZM76.3281 169.557C79.8338 171.093 91.0487 171.093 98.4788 171.093C102.388 171.093 106.731 172.271 110.547 173.311C114.533 174.397 117.977 175.343 119.776 174.645C123.08 173.388 124.027 163.818 123.577 159.955L117.419 124.511C117.388 124.371 117.465 124.216 117.589 124.139L122.351 121.409C122.863 121.114 123.065 120.509 122.863 119.982C121.141 115.592 114.999 101.197 108.344 99.5527C108.313 99.5527 108.282 99.5372 108.236 99.5217C107.91 99.3821 107.631 99.2735 107.367 99.196C99.3164 96.6365 91.2969 96.3573 83.5255 98.3894C83.4945 98.4049 83.4635 98.4049 83.417 98.4049C81.2764 98.6841 78.0344 99.1339 77.6932 99.2115C70.8215 100.856 66.0439 105.183 63.5155 112.102C62.6313 114.521 61.4835 118.136 60.196 122.526C59.1257 126.171 60.3666 130.064 63.3449 132.422L66.5092 134.268L73.6446 131.352C73.7532 131.305 73.8773 131.321 73.9859 131.383C74.0789 131.445 74.141 131.569 74.141 131.693C73.8307 138.022 72.9156 144.366 71.442 150.509L69.6116 158.125C69.1928 162.933 72.1555 172.458 76.1265 174.939C76.0955 174.381 76.0489 173.466 75.9869 172.69C75.8007 169.728 75.8007 169.728 76.0024 169.588C76.0644 169.541 76.142 169.526 76.204 169.526C76.2351 169.526 76.2816 169.541 76.3281 169.557Z" fill="#003359"/>
<path d="M100.433 245.099L95.1593 260.812C95.1593 260.812 100.899 260.316 101.442 260.424C101.984 260.533 108.701 246.092 108.701 246.092L100.433 245.099Z" fill="white"/>
<path d="M94.8956 261.029C94.818 260.936 94.8025 260.812 94.8336 260.704L100.108 244.99C100.154 244.835 100.309 244.726 100.48 244.758L108.763 245.766C108.872 245.781 108.98 245.843 109.027 245.936C109.089 246.029 109.089 246.154 109.042 246.262C109.027 246.293 107.336 249.923 105.614 253.475C102 260.905 101.767 260.859 101.395 260.797C101.054 260.735 97.9514 260.952 95.2058 261.184C95.1903 261.184 95.1903 261.184 95.1748 261.184C95.0662 261.169 94.9576 261.107 94.8956 261.029ZM101.364 260.068C102.124 259.168 105.831 251.459 108.205 246.386L100.681 245.471L95.6712 260.409C97.0362 260.3 100.045 260.052 101.147 260.052C101.224 260.068 101.302 260.068 101.364 260.068Z" fill="#003359"/>
<path d="M96.3692 257.353C96.3692 257.353 104.296 254.111 105.754 258.175C107.615 263.356 110.531 271.267 110.531 271.267C111.028 272.648 110.081 274.106 108.623 274.23C105.723 274.462 101.41 274.649 99.3939 273.95C96.2141 272.834 90.9401 262.782 90.9401 262.782L92.5688 254.235C92.5843 254.235 95.454 253.832 96.3692 257.353Z" fill="white"/>
<path d="M99.2854 274.292C96.0124 273.144 90.8626 263.372 90.6454 262.953C90.6144 262.875 90.5989 262.798 90.6144 262.72L92.2431 254.173C92.2741 254.018 92.3827 253.909 92.5378 253.894C92.5689 253.894 95.5161 253.522 96.6174 256.903C97.8428 256.453 101.891 255.119 104.358 256.221C105.211 256.593 105.8 257.229 106.111 258.082C107.956 263.201 110.857 271.096 110.888 271.174C111.167 271.934 111.059 272.756 110.624 273.439C110.19 274.121 109.477 274.54 108.67 274.602C107.212 274.726 105.552 274.819 103.97 274.819C102.109 274.804 100.387 274.68 99.2854 274.292ZM96.5088 257.679C96.4157 257.71 96.3072 257.71 96.2141 257.663C96.121 257.617 96.059 257.539 96.028 257.431C95.3454 254.809 93.5306 254.561 92.8636 254.561L91.3124 262.72C91.8863 263.806 96.6639 272.617 99.5026 273.609C100.992 274.137 104.218 274.23 108.592 273.873C109.182 273.826 109.694 273.516 110.019 273.02C110.33 272.523 110.407 271.934 110.206 271.376C110.175 271.298 107.274 263.403 105.428 258.284C105.18 257.601 104.73 257.12 104.063 256.826C103.474 256.562 102.76 256.453 102.015 256.453C99.487 256.484 96.5398 257.663 96.5088 257.679Z" fill="#003359"/>
<path d="M100.371 271.174H108.515C108.701 271.174 108.872 271.019 108.872 270.817C108.872 270.616 108.716 270.46 108.515 270.46H100.371C100.185 270.46 100.014 270.616 100.014 270.817C100.03 271.019 100.185 271.174 100.371 271.174Z" fill="#003359"/>
<path d="M85.4955 248.961L87.2949 264.768L94.4923 262.798L93.9339 248.542L85.4955 248.961Z" fill="white"/>
<path d="M87.0932 265.062C87.0157 265 86.9536 264.907 86.9381 264.814L85.1543 249.008C85.1387 248.915 85.1698 248.822 85.2318 248.744C85.2939 248.666 85.3869 248.62 85.48 248.62L93.9183 248.217C94.0114 248.217 94.1045 248.248 94.1665 248.31C94.2286 248.372 94.2751 248.465 94.2751 248.558L94.8335 262.813C94.8335 262.984 94.7405 263.123 94.5698 263.17L87.3724 265.14C87.3414 265.155 87.3104 265.155 87.2794 265.155C87.2173 265.124 87.1553 265.093 87.0932 265.062ZM93.5926 248.915L85.8833 249.287L87.5896 264.318L94.12 262.518L93.5926 248.915Z" fill="#003359"/>
<path d="M86.6123 276.417H98.0134C99.5491 276.417 100.743 275.052 100.511 273.516C100.123 270.941 98.8976 266.676 95.1748 260.812C94.7715 260.176 94.058 259.788 93.2979 259.788H89.8388C89.2338 259.788 88.7374 260.238 88.6754 260.828L88.4117 263.325L87.3569 262.255C86.9381 261.836 86.2246 261.991 86.0384 262.549C85.3714 264.566 84.1615 268.894 84.0684 273.842C84.0529 275.253 85.2008 276.417 86.6123 276.417Z" fill="white"/>
<path d="M84.5493 275.905C84.0064 275.347 83.7117 274.617 83.7272 273.842C83.8203 268.894 85.0147 264.581 85.7127 262.441C85.8368 262.053 86.147 261.774 86.5348 261.696C86.9226 261.603 87.3259 261.727 87.6051 262.006L88.1325 262.549L88.3186 260.797C88.3962 260.021 89.0477 259.432 89.8233 259.432H93.2824C94.1665 259.432 94.9731 259.881 95.454 260.626C99.2078 266.567 100.464 270.895 100.837 273.47C100.961 274.292 100.712 275.129 100.17 275.765C99.6266 276.401 98.8355 276.758 97.9824 276.758H86.5813C85.8368 276.774 85.0922 276.463 84.5493 275.905ZM89.8233 260.13C89.4045 260.13 89.0477 260.44 89.0167 260.859L88.753 263.356C88.7375 263.496 88.6444 263.604 88.5203 263.651C88.3962 263.697 88.2566 263.666 88.148 263.558L87.0932 262.487C86.9846 262.379 86.8295 262.332 86.6744 262.363C86.5193 262.394 86.4107 262.503 86.3642 262.658C85.6817 264.752 84.5028 269.002 84.4097 273.857C84.3942 274.447 84.6269 275.005 85.0302 275.424C85.449 275.843 85.9919 276.076 86.5813 276.076H97.9824C98.6184 276.076 99.2233 275.796 99.6266 275.315C100.045 274.835 100.216 274.199 100.139 273.578C99.7662 271.065 98.5408 266.831 94.8491 260.998C94.5078 260.471 93.9028 260.13 93.2669 260.13H89.8233Z" fill="#003359"/>
<path d="M86.4727 274.044H98.0134C98.1996 274.044 98.3702 273.888 98.3702 273.687C98.3702 273.485 98.2151 273.33 98.0134 273.33H86.4727C86.2866 273.33 86.116 273.485 86.116 273.687C86.116 273.888 86.2866 274.044 86.4727 274.044Z" fill="#003359"/>
<path d="M112.548 153.983C112.253 153.254 111.648 152.696 110.888 152.463C106.715 151.16 92.1966 147.716 77.2433 157.303C76.5453 157.753 76.0799 158.513 76.0334 159.35C75.4905 166.951 73.474 206.676 86.0384 253.708L94.5078 253.103L96.2296 172.675C96.2296 172.675 108.763 202.162 98.5719 249.085L107.382 250.714C107.382 250.714 120.273 233.775 122.568 207.886C124.616 184.976 114.828 159.552 112.548 153.983Z" fill="url(#paint2_linear_511_1164)"/>
<path d="M88.1946 216.356C88.3807 216.356 88.5358 216.216 88.5514 216.014C88.5669 215.828 88.4117 215.658 88.2101 215.642C80.9971 215.332 80.1595 205.265 80.144 205.156C80.1285 204.97 79.9579 204.815 79.7717 204.83C79.5856 204.846 79.4305 205.017 79.446 205.203C79.446 205.327 80.3457 216.014 88.1946 216.356C88.1946 216.356 88.1791 216.356 88.1946 216.356Z" fill="white"/>
<path d="M96.9587 180.415C96.9742 180.415 96.9742 180.415 96.9587 180.415C97.1603 180.415 97.3154 180.244 97.3154 180.058L97.0827 172.411C97.0362 171.015 97.7032 169.697 98.8356 168.89L102.14 166.579C102.295 166.47 102.341 166.253 102.217 166.082C102.109 165.927 101.891 165.881 101.721 166.005L98.4168 168.316C97.0828 169.262 96.3072 170.798 96.3537 172.427L96.5864 180.074C96.6174 180.26 96.7725 180.415 96.9587 180.415Z" fill="white"/>
<path d="M75.7387 126.791C75.7387 126.791 69.0066 143.792 75.7077 162.639C75.7077 162.639 82.1916 165.524 84.4253 167.261C86.6589 168.999 86.9381 173.311 86.9381 173.311C86.9381 173.311 83.7272 170.689 81.1057 170.751C78.4843 170.813 74.5753 169.34 74.4978 166.393C74.4978 166.393 62.9416 153.192 62.6624 143.063C62.3521 131.724 63.1277 123.922 64.0584 120.959C64.2135 120.431 64.7409 120.121 65.2838 120.23C70.1545 121.098 74.8545 122.634 75.7387 126.791Z" fill="white"/>
<path d="M86.7055 173.574C86.6744 173.543 83.6497 171.093 81.1988 171.093C81.1678 171.093 81.1368 171.093 81.1058 171.093C79.6477 171.124 77.9414 170.705 76.6694 170.007C75.1182 169.154 74.2341 167.913 74.141 166.517C73.0242 165.214 62.5693 152.866 62.3056 143.047C61.9799 131.026 62.864 123.565 63.7172 120.835C63.9343 120.152 64.6324 119.733 65.3459 119.858C69.8443 120.664 75.1338 122.184 76.0955 126.698C76.111 126.76 76.111 126.838 76.08 126.9C76.0179 127.07 69.5185 143.901 76.0024 162.36C76.9796 162.794 82.5639 165.338 84.6579 166.966C86.9847 168.781 87.2794 173.094 87.2949 173.28C87.3104 173.419 87.2329 173.543 87.1088 173.621C87.0622 173.652 87.0002 173.652 86.9537 173.652C86.8606 173.652 86.783 173.621 86.7055 173.574ZM65.2063 120.556C64.834 120.494 64.4927 120.695 64.3842 121.052C63.5465 123.735 62.6934 131.103 63.0036 143.047C63.2673 152.944 74.6374 166.036 74.746 166.16C74.7925 166.222 74.8235 166.299 74.839 166.377C74.8701 167.897 76.0334 168.859 77.0107 169.386C78.1896 170.038 79.7562 170.426 81.0902 170.395C83.1068 170.348 85.387 171.744 86.4883 172.535C86.3022 171.248 85.7282 168.704 84.2081 167.525C82.0365 165.834 75.6301 162.98 75.5681 162.949C75.475 162.902 75.413 162.84 75.3819 162.747C68.9911 144.754 74.839 128.218 75.3819 126.76C74.4512 122.727 69.4565 121.331 65.2063 120.556Z" fill="#003359"/>
<path d="M92.7705 78.8602C93.0808 78.9998 93.4531 78.8291 93.5461 78.4879C93.9805 76.8902 95.5316 74.3308 97.4861 73.6017C99.999 72.6865 103.086 73.1209 103.985 75.0133C104.777 76.673 104.358 77.7899 106.529 79.8064C106.731 79.9925 106.622 80.3648 106.421 80.5665L105.351 81.7143C105.118 81.9315 104.994 82.5985 104.994 82.9242C105.025 83.917 105.164 85.9955 104.854 86.3058C104.265 86.9107 100.961 87.1124 100.961 87.1124L99.4561 96.4814C99.394 96.8382 99.6422 97.1639 99.999 97.2105L103.256 97.8775C103.256 97.8775 101.178 101.709 93.2669 102.159C88.2101 102.453 81.7262 99.1494 81.7262 99.1494C81.7262 99.1494 93.6702 96.7606 93.5461 85.0493C93.5461 84.7856 93.4065 84.5529 93.1738 84.4289C92.3207 83.948 90.0095 82.4744 90.1646 80.6905C90.3352 78.8447 91.6847 78.3948 92.7705 78.8602Z" fill="white"/>
<path d="M81.5711 99.5217C81.4315 99.4597 81.3695 99.3046 81.385 99.165C81.4005 99.0099 81.5246 98.9013 81.6642 98.8703C81.7883 98.8392 93.3134 96.4039 93.2049 85.1269C93.2049 84.9873 93.1273 84.8787 93.0187 84.8011C91.7623 84.0876 89.6682 82.5985 89.8233 80.7216C89.9319 79.4651 90.4903 78.8912 90.9402 78.612C91.5141 78.2707 92.2276 78.2397 92.9101 78.5344C92.9877 78.5654 93.0497 78.5499 93.0808 78.5344C93.1118 78.5189 93.1738 78.4879 93.1894 78.3948C93.6392 76.735 95.2214 74.067 97.362 73.2759C99.8904 72.3452 103.272 72.702 104.296 74.8736C104.559 75.4166 104.683 75.8974 104.808 76.3628C105.087 77.371 105.319 78.2397 106.747 79.5582C106.886 79.6823 106.964 79.8684 106.964 80.0701C106.964 80.3338 106.84 80.613 106.653 80.7991L105.568 81.9625C105.444 82.0711 105.319 82.614 105.319 82.9087C105.319 83.0638 105.335 83.2345 105.335 83.4361C105.413 85.344 105.382 86.2437 105.071 86.554C104.497 87.1434 102.155 87.3761 101.224 87.4536L99.7663 96.559C99.7508 96.6366 99.7663 96.7141 99.8283 96.7762C99.8749 96.8382 99.9369 96.8692 100.046 96.8847L103.303 97.5518C103.412 97.5673 103.505 97.6448 103.551 97.7534C103.598 97.8465 103.598 97.9706 103.536 98.0636C103.443 98.2343 101.271 102.081 93.2514 102.531C93.0342 102.547 92.8016 102.547 92.5844 102.547C87.6517 102.578 81.8348 99.6458 81.5711 99.5217ZM99.9524 97.5983C99.6887 97.5673 99.4561 97.4277 99.2854 97.2105C99.1148 96.9933 99.0528 96.7296 99.0993 96.4659L100.604 87.0969C100.635 86.9417 100.759 86.8176 100.93 86.8021C102.45 86.7091 104.296 86.4144 104.59 86.1196C104.746 85.8404 104.683 84.1962 104.668 83.4981C104.668 83.2965 104.652 83.1259 104.652 82.9708C104.637 82.6295 104.777 81.8384 105.102 81.5126L106.188 80.3493C106.281 80.2562 106.312 80.1321 106.297 80.1011C104.73 78.643 104.435 77.5882 104.156 76.5799C104.032 76.1456 103.908 75.6958 103.675 75.1994C102.838 73.431 99.8749 73.1363 97.6102 73.9584C95.7333 74.641 94.2752 77.1384 93.8874 78.5965C93.8253 78.8601 93.6392 79.0618 93.4065 79.1859C93.1738 79.2945 92.8946 79.31 92.6464 79.2014C92.1811 78.9998 91.7002 79.0153 91.3124 79.2324C90.8626 79.4961 90.5989 80.039 90.5369 80.7991C90.4128 82.3348 92.4758 83.6998 93.3755 84.2117C93.7012 84.3978 93.9184 84.7546 93.9184 85.1269C94.027 95.0078 85.6352 98.4359 82.7655 99.3201C84.6735 100.173 89.42 102.097 93.2669 101.88C99.332 101.538 101.891 99.134 102.682 98.1722L99.9524 97.5983Z" fill="#003359"/>
<path d="M45.1031 104.92C45.1031 104.92 46.7319 97.3345 50.3151 94.651C53.4639 92.3087 52.8124 96.2642 51.4319 98.4513C51.1682 98.8546 50.9821 99.2424 50.858 99.5837C50.5167 100.483 51.587 101.243 52.3316 100.638C55.3253 98.2186 61.6851 93.2394 62.5072 93.9529C63.3449 94.6665 62.5848 96.7916 60.3821 99.0563C59.8703 99.5837 59.6066 100.328 59.6996 101.057C59.8703 102.531 59.8237 105.059 57.9933 106.626C55.589 108.674 49.4309 110.814 49.4309 110.814C49.4309 110.814 42.8384 120.168 27.668 128.916C19.4468 133.647 17.3217 127.226 15.9567 120.866C13.9712 111.745 26.7683 114.475 26.7683 114.475C26.7683 114.475 34.0588 115.344 45.1031 104.92Z" fill="white"/>
<path d="M20.6412 130.483C17.6009 129.133 16.4531 124.852 15.6155 120.943C15.1191 118.632 15.4914 116.848 16.7168 115.623C19.6795 112.645 26.5667 114.072 26.8149 114.134C26.8924 114.134 34.0433 114.863 44.7929 104.734C45.0101 103.756 46.6698 96.9468 50.1134 94.3718C51.2147 93.5497 52.0369 93.3636 52.5332 93.8289C53.4329 94.6665 52.6418 97.1949 51.7421 98.622C51.5095 98.9788 51.3388 99.3511 51.1992 99.6923C51.0907 100.003 51.2303 100.251 51.4009 100.375C51.5715 100.499 51.8507 100.561 52.1144 100.359C61.5921 92.6966 62.3987 93.3946 62.7399 93.6893C63.0191 93.922 63.1742 94.2787 63.1898 94.7131C63.2363 95.892 62.2901 97.6138 60.6303 99.3045C60.1805 99.7699 59.9633 100.39 60.0409 101.026C60.2115 102.5 60.196 105.214 58.2105 106.905C55.9303 108.844 50.4857 110.814 49.6326 111.124C48.888 112.133 42.0939 121.021 27.8231 129.227C25.8687 130.359 24.1624 130.917 22.6888 130.917C21.9597 130.917 21.2772 130.778 20.6412 130.483ZM52.5643 100.918C52.0989 101.29 51.4785 101.306 50.9976 100.964C50.5167 100.623 50.3306 100.018 50.5477 99.4596C50.6874 99.0719 50.9045 98.6685 51.1527 98.2652C52.1144 96.7451 52.4867 94.7441 52.0679 94.3563C51.9128 94.2012 51.4164 94.2787 50.5477 94.9457C47.1197 97.5052 45.4754 104.92 45.4599 104.997C45.4444 105.059 45.4134 105.137 45.3513 105.183C34.3225 115.607 27.032 114.878 26.6908 114.832C26.6287 114.816 19.8967 113.42 17.1976 116.119C16.1429 117.174 15.8326 118.741 16.2825 120.804C17.1511 124.821 18.3145 128.699 20.9204 129.863C22.5957 130.607 24.7518 130.204 27.4819 128.637C42.4041 120.044 49.0741 110.737 49.1362 110.644C49.1827 110.582 49.2448 110.535 49.3068 110.519C49.3689 110.504 55.4339 108.379 57.7607 106.393C59.498 104.92 59.498 102.469 59.3429 101.135C59.2498 100.297 59.529 99.4596 60.134 98.8392C61.9178 96.9933 62.5228 95.4887 62.4917 94.7596C62.4762 94.5424 62.4142 94.3718 62.3056 94.2477C61.8402 94.1546 59.2963 95.4576 52.5643 100.918Z" fill="#003359"/>
<path d="M120.692 110.333C110.175 110.83 108.996 107.184 113.448 100.964C113.696 100.607 114.208 100.561 114.533 100.856C118.551 104.439 120.242 106.192 120.692 110.333Z" fill="white"/>
<path d="M111.043 108.162C110.128 106.471 110.811 104.051 113.168 100.763C113.339 100.514 113.618 100.359 113.928 100.313C114.239 100.282 114.549 100.375 114.782 100.576C118.675 104.051 120.583 105.928 121.048 110.287C121.064 110.38 121.033 110.473 120.971 110.55C120.909 110.628 120.816 110.675 120.723 110.675C120.087 110.706 119.466 110.721 118.892 110.721C114.549 110.737 111.974 109.883 111.043 108.162ZM114.301 101.119C114.223 101.042 114.115 101.011 113.99 101.026C113.882 101.042 113.789 101.088 113.727 101.181C111.586 104.175 110.888 106.424 111.648 107.836C112.532 109.465 115.449 110.194 120.288 110.008C119.807 106.331 118.287 104.687 114.301 101.119Z" fill="#003359"/>
<defs>
<linearGradient id="paint0_linear_511_1164" x1="232.054" y1="161.971" x2="189.01" y2="240.319" gradientUnits="userSpaceOnUse">
<stop stop-color="#C9EEF7"/>
<stop offset="1" stop-color="#64CFE9"/>
</linearGradient>
<linearGradient id="paint1_linear_511_1164" x1="55.5" y1="171" x2="23" y2="249" gradientUnits="userSpaceOnUse">
<stop stop-color="#C9EEF7"/>
<stop offset="1" stop-color="#64CFE9"/>
</linearGradient>
<linearGradient id="paint2_linear_511_1164" x1="105.781" y1="176.562" x2="75.8666" y2="248.501" gradientUnits="userSpaceOnUse">
<stop stop-color="#C9EEF7"/>
<stop offset="1" stop-color="#64CFE9"/>
</linearGradient>
</defs>
</svg>
