<svg width="280" height="280" viewBox="0 0 280 280" fill="none" xmlns="http://www.w3.org/2000/svg">
<path d="M271.687 19.3792H135.058C130.079 19.3792 125.529 23.435 124.886 28.447L111.911 130.238C111.268 135.25 114.796 139.306 119.775 139.306H256.403C261.382 139.306 265.933 135.25 266.576 130.238L279.551 28.447C280.178 23.435 276.666 19.3792 271.687 19.3792Z" fill="white"/>
<path d="M256.403 139.652H119.775C117.285 139.652 115.06 138.68 113.493 136.916C111.911 135.118 111.218 132.728 111.548 130.172L124.523 28.3811C125.183 23.2042 129.914 19 135.058 19H271.687C274.176 19 276.402 19.9727 277.968 21.7369C279.551 23.5339 280.244 25.9246 279.914 28.4801L266.939 130.271C266.279 135.448 261.547 139.652 256.403 139.652ZM135.058 19.7419C130.261 19.7419 125.875 23.6658 125.265 28.4801L112.29 130.271C111.993 132.612 112.62 134.789 114.054 136.437C115.472 138.037 117.5 138.927 119.775 138.927H256.403C261.201 138.927 265.587 135.003 266.197 130.189L279.172 28.3976C279.469 26.0565 278.842 23.8802 277.408 22.2315C275.99 20.6322 273.962 19.7419 271.687 19.7419H135.058Z" fill="#003359"/>
<path d="M271.637 34.6133H131.316C131.118 34.6133 130.937 34.4484 130.937 34.2341C130.937 34.0362 131.102 33.8549 131.316 33.8549H271.637C271.835 33.8549 272.017 34.0197 272.017 34.2341C272.017 34.4484 271.852 34.6133 271.637 34.6133Z" fill="#003359"/>
<path d="M141.225 26.3368C141.06 27.6228 139.889 28.6614 138.62 28.6614C137.35 28.6614 136.443 27.6228 136.608 26.3368C136.773 25.0508 137.944 24.0121 139.213 24.0121C140.483 24.0121 141.389 25.0673 141.225 26.3368Z" fill="white"/>
<path d="M150.474 26.3368C150.309 27.6228 149.138 28.6614 147.869 28.6614C146.599 28.6614 145.693 27.6228 145.857 26.3368C146.022 25.0508 147.193 24.0121 148.462 24.0121C149.732 24.0121 150.639 25.0673 150.474 26.3368Z" fill="white"/>
<path d="M159.723 26.3368C159.558 27.6228 158.388 28.6614 157.118 28.6614C155.849 28.6614 154.942 27.6228 155.107 26.3368C155.272 25.0508 156.442 24.0121 157.712 24.0121C158.981 24.0121 159.871 25.0673 159.723 26.3368Z" fill="white"/>
<path d="M272.759 26.7159H259.734C259.536 26.7159 259.355 26.5511 259.355 26.3367C259.355 26.1224 259.519 25.9575 259.734 25.9575H272.759C272.956 25.9575 273.138 26.1224 273.138 26.3367C273.138 26.5511 272.973 26.7159 272.759 26.7159Z" fill="#003359"/>
<path d="M253.881 26.7159H190.917C190.719 26.7159 190.537 26.5511 190.537 26.3367C190.537 26.1224 190.702 25.9575 190.917 25.9575H253.881C254.079 25.9575 254.26 26.1224 254.26 26.3367C254.26 26.5511 254.095 26.7159 253.881 26.7159Z" fill="#003359"/>
<path d="M176.738 26.7159H165.263C165.065 26.7159 164.884 26.5511 164.884 26.3367C164.884 26.1224 165.048 25.9575 165.263 25.9575H176.738C176.936 25.9575 177.117 26.1224 177.117 26.3367C177.117 26.5511 176.952 26.7159 176.738 26.7159Z" fill="#003359"/>
<path d="M254.277 122.209H124.441L134.514 43.104H264.35L254.277 122.209Z" fill="white"/>
<path d="M254.276 122.588H124.441C124.342 122.588 124.226 122.539 124.16 122.456C124.095 122.374 124.062 122.275 124.078 122.16L134.168 43.0546C134.185 42.8732 134.35 42.7249 134.531 42.7249H264.367C264.465 42.7249 264.581 42.7743 264.647 42.8568C264.713 42.9392 264.746 43.0381 264.729 43.1535L254.639 122.259C254.623 122.44 254.458 122.588 254.276 122.588Z" fill="#003359"/>
<path d="M26.7878 97.4785C9.24557 101.238 0.754729 133.635 0.375526 154.623C-0.250983 190.301 22.089 224.511 52.9198 240.966C93.8902 262.811 154.942 256.018 175.056 220.522C187.059 199.336 185.41 166.296 168.709 153.007C151.974 139.702 134.795 157.937 102.793 149.759C58.5914 138.482 48.7156 92.7632 26.7878 97.4785Z" fill="white"/>
<path d="M104.97 253.842C86.5206 253.842 68.1539 249.489 52.7385 241.279C20.5887 224.132 -0.597187 189.311 0.0128348 154.606C0.21068 142.983 2.74969 129.843 6.80551 119.456C10.3173 110.454 16.6153 99.2756 26.7219 97.1158C37.1417 94.8735 44.8082 103.694 54.5356 114.856C65.5984 127.567 79.3816 143.395 102.909 149.396C118.192 153.304 129.882 151.177 140.202 149.314C151.348 147.286 160.135 145.703 168.972 152.71C176.853 158.975 181.981 170.285 183.036 183.755C184.075 196.83 181.288 210.283 175.402 220.686C170.522 229.309 163.136 236.497 153.458 242.07C144.506 247.214 133.591 250.858 121.885 252.605C116.28 253.43 110.625 253.842 104.97 253.842ZM26.7879 97.4785L26.8703 97.8412C17.0935 99.9351 10.9438 110.899 7.49797 119.736C3.47512 130.024 0.952598 143.082 0.754753 154.623C0.144731 189.048 21.1822 223.605 53.1012 240.636C73.0836 251.303 98.111 255.392 121.77 251.88C146.138 248.253 165.444 236.761 174.759 220.34C180.579 210.069 183.333 196.764 182.311 183.838C181.255 170.566 176.227 159.437 168.511 153.304C159.938 146.495 151.298 148.061 140.334 150.056C129.948 151.935 118.176 154.079 102.727 150.138C78.953 144.054 65.1038 128.144 53.9586 115.35C44.3961 104.37 36.845 95.6979 26.8703 97.8412L26.7879 97.4785Z" fill="#003359"/>
<path d="M128.167 253.397C128.167 253.397 143.516 259.695 154.447 259.612C156.294 259.596 157.481 257.667 156.706 255.985C156.261 255.012 155.585 253.792 154.563 252.276C150.771 246.571 134.514 237.338 134.514 237.338L131.893 238.476C130.97 238.872 130.607 239.976 131.085 240.85L131.745 242.037H127.392C126.403 242.037 125.611 242.861 125.661 243.851C125.76 245.862 126.254 249.357 128.167 253.397Z" fill="white"/>
<path d="M154.2 259.975C143.335 259.975 128.183 253.792 128.018 253.743C127.936 253.71 127.87 253.644 127.821 253.562C125.925 249.555 125.397 246.076 125.282 243.867C125.249 243.29 125.446 242.73 125.859 242.317C126.254 241.889 126.798 241.658 127.392 241.658H131.118L130.772 241.031C130.492 240.52 130.426 239.91 130.623 239.366C130.805 238.822 131.217 238.36 131.761 238.13L134.382 236.992C134.481 236.943 134.613 236.959 134.712 237.009C135.372 237.388 151.084 246.357 154.892 252.078C155.832 253.479 156.558 254.749 157.069 255.837C157.497 256.744 157.431 257.799 156.887 258.64C156.36 259.48 155.453 259.975 154.48 259.991C154.365 259.975 154.282 259.975 154.2 259.975ZM128.431 253.116C129.947 253.726 144.011 259.25 154.183 259.25C154.266 259.25 154.348 259.25 154.431 259.25C155.173 259.25 155.832 258.87 156.228 258.244C156.623 257.617 156.673 256.826 156.36 256.15C155.865 255.095 155.156 253.858 154.249 252.49C150.738 247.23 136.18 238.74 134.481 237.75L132.025 238.806C131.679 238.954 131.415 239.234 131.299 239.597C131.184 239.96 131.217 240.339 131.398 240.669L132.058 241.856C132.124 241.971 132.124 242.12 132.058 242.218C131.992 242.334 131.876 242.4 131.745 242.4H127.392C127.013 242.4 126.667 242.548 126.403 242.828C126.139 243.092 126.007 243.455 126.04 243.834C126.139 245.944 126.65 249.275 128.431 253.116Z" fill="#003359"/>
<path d="M154.991 257.123C154.975 257.123 154.975 257.123 154.958 257.123C143.055 256.331 129.024 251.039 128.876 250.99C128.678 250.924 128.596 250.709 128.661 250.511C128.727 250.314 128.942 250.231 129.14 250.297C129.271 250.347 143.203 255.606 155.008 256.381C155.206 256.397 155.371 256.579 155.354 256.777C155.354 256.974 155.189 257.123 154.991 257.123Z" fill="#003359"/>
<path d="M144.637 250.775C144.572 250.775 144.506 250.759 144.456 250.726C144.275 250.627 144.225 250.396 144.324 250.215L146.665 246.225C146.764 246.043 146.995 245.994 147.176 246.093C147.358 246.192 147.407 246.423 147.308 246.604L144.967 250.594C144.885 250.709 144.769 250.775 144.637 250.775Z" fill="#003359"/>
<path d="M139.362 249.143C139.296 249.143 139.23 249.127 139.18 249.094C138.999 248.995 138.949 248.764 139.048 248.582L142 243.57C142.098 243.389 142.329 243.34 142.511 243.439C142.692 243.537 142.741 243.768 142.643 243.95L139.691 248.962C139.609 249.094 139.493 249.143 139.362 249.143Z" fill="#003359"/>
<path d="M80.107 154.92C80.5852 154.425 114.103 139.933 127.821 136.85C141.521 133.767 146.632 133.734 151.298 141.565C155.964 149.396 128.826 192.147 128.826 192.147L71.1051 177.111L80.107 154.92Z" fill="url(#paint0_linear_511_1642)"/>
<path d="M112.587 171.538C112.537 171.538 112.488 171.522 112.438 171.505C112.257 171.423 112.174 171.209 112.257 171.011C118.72 156.601 129.37 146.297 129.486 146.198C129.634 146.049 129.865 146.066 130.013 146.214C130.162 146.363 130.145 146.593 129.997 146.742C129.898 146.841 119.33 157.046 112.933 171.324C112.867 171.456 112.735 171.538 112.587 171.538Z" fill="white"/>
<path d="M95.7368 143.956L88.2517 144.104C87.889 144.104 87.5757 143.824 87.5592 143.461L86.3392 125.935H97.5998L96.5612 143.164C96.5282 143.609 96.1655 143.956 95.7368 143.956Z" fill="white"/>
<path d="M88.2352 144.45C87.6911 144.45 87.2459 144.038 87.213 143.494L85.9929 125.968C85.9929 125.869 86.0259 125.787 86.0754 125.721C86.1413 125.655 86.2237 125.622 86.3227 125.622H97.5999C97.6988 125.622 97.7812 125.655 97.8472 125.721C97.9131 125.787 97.9461 125.886 97.9296 125.968L96.8909 143.197C96.8579 143.807 96.3468 144.285 95.7368 144.302L88.2517 144.45C88.2517 144.45 88.2517 144.45 88.2352 144.45ZM86.6854 126.281L87.8889 143.444C87.9054 143.626 88.0703 143.774 88.2517 143.774L95.7368 143.626C96.0006 143.626 96.2149 143.411 96.2314 143.148L97.2536 126.281H86.6854Z" fill="#003359"/>
<path d="M97.6163 127.304H86.1083C85.5147 127.304 85.0366 126.826 85.0366 126.232V125.638C85.0366 125.045 85.5147 124.567 86.1083 124.567H97.6163C98.2098 124.567 98.6879 125.045 98.6879 125.638V126.232C98.6879 126.826 98.2098 127.304 97.6163 127.304Z" fill="white"/>
<path d="M97.7152 127.65H86.0094C85.284 127.65 84.7069 127.073 84.7069 126.347V125.556C84.7069 124.831 85.284 124.254 86.0094 124.254H97.7152C98.4406 124.254 99.0177 124.831 99.0177 125.556V126.347C99.0177 127.056 98.4406 127.65 97.7152 127.65ZM86.0259 124.913C85.6796 124.913 85.3994 125.193 85.3994 125.54V126.331C85.3994 126.677 85.6796 126.957 86.0259 126.957H97.7317C98.0779 126.957 98.3582 126.677 98.3582 126.331V125.54C98.3582 125.193 98.0779 124.913 97.7317 124.913H86.0259Z" fill="#003359"/>
<path d="M52.6725 174.077C52.6725 174.077 52.6725 182.255 60.405 189.905C70.0994 199.5 101.359 192.889 101.359 192.889C101.359 192.889 104.574 198.149 106.668 212.228C108.762 226.292 111.103 245.236 114.582 249.852L144.852 243.323C144.852 243.323 134.811 183.063 127.837 174.869C120.863 166.675 70.1159 165.389 70.1159 165.389L52.6725 174.077Z" fill="url(#paint1_linear_511_1642)"/>
<path d="M131.349 182.618C131.201 182.618 131.052 182.519 131.003 182.37C129.733 178.743 128.579 176.287 127.573 175.1C122.924 169.626 88.9771 166.84 78.6892 166.098C78.4913 166.081 78.3264 165.9 78.3429 165.702C78.3594 165.504 78.5408 165.339 78.7386 165.356C92.0272 166.296 123.435 169.082 128.15 174.605C129.239 175.891 130.409 178.348 131.712 182.123C131.778 182.321 131.679 182.535 131.481 182.601C131.431 182.618 131.382 182.618 131.349 182.618Z" fill="white"/>
<path d="M37.6034 171.077C37.6034 171.077 32.1791 163.476 34.3884 146.478C36.6141 129.48 42.0549 120.643 47.7429 118.631C53.4309 116.62 76.8591 120.297 78.6891 148.869L37.6034 171.077Z" fill="white"/>
<path d="M37.6034 171.439C37.4879 171.439 37.3725 171.39 37.3066 171.291C37.0758 170.978 31.8164 163.377 34.0257 146.429C36.0536 130.881 41.0162 120.626 47.6275 118.285C50.6941 117.197 58.476 117.741 65.4665 122.357C71.1381 126.1 78.0956 133.734 79.0683 148.852C79.0848 149.001 79.0024 149.132 78.8705 149.198L37.7847 171.406C37.7188 171.423 37.6693 171.439 37.6034 171.439ZM51.1722 118.532C49.8038 118.532 48.6827 118.697 47.8748 118.978C41.6262 121.187 36.7295 131.491 34.7511 146.527C32.8056 161.415 36.812 169.082 37.7188 170.582L78.2934 148.654C77.2877 133.997 70.5445 126.595 65.0378 122.967C60.1247 119.703 54.8159 118.532 51.1722 118.532Z" fill="#003359"/>
<path d="M53.9585 159.157C53.7607 159.157 53.5958 159.008 53.5958 158.81L52.4747 142.867C52.4582 142.67 52.6066 142.488 52.8209 142.472C53.0188 142.455 53.2001 142.604 53.2166 142.818L54.3378 158.761C54.3542 158.959 54.2059 159.14 53.9915 159.157C53.9915 159.157 53.975 159.157 53.9585 159.157Z" fill="#003359"/>
<path d="M35.6249 166.708C35.6249 166.708 37.6034 180.986 57.5527 176.204C77.5186 171.423 87.9219 152.875 87.9219 152.875C87.9219 152.875 99.5453 150.386 99.1496 142.851C99.1496 142.851 95.2587 143.89 91.9448 142.851C88.6309 141.812 85.0532 142.867 83.6847 144.17C74.2541 153.007 44.0993 155.661 35.6249 166.708Z" fill="white"/>
<path d="M50.0182 177.556C46.2756 177.556 43.143 176.699 40.637 174.984C36.0206 171.835 35.2952 166.955 35.2622 166.757C35.2457 166.658 35.2787 166.559 35.3282 166.477C40.0105 160.377 51.0733 156.848 61.7734 153.419C70.7259 150.567 79.1838 147.863 83.421 143.89C85.0037 142.406 88.7463 141.449 92.0602 142.488C95.2257 143.494 99.0177 142.488 99.0507 142.488C99.1661 142.455 99.2815 142.488 99.364 142.554C99.4629 142.62 99.5123 142.719 99.5123 142.834C99.8915 150.204 89.6366 152.858 88.1528 153.205C87.1141 154.969 76.5788 172.033 57.6352 176.567C54.8818 177.226 52.3263 177.556 50.0182 177.556ZM36.0206 166.79C36.1855 167.614 37.1418 171.703 41.0657 174.374C44.9566 177.029 50.4798 177.523 57.4868 175.841C77.0405 171.159 87.4933 152.875 87.5922 152.677C87.6417 152.578 87.7406 152.512 87.8395 152.496C87.9549 152.479 98.6715 150.089 98.7869 143.296C97.6493 143.543 94.5827 144.054 91.8459 143.181C88.6309 142.175 85.1851 143.247 83.9486 144.417C79.5795 148.506 71.0557 151.226 62.0207 154.128C51.4855 157.491 40.6205 160.954 36.0206 166.79Z" fill="#003359"/>
<path d="M92.0436 146.445C91.7139 146.445 91.3842 146.445 91.0379 146.429C90.8401 146.429 90.6752 146.247 90.6752 146.049C90.6752 145.852 90.8566 145.687 91.0544 145.687C96.8743 145.917 98.7868 144.021 98.8033 144.005C98.9517 143.857 99.1825 143.857 99.3309 144.005C99.4793 144.153 99.4793 144.384 99.3309 144.533C99.2649 144.599 97.4019 146.445 92.0436 146.445Z" fill="#003359"/>
<path d="M91.4336 149.198C91.3017 149.198 91.1698 149.198 91.0379 149.198C90.8401 149.198 90.6752 149.017 90.6752 148.819C90.6752 148.621 90.8401 148.457 91.0544 148.457C96.05 148.555 97.6822 146.791 97.6987 146.758C97.8306 146.61 98.0779 146.594 98.2263 146.725C98.3747 146.857 98.3912 147.088 98.2593 147.253C98.1933 147.335 96.5116 149.198 91.4336 149.198Z" fill="#003359"/>
<path d="M57.157 107.305C57.0252 107.552 51.3701 117.213 51.3701 117.213L47.4626 119.835C48.897 120.923 51.436 122.572 54.9972 123.511C58.6244 124.468 61.7075 124.27 63.5046 124.023C63.3562 123.528 63.0924 122.885 62.6308 122.225C61.9053 121.17 61.048 120.544 60.5039 120.198C61.6745 118.203 62.8286 116.191 63.9992 114.196L57.157 107.305Z" fill="white"/>
<path d="M60.5204 124.616C58.6244 124.616 56.7449 124.369 54.8983 123.874C52.112 123.132 49.5235 121.879 47.2318 120.132C47.1329 120.066 47.0834 119.95 47.0834 119.818C47.0834 119.703 47.1494 119.588 47.2483 119.522L51.0733 116.95C53.0353 113.586 56.7119 107.305 56.8108 107.123C56.8603 107.024 56.9757 106.942 57.0911 106.926C57.2065 106.909 57.3219 106.942 57.4044 107.024L64.2465 113.933C64.3619 114.048 64.3949 114.229 64.296 114.378L60.9985 120.099C61.7734 120.626 62.4164 121.269 62.9275 122.028C63.3232 122.605 63.6365 123.248 63.8508 123.924C63.8838 124.023 63.8673 124.138 63.8178 124.237C63.7519 124.336 63.6694 124.385 63.554 124.402C62.5483 124.55 61.5261 124.616 60.5204 124.616ZM48.1056 119.868C50.216 121.401 52.5736 122.506 55.0962 123.182C57.6846 123.874 60.3391 124.056 63.01 123.742C62.8286 123.281 62.5978 122.852 62.334 122.456C61.8064 121.681 61.1304 121.038 60.3226 120.544C60.1577 120.445 60.0917 120.214 60.1907 120.033L63.5375 114.279L57.2395 107.915C56.1513 109.778 51.8977 117.065 51.6998 117.411C51.6668 117.461 51.6339 117.494 51.5844 117.527L48.1056 119.868Z" fill="#003359"/>
<path d="M67.0987 92.3345C63.7519 91.9058 62.334 95.4176 58.3606 94.8075C56.547 94.5273 55.8381 93.637 54.0575 93.9667C52.8869 94.181 51.0568 94.9724 50.4633 96.5222C49.7214 98.4842 51.8152 99.5228 53.0353 104.024C53.8926 107.189 53.4969 109.036 54.7005 109.58C55.9205 110.124 56.9757 108.508 58.3606 109.003C60.1577 109.646 59.5641 112.762 61.2458 114.196C62.3999 115.186 65.3676 115.763 70.4291 113.421C70.2148 112.515 69.918 110.635 69.4069 108.92C67.8242 103.562 66.0436 102.26 66.8184 100.957C68.0055 98.9623 71.847 100.43 72.6219 98.7809C73.4298 97.0663 70.5445 92.7796 67.0987 92.3345Z" fill="#003359"/>
<path d="M59.3333 100.298L60.6193 101.353C60.6193 101.353 61.5261 106.645 62.2186 108.426C62.911 110.207 68.5826 108.492 68.5826 108.492L68.9947 107.453L70.561 106.942C70.561 106.942 67.6263 102.326 66.9339 98.4677C66.9339 98.4842 62.8945 97.1323 59.3333 100.298Z" fill="white"/>
<path d="M59.696 100.298C60.1247 100.562 60.4874 100.776 60.8336 101.089C60.8996 101.155 60.949 101.221 60.9655 101.303C61.1634 102.441 61.3777 103.595 61.625 104.716C61.8723 105.854 62.1196 106.991 62.4658 108.063L62.5318 108.261C62.5483 108.327 62.5813 108.343 62.5977 108.393C62.6472 108.459 62.7132 108.525 62.7956 108.591C62.9605 108.706 63.2078 108.789 63.4716 108.822C63.9827 108.904 64.5597 108.888 65.1203 108.838C66.2414 108.723 67.379 108.475 68.4671 108.162L68.2363 108.376L68.6485 107.338L68.665 107.321C68.698 107.222 68.7969 107.156 68.8793 107.123L70.4786 106.728L70.3467 107.107C69.5058 105.788 68.7639 104.42 68.1044 103.002C67.4614 101.584 66.8844 100.116 66.5711 98.5501L66.8184 98.8304C66.2414 98.6655 65.5654 98.5666 64.9224 98.5666C64.2794 98.5501 63.6199 98.6326 62.9934 98.781C62.3669 98.9293 61.7569 99.1602 61.1799 99.4734C60.8831 99.6053 60.6193 99.8032 60.3555 99.9845C60.1906 100.083 60.1577 100.133 60.0587 100.182C59.9433 100.215 59.8279 100.248 59.696 100.298ZM58.9541 100.298C59.086 100.133 59.2344 99.9515 59.3992 99.7702C59.5641 99.6053 59.7785 99.4239 59.9104 99.358C60.2071 99.1602 60.5039 98.9623 60.8171 98.7974C61.4436 98.4512 62.1196 98.2039 62.7956 98.039C63.488 97.8742 64.197 97.7917 64.9059 97.8082C65.6149 97.8247 66.3073 97.9071 67.0328 98.105C67.1647 98.138 67.2471 98.2534 67.2801 98.3688V98.3853C67.5439 99.8526 68.055 101.303 68.6485 102.705C69.2585 104.106 69.9675 105.475 70.7589 106.777C70.8413 106.909 70.7918 107.057 70.6764 107.14C70.6599 107.14 70.6599 107.156 70.6434 107.156H70.627L69.0937 107.766L69.3245 107.552L68.9123 108.591C68.8628 108.706 68.7804 108.772 68.6815 108.805C67.5274 109.135 66.3898 109.382 65.1862 109.514C64.5927 109.563 63.9827 109.596 63.3397 109.498C63.0264 109.448 62.6967 109.349 62.3834 109.151C62.2185 109.052 62.0866 108.904 61.9712 108.739C61.9218 108.657 61.8723 108.541 61.8393 108.475L61.7569 108.261C61.3777 107.107 61.1469 105.969 60.8831 104.832C60.6358 103.678 60.4214 102.54 60.2236 101.386L60.3555 101.6C59.8609 101.238 59.3828 100.759 58.9541 100.298Z" fill="#003359"/>
<path d="M60.0093 105.046C60.0093 105.046 58.509 101.699 57.1405 102.705C55.7556 103.711 57.5033 107.354 60.0093 105.046Z" fill="white"/>
<path d="M58.4265 106.167C58.1792 106.167 57.9649 106.118 57.7835 106.052C57.0251 105.788 56.4316 104.997 56.2997 104.106C56.2008 103.381 56.4316 102.754 56.9097 102.392C57.2395 102.144 57.6187 102.078 57.9979 102.177C59.2344 102.507 60.2236 104.634 60.339 104.881C60.405 105.03 60.372 105.194 60.2566 105.31C59.5477 105.969 58.9211 106.167 58.4265 106.167ZM57.6846 102.886C57.5692 102.886 57.4703 102.919 57.3549 103.002C56.9757 103.282 57.0086 103.793 57.0416 104.007C57.1241 104.617 57.5362 105.178 58.0308 105.359C58.4925 105.524 59.0036 105.376 59.5477 104.947C59.152 104.156 58.4265 103.068 57.8165 102.903C57.7671 102.886 57.7176 102.886 57.6846 102.886Z" fill="#003359"/>
<path d="M35.6249 204.545C35.5755 204.545 35.526 204.529 35.4766 204.512C35.2952 204.43 35.1963 204.216 35.2787 204.034C39.417 194.043 53.2167 192.114 53.3486 192.098C53.5629 192.065 53.7442 192.213 53.7607 192.411C53.7937 192.609 53.6453 192.807 53.4475 192.823C53.3156 192.84 39.9446 194.719 35.9712 204.315C35.9052 204.447 35.7733 204.545 35.6249 204.545Z" fill="#003359"/>
<path d="M54.4037 210.679C54.2224 210.679 54.0575 210.53 54.041 210.349C53.0188 200.704 58.7069 194.34 58.7563 194.274C58.8882 194.126 59.1355 194.109 59.2839 194.241C59.4323 194.373 59.4488 194.62 59.3169 194.769C59.2674 194.835 53.7937 200.968 54.7829 210.267C54.7994 210.464 54.651 210.646 54.4532 210.679C54.4367 210.679 54.4202 210.679 54.4037 210.679Z" fill="#003359"/>
<path d="M246.89 232.128H220.742C219.291 232.128 218.236 233.48 218.582 234.882C220.28 241.691 222.836 247.297 224.715 250.891C226.1 253.529 228.837 255.177 231.821 255.177H235.827C238.812 255.177 241.532 253.529 242.933 250.891C244.829 247.297 247.368 241.691 249.067 234.882C249.396 233.48 248.325 232.128 246.89 232.128Z" fill="white"/>
<path d="M235.811 255.474H231.805C228.705 255.474 225.886 253.776 224.435 251.023C222.572 247.478 219.983 241.823 218.269 234.948C218.087 234.189 218.252 233.398 218.73 232.788C219.209 232.161 219.934 231.815 220.725 231.815H246.874C247.665 231.815 248.391 232.178 248.869 232.788C249.347 233.398 249.512 234.189 249.33 234.948C247.616 241.823 245.027 247.478 243.164 251.023C241.73 253.776 238.911 255.474 235.811 255.474ZM220.725 232.425C220.132 232.425 219.571 232.689 219.209 233.167C218.846 233.629 218.714 234.239 218.862 234.816C220.56 241.625 223.116 247.247 224.979 250.759C226.314 253.298 228.936 254.881 231.805 254.881H235.811C238.68 254.881 241.301 253.298 242.637 250.759C244.483 247.247 247.055 241.625 248.753 234.816C248.902 234.239 248.77 233.645 248.407 233.167C248.044 232.689 247.484 232.425 246.89 232.425H220.725Z" fill="#003359"/>
<path d="M229.315 166.296C229.398 161.844 228.82 154.936 224.963 148.077C216.917 133.767 199.309 127.98 197.577 130.288C196.308 131.969 202.738 138.845 214.559 151.507C220.528 157.887 225.721 162.916 229.315 166.296Z" fill="white"/>
<path d="M229.315 166.592C229.233 166.592 229.167 166.559 229.117 166.51C224.072 161.778 219.11 156.799 214.345 151.688C201.699 138.136 195.929 131.953 197.347 130.09C197.709 129.612 198.501 129.414 199.704 129.496C205.03 129.859 218.417 135.794 225.226 147.912C228.276 153.32 229.744 159.503 229.628 166.295C229.628 166.411 229.546 166.526 229.447 166.559C229.398 166.592 229.365 166.592 229.315 166.592ZM199.193 130.09C198.22 130.09 197.907 130.337 197.808 130.469C196.704 131.936 203.892 139.636 214.757 151.292C219.357 156.222 224.155 161.036 229.002 165.62C229.018 159.206 227.567 153.37 224.682 148.226C217.972 136.305 204.848 130.453 199.638 130.106C199.49 130.09 199.342 130.09 199.193 130.09Z" fill="#003359"/>
<path d="M231.162 166.427C230.618 157.475 231.343 150.171 232.101 145.192C234.987 126.314 242.109 116.636 243.725 114.526C244.912 112.976 250.666 105.425 253.155 106.579C255.282 107.569 254.046 114.576 252.133 124.962C250.353 134.607 249.479 139.422 247.632 143.955C245.588 149.001 241.12 157.854 231.162 166.427Z" fill="white"/>
<path d="M231.162 166.741C231.129 166.741 231.079 166.741 231.046 166.724C230.947 166.675 230.865 166.576 230.865 166.46C230.42 159.272 230.749 152.117 231.805 145.159C234.492 127.666 240.856 117.791 243.477 114.361C246.709 110.124 251.045 105.293 253.271 106.332C255.546 107.404 254.54 113.487 252.413 125.045C250.633 134.69 249.743 139.537 247.896 144.104C244.467 152.578 238.894 160.179 231.343 166.691C231.294 166.708 231.228 166.741 231.162 166.741ZM252.578 106.761C251.556 106.761 249.149 107.898 243.956 114.707C241.367 118.104 235.053 127.881 232.398 145.242C231.376 151.952 231.046 158.876 231.425 165.801C238.68 159.453 244.038 152.067 247.352 143.857C249.166 139.356 250.056 134.525 251.82 124.929C253.518 115.73 254.969 107.783 253.007 106.86C252.908 106.81 252.76 106.761 252.578 106.761Z" fill="#003359"/>
<path d="M229.381 168.307C227.007 166.032 220.89 160.838 212.696 161.119C208.888 161.25 204.139 162.569 204.106 164.004C204.073 165.9 212.383 167.664 217.395 168.274C222.374 168.884 226.545 168.637 229.381 168.307Z" fill="white"/>
<path d="M223.528 168.95C221.467 168.95 219.39 168.818 217.346 168.571C217.214 168.554 203.744 166.84 203.793 164.004C203.826 162.223 208.987 160.954 212.663 160.822C220.478 160.558 226.611 165.257 229.562 168.093C229.645 168.175 229.678 168.29 229.645 168.406C229.612 168.521 229.513 168.587 229.398 168.604C227.452 168.834 225.49 168.95 223.528 168.95ZM213.306 161.415C213.108 161.415 212.91 161.415 212.696 161.432C208.772 161.564 204.436 162.916 204.403 164.02C204.37 165.422 211.245 167.235 217.411 167.977C221.138 168.422 224.913 168.472 228.672 168.093C225.737 165.372 220.231 161.415 213.306 161.415Z" fill="#003359"/>
<path d="M233.321 172.363C234.41 174.077 235.959 176.369 238.02 178.892C239.01 180.112 241.961 183.722 245.374 186.657C250.699 191.224 259.668 196.302 261.514 194.357C263.295 192.494 259.008 183.656 252.166 179.221C249.907 177.754 247.583 176.897 243.527 175.413C239.405 173.913 235.844 172.956 233.321 172.363Z" fill="white"/>
<path d="M260.228 195.082C256.816 195.082 249.677 190.746 245.176 186.888C242.851 184.893 240.362 182.271 237.79 179.089C236.091 176.996 234.509 174.786 233.074 172.528C233.008 172.429 233.008 172.297 233.091 172.198C233.157 172.099 233.289 172.049 233.404 172.082C236.85 172.89 240.296 173.929 243.659 175.149C247.665 176.616 250.072 177.507 252.364 178.991C257.64 182.42 261.778 188.866 262.207 192.51C262.322 193.466 262.174 194.159 261.762 194.587C261.399 194.917 260.888 195.082 260.228 195.082ZM233.981 172.824C235.3 174.852 236.734 176.831 238.251 178.71C240.807 181.859 243.263 184.464 245.571 186.426C251.111 191.174 259.734 195.774 261.3 194.142C261.58 193.845 261.679 193.301 261.58 192.543C261.234 189.509 257.607 183.112 252.001 179.469C249.776 178.018 247.517 177.193 243.428 175.693C240.345 174.572 237.163 173.599 233.981 172.824Z" fill="#003359"/>
<path d="M233.997 229.936C233.816 229.936 233.684 229.787 233.701 229.622C234.97 197.621 230.716 169.477 230.667 169.197C230.634 169.032 230.749 168.884 230.914 168.851C231.079 168.818 231.228 168.933 231.261 169.098C231.31 169.379 235.564 197.571 234.294 229.639C234.294 229.804 234.162 229.936 233.997 229.936Z" fill="#003359"/>
<path d="M231.64 229.936C231.491 229.936 231.36 229.82 231.343 229.655C231.327 229.342 228.886 198.297 219.39 179.304C219.307 179.156 219.373 178.974 219.522 178.908C219.67 178.826 219.852 178.892 219.917 179.04C229.464 198.132 231.904 229.293 231.937 229.606C231.953 229.771 231.821 229.919 231.656 229.936C231.656 229.936 231.656 229.936 231.64 229.936Z" fill="#003359"/>
<path d="M218.747 185.14C219.472 185.899 222.687 189.509 222.671 195.082C222.654 200.572 219.505 205.782 218.203 205.452C217.115 205.189 216.67 200.852 218.747 185.14Z" fill="#003359"/>
<path d="M217.593 180.738C214.295 184.679 209.036 190.021 201.386 194.439C192.928 199.319 181.503 203.095 180.167 200.869C179.079 199.039 184.981 193.549 187.982 191.109C192.4 187.514 201.65 181.497 217.593 180.738Z" fill="#003359"/>
<path d="M216.719 177.441C213.471 173.632 208.08 168.373 200.067 164.828C183.019 157.277 163.449 161.597 163.136 164.845C162.971 166.592 168.478 166.625 183.877 173.715C194.115 178.43 198.204 181.414 205.145 181.068C210.124 180.804 214.114 178.958 216.719 177.441Z" fill="#003359"/>
<path d="M219.934 177.078C223.957 173.088 230.898 167.417 240.856 164.696C247.105 162.998 257.046 161.778 258.036 164.383C259.107 167.186 249.957 174.539 240.114 177.292C231.722 179.667 224.27 178.298 219.934 177.078Z" fill="#003359"/>
<path d="M230.65 178.908C227.122 178.908 223.512 178.397 219.868 177.375C219.769 177.342 219.687 177.259 219.654 177.16C219.621 177.062 219.654 176.946 219.736 176.864C225.935 170.714 233.025 166.526 240.79 164.416C245.786 163.048 257.129 161.135 258.332 164.284C258.53 164.812 258.448 165.471 258.068 166.23C256.321 169.725 248.555 175.248 240.213 177.589C237.097 178.463 233.898 178.908 230.65 178.908ZM220.527 176.93C227.271 178.727 233.849 178.76 240.048 177.012C247.995 174.77 255.826 169.329 257.524 165.966C257.821 165.356 257.904 164.861 257.772 164.498C256.898 162.207 247.385 163.245 240.938 164.993C233.42 167.037 226.562 171.06 220.527 176.93Z" fill="white"/>
<path d="M203.183 224.94C203.084 224.94 203.002 224.907 202.919 224.841C202.771 224.693 202.771 224.462 202.903 224.314L204.271 222.879C204.42 222.731 204.65 222.731 204.799 222.863C204.947 223.011 204.947 223.242 204.815 223.39L203.447 224.825C203.381 224.891 203.282 224.94 203.183 224.94Z" fill="#003359"/>
<path d="M198.402 229.936C198.303 229.936 198.22 229.903 198.138 229.837C197.99 229.688 197.99 229.458 198.122 229.309L199.49 227.875C199.638 227.726 199.869 227.726 200.018 227.858C200.166 228.007 200.166 228.238 200.034 228.386L198.666 229.82C198.6 229.886 198.501 229.936 198.402 229.936Z" fill="#003359"/>
<path d="M199.737 225.006C199.638 225.006 199.556 224.973 199.474 224.907L198.089 223.539C197.94 223.39 197.94 223.159 198.089 223.011C198.237 222.863 198.468 222.863 198.616 223.011L200.001 224.379C200.149 224.528 200.149 224.759 200.001 224.907C199.935 224.973 199.836 225.006 199.737 225.006Z" fill="#003359"/>
<path d="M204.601 229.787C204.502 229.787 204.42 229.754 204.337 229.688L202.952 228.32C202.804 228.172 202.804 227.941 202.952 227.792C203.101 227.644 203.331 227.644 203.48 227.792L204.865 229.161C205.013 229.309 205.013 229.54 204.865 229.688C204.799 229.754 204.7 229.787 204.601 229.787Z" fill="#003359"/>
<path d="M87.1305 74.8746C87.0646 74.8746 87.0151 74.8581 86.9492 74.8252L67.2636 63.9437C67.0822 63.8448 67.0163 63.614 67.1152 63.4326C67.2141 63.2513 67.445 63.1853 67.6263 63.2842L87.3284 74.1822C87.5097 74.2811 87.5757 74.5119 87.4768 74.6933C87.3943 74.8087 87.2624 74.8746 87.1305 74.8746Z" fill="#003359"/>
<path d="M94.0387 70.1429C93.9397 70.1429 93.8408 70.1099 93.7749 70.0275L67.1812 43.137C67.0328 42.9887 67.0328 42.7578 67.1812 42.6095C67.3296 42.4611 67.5604 42.4611 67.7088 42.6095L94.3024 69.5164C94.4508 69.6647 94.4508 69.8956 94.3024 70.044C94.22 70.1099 94.1211 70.1429 94.0387 70.1429Z" fill="#003359"/>
<path d="M102.002 63.3503C101.87 63.3503 101.755 63.2843 101.689 63.1689L89.076 42.7579C88.9606 42.5765 89.0266 42.3622 89.1914 42.2468C89.3728 42.1314 89.5871 42.1973 89.7025 42.3622L102.315 62.7732C102.431 62.9546 102.365 63.1689 102.2 63.2843C102.134 63.3173 102.068 63.3503 102.002 63.3503Z" fill="#003359"/>
<path d="M213.181 81.9595C214.657 71.2157 207.29 61.3296 196.727 59.8784C186.164 58.4273 176.404 65.9605 174.928 76.7043C173.452 87.4482 180.819 97.3343 191.382 98.7854C201.945 100.237 211.705 92.7034 213.181 81.9595Z" fill="#003359"/>
<path d="M205.343 80.876L188.988 67.9832L186.119 88.8888L205.343 80.876Z" fill="white"/>
<defs>
<linearGradient id="paint0_linear_511_1642" x1="122.687" y1="149.253" x2="116.45" y2="195.324" gradientUnits="userSpaceOnUse">
<stop stop-color="#C9EEF7"/>
<stop offset="1" stop-color="#64CFE9"/>
</linearGradient>
<linearGradient id="paint1_linear_511_1642" x1="111.568" y1="186.544" x2="99.8115" y2="253.73" gradientUnits="userSpaceOnUse">
<stop stop-color="#C9EEF7"/>
<stop offset="1" stop-color="#64CFE9"/>
</linearGradient>
</defs>
</svg>
