<svg xmlns="http://www.w3.org/2000/svg" width="41" height="41" viewBox="0 0 41 41">
  <defs>
    <style>
      .cls-1 {
        fill: #fff;
        fill-rule: evenodd;
      }
    </style>
  </defs>
  <path id="Forma_1" data-name="Forma 1" class="cls-1" d="M925.5,347A20.5,20.5,0,1,0,946,367.5,20.523,20.523,0,0,0,925.5,347Zm0,39.633A19.133,19.133,0,1,1,944.633,367.5,19.155,19.155,0,0,1,925.5,386.633Zm0.683-21.852v-6.93a0.683,0.683,0,1,0-1.366,0v6.93a2.727,2.727,0,0,0-1.953,1.953h-4.881a0.683,0.683,0,1,0,0,1.366h4.881A2.727,2.727,0,1,0,926.183,364.781Zm-0.683,4a1.367,1.367,0,1,1,1.366-1.367A1.368,1.368,0,0,1,925.5,368.784Zm0-15.034a0.683,0.683,0,0,0,.683-0.683v-0.683a0.683,0.683,0,0,0-1.366,0v0.683A0.683,0.683,0,0,0,925.5,353.75Zm0,27.334a0.683,0.683,0,0,0-.683.683v0.683a0.683,0.683,0,1,0,1.366,0v-0.683A0.683,0.683,0,0,0,925.5,381.084Zm15.033-14.35H939.85a0.683,0.683,0,1,0,0,1.366h0.683A0.683,0.683,0,1,0,940.533,366.734Zm-29.383,0h-0.683a0.683,0.683,0,1,0,0,1.366h0.683A0.683,0.683,0,1,0,911.15,366.734Zm24.5-10.431-0.483.484a0.683,0.683,0,0,0,.966.966l0.483-.483A0.683,0.683,0,1,0,935.647,356.3ZM914.87,377.081l-0.483.483a0.683,0.683,0,0,0,.966.966l0.483-.483A0.683,0.683,0,1,0,914.87,377.081Zm21.26,0a0.683,0.683,0,1,0-.966.966l0.483,0.483a0.683,0.683,0,1,0,.966-0.966ZM915.353,356.3a0.683,0.683,0,1,0-.966.967l0.483,0.483a0.683,0.683,0,1,0,.966-0.966Z" transform="translate(-905 -347)"/>
</svg>
