<svg xmlns="http://www.w3.org/2000/svg" width="34" height="34" viewBox="0 0 34 34">
  <defs>
    <style>
      .cls-1 {
        fill: #fff;
        fill-rule: evenodd;
      }
    </style>
  </defs>
  <path id="Forma_1" data-name="Forma 1" class="cls-1" d="M942.433,433h-11.9a5.091,5.091,0,0,1-9.066,0h-11.9a0.566,0.566,0,0,0-.567.566v32.867a0.567,0.567,0,0,0,.567.567h32.866a0.567,0.567,0,0,0,.567-0.567V433.566A0.566,0.566,0,0,0,942.433,433Zm-9.868,24.366-1.465,1.466-6.565-6.566L926,450.8Zm-22.432,8.5v-3.4h11.334a3.97,3.97,0,0,1,3.921,3.4H910.133Zm15.3-2.635a5.091,5.091,0,0,0-3.966-1.9H910.133v-27.2h11.334a3.971,3.971,0,0,1,3.966,3.967v11.665l-0.566.567-2.013-2.013a6.242,6.242,0,1,0-.8.8l2.012,2.013-0.732.733a0.565,0.565,0,0,0,0,.8l2.1,2.1v8.463Zm-7.366-13.8a5.1,5.1,0,1,1,5.1-5.1A5.105,5.105,0,0,1,918.067,449.433Zm23.8,16.433H926.612a3.969,3.969,0,0,1,3.921-3.4h11.334v3.4Zm0-4.533H930.533a5.091,5.091,0,0,0-3.966,1.9V455.9l4.132,4.133a0.567,0.567,0,0,0,.8,0l0.4-.4h8.266V458.5h-7.132l0.732-.733a0.561,0.561,0,0,0,.166-0.4h6.234v-1.133h-7.132L931.9,455.1h8.266v-1.133h-9.4l-4.2-4.2V438.1a3.971,3.971,0,0,1,3.966-3.967h11.334v27.2ZM915.233,441.5H920.9v1.133h-5.667V441.5Zm0,2.267H920.9V444.9h-5.667v-1.133Zm0,2.266H920.9v1.133h-5.667v-1.133ZM914.1,451.7h7.933v1.133H914.1V451.7Zm-2.267,2.267h10.2V455.1h-10.2v-1.133Zm0,2.266h10.2v1.133h-10.2v-1.133Zm0,2.267h10.2v1.133h-10.2V458.5Zm20.4-21.534h7.934V438.1h-7.934v-1.134Zm-2.266,2.267h10.2v1.133h-10.2v-1.133Zm0,2.267h10.2v1.133h-10.2V441.5Zm0,2.267h10.2V444.9h-10.2v-1.133Zm2.266,3.4h7.934V448.3h-7.934v-1.134Zm-2.266,2.267h10.2v1.133h-10.2v-1.133Zm2.266,2.267h7.934v1.133h-7.934V451.7Zm-20.4-15.867h1.134v1.133h-1.134v-1.133Zm2.267,0h1.133v1.133H914.1v-1.133Zm2.267,0H917.5v1.133h-1.133v-1.133Z" transform="translate(-909 -433)"/>
</svg>
