<svg xmlns="http://www.w3.org/2000/svg" width="40" height="40" viewBox="0 0 40 40">
    <defs>
        <!--     <style>
      .cls-1 {
        fill: #fff;
        fill-rule: evenodd;
      }
    </style> -->
    </defs>
    <path fill="#fff" d="M938.666,278.666A3.328,3.328,0,0,0,936.013,280H936a3.331,3.331,0,0,0-1.333,6.384v2.282h-4.123a3.1,3.1,0,0,1,.123-3.333,2,2,0,0,0-1.266-1.856,2.288,2.288,0,0,1,1.06-1.389,8.662,8.662,0,0,0-4.816-16.081,8.661,8.661,0,0,0-4.112,16.078,2.308,2.308,0,0,1,1.066,1.392A16.569,16.569,0,0,1,921.333,288a1.967,1.967,0,0,0,.123.666h-4.123v-2.282A3.331,3.331,0,0,0,916,280h-0.013a3.329,3.329,0,1,0-2.654,5.332h0v4a3.337,3.337,0,0,0,3.333,3.333h4.667v12.667A0.667,0.667,0,0,0,922,306h8a0.667,0.667,0,0,0,.667-0.667V292.666h4.666a3.337,3.337,0,0,0,3.333-3.333v-4h0A3.334,3.334,0,1,0,938.666,278.666Zm-16.445,2.277a7.333,7.333,0,1,1,7.554,0,3.6,3.6,0,0,0-1.71,2.388H928v-8h0.667a2,2,0,1,0-2-2V274h-1.333v-0.667a2,2,0,1,0-2,2H924v8h-0.064A3.611,3.611,0,0,0,922.221,280.943Zm1.112,7.723a0.667,0.667,0,0,1,0-1.333h5.334a0.667,0.667,0,0,1,0,1.333h-5.334Zm3.49,1.334L926,291.37,925.177,290h1.646Zm1.844-4h-5.334a0.667,0.667,0,0,1,0-1.334h5.334A0.667,0.667,0,0,1,928.667,286ZM924,274h-0.667a0.667,0.667,0,1,1,.667-0.667V274Zm1.333,9.333v-8h1.333v8h-1.333ZM928,274v-0.667a0.667,0.667,0,1,1,.667.667H928Zm-14.263,6.9c-0.08.074-.152,0.154-0.225,0.236-0.053.059-.1,0.121-0.151,0.184a2.822,2.822,0,0,0-.17.236,3.17,3.17,0,0,0-.237.436c-0.025.057-.043,0.118-0.065,0.177a3.3,3.3,0,0,0-.123.392c-0.014.06-.028,0.121-0.039,0.182a3.2,3.2,0,0,0-.06.589,3.088,3.088,0,0,0,.051.569,2,2,0,0,1,.615-3.9,1.975,1.975,0,0,1,1.154.376c-0.027.014-.051,0.032-0.078,0.046a3.338,3.338,0,0,0-.592.413C913.791,280.858,913.762,280.878,913.737,280.9Zm0.535,3.422a0.1,0.1,0,0,0-.007-0.018,2.123,2.123,0,0,1-.19-0.459,0.3,0.3,0,0,0-.01-0.032,1.877,1.877,0,0,1-.065-0.481,2.055,2.055,0,0,1,.038-0.379c0.013-.066.035-0.129,0.054-0.192s0.029-.106.049-0.156a1.917,1.917,0,0,1,.117-0.236c0.014-.026.027-0.053,0.042-0.078a2.065,2.065,0,0,1,.181-0.245c0.008-.01.016-0.021,0.025-0.031a2.068,2.068,0,0,1,.244-0.233l0,0a2,2,0,0,1,.984-0.419l0.017,0a2.227,2.227,0,0,1,.246-0.024A2,2,0,1,1,914.272,284.323Zm23.061,5.01a2,2,0,0,1-2,2H930a0.667,0.667,0,0,0-.667.667v12.666h-2.667v-7.333h-1.333v7.333h-2.666V292a0.667,0.667,0,0,0-.667-0.667h-5.334a2,2,0,0,1-2-2v-2.949a3.3,3.3,0,0,0,1.333.283v2.666a0.667,0.667,0,0,0,.666.667h6.956l1.807,3.01a0.666,0.666,0,0,0,1.142,0l1.806-3.01h6.956a0.667,0.667,0,0,0,.667-0.667v-2.666a3.3,3.3,0,0,0,1.333-.283v2.949Zm0.6-5.519c0,0.01-.008.021-0.011,0.032a2.027,2.027,0,0,1-.19.459s0,0.009-.006.014a2.044,2.044,0,1,1-1.483-2.961c0.006,0,.011,0,0.018,0a2.007,2.007,0,0,1,.983.42l0,0a1.993,1.993,0,0,1,.244.233c0.009,0.01.017,0.021,0.026,0.032a1.979,1.979,0,0,1,.18.245c0.016,0.024.028,0.051,0.042,0.077a1.93,1.93,0,0,1,.117.237c0.019,0.05.033,0.1,0.048,0.154s0.042,0.127.055,0.193a1.954,1.954,0,0,1,.039.378A1.877,1.877,0,0,1,937.935,283.814Zm1.347,0.088a3.088,3.088,0,0,0,.051-0.569,3.285,3.285,0,0,0-.059-0.589c-0.011-.062-0.025-0.122-0.04-0.183a3.221,3.221,0,0,0-.121-0.391c-0.022-.06-0.04-0.12-0.066-0.177a3.45,3.45,0,0,0-.236-0.436c-0.052-.083-0.112-0.159-0.17-0.237-0.049-.063-0.1-0.124-0.152-0.183-0.072-.082-0.145-0.162-0.224-0.236-0.026-.024-0.054-0.044-0.081-0.067a3.349,3.349,0,0,0-.592-0.412c-0.028-.014-0.052-0.032-0.079-0.046a1.974,1.974,0,0,1,1.153-.376A2,2,0,0,1,939.282,283.9Zm0.051,10.1h1.333v1.333h-1.333V294Zm0,2.666h1.333V298h-1.333v-1.334Zm-2.666,0H938V298h-1.333v-1.334Zm5.333,0h1.333V298H942v-1.334ZM911.333,294h1.334v1.333h-1.334V294Zm0,2.666h1.334V298h-1.334v-1.334Zm-2.667,0H910V298h-1.334v-1.334Zm5.334,0h1.333V298H914v-1.334Zm-2.667,2.667h1.334v1.333h-1.334v-1.333Zm-2.667,0H910v1.333h-1.334v-1.333Zm-2.666,0h1.333v1.333H906v-1.333Zm8,0h1.333v1.333H914v-1.333Zm2.666,0H918v1.333h-1.334v-1.333Zm22.667,0h1.333v1.333h-1.333v-1.333Zm-2.666,0H938v1.333h-1.333v-1.333Zm-2.667,0h1.333v1.333H934v-1.333Zm8,0h1.333v1.333H942v-1.333Zm2.667,0H946v1.333h-1.333v-1.333Z" transform="translate(-906 -266)" />
</svg>