<?xml version="1.0" encoding="utf-8"?>
<!-- Generator: Adobe Illustrator 21.0.2, SVG Export Plug-In . SVG Version: 6.00 Build 0)  -->
<svg version="1.1" id="Capa_1" xmlns="http://www.w3.org/2000/svg" xmlns:xlink="http://www.w3.org/1999/xlink" x="0px" y="0px"
	 viewBox="0 0 512 512" style="enable-background:new 0 0 512 512;" xml:space="preserve">
<g>
	<g transform="translate(1 1)">
		<g>
			<path style="fill:#FFFFFF;" d="M237.9,8.2V127c-4.7,0-8.5,3.8-8.5,8.5v34.1H123c-37.2,0-69,26.6-75.6,63.2l-21,116.9
				c-7.4-17.7-12.7-36.2-15.7-55.2c-2.1-13.1-3.1-26.3-3.2-39.6C7.5,124.9,108.2,17.1,237.9,8.2z"/>
			<path style="fill:#E3E7F2;" d="M113.1,457.8L79.6,492c-11.3,9.8-26.9,13-41.1,8.5c-10.7-3.2-19.7-10.4-25.2-20.1h-0.1
				c-5-9-6.8-19.4-5-29.5l18.2-101.1c15.6,37.7,40.4,71,72,96.9C103.1,450.6,108.1,454.3,113.1,457.8z"/>
			<circle style="fill:#E3E7F2;" cx="118.5" cy="255" r="25.6"/>
			<g>
				<path id="SVGCleanerId_0" style="fill:#E3E7F2;" d="M237.9,314.7v17.1c0,4.7-3.8,8.5-8.5,8.5h-17.1v17.1c0,4.7-3.8,8.5-8.5,8.5
					h-17.1c-4.7,0-8.5-3.8-8.5-8.5v-17.1h-17.1c-4.7,0-8.5-3.8-8.5-8.5v-17.1c0-4.7,3.8-8.5,8.5-8.5h17.1v-17.1
					c0-4.7,3.8-8.5,8.5-8.5h17.1c4.7,0,8.5,3.8,8.5,8.5v17.1h17.1C234.1,306.2,237.9,310,237.9,314.7z"/>
			</g>
			<circle style="fill:#E3E7F2;" cx="306.2" cy="348.9" r="25.6"/>
			<circle style="fill:#E3E7F2;" cx="331.8" cy="263.5" r="17.1"/>
			<path style="fill:#FFFFFF;" d="M396.9,457.8c-5,3.6-10.3,7-15.7,10.2c-83.6,49.5-188.5,45.6-268.1-10.2l28-28.6
				c12.8-13.2,30.4-20.6,48.8-20.6h130.2c18.4,0,36,7.4,48.8,20.6L396.9,457.8z"/>
			<circle style="fill:#E3E7F2;" cx="374.5" cy="306.2" r="17.1"/>
			<circle style="fill:#E3E7F2;" cx="374.5" cy="220.9" r="17.1"/>
			<circle style="fill:#E3E7F2;" cx="417.1" cy="263.5" r="17.1"/>
			<path style="fill:#FFFFFF;" d="M502.5,255c0.1,32.5-6.3,64.8-18.9,94.8c-5.2,12.8-11.6,25.1-18.9,36.8L437,232.9
				c-6.6-36.6-38.4-63.2-75.6-63.2h-132v-34.1c0-4.7,3.8-8.5,8.5-8.5V8.2c5.6-0.5,11.3-0.7,17.1-0.7c5.7,0,11.4,0.2,17.1,0.7
				C401.8,17.1,502.5,124.9,502.5,255z"/>
		</g>
		<g>
			<circle style="fill:#7FABFA;" cx="118.5" cy="255" r="25.6"/>
			<g>
				<path id="SVGCleanerId_0_1_" style="fill:#7FABFA;" d="M237.9,314.7v17.1c0,4.7-3.8,8.5-8.5,8.5h-17.1v17.1
					c0,4.7-3.8,8.5-8.5,8.5h-17.1c-4.7,0-8.5-3.8-8.5-8.5v-17.1h-17.1c-4.7,0-8.5-3.8-8.5-8.5v-17.1c0-4.7,3.8-8.5,8.5-8.5h17.1
					v-17.1c0-4.7,3.8-8.5,8.5-8.5h17.1c4.7,0,8.5,3.8,8.5,8.5v17.1h17.1C234.1,306.2,237.9,310,237.9,314.7z"/>
			</g>
			<circle style="fill:#7FABFA;" cx="306.2" cy="348.9" r="25.6"/>
			<circle style="fill:#7FABFA;" cx="331.8" cy="263.5" r="17.1"/>
			<circle style="fill:#7FABFA;" cx="374.5" cy="306.2" r="17.1"/>
			<circle style="fill:#7FABFA;" cx="374.5" cy="220.9" r="17.1"/>
			<circle style="fill:#7FABFA;" cx="417.1" cy="263.5" r="17.1"/>
			<path style="fill:#AFE0C3;" d="M496.8,480.5L496.8,480.5c-10.2,17.8-31.3,26.2-50.9,20.1c10.7-3.2,19.7-10.4,25.2-20.1h0.1
				c5-9,6.8-19.4,5-29.5l-11.5-64.3L437,232.9c-6.6-36.6-38.4-63.2-75.6-63.2H387c37.2,0,69,26.6,75.6,63.2l21,116.9l18.2,101.1
				C503.6,461.1,501.8,471.5,496.8,480.5z"/>
		</g>
		<g>
			<path style="fill:#E3E7F2;" d="M476.2,450.9l-11.5-64.3L437,232.9c-6.6-36.6-38.4-63.2-75.6-63.2H123c-37.2,0-69,26.6-75.6,63.2
				l-21,116.9c15.6,37.7,40.4,71,72,96.9c4.7,3.9,9.6,7.6,14.7,11.1l28-28.6c12.8-13.2,30.4-20.6,48.8-20.6h130.2
				c18.4,0,36,7.4,48.8,20.6l28,28.6l33.5,34.2c4.5,3.9,9.8,6.8,15.5,8.5c10.7-3.2,19.7-10.4,25.2-20.1h0.1
				C476.2,471.5,478,461.1,476.2,450.9z M118.5,280.6c-14.1,0-25.6-11.5-25.6-25.6c0-14.1,11.5-25.6,25.6-25.6s25.6,11.5,25.6,25.6
				c0,6.8-2.7,13.3-7.5,18.1C131.8,277.9,125.3,280.6,118.5,280.6z M237.9,331.8c0,4.7-3.8,8.5-8.5,8.5h-17.1v17.1
				c0,4.7-3.8,8.5-8.5,8.5h-17.1c-4.7,0-8.5-3.8-8.5-8.5v-17.1h-17.1c-4.7,0-8.5-3.8-8.5-8.5v-17.1c0-4.7,3.8-8.5,8.5-8.5h17.1
				v-17.1c0-4.7,3.8-8.5,8.5-8.5h17.1c4.7,0,8.5,3.8,8.5,8.5v17.1h17.1c4.7,0,8.5,3.8,8.5,8.5V331.8z M306.2,374.5
				c-14.1,0-25.6-11.5-25.6-25.6s11.5-25.6,25.6-25.6s25.6,11.5,25.6,25.6c0,6.8-2.7,13.3-7.5,18.1
				C319.5,371.8,313,374.5,306.2,374.5z M331.8,280.6c-9.4,0-17.1-7.6-17.1-17.1s7.6-17.1,17.1-17.1s17.1,7.6,17.1,17.1
				C348.8,272.9,341.2,280.6,331.8,280.6z M374.5,323.3c-9.4,0-17.1-7.6-17.1-17.1s7.6-17.1,17.1-17.1s17.1,7.6,17.1,17.1
				C391.5,315.6,383.9,323.2,374.5,323.3z M374.5,237.9c-9.4,0-17.1-7.6-17.1-17.1s7.6-17.1,17.1-17.1s17.1,7.6,17.1,17.1
				C391.5,230.3,383.9,237.9,374.5,237.9z M417.1,246.5c9.4,0,17.1,7.6,17.1,17.1s-7.6,17.1-17.1,17.1s-17.1-7.6-17.1-17.1
				C400.1,254.1,407.7,246.5,417.1,246.5z"/>
			<circle style="fill:#E3E7F2;" cx="118.5" cy="255" r="25.6"/>
			<g>
				<path id="SVGCleanerId_0_2_" style="fill:#E3E7F2;" d="M237.9,314.7v17.1c0,4.7-3.8,8.5-8.5,8.5h-17.1v17.1
					c0,4.7-3.8,8.5-8.5,8.5h-17.1c-4.7,0-8.5-3.8-8.5-8.5v-17.1h-17.1c-4.7,0-8.5-3.8-8.5-8.5v-17.1c0-4.7,3.8-8.5,8.5-8.5h17.1
					v-17.1c0-4.7,3.8-8.5,8.5-8.5h17.1c4.7,0,8.5,3.8,8.5,8.5v17.1h17.1C234.1,306.2,237.9,310,237.9,314.7z"/>
			</g>
			<circle style="fill:#E3E7F2;" cx="306.2" cy="348.9" r="25.6"/>
			<circle style="fill:#E3E7F2;" cx="331.8" cy="263.5" r="17.1"/>
			<circle style="fill:#E3E7F2;" cx="374.5" cy="306.2" r="17.1"/>
			<circle style="fill:#E3E7F2;" cx="374.5" cy="220.9" r="17.1"/>
			<circle style="fill:#E3E7F2;" cx="417.1" cy="263.5" r="17.1"/>
		</g>
		<g>
			<path id="SVGCleanerId_0_3_" style="fill:#F4F4F4;" d="M237.9,314.7v17.1c0,4.7-3.8,8.5-8.5,8.5h-17.1v17.1
				c0,4.7-3.8,8.5-8.5,8.5h-17.1c-4.7,0-8.5-3.8-8.5-8.5v-17.1h-17.1c-4.7,0-8.5-3.8-8.5-8.5v-17.1c0-4.7,3.8-8.5,8.5-8.5h17.1
				v-17.1c0-4.7,3.8-8.5,8.5-8.5h17.1c4.7,0,8.5,3.8,8.5,8.5v17.1h17.1C234.1,306.2,237.9,310,237.9,314.7z"/>
		</g>
		<g>
			<circle style="fill:#CEEFDB;" cx="306.2" cy="348.9" r="25.6"/>
			<circle style="fill:#CEEFDB;" cx="118.5" cy="255" r="25.6"/>
		</g>
		<g>
			<circle style="fill:#E3E7F2;" cx="331.8" cy="263.5" r="17.1"/>
			<circle style="fill:#E3E7F2;" cx="417.1" cy="263.5" r="17.1"/>
			<circle style="fill:#E3E7F2;" cx="374.5" cy="306.2" r="17.1"/>
		</g>
		<circle style="fill:#CEEFDB;" cx="374.5" cy="220.9" r="17.1"/>
		<path style="fill:#E3E7F2;" d="M280.6,135.5v34.1h-51.2v-34.1c0-4.7,3.8-8.5,8.5-8.5h34.1C276.8,127,280.6,130.8,280.6,135.5z"/>
		<polygon style="fill:#AFE0C3;" points="272.1,7.5 272.1,127 237.9,127 237.9,8.2 255,7.5 		"/>
		<g>
			<path style="fill:#FFFFFF;" d="M128.8,467.9c38.2,22.7,81.8,34.7,126.2,34.6c4.6,0,9.1-0.2,13.7-0.5
				c-46.7-2.1-91.7-17.4-130-44.3L128.8,467.9z"/>
			<path style="fill:#FFFFFF;" d="M237.9,8.2C108.2,17.1,7.5,124.9,7.5,255c0,13.3,1.1,26.5,3.2,39.6c3,19,8.3,37.5,15.7,55.2
				L8.2,450.9c-1.8,10.1,0,20.6,5,29.5h0.1c10.2,17.7,31.3,26,50.8,20.1l0,0c-10.7-3.2-19.7-10.4-25.2-20.1h-0.1
				c-5-9-6.8-19.4-5-29.5L52,349.8c-7.4-17.7-12.7-36.2-15.7-55.2c-2.1-13.1-3.1-26.3-3.2-39.6c0-130.1,100.7-237.9,230.4-246.8
				c2.8-0.3,5.7-0.4,8.5-0.5V7.5H255C249.3,7.5,243.6,7.7,237.9,8.2z"/>
		</g>
	</g>
	<g>
		<path style="fill:#FFFFFF;" d="M0,256c0.2-38.4,8.9-76.3,25.4-110.9c9.7-20.3,22.1-39.2,36.9-56.1c7.3-8.5,15.2-16.6,23.5-24.1
			c8.5-7.4,17.4-14.2,26.7-20.5C149.9,19,193.3,3.9,238.4,0.7l1.2,17c-42,3-82.6,17.1-117.5,40.7c-8.7,5.9-17,12.3-24.9,19.1
			c-7.7,7.1-15,14.6-21.9,22.6c-13.8,15.8-25.4,33.4-34.4,52.4C25.4,184.8,17.3,220.2,17.1,256L0,256L0,256z"/>
		<g>
			<path style="fill:#27AE60;" d="M230.4,298.7h-8.5v-8.5c0-9.4-7.6-17.1-17.1-17.1h-17.1c-9.4,0-17.1,7.6-17.1,17.1v8.5h-8.5
				c-9.4,0-17.1,7.6-17.1,17.1v17.1c0,9.4,7.6,17.1,17.1,17.1h8.5v8.5c0,9.4,7.6,17.1,17.1,17.1h17.1c9.4,0,17.1-7.6,17.1-17.1v-8.5
				h8.5c9.4,0,17.1-7.6,17.1-17.1v-17.1C247.5,306.3,239.8,298.7,230.4,298.7z M230.4,332.8h-17.1c-2.3,0-4.4,0.9-6,2.5
				c-1.6,1.6-2.5,3.8-2.5,6v17.1h-17.1v-17.1c0-2.3-0.9-4.4-2.5-6c-1.6-1.6-3.8-2.5-6-2.5h-17.1v-17.1h17.1c2.3,0,4.4-0.9,6-2.5
				c1.6-1.6,2.5-3.8,2.5-6v-17.1h17.1v17.1c0,2.3,0.9,4.4,2.5,6c1.6,1.6,3.8,2.5,6,2.5h17.1V332.8z"/>
			<path style="fill:#27AE60;" d="M307.2,315.7c-18.9,0-34.1,15.3-34.1,34.1c0,18.9,15.3,34.1,34.1,34.1c18.9,0,34.1-15.3,34.1-34.1
				C341.3,331,326,315.8,307.2,315.7z M307.2,366.9c-9.4,0-17.1-7.6-17.1-17.1s7.6-17.1,17.1-17.1s17.1,7.6,17.1,17.1
				C324.3,359.3,316.6,366.9,307.2,366.9z"/>
			<path style="fill:#27AE60;" d="M119.5,221.9c-18.9,0-34.1,15.3-34.1,34.1s15.3,34.1,34.1,34.1s34.1-15.3,34.1-34.1
				C153.6,237.2,138.3,221.9,119.5,221.9z M119.5,273.1c-9.4,0-17.1-7.6-17.1-17.1s7.6-17.1,17.1-17.1s17.1,7.6,17.1,17.1
				C136.5,265.4,128.9,273.1,119.5,273.1z"/>
			<path style="fill:#27AE60;" d="M332.8,290.1c14.1,0,25.6-11.5,25.6-25.6c0-14.1-11.5-25.6-25.6-25.6s-25.6,11.5-25.6,25.6
				C307.2,278.7,318.7,290.1,332.8,290.1z M332.8,256c4.7,0,8.5,3.8,8.5,8.5s-3.8,8.5-8.5,8.5s-8.5-3.8-8.5-8.5
				C324.3,259.8,328.1,256,332.8,256z"/>
			<path style="fill:#27AE60;" d="M418.1,238.9c-14.1,0-25.6,11.5-25.6,25.6c0,14.1,11.5,25.6,25.6,25.6s25.6-11.5,25.6-25.6
				C443.7,250.4,432.3,238.9,418.1,238.9z M418.1,273.1c-4.7,0-8.5-3.8-8.5-8.5s3.8-8.5,8.5-8.5s8.5,3.8,8.5,8.5
				C426.7,269.2,422.8,273.1,418.1,273.1z"/>
			<path style="fill:#27AE60;" d="M375.5,281.6c-14.1,0-25.6,11.5-25.6,25.6s11.5,25.6,25.6,25.6s25.6-11.5,25.6-25.6
				C401.1,293.1,389.6,281.6,375.5,281.6z M375.5,315.7c-4.7,0-8.5-3.8-8.5-8.5s3.8-8.5,8.5-8.5c4.7,0,8.5,3.8,8.5,8.5
				C384,311.9,380.2,315.7,375.5,315.7z"/>
			<path style="fill:#27AE60;" d="M375.5,247.5c14.1,0,25.6-11.5,25.6-25.6c0-14.1-11.5-25.6-25.6-25.6s-25.6,11.5-25.6,25.6
				C349.9,236,361.3,247.5,375.5,247.5z M375.5,213.3c4.7,0,8.5,3.8,8.5,8.5c0,4.7-3.8,8.5-8.5,8.5c-4.7,0-8.5-3.8-8.5-8.5
				C366.9,217.2,370.8,213.3,375.5,213.3z"/>
			<path style="fill:#27AE60;" d="M276.9,1c-1.2-0.6-2.5-1-3.8-1H256c-6.6,0-12.4,0.2-17.6,0.7v0l0,0l-0.2,0l0,0
				C193.1,4,149.8,19,112.5,44.3c-9.3,6.3-18.2,13.1-26.7,20.5C77.5,72.4,69.7,80.5,62.3,89c-14.8,16.9-27.2,35.8-36.9,56.1l-3.7,8
				c-1,2.1-1.1,4.4-0.3,6.6c0.8,2.1,2.5,3.8,4.6,4.7c4.3,1.7,9.2-0.2,11.3-4.4l3.4-7.5c9-19,20.6-36.6,34.4-52.4
				c6.8-7.9,14.2-15.5,21.9-22.6c7.9-6.9,16.3-13.3,24.9-19.1c32.3-21.9,69.5-35.5,108.3-39.7v103.1c-5.3,3-8.5,8.6-8.5,14.7v25.6
				H124c-41.3,0-76.7,29.6-84,70.3l-15.1,84.2c-5.2-19.8-7.8-40.2-7.8-60.6c0.2-11,1-22,2.5-32.8c0.5-4.6-2.6-8.8-7.2-9.6
				c-2.3-0.4-4.6,0.2-6.4,1.6c-1.8,1.4-3,3.4-3.3,5.7C1.1,232.5,0.2,244.2,0,256c-0.1,32.8,6.2,65.3,18.6,95.7L0.9,450.4
				c-4,21.9,6.3,43.9,25.7,54.8s43.5,8.4,60.2-6.3l28.6-29.2c85.3,56.4,196.1,56.4,281.4,0l29.1,29.7c16.8,14.4,40.8,16.6,60,5.6
				c19.2-11,29.3-32.9,25.4-54.6l-17.7-98.8c12.3-30.4,18.6-62.9,18.6-95.7C511.7,122.9,409.6,12.1,276.9,1z M247.5,17.2
				c2.7-0.1,5.5-0.2,8.5-0.2h8.5v102.4h-17.1L247.5,17.2L247.5,17.2z M238.9,136.5h34.1v25.6h-34.1V136.5z M256,494.9
				c-45.6,0-90.2-13-128.5-37.7l20.7-21.1c11.3-11.5,26.6-17.9,42.7-18h130.3c16.1,0,31.5,6.5,42.7,18l20.7,21.1
				C346.2,481.9,301.6,495,256,494.9z M490.3,477.2c-5.1,9-14,15.3-24.2,17.1s-20.7-0.8-28.7-7.4l-61.4-62.8
				c-14.5-14.7-34.3-23.1-54.9-23.1H190.9c-20.7,0-40.4,8.4-54.9,23.1l-60.8,62.3c-11.3,9.7-27.5,11.2-40.4,3.8
				c-12.9-7.4-19.7-22.2-17.1-36.8l39.1-218.1c5.8-32.5,34.1-56.2,67.2-56.2h264c33.1,0,61.4,23.7,67.2,56.2l39.1,218.1
				C495.8,461.6,494.4,470,490.3,477.2z M487.1,316.6L472,232.4c-7.3-40.7-42.7-70.3-84-70.3h-97.9v-25.6c0-6.1-3.3-11.7-8.5-14.7
				V18.6c69.1,7.4,131.6,44.7,171.1,101.9S504.8,249.4,487.1,316.6L487.1,316.6z"/>
			<path style="fill:#27AE60;" d="M12.9,195.4c0.4,0.4,0.9,0.6,1.4,0.9c0.5,0.2,1.1,0.4,1.6,0.6c2.2,0.5,4.5,0.2,6.5-0.9
				c0.9-0.6,1.7-1.3,2.4-2.2c1.9-2.7,2.1-6.2,0.7-9.2c-0.5-1-1.3-1.8-2.1-2.5c-0.8-0.7-1.8-1.3-2.9-1.6c-2.2-0.7-4.6-0.5-6.6,0.5
				c-2.1,1.1-3.6,3-4.1,5.3c-0.5,2.3-0.2,4.7,0.9,6.7l1,1.3C12,194.7,12.5,195.1,12.9,195.4z"/>
			<path style="fill:#27AE60;" d="M225.6,228.9c0.5,0.3,1,0.6,1.5,0.8c0.5,0.2,1,0.4,1.5,0.5c0.6,0.1,1.1,0.2,1.7,0.2
				c2.3,0,4.5-0.9,6.1-2.5c1.6-1.6,2.5-3.8,2.5-6.1c0-0.6-0.1-1.1-0.2-1.7c-0.1-0.5-0.3-1.1-0.5-1.5c-0.2-0.5-0.4-1.1-0.8-1.5
				c-0.3-0.4-0.7-0.9-1-1.3c-2.1-2-5-2.8-7.8-2.3c-0.5,0.1-1.1,0.3-1.5,0.5c-0.5,0.2-1.1,0.4-1.5,0.8l-1.3,1c-0.3,0.4-0.7,0.9-1,1.3
				c-0.3,0.5-0.6,1-0.8,1.5c-0.2,0.5-0.4,1-0.5,1.5c-0.1,0.6-0.1,1.1-0.2,1.7c0,2.3,0.9,4.4,2.5,6.1
				C224.7,228.3,225.2,228.6,225.6,228.9z"/>
			<path style="fill:#27AE60;" d="M276.8,228.9c0.5,0.3,1,0.6,1.5,0.8c0.5,0.2,1,0.4,1.5,0.5c0.6,0.1,1.1,0.2,1.7,0.2
				c2.3,0,4.5-0.9,6.1-2.5c1.6-1.6,2.5-3.8,2.5-6.1c0-0.6-0.1-1.1-0.2-1.7c-0.1-0.5-0.3-1.1-0.5-1.5c-0.2-0.5-0.4-1.1-0.8-1.5
				c-0.3-0.4-0.7-0.9-1-1.3c-2.1-2-5-2.8-7.8-2.3c-0.5,0.1-1.1,0.3-1.5,0.5c-0.5,0.2-1.1,0.4-1.5,0.8l-1.3,1c-0.3,0.4-0.7,0.9-1,1.3
				c-0.3,0.5-0.6,1-0.8,1.5c-0.2,0.5-0.4,1-0.5,1.5c-0.1,0.6-0.1,1.1-0.2,1.7c0,2.3,0.9,4.4,2.5,6.1
				C275.9,228.3,276.4,228.6,276.8,228.9z"/>
		</g>
	</g>
</g>
</svg>
