<?xml version="1.0" encoding="utf-8"?>
<!-- Generator: Adobe Illustrator 21.0.2, SVG Export Plug-In . SVG Version: 6.00 Build 0)  -->
<svg version="1.1" id="Layer_1" xmlns="http://www.w3.org/2000/svg" xmlns:xlink="http://www.w3.org/1999/xlink" x="0px" y="0px"
	 viewBox="0 0 512.9 512.9" style="enable-background:new 0 0 512.9 512.9;" xml:space="preserve">
<g>
	<defs>
		<rect id="SVGID_1_" width="512.9" height="512.9"/>
	</defs>
	<clipPath id="SVGID_2_">
		<use xlink:href="#SVGID_1_"  style="overflow:visible;"/>
	</clipPath>
	<path style="clip-path:url(#SVGID_2_);fill:#27AE60;" d="M17.3,197.5l1.5,0.7c0.5,0.2,1.1,0.3,1.7,0.4c0.5,0.1,1.1,0.1,1.6,0.1
		c0.6-0.1,1.1-0.1,1.7-0.3c2.1-0.6,4-2,5.2-3.9c0.5-0.9,0.9-2,1-3.1c0.6-3.3-0.8-6.6-3.6-8.4c-1-0.6-2-1-3.1-1.2
		c-1.1-0.2-2.2-0.3-3.3-0.1c-2.2,0.4-4.2,1.7-5.4,3.6c-1.2,2-1.6,4.4-1.1,6.6C13.9,194.3,15.3,196.3,17.3,197.5"/>
	
		<path style="clip-path:url(#SVGID_2_);fill:none;stroke:#00AF5A;stroke-width:17.419;stroke-linecap:round;stroke-miterlimit:10;" d="
		M37.8,139.9C79.5,61.8,161.8,8.7,256.4,8.7c136.8,0,247.7,110.9,247.7,247.7c0,136.8-110.9,247.7-247.7,247.7
		C119.6,504.2,8.7,393.3,8.7,256.4"/>
	<path style="clip-path:url(#SVGID_2_);fill:#E3E7F2;" d="M410.4,401.5V429h-331v-80.5c0.8-0.3,1.7-0.8,2.6-1.1
		c2.7-1.1,5.5-2.1,8.3-2.9c0.5-0.2,1-0.4,1.4-0.5l2.3-0.6c0.5-0.1,1-0.2,1.5-0.3c1.2-0.3,2.4-0.6,3.7-0.8c7.3-1.5,14.2-4.2,20.6-7.9
		c1.8-1,3.4-1.9,5-3c0.8-0.5,1.6-1,2.3-1.5c4.5-2.9,8.7-6,12.8-9.5c0.3-0.3,0.6-0.5,0.8-0.6l0.1-0.1h139
		c6.5,5.7,13.6,10.6,21.1,14.8c6.4,3.7,13.4,6.4,20.6,7.9c12.4,2.7,24.2,7.4,35,14.1c9.7,5.4,19.6,10.8,29.5,16
		c7,3.7,18.5,7.7,22.7,14.8C410.5,391.7,411.1,396.6,410.4,401.5"/>
	<path style="clip-path:url(#SVGID_2_);fill:#AFE0C3;" d="M410.4,401.5V429h-20.7v-21.5c0.7-4.9,0.1-9.9-1.7-14.4
		c-4.2-7.1-15.7-11-22.7-14.8c-9.9-5.2-19.7-10.6-29.5-16c-10.3-6.4-21.7-11.1-33.5-13.9c-0.5-0.1-1-0.2-1.5-0.3
		c-7.3-1.5-14.2-4.2-20.6-7.9c-2.6-1.4-5.1-3-7.4-4.5c-0.8-0.5-1.5-1-2.2-1.4l-0.6-0.4l-1.4-1c-1.9-1.4-3.7-2.7-5.1-3.8v-4.8
		l16.4-4.8c6.5,5.7,13.6,10.6,21.1,14.8c6.4,3.7,13.4,6.4,20.6,7.9c12.4,2.7,24.2,7.4,35,14.1c9.7,5.4,19.6,10.8,29.5,16
		c7,3.7,18.5,7.7,22.7,14.8C410.5,391.7,411.1,396.6,410.4,401.5"/>
	<path style="clip-path:url(#SVGID_2_);fill:#A4C2F7;" d="M271.2,46.5c-16.8-10.1-35.7-16.1-55.2-17.6h1.3
		c18.9,1.4,37.3,7.1,53.7,16.7L271.2,46.5z"/>
	<path style="clip-path:url(#SVGID_2_);fill:#AFE0C3;" d="M299.7,209.3c-0.2,2.6-0.3,5.3-0.3,8.3c0,3.8,0.1,7.5,0.3,11.1
		c1,21.9,2.6,41.7-21.2,64.4c-26.9,25.6-27.8,51.2-53,52.8c-0.8,0.1-1.7,0.1-2.6,0.1h-27.8c-0.4,0-0.9,0-1.3-0.1
		c-25.2-1.6-26.1-27.2-53-52.8c-23.8-22.6-22.1-42.5-21.2-64.4c0.2-3.7,0.3-7.3,0.3-11.1c0-3-0.1-5.7-0.3-8.3
		c-1.2-13.5-5-24-6.6-48.4c-1-17.6-1-35.2-0.1-52.8c0.4-25.2,13.6-48.5,35.2-61.7c15.8-9.6,33.6-15.5,52-17.3c2-0.2,3.2-0.3,3.2-0.3
		h12.8c0.5,0,2.1,0.1,4.6,0.4c0.1,0,0.2,0.1,0.3,0.1c0.4,0,0.8,0.1,1.2,0.1c0.9,0.1,1.9,0.3,2.9,0.4c1,0.1,2.1,0.3,3.3,0.6
		c1.1,0.2,2.3,0.4,3.7,0.7c5.1,1,10.1,2.4,15,4c3.1,1,6.3,2.2,9.6,3.7c1.4,0.6,2.8,1.2,4.2,1.9c1.8,0.9,3.6,1.8,5.4,2.8
		c1.7,0.9,3.2,1.9,4.8,2.9c21.5,13.2,34.8,36.5,35.2,61.7c1,17.6,0.9,35.2-0.1,52.8C304.7,185.3,300.9,195.8,299.7,209.3"/>
	<path style="clip-path:url(#SVGID_2_);fill:#A4C2F7;" d="M203.4,28.9c-19.5,1.5-38.4,7.5-55.2,17.6l0.1-0.9
		c16.4-9.6,34.8-15.3,53.7-16.7H203.4z"/>
	<path style="clip-path:url(#SVGID_2_);fill:#E3E7F2;" d="M252.1,46.5c-16.8-10.1-35.7-16.1-55.2-17.6h1.3
		c18.9,1.4,37.3,7.1,53.7,16.7L252.1,46.5z"/>
	<path style="clip-path:url(#SVGID_2_);fill:#E3E7F2;" d="M280.6,209.3c-0.2,2.6-0.3,5.3-0.3,8.3c0,3.8,0.1,7.5,0.3,11.1
		c1,21.9,2.6,41.7-21.2,64.4c-26.9,25.6-27.8,51.2-53,52.8c-0.8,0.1-1.7,0.1-2.6,0.1h-8.7c-0.4,0-0.9,0-1.3-0.1
		c-25.2-1.6-26.1-27.2-53-52.8c-23.8-22.6-22.1-42.5-21.2-64.4c0.2-3.7,0.3-7.3,0.3-11.1c0-3-0.1-5.7-0.3-8.3
		c-1.2-13.5-5-24-6.6-48.4c-1-17.6-1-35.2-0.1-52.8c0.4-25.2,13.6-48.5,35.2-61.7c15.8-9.6,33.6-15.5,52-17.3c0.5,0,1,0.1,1.4,0.1
		c0.1,0,0.2,0.1,0.3,0.1c0.4,0,0.8,0.1,1.2,0.1c0.9,0.1,1.9,0.3,2.9,0.4c1,0.1,2.1,0.3,3.3,0.6c1.1,0.2,2.3,0.4,3.7,0.7
		c5.1,1,10.1,2.4,15,4c3.1,1,6.3,2.2,9.6,3.7c1.4,0.6,2.8,1.2,4.2,1.9c1.8,0.9,3.6,1.8,5.4,2.8c1.7,0.9,3.2,1.9,4.8,2.9
		c21.5,13.2,34.8,36.5,35.2,61.7c1,17.6,0.9,35.2-0.1,52.8C285.6,185.3,281.8,195.8,280.6,209.3"/>
	<path style="clip-path:url(#SVGID_2_);fill:#A4C2F7;" d="M119.6,228.7c-13.7-8.1-23.1-21.8-25.7-37.5c0,0-3.7-34,3.7-37.7
		c7.4-3.8,14.9,7.5,14.9,7.5l0.5-0.1c1.9,29.1,6.9,38.4,6.9,56.7C120,221.4,119.8,225.1,119.6,228.7"/>
	<path style="clip-path:url(#SVGID_2_);fill:#A4C2F7;" d="M269.4,429H151.2c-45.1-22.6-31.2-94.4-31.2-94.4l-0.2-0.3
		c7.5-4.2,14.6-9.1,21-14.8v-26.4c27.8,26.4,27.8,52.8,55.6,52.8h27.8c27.8,0,27.8-26.4,55.6-52.8v26.4c6.5,5.7,13.6,10.6,21.1,14.8
		l-0.2,0.3C300.7,334.6,314.6,406.3,269.4,429"/>
	<path style="clip-path:url(#SVGID_2_);fill:#E3E7F2;" d="M120,217.6c0,3.8-0.1,7.5-0.3,11.1c-13.7-8.1-23.1-21.8-25.7-37.5
		c0,0-3.7-34,3.7-37.7c7.4-3.8,14.9,7.5,14.9,7.5l0.5-0.1C114.9,190,120,199.3,120,217.6"/>
	<path style="clip-path:url(#SVGID_2_);fill:#E3E7F2;" d="M269.4,429H151.2c-45.1-22.6-31.2-94.4-31.2-94.4l-0.2-0.3
		c7.5-4.2,14.6-9.1,21-14.8v-26.4c27.8,26.4,27.8,52.8,55.6,52.8h27.8c27.8,0,27.8-26.4,55.6-52.8v26.4c6.5,5.7,13.6,10.6,21.1,14.8
		l-0.2,0.3C300.7,334.6,314.6,406.3,269.4,429"/>
	<path style="clip-path:url(#SVGID_2_);fill:#E3E7F2;" d="M479.5,56.5v144.9c0,7.6-6.2,13.8-13.8,13.8h-75.9l-54.4,48.3v-48.3h-56
		c-7.6,0-13.8-6.2-13.8-13.8V56.5c0-7.6,6.2-13.8,13.8-13.8h186.2C473.3,42.7,479.5,48.9,479.5,56.5"/>
	<path style="clip-path:url(#SVGID_2_);fill:#E3E7F2;" d="M310.5,111.7c9.5,0,17.2,7.7,17.2,17.2c0,9.5-7.7,17.2-17.2,17.2
		c-9.5,0-17.2-7.7-17.2-17.2C293.3,119.4,301,111.7,310.5,111.7"/>
	<path style="clip-path:url(#SVGID_2_);fill:#E3E7F2;" d="M372.6,111.7c9.5,0,17.2,7.7,17.2,17.2c0,9.5-7.7,17.2-17.2,17.2
		c-9.5,0-17.2-7.7-17.2-17.2C355.3,119.4,363.1,111.7,372.6,111.7"/>
	<path style="clip-path:url(#SVGID_2_);fill:#E3E7F2;" d="M434.7,111.7c9.5,0,17.2,7.7,17.2,17.2c0,9.5-7.7,17.2-17.2,17.2
		c-9.5,0-17.2-7.7-17.2-17.2C417.4,119.4,425.1,111.7,434.7,111.7"/>
	<path style="clip-path:url(#SVGID_2_);fill:#AFE0C3;" d="M479.5,56.5v144.9c0,7.6-6.2,13.8-13.8,13.8H445c7.6,0,13.8-6.2,13.8-13.8
		V56.5c0-7.6-6.2-13.8-13.8-13.8h20.7C473.3,42.7,479.5,48.9,479.5,56.5"/>
	<path style="clip-path:url(#SVGID_2_);fill:#AFE0C3;" d="M302.3,348.5c-0.5-0.1-1-0.2-1.4-0.3c-7.3-1.5-14.2-4.2-20.6-7.9
		c-2.6-1.4-5.1-3-7.4-4.5c-0.8-0.5-1.5-1-2.2-1.4l-0.6-0.4l-1.4-1c-1.9-1.4-3.7-2.7-5.1-3.8v-16.8c4.8-6.9,10.3-13.4,16.4-19.2v26.4
		c6.5,5.7,13.6,10.6,21.1,14.8l-0.2,0.3C301.5,339.2,302,343.8,302.3,348.5"/>
	<path style="clip-path:url(#SVGID_2_);fill:#FFFFFF;" d="M157.5,324.3v4.8c-0.5,0.3-1,0.8-1.5,1.2c-1.6,1.2-3.5,2.6-5.7,4.1
		l-1.2,0.8c-2.7,1.8-5.5,3.6-8.3,5.1c-6.4,3.7-13.4,6.4-20.6,7.9c-0.5,0.1-1,0.2-1.4,0.3c-0.1,0-0.2,0.1-0.3,0.1
		c-11.8,2.8-23,7.4-33.2,13.8c-1.9,1-3.8,2.1-5.7,3.2v-16.9c3.5-1.6,7.1-3,10.8-4.1c1.2-0.4,2.5-0.8,3.7-1.1c0.5-0.1,1-0.2,1.5-0.3
		c1.3-0.3,2.6-0.6,3.9-0.8c7.2-1.5,14.1-4.1,20.4-7.8c0.1-0.1,0.1-0.1,0.2-0.1c7.5-4.2,14.6-9.1,21.1-14.8L157.5,324.3z"/>
	<path style="clip-path:url(#SVGID_2_);fill:#FFFFFF;" d="M157.5,312.3v16.8c-0.5,0.3-1,0.8-1.5,1.2c-1.6,1.2-3.5,2.6-5.7,4.1
		l-1.2,0.8c-2.7,1.8-5.5,3.6-8.3,5.1c-6.4,3.7-13.4,6.4-20.6,7.9c-0.5,0.1-1,0.2-1.4,0.3c0.3-4.6,0.8-9.3,1.6-13.9l-0.2-0.3
		c7.5-4.2,14.6-9.1,21.1-14.8v-26.4C147.2,298.9,152.7,305.4,157.5,312.3"/>
	<path style="clip-path:url(#SVGID_2_);fill:#FFFFFF;" d="M117.8,209.3c0.2,2.6,0.3,5.3,0.3,8.3c0,3.8-0.1,7.5-0.3,11.1
		c-1,21.9-2.6,41.7,21.2,64.4c26.9,25.6,27.8,51.2,53,52.8c0.8,0.1,1.7,0.1,2.6,0.1h19.1c-0.9,0-1.7,0-2.6-0.1
		c-25.2-1.6-26.1-27.2-53-52.8c-23.8-22.6-22.1-42.5-21.2-64.4c0.2-3.7,0.3-7.3,0.3-11.1c0-3-0.1-5.7-0.3-8.3
		c-1.2-13.5-5-24-6.6-48.4c-1-17.6-1-35.2-0.1-52.8c0.4-25.2,13.7-48.5,35.2-61.7c1.6-1,3.2-2,4.8-2.9c1.9-1,3.7-1.9,5.4-2.8
		c1.4-0.7,2.8-1.3,4.2-1.9c3.2-1.4,6.5-2.6,9.6-3.7c4.9-1.6,9.9-3,15-4c1.3-0.3,2.6-0.5,3.7-0.7c1.2-0.2,2.3-0.4,3.3-0.6
		c1-0.1,2-0.3,2.9-0.4c0.4-0.1,0.8-0.1,1.2-0.1c0.1,0,0.2-0.1,0.3-0.1c0.5-0.1,1-0.1,1.4-0.1c-2-0.2-3.2-0.3-3.2-0.3h-12.8
		c-0.5,0-2.1,0.1-4.6,0.4c-0.1,0-0.2,0.1-0.3,0.1c-0.4,0-0.8,0.1-1.2,0.1c-0.9,0.1-1.9,0.3-2.9,0.4c-1,0.1-2.1,0.3-3.3,0.6
		c-1.1,0.2-2.3,0.4-3.7,0.7c-5.1,1-10.1,2.4-15,4c-3.1,1-6.3,2.2-9.6,3.7c-1.4,0.6-2.8,1.2-4.2,1.9c-1.8,0.9-3.6,1.8-5.4,2.8
		c-1.7,0.9-3.2,1.9-4.8,2.9c-21.5,13.2-34.8,36.5-35.2,61.7c-1,17.6-0.9,35.2,0.1,52.8C112.9,185.3,116.7,195.8,117.8,209.3"/>
	<path style="clip-path:url(#SVGID_2_);fill:#FFFFFF;" d="M105.7,153.3l0.4-45.4c0.6-16.4,6-32.2,15.3-45.6
		c9.5-12.8,22.2-22.8,36.8-29c14.2-6.3,29.4-10.1,44.8-11.3l0.6,13.8c-26.7,2.4-55.7,12.9-71.1,34.6c-7.8,11.3-12.2,24.5-12.7,38.2
		l-0.4,44.2L105.7,153.3z"/>
	<path style="clip-path:url(#SVGID_2_);fill:#00AF5A;" d="M107.4,96.8c-0.2,1.9,0.3,3.9,1.4,5.4l0.9,1c0.3,0.3,0.7,0.6,1.2,0.8
		c0.4,0.2,0.8,0.4,1.2,0.5c0.4,0.1,0.9,0.2,1.4,0.3c1.8,0.1,3.6-0.4,5.1-1.5c0.7-0.5,1.3-1.2,1.7-1.9c1.2-2.3,1-5-0.4-7.2
		c-0.5-0.7-1.1-1.3-1.8-1.8c-2.3-1.7-5.3-1.8-7.7-0.3C108.7,93.1,107.6,94.9,107.4,96.8"/>
	<path style="clip-path:url(#SVGID_2_);fill:#00AF5A;" d="M465.7,35.8H279.5c-2.9,0-5.8,0.6-8.4,1.8c-16.6-9-34.9-14.3-53.7-15.6
		h-13.9c-0.1,0-0.2,0.1-0.3,0.1l0-0.1c-15.5,1.2-30.6,5-44.8,11.3c-14.6,6.2-27.3,16.2-36.8,29l-4.2,6.3c-1,1.7-1.2,3.6-0.6,5.5
		c0.6,1.8,1.9,3.4,3.6,4.2c3.2,1.5,7.1,0.4,9-2.7l3.5-5.2c15.4-21.6,44.3-32.2,71-34.6l13.4,0c15.2,1.2,30,5.3,43.7,12
		c-1.3,2.7-2,5.7-2,8.7v144.9c0,11.4,9.3,20.7,20.7,20.7h14.5c0.1,3,0.1,6,0.3,9c0.9,20.8,1.7,37.3-19.2,57.1
		c-9.1,9-17.1,19.1-23.8,30c-9.4,14.5-14.1,20.9-27,20.9h-27.8c-12.9,0-17.6-6.4-27-20.9c-6.6-10.9-14.6-20.9-23.6-29.9l-0.1-0.1
		l-0.1-0.1c-20.8-19.8-20-36.2-19.1-57c0.2-4.4,0.4-8.9,0.4-13.5c-0.1-8.6-1.1-17.1-2.8-25.5c-2.5-13-4-26.2-4.5-39.4l0,0l0.2-27.2
		c0-3.8-3-6.9-6.8-7c-1.8,0-3.6,0.7-4.9,1.9c-1.3,1.3-2,3-2,4.9l-0.2,21.3c-3.7-1.4-7.7-1.2-11.2,0.6c-7.7,3.9-10.2,18.9-7.4,44.8
		c2.7,16.3,11.9,30.9,25.5,40.4c-0.9,20.1-1,40.9,21.3,63.3v20.4c-10.4,9-22.7,15.6-36,19.1c-7.3,1.4-14.5,3.7-21.3,6.8
		c-2.5,1.1-4.1,3.6-4.1,6.3V429c0,1.8,0.7,3.6,2,4.9c1.3,1.3,3,2,4.9,2h331c1.8,0,3.6-0.7,4.9-2c1.3-1.3,2-3,2-4.9l0-19.1
		c0-2.8,0-5.6,0-8.3c0-1,0-1.9,0.1-2.9c0.6-5.2-0.3-10.4-2.7-15c-5.2-6.8-12.3-12-20.4-14.9c-1.8-0.8-3.5-1.7-5-2.5
		c-9.8-5.2-19.6-10.5-29.2-16c-11.5-7-24-12.1-37.2-14.9c-13.3-3.5-25.6-10.1-36-19.1v-20.4c23.1-23.3,22.2-44.7,21.3-65.5
		c-0.1-2.7-0.2-5.5-0.3-8.3h20.8v41.4c0,2.7,1.6,5.2,4.1,6.3c2.5,1.1,5.4,0.7,7.4-1.1l52.4-46.5h73.3c11.4,0,20.7-9.3,20.7-20.7
		V56.5C486.4,45,477.1,35.8,465.7,35.8 M100.8,190.5c-1.5-10.2-1.3-20.6,0.5-30.8c2,1.1,3.7,2.7,5,4.5c0.8,10.2,2.1,20.4,4.1,30.4
		c1.4,6.7,2.2,13.6,2.5,20.5C106.8,208.1,102.6,199.6,100.8,190.5 M86.3,353.1c4.5-1.8,9.3-3.2,14.1-4.1c3.8-0.7,7.6-1.8,11.2-3.2
		c-1.6,18.6-1.3,53.7,19.3,76.3H86.3V353.1z M353.1,362.3c9.8,5.5,19.7,10.8,29.6,16.1c1.7,0.9,3.6,1.8,5.7,2.8
		c5.5,1.9,10.4,5.2,14.4,9.4c0.9,2.4,1.2,5,0.8,7.5c0,1.2-0.1,2.3-0.1,3.5c0,2.7,0,5.5,0,8.2l0,12.3H289.8
		c20.6-22.6,20.9-57.8,19.3-76.4c3.6,1.4,7.4,2.5,11.2,3.2C331.9,351.5,343,356.1,353.1,362.3 M294.3,338.5c1.8,12,7.5,65-26.6,83.6
		H152.9c-34-18.5-28.4-71.6-26.6-83.6c2.7-1.6,5.3-3.3,7.6-4.9v12.3c0,3.8,3.1,6.9,6.9,6.9c3.8,0,6.9-3.1,6.9-6.9v-34.8
		c3.9,5,7.1,9.9,10.1,14.5c9.5,14.6,17.7,27.2,38.6,27.2h27.8c20.9,0,29.1-12.6,38.6-27.2c3-4.6,6.2-9.5,10.1-14.6v34.9
		c0,3.8,3.1,6.9,6.9,6.9c3.8,0,6.9-3.1,6.9-6.9v-12.3C289,335.2,291.6,336.8,294.3,338.5 M472.6,201.3c0,3.8-3.1,6.9-6.9,6.9h-75.9
		c-0.3,0-0.6,0.1-0.9,0.2c-1,0-2,0.4-2.8,1c-0.3,0.1-0.6,0.3-0.9,0.5l-42.9,38.1v-32.9c0-1.8-0.7-3.6-2-4.9c-1.3-1.3-3-2-4.9-2h-56
		c-3.8,0-6.9-3.1-6.9-6.9V56.5c0-3.8,3.1-6.9,6.9-6.9h186.3c3.8,0,6.9,3.1,6.9,6.9V201.3z"/>
	<path style="clip-path:url(#SVGID_2_);fill:#00AF5A;" d="M310.5,104.8c-13.3,0-24.1,10.8-24.1,24.1c0,13.3,10.8,24.1,24.1,24.1
		c13.3,0,24.1-10.8,24.1-24.1C334.6,115.6,323.8,104.8,310.5,104.8 M310.5,139.2c-5.7,0-10.3-4.6-10.3-10.3
		c0-5.7,4.6-10.3,10.3-10.3c5.7,0,10.3,4.6,10.3,10.3C320.8,134.6,316.2,139.2,310.5,139.2"/>
	<path style="clip-path:url(#SVGID_2_);fill:#00AF5A;" d="M372.6,104.8c-13.3,0-24.1,10.8-24.1,24.1c0,13.3,10.8,24.1,24.1,24.1
		c13.3,0,24.1-10.8,24.1-24.1C396.7,115.6,385.9,104.8,372.6,104.8 M372.6,139.2c-5.7,0-10.3-4.6-10.3-10.3
		c0-5.7,4.6-10.3,10.3-10.3c5.7,0,10.3,4.6,10.3,10.3C382.9,134.6,378.3,139.2,372.6,139.2"/>
	<path style="clip-path:url(#SVGID_2_);fill:#00AF5A;" d="M434.7,104.8c-13.3,0-24.1,10.8-24.1,24.1c0,13.3,10.8,24.1,24.1,24.1
		c13.3,0,24.1-10.8,24.1-24.1C458.8,115.6,448,104.8,434.7,104.8 M434.7,139.2c-5.7,0-10.3-4.6-10.3-10.3c0-5.7,4.6-10.3,10.3-10.3
		c5.7,0,10.3,4.6,10.3,10.3C445,134.6,440.4,139.2,434.7,139.2"/>
</g>
</svg>
