<?xml version="1.0" encoding="utf-8"?>
<!-- Generator: Adobe Illustrator 21.0.2, SVG Export Plug-In . SVG Version: 6.00 Build 0)  -->
<svg version="1.1" id="Layer_1" xmlns="http://www.w3.org/2000/svg" xmlns:xlink="http://www.w3.org/1999/xlink" x="0px" y="0px"
	 viewBox="0 0 512.9 512.9" style="enable-background:new 0 0 512.9 512.9;" xml:space="preserve">
<g>
	<defs>
		<rect id="SVGID_1_" width="512.9" height="512.9"/>
	</defs>
	<clipPath id="SVGID_2_">
		<use xlink:href="#SVGID_1_"  style="overflow:visible;"/>
	</clipPath>
	
		<path style="clip-path:url(#SVGID_2_);fill:none;stroke:#00AF5A;stroke-width:17.419;stroke-linecap:round;stroke-miterlimit:10;" d="
		M37.8,139.9C79.5,61.8,161.8,8.7,256.4,8.7c136.8,0,247.7,110.9,247.7,247.7c0,136.8-110.9,247.7-247.7,247.7
		C119.6,504.2,8.7,393.3,8.7,256.4"/>
	<path style="clip-path:url(#SVGID_2_);fill:#CEEFDB;" d="M307.6,410l25.6-42.7h-1c18.8-18,35.4-38,49.7-59.7h87.8
		c9.4,0,17-7.7,17.1-17.1c-0.1-9.4-7.7-17-17.1-17.1h-8.5c-9.4,0-17.1-7.6-17.1-17.1c0-9.4,7.6-17.1,17.1-17.1h25.6
		c9.4,0,17-7.7,17.1-17.1c-0.1-9.4-7.7-17-17.1-17.1h-63.3c9.8-55.3-1-106.2-25.4-135.3c-34-40.5-81.7-59.6-135.3-60.8
		c-2-0.1-4-0.2-6-0.2h-0.9c-2,0-4,0.1-5.9,0.2c-52.6,1.5-99.8,20.7-133.5,60.8c-35.2,41.9-46.3,131.6,0,209.4
		c2.4,4,4.6,7.8,6.7,11.3H60.2c-9.4,0-17,7.7-17.1,17.1c0.1,9.4,7.7,17,17.1,17.1h17.1c9.4,0,17.1,7.6,17.1,17.1
		c0,9.4-7.6,17.1-17.1,17.1H26c-9.4,0-17,7.7-17.1,17.1c0,4.5,1.8,8.9,5,12c3.2,3.2,7.5,5.1,12,5h169l10.2,17.1H307.6z M222.3,452.7
		v34.1c0,9.4,7.7,17,17.1,17.1h34.1c9.4,0,17-7.7,17.1-17.1v-34.1H222.3z"/>
	<path style="clip-path:url(#SVGID_2_);fill:#AFE0C3;" d="M290.6,452.7v34.1c0,9.4-7.7,17-17.1,17.1h-34.1c-9.4,0-17-7.7-17.1-17.1
		v-34.1H290.6z"/>
	<path style="clip-path:url(#SVGID_2_);fill:#B6F2CE;" d="M265,452.7v34.1c0,9.4-7.7,17-17.1,17.1h-8.5c-9.4,0-17-7.7-17.1-17.1
		v-34.1H265z"/>
	<path style="clip-path:url(#SVGID_2_);fill:#B6F2CE;" d="M195,393H26c-4.5,0-8.9-1.8-12-5c-3.2-3.2-5.1-7.5-5-12
		c0-9.4,7.7-17,17.1-17.1h51.2c9.4,0,17.1-7.6,17.1-17.1c0-9.4-7.6-17.1-17.1-17.1H60.2c-9.4-0.1-17-7.7-17.1-17.1
		c0-9.4,7.7-17,17.1-17.1h63.1c26.1,43.7,31.8,51,56.4,76.8L195,393z"/>
	<path style="clip-path:url(#SVGID_2_);fill:#CEEFDB;" d="M169.4,393H26c-4.5,0-8.9-1.8-12-5c-3.2-3.2-5.1-7.5-5-12
		c0-9.4,7.7-17,17.1-17.1h51.2c9.4,0,17.1-7.6,17.1-17.1c0-9.4-7.6-17.1-17.1-17.1H60.2c-9.4-0.1-17-7.7-17.1-17.1
		c0-9.4,7.7-17,17.1-17.1h37.5c26.1,43.7,31.8,51,56.4,76.8L169.4,393z"/>
	<path style="clip-path:url(#SVGID_2_);fill:#B6F2CE;" d="M503.9,222.3c0,9.4-7.7,17-17.1,17.1h-25.6c-9.4,0-17.1,7.6-17.1,17.1
		c0,9.4,7.6,17.1,17.1,17.1h8.5c9.4,0.1,17,7.7,17.1,17.1c0,9.4-7.7,17-17.1,17.1H382c5-8,10.3-17.3,16.1-28.3
		c5.5-10.4,10.2-21.2,14.2-32.3c5-13.5,8.8-27.5,11.3-41.7h63.3C496.2,205.3,503.8,212.9,503.9,222.3"/>
	<path style="clip-path:url(#SVGID_2_);fill:#F5F5F5;" d="M478.3,222.3c0,9.4-7.7,17-17.1,17.1h-25.6c-9.4,0-17.1,7.6-17.1,17.1
		c0,9.4,7.6,17.1,17.1,17.1h8.5c9.4,0.1,17,7.7,17.1,17.1c0,9.4-7.7,17-17.1,17.1H382c5-8,10.3-17.3,16.1-28.3
		c5.5-10.4,10.2-21.2,14.2-32.3c5-13.5,8.8-27.5,11.3-41.7h37.7C470.6,205.3,478.2,212.9,478.3,222.3"/>
	<path style="clip-path:url(#SVGID_2_);fill:#CEEFDB;" d="M170.2,267c10.1,35.5,25.4,69.3,45.3,100.4h-35.8
		c-24.6-25.8-30.3-33.1-56.4-76.8c-2.1-3.5-4.4-7.3-6.7-11.3c-46.3-77.8-35.2-167.5,0-209.4C150.2,29.8,197.4,10.7,250,9.2
		c-31.5,2.2-59.6,20.5-79.9,57.9C148.7,107.1,148.7,187.1,170.2,267"/>
	<path style="clip-path:url(#SVGID_2_);fill:#FFFFFF;" d="M227.7,67.1c-7.2,40-7.2,120,0,199.9c3.1,33.7,8.1,67.2,15.1,100.4h-27.3
		c-19.9-31.1-35.2-64.9-45.3-100.4c-21.5-80-21.5-159.9,0-199.9c20.2-37.5,48.4-55.7,79.9-57.9c1.9-0.1,3.9-0.2,5.9-0.2
		C244.8,9.5,234.8,27.7,227.7,67.1"/>
	<path style="clip-path:url(#SVGID_2_);fill:#FFFFFF;" d="M342.7,267c-10.1,35.5-25.4,69.3-45.3,100.4h-27.3
		c7-33.1,12-66.6,15.1-100.4c7.2-80,7.2-159.9,0-199.9C278.1,27.6,268,9.4,256.9,9c2,0,3.9,0.1,6,0.2c31.5,2.2,59.6,20.4,79.9,57.9
		C364.2,107.1,364.2,187.1,342.7,267"/>
	<path style="clip-path:url(#SVGID_2_);fill:#E3E7F2;" d="M285.2,267c-3.1,33.7-8.2,67.2-15.1,100.4h-27.3
		c-7-33.1-12-66.6-15.1-100.4c-7.2-80-7.2-159.9,0-199.9c7.1-39.4,17.2-57.6,28.2-58.1h0.9c11.2,0.4,21.2,18.6,28.3,58.1
		C292.4,107.1,292.4,187.1,285.2,267"/>
	<polygon style="clip-path:url(#SVGID_2_);fill:#AFE0C3;" points="333.2,367.4 307.6,410 205.2,410 195,393 179.6,367.4 	"/>
	<polygon style="clip-path:url(#SVGID_2_);fill:#E3E7F2;" points="307.6,367.4 282,410 205.2,410 195,393 179.6,367.4 	"/>
	<path style="clip-path:url(#SVGID_2_);fill:#AFE0C3;" d="M372.9,69.9c35.2,41.9,46.3,131.6,0,209.4c-2.4,4-4.6,7.8-6.7,11.3
		c-26.1,43.7-31.8,51-56.4,76.8h25.6c24.6-25.8,30.3-33.1,56.4-76.8c2.1-3.5,4.4-7.3,6.7-11.3c46.3-77.8,35.2-167.5,0-209.4
		C364.8,29.8,317.6,10.7,265,9.2c13.4,0.9,26.4,4.9,37.9,11.8C330.2,30.7,354.4,47.6,372.9,69.9"/>
	<path style="clip-path:url(#SVGID_2_);fill:#FFFFFF;" d="M239.4,503.9H265c-9.4,0-17-7.7-17.1-17.1v-34.1h-25.6v34.1
		C222.3,496.3,230,503.9,239.4,503.9"/>
	<path style="clip-path:url(#SVGID_2_);fill:#FFFFFF;" d="M14,387.9c3.2,3.2,7.5,5.1,12,5h25.6c-9.4-0.1-17-7.7-17.1-17.1
		c0-9.4,7.7-17,17.1-17.1H26c-9.4,0-17,7.7-17.1,17.1C8.9,380.4,10.8,384.8,14,387.9"/>
	<path style="clip-path:url(#SVGID_2_);fill:#FFFFFF;" d="M77.2,358.8h25.6c9.4,0,17.1-7.6,17.1-17.1c0-9.4-7.6-17.1-17.1-17.1H85.8
		c-9.4-0.1-17-7.7-17.1-17.1c0-9.4,7.7-17,17.1-17.1H60.2c-9.4,0-17,7.7-17.1,17.1c0.1,9.4,7.7,17,17.1,17.1h17.1
		c9.4,0,17.1,7.6,17.1,17.1C94.3,351.2,86.7,358.8,77.2,358.8"/>
	<path style="clip-path:url(#SVGID_2_);fill:#FFFFFF;" d="M109.2,283.7c-19.7-33.2-30.6-70.9-31.8-109.5
		c-0.6-19.3,1.7-38.6,6.6-57.2c4.9-19.1,13.8-37,26-52.5l13.1,11c-10.6,13.6-18.3,29.3-22.6,46c-4.5,17.1-6.6,34.7-6,52.3
		c1.1,35.7,11.3,70.5,29.4,101.2L109.2,283.7z"/>
	<path style="clip-path:url(#SVGID_2_);fill:#27AE60;" d="M486.8,196.7h-53.2c7.5-55.5-5.4-104.2-29-132.3
		c-35.1-41.9-86-64-147.3-64c-0.2,0-0.3,0-0.5,0l-0.3,0c-0.5,0-1.1,0-1.6,0.1C194.6,1.1,144.6,23.1,110,64.4l0,0
		c-12.2,15.5-21.1,33.4-26,52.5c-5,18.6-7.2,37.9-6.6,57.2c0,3,0.3,5.9,0.5,8.9c0.1,2.3,1.1,4.5,2.9,6c1.7,1.5,4,2.2,6.3,2
		c4.6-0.5,8-4.5,7.9-9.1c-0.1-2.7-0.5-5.4-0.5-8.2c-0.5-17.6,1.5-35.3,6-52.3c4.3-16.7,12-32.4,22.6-46l0,0l0,0
		c17-20.2,38.8-35.7,63.4-45.1C177,40,169,51.1,162.7,63.1c-22.8,42.3-23.1,123.3-0.8,206c8.7,31.5,21.6,61.7,38.6,89.7h-17.2
		c-23.8-25.1-28.7-32.2-59.5-83.9l0,0l-7.8-14.4l-6.7-15c-1.7-4.3-6.5-6.4-10.8-4.8c-2.2,0.8-3.9,2.4-4.8,4.6
		c-0.9,2.1-1,4.5-0.2,6.6c2.3,5.4,4.8,10.8,7.2,16.2l7.6,13.9H60.2c-14.1,0-25.6,11.5-25.6,25.6c0.1,14.1,11.5,25.5,25.6,25.6h17.1
		c4.7,0,8.5,3.8,8.5,8.5c0,4.7-3.8,8.5-8.5,8.5H26c-14.1,0-25.6,11.5-25.6,25.6c-0.1,6.8,2.6,13.2,7.5,18c4.8,4.9,11.3,7.7,18.1,7.6
		h164.1l7.4,12.3l16.2,40.5v32.5c0,14.1,11.5,25.6,25.6,25.6h34.1c14.1,0,25.6-11.5,25.6-25.6v-32.5l16.2-40.5l25.2-42.1
		c0.3-0.5,0.5-0.9,0.6-1.4l2.5-2.6c16-15.7,30.4-33,42.9-51.6h83.2c14.1,0,25.6-11.5,25.6-25.6c-0.1-14.1-11.5-25.5-25.6-25.6h-8.5
		c-4.7,0-8.5-3.8-8.5-8.5s3.8-8.5,8.5-8.5h25.6c14.1,0,25.6-11.5,25.6-25.6C512.4,208.2,500.9,196.8,486.8,196.7 M280.4,358.8
		c6.1-30.1,10.5-60.5,13.3-91.1c7.2-80.4,7.2-161.6-0.1-202.2c-2.3-15.2-6.5-30-12.4-44.1c23.8,8.9,43.2,26.7,54,49.7
		c20.5,38.1,20.2,115.9-0.8,193.8c-9.3,33.2-23.4,64.8-41.9,93.9H280.4z M249.8,358.8c-6.3-30.6-10.8-61.5-13.6-92.6
		c-7.1-79-7.1-158.4-0.1-197.6c7.3-40.7,16.7-50.5,20-51.1c0.2,0,0.3,0,0.5,0c1.5,0.3,11.7,4,20.2,51.1c7,39.2,7,118.6-0.1,197.7
		c-2.8,31.1-7.4,62-13.6,92.5H249.8z M178.4,264.8c-21-77.7-21.2-155.5-0.7-193.6c10.8-23,30.2-40.8,54-49.7
		c-6,14.1-10.2,29-12.4,44.1c-7.3,40.6-7.3,121.8-0.1,202.1c2.8,30.6,7.2,61,13.3,91.1h-12.1C201.9,329.7,187.7,298,178.4,264.8
		 M295,418.6l-10.2,25.6H265v-25.6H295z M247.9,444.2h-19.8l-10.2-25.6h30.1V444.2z M26,384.4c-2.3,0-4.5-0.9-6.1-2.6
		c-1.6-1.6-2.5-3.7-2.5-5.9c0-4.7,3.8-8.5,8.5-8.5h51.2c14.1,0,25.6-11.5,25.6-25.6c0-14.1-11.5-25.6-25.6-25.6H60.2
		c-2.3,0-4.5-0.9-6.1-2.6c-1.6-1.6-2.5-3.7-2.5-5.9c0-4.7,3.8-8.5,8.5-8.5h58.2c24.2,40.2,30.7,48.6,54.4,73.5l7.1,11.9H26z
		 M282,486.8c0,4.7-3.8,8.5-8.5,8.5h-34.1c-4.7,0-8.5-3.8-8.5-8.5v-25.6H282V486.8z M302.8,401.5h-92.7l-15.4-25.6h123.5
		L302.8,401.5z M331.3,356l-2.7,2.9h-16.2c16.9-27.9,29.9-58.1,38.5-89.6c22.4-82.9,22.1-163.8-0.7-206.2
		c-6.5-12.4-14.9-23.8-24.8-33.8c25.7,9.3,48.5,25.2,66.2,46.1c30.9,36.8,41.1,119.4-1,200C375.6,305.4,355.5,332.7,331.3,356
		 M486.8,230.8h-25.6c-14.1,0-25.6,11.5-25.6,25.6c0,14.1,11.5,25.6,25.6,25.6h8.5c2.3,0,4.5,0.9,6.1,2.6c1.6,1.6,2.5,3.7,2.5,5.9
		c0,4.7-3.8,8.5-8.5,8.5H397c2.8-4.9,5.7-10.1,8.7-15.8c11.5-21.9,19.9-45.3,25-69.5h56.2c2.3,0,4.5,0.9,6.1,2.6
		c1.6,1.6,2.5,3.7,2.5,5.9C495.4,227,491.6,230.8,486.8,230.8"/>
	<path style="clip-path:url(#SVGID_2_);fill:#27AE60;" d="M86.8,223.6l1.5,0.7c0.5,0.2,1.1,0.3,1.7,0.4c0.5,0.1,1.1,0.1,1.6,0.1
		c0.6-0.1,1.1-0.1,1.7-0.3c2.1-0.6,4-2,5.2-3.9c0.5-0.9,0.9-2,1-3.1c0.6-3.3-0.8-6.6-3.6-8.4c-1-0.6-2-1-3.1-1.2
		c-1.1-0.2-2.2-0.3-3.3-0.1c-2.2,0.4-4.2,1.7-5.4,3.6c-1.2,2-1.6,4.4-1.1,6.6C83.4,220.4,84.8,222.4,86.8,223.6"/>
	<path style="clip-path:url(#SVGID_2_);fill:#27AE60;" d="M13.1,197.5l1.5,0.7c0.5,0.2,1.1,0.3,1.7,0.4c0.5,0.1,1.1,0.1,1.6,0.1
		c0.6-0.1,1.1-0.1,1.7-0.3c2.1-0.6,4-2,5.2-3.9c0.5-0.9,0.9-2,1-3.1c0.6-3.3-0.8-6.6-3.6-8.4c-1-0.6-2-1-3.1-1.2
		c-1.1-0.2-2.2-0.3-3.3-0.1c-2.2,0.4-4.2,1.7-5.4,3.6c-1.2,2-1.6,4.4-1.1,6.6C9.7,194.3,11.1,196.3,13.1,197.5"/>
</g>
</svg>
