<?xml version="1.0" encoding="utf-8"?>
<!-- Generator: Adobe Illustrator 21.0.2, SVG Export Plug-In . SVG Version: 6.00 Build 0)  -->
<svg version="1.1" id="Capa_1" xmlns="http://www.w3.org/2000/svg" xmlns:xlink="http://www.w3.org/1999/xlink" x="0px" y="0px"
	 viewBox="0 0 512.9 512.9" style="enable-background:new 0 0 512.9 512.9;" xml:space="preserve">
<path style="fill:none;stroke:#27AE60;stroke-width:17.4185;stroke-linecap:round;stroke-miterlimit:10;" d="M37.8,139.9
	C79.5,61.8,161.8,8.7,256.4,8.7c136.8,0,247.7,110.9,247.7,247.7S393.3,504.2,256.4,504.2S8.7,393.3,8.7,256.4"/>
<g transform="translate(-1)">
	<g transform="translate(2 1)">
		<g>
			<path style="fill:#AFE0C3;" d="M412.6,313.8v141.4c0,13-10.6,23.6-23.6,23.6H121.9c-13,0-23.6-10.6-23.6-23.6V313.8
				c0-4.3,3.5-7.9,7.9-7.9H206c2.6,0,5.1,1.3,6.5,3.5s1.6,5,0.5,7.4c-6.1,12.7-6.3,27.5-0.3,40.3c5.9,12.8,17.3,22.3,31,25.8
				c5.8,1.5,11.9,1.9,17.8,1.2c15-1.9,28.1-10.9,35.3-24.1s7.7-29.1,1.3-42.7c-1.3-2.4-1.2-5.2,0.2-7.6c1.4-2.3,3.9-3.7,6.5-3.8
				h99.9C409.1,305.9,412.6,309.5,412.6,313.8z"/>
			<path style="fill:#AFE0C3;" d="M412.6,46.7v141.4c0,4.3-3.5,7.9-7.9,7.9h-99.9c-2.7,0-5.2,1.5-6.5,3.8c-1.4,2.3-1.5,5.2-0.2,7.6
				c6.4,13.6,6,29.5-1.3,42.7c-7.2,13.2-20.4,22.2-35.3,24.1c-6,0.8-12,0.4-17.8-1.2c-13.7-3.5-25-13-31-25.8
				c-5.9-12.8-5.8-27.6,0.3-40.3c1.1-2.4,0.9-5.2-0.5-7.4c-1.4-2.2-3.9-3.5-6.5-3.5h-99.9c-4.3,0-7.9-3.5-7.9-7.9v-64.2
				c0-4.2,1.7-8.2,4.6-11.2l85-85c3-3,7-4.6,11.2-4.6H389C402,23.1,412.6,33.7,412.6,46.7z"/>
		</g>
		<g>
			<path style="fill:#E3E7F2;" d="M389,313.8v141.4c0,13-10.6,23.6-23.6,23.6H121.9c-13,0-23.6-10.6-23.6-23.6V313.8
				c0-4.3,3.5-7.9,7.9-7.9h76.3c2.6,0,5.1,1.3,6.5,3.5c1.4,2.2,1.6,5,0.5,7.4c-7.6,15.6-6,34.1,4.2,48.1
				c10.1,14.1,27.1,21.4,44.3,19.2c1.9-0.2,3.9-0.6,5.7-1.2c5.8,1.5,11.9,1.9,17.8,1.2c15-1.9,28.1-10.9,35.3-24.1
				s7.7-29.1,1.3-42.7c-1.3-2.4-1.2-5.2,0.2-7.6c1.4-2.3,3.9-3.7,6.5-3.8h76.3C385.5,305.9,389,309.5,389,313.8z"/>
			<path style="fill:#E3E7F2;" d="M389,46.7v141.4c0,4.3-3.5,7.9-7.9,7.9h-99.9c-2.7,0-5.2,1.5-6.5,3.8c-1.4,2.3-1.5,5.2-0.2,7.6
				c6,12.7,6,27.4,0,40.1c-6,12.7-17.3,22.1-30.9,25.6c-13.7-3.5-25-13-31-25.8c-5.9-12.8-5.8-27.6,0.3-40.3
				c1.1-2.4,0.9-5.2-0.5-7.4c-1.4-2.2-3.9-3.5-6.5-3.5h-99.9c-4.3,0-7.9-3.5-7.9-7.9v-64.2c0-4.2,1.7-8.2,4.6-11.2l85-85
				c3-3,7-4.6,11.2-4.6h166.3C378.5,23.1,389,33.7,389,46.7z"/>
		</g>
		<path style="fill:#CEEFDB;" d="M192.6,24.5v77.1c0,8.7-7,15.7-15.7,15.7H99.8L192.6,24.5z"/>
		<g>
			<path style="fill:#FFFFFF;" d="M98.3,188.1c0,4.3,3.5,7.9,7.9,7.9h23.6c-4.3,0-7.9-3.5-7.9-7.9v-64.2c0-2.3,0.5-4.5,1.5-6.5h-0.1
				l0.1-0.1c0.8-1.7,1.8-3.2,3.1-4.5l85-85c1.3-1.3,2.8-2.4,4.5-3.1l0.1-0.1v0.1c2-1,4.3-1.5,6.5-1.5h-23.6c-2.3,0-4.5,0.5-6.5,1.5
				v-0.1l-0.1,0.1c-1.7,0.8-3.2,1.8-4.5,3.1l-85,85c-1.3,1.3-2.4,2.8-3.1,4.5l-0.1,0.1h0.1c-1,2-1.5,4.3-1.5,6.5V188.1z"/>
			<path style="fill:#FFFFFF;" d="M98.3,455.2c0,13,10.6,23.6,23.6,23.6h23.6c-13,0-23.6-10.6-23.6-23.6V313.8
				c0-4.3,3.5-7.9,7.9-7.9h-23.6c-4.3,0-7.9,3.5-7.9,7.9V455.2z"/>
		</g>
	</g>
	<g>
		<polygon style="fill:#FFFFFF;" points="92.5,456.2 92.5,354.1 92.5,314.8 108.2,314.8 108.2,354.1 108.2,456.2 		"/>
		<g>
			<path style="fill:#27AE60;" d="M92.5,456.2c0,17.4,14.1,31.4,31.4,31.4H391c17.4,0,31.4-14.1,31.4-31.4V314.8
				c0-8.7-7-15.7-15.7-15.7h-99.9c-5.3,0-10.2,2.7-13,7.1c-2.9,4.6-3.2,10.5-0.9,15.4c6.9,14.6,4.1,31.9-6.9,43.6
				c-11,11.8-28.1,15.6-43.1,9.6c-15-5.9-24.8-20.4-24.8-36.5c0-5.9,1.3-11.8,3.9-17.1c2.3-4.7,2-10.3-0.8-14.8
				c-2.8-4.6-7.9-7.4-13.3-7.4h-99.9c-8.7,0-15.7,7-15.7,15.7v47.1c0,4.3,3.5,7.9,7.9,7.9c4.3,0,7.9-3.5,7.9-7.9v-47.1l99.8-0.5
				c-3.7,7.5-5.6,15.7-5.6,24.1c-0.1,28.9,22.2,52.9,51,55s54.3-18.5,58.4-47c1.6-10.8-0.2-21.8-5-31.5h99.9v141.4
				c0,8.7-7,15.7-15.7,15.7H123.9c-8.7,0-15.7-7-15.7-15.7v-31.4c0-4.3-3.5-7.9-7.9-7.9c-4.3,0-7.9,3.5-7.9,7.9V456.2z"/>
			<path style="fill:#27AE60;" d="M97.4,400.6c0.4,0.2,0.9,0.4,1.4,0.5c0.5,0.1,1,0.1,1.6,0.2c2.1,0,4.1-0.8,5.6-2.3
				c0.7-0.8,1.3-1.6,1.6-2.6c1.2-2.9,0.5-6.3-1.6-8.6c-0.8-0.7-1.6-1.3-2.6-1.6c-0.9-0.4-2-0.6-3-0.6c-3.2,0-6.1,1.9-7.3,4.8
				c-1.2,2.9-0.5,6.3,1.7,8.6l1.2,0.9C96.4,400.2,96.9,400.4,97.4,400.6z"/>
			<path style="fill:#27AE60;" d="M422.4,189.1V47.7c0-17.4-14.1-31.4-31.4-31.4H201.1c-3.2,0-6.5,0.7-9.4,2
				c-0.2,0.1-0.3,0.2-0.5,0.2c-2.5,1.1-4.8,2.7-6.8,4.7l-85.1,85.1c-2,2-3.6,4.3-4.7,6.8c-0.1,0.1-0.2,0.3-0.2,0.4
				c-1.3,3-2,6.2-2,9.4v64.2c0,8.7,7,15.7,15.7,15.7l99.8-0.5c-3.7,7.5-5.6,15.7-5.6,24.1c0,14.6,5.8,28.6,16.2,38.9
				c10.3,10.3,24.4,16.1,39,16.1c27.3,0,50.4-20,54.3-47c1.5-10.7-0.1-21.6-4.7-31.4l-0.3-0.1h99.9
				C415.4,204.8,422.4,197.8,422.4,189.1z M186.8,43.1v59.6c0,4.3-3.5,7.9-7.9,7.9h-59.6L186.8,43.1z M293.9,196.3
				c-2.9,4.6-3.2,10.5-0.9,15.4c6.9,14.6,4.1,31.9-6.9,43.6c-11,11.8-28.1,15.6-43.1,9.6c-15-5.9-24.8-20.4-24.8-36.6
				c0-5.9,1.3-11.8,3.9-17.1c2.3-4.7,2-10.3-0.8-14.8c-2.8-4.6-7.9-7.4-13.3-7.4h-99.9v-62.8h70.7c13,0,23.6-10.6,23.6-23.6V32H391
				c8.7,0,15.7,7,15.7,15.7v141.4h-99.9C301.6,189.1,296.7,191.8,293.9,196.3L293.9,196.3z"/>
		</g>
	</g>
</g>
<path style="fill:#27AE60;" d="M15.3,204.1c0.5,0.2,1,0.4,1.5,0.5c0.6,0.1,1.1,0.2,1.7,0.2c2.3,0,4.4-0.9,6.1-2.5
	c0.8-0.8,1.4-1.8,1.8-2.8c1.3-3.2,0.6-6.8-1.8-9.3c-0.8-0.8-1.8-1.4-2.8-1.8c-1-0.4-2.1-0.7-3.2-0.7c-3.5,0-6.6,2.1-7.9,5.3
	c-1.3,3.2-0.6,6.9,1.9,9.3l1.3,1C14.3,203.7,14.8,203.9,15.3,204.1z"/>
</svg>
