<?xml version="1.0" encoding="utf-8"?>
<!-- Generator: Adobe Illustrator 21.0.2, SVG Export Plug-In . SVG Version: 6.00 Build 0)  -->
<svg version="1.1" id="Capa_1" xmlns="http://www.w3.org/2000/svg" xmlns:xlink="http://www.w3.org/1999/xlink" x="0px" y="0px"
	 viewBox="0 0 564.2 547.8" style="enable-background:new 0 0 564.2 547.8;" xml:space="preserve">
<g>
	<path style="fill:none;stroke:#27AE60;stroke-width:17.4185;stroke-linecap:round;stroke-miterlimit:10;" d="M89.1,139.9
		C130.8,61.8,213.1,8.7,307.7,8.7c136.8,0,247.7,110.9,247.7,247.7S444.5,504.2,307.7,504.2S60,393.3,60,256.4"/>
	<g transform="translate(1 1)">
		<g>
			<path style="fill:#AFE0C3;" d="M151.8,446.2c3.6,17.7-4.9,36.1-17.7,48.9c-14.5,14.5-57.2,21.1-82.4,23.8
				c23.3-4.5,49.9-12.3,60.8-25.5c13.1-17,21.4-38.7,17.7-59.8l13.2-12.9l-23.7-28.9l0.6-0.8l44.7,44.7L151.8,446.2z"/>
			<path style="fill:#7FACFA;" d="M130.1,433.5c3.7,21.1-4.6,42.8-17.7,59.8c-10.8,13.2-37.5,21-60.8,25.5h-0.3
				c-7.8,0.9-13.9,1.3-17,1.6c-1.3,0.1-2,0.1-2,0.1s0.5-9.3,1.9-22.4c2.9-25.5,12.6-65.4,26.5-79.3c12.8-12.8,31.1-18.3,48.8-14.7
				l10-12.4l23.7,28.9L130.1,433.5z"/>
		</g>
		<g>
			<path style="fill:#E3E7F2;" d="M130.1,433.5c3.7,21.1-4.6,42.8-17.7,59.8c-10.8,13.2-37.5,21-60.8,25.5h-0.3
				c-6,1.2-11.8,2.1-17,2.9c0-0.4,0.1-0.8,0.1-1.3c3-31.1,12.7-78.9,26.4-95.6c11.3-15.1,30.4-22.2,48.8-18l10-15.2l23.7,28.9
				L130.1,433.5z"/>
			<path style="fill:#E3E7F2;" d="M219.8,119.9l-90.2-11.3c-7-0.9-13.9,2.4-17.6,8.4L18.8,269c-2.1,3.5-1.7,7.9,1.1,10.9
				c2.8,3,7.2,3.7,10.8,1.7c25.7-14,61.9-26.6,93.5-10.9l160.9,160.9c15.7,31.6,0.1,67.8-13.9,93.5c-2,3.6-1.3,8,1.7,10.8
				c3,2.8,7.4,3.3,10.9,1.1l155-93.2c6-3.7,9.3-10.6,8.4-17.6L436,336.1L219.8,119.9z"/>
		</g>
		<path style="fill:#AFE0C3;" d="M499.6,196.2c-21,120-113,215.1-232.3,239.8c-5.9,1.2-12-0.7-16.2-5L124.8,304.8
			c-4.3-4.2-6.1-10.3-5-16.2C144.6,169.3,239.7,77.2,359.7,56.3c36.8-6.5,74.4-6.1,111,1c4,0.8,8.1,1.7,12.2,2.6
			c6.4,1.6,11.4,6.7,13.1,13.1C505.6,113.4,506.8,155.3,499.6,196.2z"/>
		<path style="fill:#E3E7F2;" d="M474.4,180.8c-21,120-113.1,215.1-232.3,239.8c-0.4,0.1-0.8,0.2-1.3,0.2l-116-116
			c-4.3-4.2-6.1-10.3-5-16.2C144.6,169.3,239.7,77.2,359.7,56.3c36.8-6.5,74.4-6.1,111,1c0,0.1,0.1,0.3,0.1,0.3
			C480.4,98,481.6,139.9,474.4,180.8z"/>
		<path style="fill:#FDFFFE;" d="M397.9,310.7c-41.5,41.5-108.7,42.2-151.1,1.6l-1.6-1.6c-42.2-42.2-42.2-110.5,0-152.7
			s110.5-42.2,152.7,0S440,268.5,397.9,310.7z"/>
		<path style="fill:#AFE0C3;" d="M245.2,425.1l-50.9,12.7L175.3,457c-3.6,3.4-9.2,3.4-12.8,0l-63.6-63.6c-1.1-1.1-1.8-2.4-2.2-3.9
			c-0.9-3.1-0.1-6.5,2.2-8.9l19.1-19.1l12.7-50.9L245.2,425.1z"/>
		<path style="fill:#E3E7F2;" d="M223.7,403.7L174.2,416l-19.1,19.1c-3.6,3.4-9.2,3.4-12.8,0l-45.7-45.7c-0.9-3.1-0.1-6.5,2.2-8.9
			l19.1-19.1l12.7-50.9L223.7,403.7z"/>
		<path style="fill:#AFE0C3;" d="M98.9,393.3l28,28l35.6,35.6c3.5,3.5,9.2,3.5,12.7,0l19.1-19.1L118,361.5l-19.1,19.1
			C95.4,384.1,95.4,389.8,98.9,393.3z"/>
		<path style="fill:#CEEFDB;" d="M97.1,391.5l20.1,20.1l25.7,25.7c3.5,2.4,8.3,1.6,10.9-1.8l19.1-19.1L118,361.5l-19.1,19.1
			C95.5,383.2,94.7,388,97.1,391.5z"/>
		<path style="fill:#AFE0C3;" d="M499.6,196.2L359.7,56.3c37.5-6.6,76-6.1,113.3,1.4c3.4,0.7,6.6,1.4,9.9,2.2
			c6.4,1.6,11.4,6.7,13.1,13.1C505.6,113.4,506.8,155.3,499.6,196.2z"/>
		<path style="fill:#E3E7F2;" d="M477.1,173.7L359.7,56.3c37.5-6.6,76-6.1,113.3,1.4C481.8,95.7,483.2,135.1,477.1,173.7z"/>
		<path style="fill:#AFE0C3;" d="M447.2,426.3c0.9,7-2.4,13.9-8.4,17.5l-155,93.3c-3.5,2.1-8,1.7-10.9-1.2s-3.6-7.3-1.7-10.9
			c2.5-4.6,5-9.7,7.3-14.9c0.4-0.2,0.7-0.4,1.1-0.6l155-93.2c6-3.7,9.3-10.6,8.4-17.5l-8-63.7l0.9,0.9L447.2,426.3z"/>
	</g>
	<g transform="translate(1 8)">
		<path style="fill:#FFFFFF;" d="M129.6,101.7c-7-0.9-13.9,2.4-17.5,8.4l-93.3,152c-2.1,3.5-1.7,8,1.2,10.9s7.3,3.6,10.9,1.7
			c4.6-2.5,9.7-5,14.9-7.3c0.2-0.4,0.4-0.7,0.6-1.1l93.2-152c3.7-6,10.6-9.3,17.5-8.4l63.7,8l-0.9-0.9L129.6,101.7z"/>
		<path style="fill:#FFFFFF;" d="M111,397.7c-17.7-3.6-36.1,1.9-48.8,14.7c-14.5,14.5-24.1,57.2-26.8,82.4
			c4.5-23.3,15.3-49.9,28.5-60.8c17-13.1,38.7-18.4,59.8-14.7L111,397.7z"/>
	</g>
	<g>
		<polygon style="fill:#FFFFFF;" points="120.1,122.4 63.1,215.4 26.9,274.4 12.6,265.7 48.8,206.6 105.8,113.6 		"/>
		<g>
			<path style="fill:#27AE60;" d="M63.5,182.4c2.9,1.8,6.6,1.6,9.3-0.4s4-5.4,3.3-8.7l-0.5-1.5c-0.2-0.5-0.5-1-0.9-1.4
				c-0.3-0.5-0.6-0.9-1-1.2c-0.4-0.4-0.9-0.7-1.3-1c-1.9-1.1-4.2-1.5-6.4-1c-2.8,0.6-5,2.6-6,5.2s-0.5,5.6,1.2,7.9
				C61.8,181.1,62.6,181.8,63.5,182.4z"/>
			<path style="fill:#27AE60;" d="M475.8,52.7c-93-22.7-191.3-0.6-265.8,59.6l-88.5-11c-10.3-1.3-20.3,3.5-25.8,12.3l0,0l0,0
				l-17.5,28.6c-2.4,4-1.2,9.1,2.8,11.5s9.1,1.2,11.5-2.7l17.5-28.6c2-3.2,5.6-4.9,9.4-4.5l73.6,9.2c-2.4,2.3-4.9,4.5-7.3,6.8
				c-35.3,35.3-61.4,78.8-76,126.6c-32.6-11.3-67.6,1.3-92.1,14.7l4,7.4l-4.8-8.2l0,0l40.5-66.2c2.4-4,1.2-9.1-2.8-11.5
				s-9.1-1.2-11.5,2.8L2.6,265.7l0,0c-4.2,6.7-3.3,15.4,2.2,21.1c3.2,3.5,7.8,5.4,12.5,5.4c2.9,0,5.8-0.8,8.4-2.2
				c21.7-11.8,52.5-23.2,79.7-13.3c-0.9,3.7-2,7.4-2.7,11.1c-1.8,8.7,1,17.6,7.3,23.8l2.5,2.5l-11,44L84,375.7
				c-5.4,5.5-6.6,13.9-2.9,20.6c-13.4,1.9-25.7,8-35.3,17.5c-22.7,22.7-30.4,98.6-30.9,107.2c-0.1,2.3,0.7,4.6,2.3,6.2
				c1.6,1.7,3.8,2.6,6.1,2.6c0.2,0,0.3,0,0.5,0c8.6-0.5,84.6-5.2,107.2-27.9c9.5-9.5,18.7-21.9,20.6-35.3c6.7,3.8,15.2,2.6,20.6-2.9
				l17.4-17.4l44-11l2.5,2.5c4.9,5,11.6,7.8,18.6,7.8c1.8,0,3.5-0.2,5.2-0.5c3.8-0.8,7.4-1.8,11.1-2.7c9.9,27.2-4.4,58-16.3,79.7
				c-2.9,5.4-2.8,11.9,0.3,17.2c3.1,5.3,8.8,8.5,14.9,8.6c3.2,0,6.4-0.9,9.1-2.6L434.2,452c8.8-5.4,13.6-15.5,12.3-25.7l-11-88.5
				c60.2-74.5,82.2-172.7,59.6-265.8C492.8,62.5,485.3,55,475.8,52.7z M119.1,490.1c-12.3,12.3-56.3,19.8-86.8,22.3
				c2.5-30.5,13-74.4,25.3-86.8c10.2-10.2,24.7-14.9,39-12.7l38.2,38.2C137.1,465.4,129.4,479.9,119.1,490.1z M160.3,452
				c-0.2,0.2-0.6,0.2-0.9,0l-63.6-63.6c-0.2-0.2-0.2-0.6,0-0.9l13.1-13.1l64.4,64.4L160.3,452z M187.9,429.5L118.3,360l8-31.9
				l46.8,46.8l46.8,46.8L187.9,429.5z M402.7,60.9c23.3,0,46.6,2.8,69.3,8.2c3.4,0.8,6,3.5,6.9,6.9c8.1,33.9,10.1,69,6,103.6
				L368.3,63C379.7,61.6,391.2,60.9,402.7,60.9z M256.6,428.8c-3.1,0.6-6.3-0.4-8.6-2.7l-5.9-5.9L127.7,305.7l-5.9-5.9
				c-2.3-2.2-3.3-5.4-2.7-8.6c23.8-114.3,114-203,228.6-225.1l133.9,133.9C459.6,314.7,370.9,404.9,256.6,428.8z M429.9,428.4
				c0.5,3.7-1.3,7.4-4.5,9.3l-155,93.2l-0.8-0.8c13.4-24.5,29-59.5,17.7-92.1c47.8-14.6,91.3-40.7,126.6-76c2.4-2.4,4.6-4.9,6.8-7.3
				L429.9,428.4z"/>
			<path style="fill:#27AE60;" d="M394.8,153.1c-45.4-45.4-119-45.4-164.4,0.1s-45.4,119,0,164.4s119,45.4,164.4,0
				C440.1,272.1,440.1,198.5,394.8,153.1z M382.9,305.7c-38.9,38.8-101.8,38.8-140.7,0s-38.8-101.8,0-140.7s101.8-38.9,140.7,0
				C421.7,203.9,421.7,266.8,382.9,305.7z"/>
		</g>
	</g>
</g>
<g id="Слой_2">
</g>
</svg>
