<?xml version="1.0" encoding="utf-8"?>
<!-- Generator: Adobe Illustrator 21.0.2, SVG Export Plug-In . SVG Version: 6.00 Build 0)  -->
<svg version="1.1" id="Layer_1" xmlns="http://www.w3.org/2000/svg" xmlns:xlink="http://www.w3.org/1999/xlink" x="0px" y="0px"
	 viewBox="0 0 512.9 512.9" style="enable-background:new 0 0 512.9 512.9;" xml:space="preserve">
<g>
	<defs>
		<rect id="SVGID_1_" width="512.9" height="512.9"/>
	</defs>
	<clipPath id="SVGID_2_">
		<use xlink:href="#SVGID_1_"  style="overflow:visible;"/>
	</clipPath>
	
		<path style="clip-path:url(#SVGID_2_);fill:none;stroke:#00AF5A;stroke-width:17.419;stroke-linecap:round;stroke-miterlimit:10;" d="
		M37.8,139.9C79.5,61.8,161.8,8.7,256.4,8.7c136.8,0,247.7,110.9,247.7,247.7c0,136.8-110.9,247.7-247.7,247.7
		C119.6,504.2,8.7,393.3,8.7,256.4"/>
	<path style="clip-path:url(#SVGID_2_);fill:#00AF5A;" d="M14,204.1c0.5,0.2,1,0.4,1.5,0.5c0.6,0.1,1.1,0.2,1.7,0.2
		c2.3,0,4.4-0.9,6.1-2.5c0.8-0.8,1.4-1.8,1.8-2.8c1.3-3.2,0.6-6.8-1.8-9.3c-0.8-0.8-1.8-1.4-2.8-1.8c-1-0.4-2.1-0.7-3.2-0.7
		c-3.5,0-6.6,2.1-7.9,5.3c-1.3,3.2-0.6,6.9,1.9,9.3l1.3,1C13,203.7,13.5,203.9,14,204.1"/>
	<polygon style="clip-path:url(#SVGID_2_);fill:#FFFFFF;" points="50.9,444.4 75.8,469.3 140.6,437.8 82.5,379.7 	"/>
	<path style="clip-path:url(#SVGID_2_);fill:#35495E;" d="M254.1,205.2l-6-6c-4.8-4.8-11.3-7.5-18.1-7.5c-6.8,0-13.3,2.7-18.1,7.5
		l-24.1,24.1c-4.8,4.8-7.5,11.3-7.5,18.1s2.7,13.3,7.5,18.1l6,6l84.3,84.3l6,6c4.8,4.8,11.3,7.5,18.1,7.5c6.8,0,13.3-2.7,18.1-7.5
		l24.1-24.1c4.8-4.8,7.5-11.3,7.5-18.1c0-6.8-2.7-13.3-7.5-18.1l-6-6L254.1,205.2z"/>
	<path style="clip-path:url(#SVGID_2_);fill:#AFE0C3;" d="M465.5,128.3l-32.9,42.4l-60.3-60.3l4.8-3.8l37.5-29.1
		c6.8-5.3,16.4-4.7,22.5,1.4l27,27C470.2,111.9,470.7,121.5,465.5,128.3"/>
	<path style="clip-path:url(#SVGID_2_);fill:#DBE0EE;" d="M454.8,96.5c-0.3,3.3-1.5,6.5-3.5,9.1L418.4,148l-41.4-41.4l37.5-29.1
		c6.8-5.3,16.4-4.7,22.5,1.4L454.8,96.5z"/>
	<path style="clip-path:url(#SVGID_2_);fill:#AFE0C3;" d="M43.3,500.3L43.3,500.3c3.9,3.6,9.7,4,14,1l31.5-22.4l-24.1-24.1
		l-22.4,31.5C39.4,490.6,39.8,496.4,43.3,500.3"/>
	<path style="clip-path:url(#SVGID_2_);fill:#AFE0C3;" d="M254.1,205.2l-6-6c-4.8-4.8-11.3-7.5-18.1-7.5c-6.8,0-13.3,2.7-18.1,7.5
		l-24.1,24.1c-4.8,4.8-7.5,11.3-7.5,18.1s2.7,13.3,7.5,18.1l6,6l84.3,84.3l6,6c4.8,4.8,11.3,7.5,18.1,7.5c6.8,0,13.3-2.7,18.1-7.5
		l24.1-24.1c4.8-4.8,7.5-11.3,7.5-18.1c0-6.8-2.7-13.3-7.5-18.1l-6-6L254.1,205.2z"/>
	<path style="clip-path:url(#SVGID_2_);fill:#90BAE1;" d="M374.5,108.8l60.3,60.3c2.9,2.9,3.3,7.4,1,10.8l-25.2,37.3l-84.3-84.3
		l37.3-25.2C367.1,105.5,371.6,105.9,374.5,108.8"/>
	<polygon style="clip-path:url(#SVGID_2_);fill:#35495E;" points="55.4,452.1 91.5,488.2 163.8,464.1 79.5,379.8 	"/>
	<path style="clip-path:url(#SVGID_2_);fill:#B0D3F0;" d="M218,325.6L218,325.6c-10-10-10-26.2,0-36.1l60.2-60.2
		c10-10,26.2-10,36.1,0c10,10,10,26.2,0,36.1l-60.2,60.2C244.1,335.6,228,335.6,218,325.6"/>
	<path style="clip-path:url(#SVGID_2_);fill:#35495E;" d="M175.8,342.2c14.1,0,25.5,11.4,25.5,25.5c0,14.1-11.4,25.5-25.5,25.5
		c-14.1,0-25.5-11.4-25.5-25.5C150.3,353.7,161.7,342.2,175.8,342.2"/>
	<path style="clip-path:url(#SVGID_2_);fill:#AFE0C3;" d="M435.8,183.6l-25.2,36.9L163.8,464.4l-72.3,23.8l-13.1-13l-23-22.7l2-5.9
		l22.2-65.6l246.8-243.8l36.5-24.3l0.9-0.6c3.4-2.3,7.9-1.8,10.8,1l60.3,59.6C437.7,175.8,438.2,180.3,435.8,183.6"/>
	<path style="clip-path:url(#SVGID_2_);fill:#FFFFFF;" d="M385.7,123.1L352,145.8L105.2,392.5L83,458.9l7,7l-9.6,3.2l-23-23
		l22.2-66.4L326.4,133l36.5-24.6l0.9-0.6c1.5-1,3.3-1.5,5.1-1.5L385.7,123.1z"/>
	<path style="clip-path:url(#SVGID_2_);fill:#DBE0EE;" d="M416.4,163.6L391.2,201L144.3,447.8l-67.8,28.5l-7-7l35.7-76.8L352,145.8
		l33.7-22.6l29.7,29.7C418.3,155.7,418.7,160.2,416.4,163.6"/>
	<path style="clip-path:url(#SVGID_2_);fill:#AFE0C3;" d="M435.8,179.9l-25.2,37.4L394,200.6L326.4,133l1.2-0.8l36.2-24.4
		c0.6-0.4,1.2-0.7,1.8-0.9c0.5-0.2,1.1-0.3,1.6-0.3c2.7-0.5,5.4,0.4,7.3,2.3l60.3,60.3C437.7,172,438.2,176.5,435.8,179.9"/>
	<path style="clip-path:url(#SVGID_2_);fill:#FFFFFF;" d="M392.6,194.8l-0.9,1.5l-64.1-64.1l36.2-24.4c0.6-0.4,1.2-0.7,1.8-0.9
		c0.5-0.2,1.1-0.3,1.6-0.3l17.6,17.6c-0.5,0.2-1.1,0.4-1.5,0.8L347,149.3L392.6,194.8z"/>
	<path style="clip-path:url(#SVGID_2_);fill:#DBE0EE;" d="M414,163.2l-21.4,31.7L347,149.3l36.2-24.4c0.5-0.3,1-0.6,1.5-0.8
		l28.2,28.2C415.9,155.2,416.3,159.8,414,163.2"/>
	<path style="clip-path:url(#SVGID_2_);fill:#CEEFDB;" d="M218,325.6L218,325.6c-10-10-10-26.2,0-36.1l60.2-60.2
		c10-10,26.2-10,36.1,0c10,10,10,26.2,0,36.1l-60.2,60.2C244.1,335.6,228,335.6,218,325.6"/>
	<path style="clip-path:url(#SVGID_2_);fill:#CEEFDB;" d="M175.8,342.2c14.1,0,25.5,11.4,25.5,25.5c0,14.1-11.4,25.5-25.5,25.5
		c-14.1,0-25.5-11.4-25.5-25.5C150.3,353.7,161.7,342.2,175.8,342.2"/>
	<path style="clip-path:url(#SVGID_2_);fill:#27AE60;" d="M135.4,315.7c4.7,0,8.5,3.8,8.5,8.5c0,4.7-3.8,8.5-8.5,8.5
		c-4.7,0-8.5-3.8-8.5-8.5C126.8,319.6,130.6,315.7,135.4,315.7"/>
	<path style="clip-path:url(#SVGID_2_);fill:#27AE60;" d="M163.8,472.7c-2.3,0-4.4-0.9-6-2.5l-84.3-84.3c-1.6-1.6-2.5-3.8-2.5-6
		c0-2.3,0.9-4.4,2.5-6L95.2,352c3.3-3.3,8.7-3.3,12.1,0c3.3,3.3,3.3,8.7,0,12.1l-15.7,15.7l72.2,72.2l234.8-234.8L326.4,145
		L175.2,296.2c-3.3,3.3-8.7,3.3-12,0c-3.3-3.3-3.3-8.7,0-12l157.2-157.2c1.6-1.6,3.8-2.5,6-2.5c2.3,0,4.4,0.9,6,2.5l84.3,84.3
		c1.6,1.6,2.5,3.8,2.5,6c0,2.3-0.9,4.4-2.5,6L169.8,470.2C168.2,471.8,166.1,472.7,163.8,472.7"/>
	<path style="clip-path:url(#SVGID_2_);fill:#27AE60;" d="M410.7,225.8c-2.3,0-4.4-0.9-6-2.5L320.3,139c-1.8-1.8-2.7-4.3-2.5-6.9
		c0.2-2.5,1.6-4.8,3.7-6.3l37.3-25.2c6.8-4.5,15.8-3.7,21.6,2.1l60.3,60.3c5.8,5.8,6.6,14.8,2.1,21.6L417.7,222
		c-1.4,2.1-3.7,3.5-6.3,3.7C411.2,225.8,410.9,225.8,410.7,225.8 M339.7,134.2l69.7,69.7l19.4-28.8l-60.3-60.3L339.7,134.2z
		 M374.5,108.8l-6,6l0,0L374.5,108.8z"/>
	<path style="clip-path:url(#SVGID_2_);fill:#27AE60;" d="M434.8,177.7c-2.3,0-4.4-0.9-6-2.5l-60.3-60.3c-1.7-1.7-2.6-4.1-2.5-6.6
		c0.2-2.4,1.3-4.7,3.3-6.2l42.4-32.9c10.2-7.9,24.6-7,33.8,2.1l26.9,26.9c9.1,9.1,10,23.6,2.1,33.8l-32.9,42.4
		c-1.5,1.9-3.8,3.1-6.2,3.3C435.2,177.7,435,177.7,434.8,177.7 M387.4,109.6l46.6,46.6l27-34.7c2.6-3.4,2.3-8.2-0.7-11.2l-26.9-26.9
		c-3-3-7.8-3.3-11.2-0.7L387.4,109.6z"/>
	<path style="clip-path:url(#SVGID_2_);fill:#27AE60;" d="M91.5,496.8c-2.3,0-4.4-0.9-6-2.5l-36.1-36.1c-2.3-2.3-3.1-5.7-2.1-8.7
		l24.1-72.3c0.9-2.8,3.3-4.9,6.1-5.6c2.9-0.7,5.9,0.2,8,2.3l84.3,84.3c2.1,2.1,3,5.1,2.3,8c-0.7,2.9-2.8,5.2-5.6,6.1l-72.3,24.1
		C93.3,496.6,92.4,496.8,91.5,496.8 M65.1,449.8l28.7,28.7l54.2-18.1l-64.8-64.8L65.1,449.8z"/>
	<path style="clip-path:url(#SVGID_2_);fill:#27AE60;" d="M50.9,512c-5.1,0-10-2-13.6-5.6l0,0c-6.3-6.3-7.5-16.1-2.9-23.7l20-29.3
		c1.4-2.1,3.7-3.4,6.3-3.7c2.5-0.2,5,0.7,6.8,2.5l24.1,24.1c1.8,1.8,2.7,4.3,2.5,6.8c-0.2,2.5-1.6,4.8-3.7,6.3L61.5,509
		C58.3,510.9,54.6,511.9,50.9,512 M62.6,471.4l-13.9,20.3c-0.3,0.9,0,1.8,0.6,2.5l0,0c0.8,0.8,2,0.9,2.9,0.4L72.2,481L62.6,471.4z"
		/>
	<path style="clip-path:url(#SVGID_2_);fill:#27AE60;" d="M236,341.6c-9,0-17.7-3.6-24.1-10c-13.3-13.3-13.3-34.9,0-48.2l60.2-60.2
		c8.6-8.6,21.2-12,32.9-8.8c11.8,3.2,20.9,12.3,24.1,24.1c3.2,11.8-0.2,24.3-8.8,32.9l-60.2,60.2C253.7,338.1,245.1,341.7,236,341.6
		 M224,319.6c6.7,6.6,17.4,6.6,24.1,0l60.2-60.2c6.6-6.6,6.6-17.4,0-24.1c-6.6-6.6-17.4-6.6-24.1,0L224,295.5
		C217.4,302.2,217.4,313,224,319.6"/>
	<path style="clip-path:url(#SVGID_2_);fill:#27AE60;" d="M302.3,371.7c-9,0-17.7-3.6-24.1-10l-6-6c-3.3-3.3-3.3-8.7,0-12.1
		s8.7-3.3,12.1,0l6,6c6.7,6.6,17.4,6.6,24.1,0l24.1-24.1c6.6-6.7,6.6-17.4,0-24.1l-6-6c-3.3-3.3-3.3-8.7,0-12.1
		c3.3-3.3,8.7-3.3,12.1,0l6,6c13.3,13.3,13.3,34.9,0,48.2l-24.1,24.1C320,368.2,311.3,371.8,302.3,371.7"/>
	<path style="clip-path:url(#SVGID_2_);fill:#27AE60;" d="M193.9,274c-2.3,0-4.4-0.9-6-2.5l-6-6c-13.3-13.3-13.3-34.9,0-48.2
		l24.1-24.1c13.3-13.3,34.9-13.3,48.2,0l6,6c2.2,2.2,3,5.3,2.2,8.2s-3.1,5.2-6,6c-2.9,0.8-6.1-0.1-8.2-2.2l-6-6
		c-6.7-6.6-17.4-6.6-24.1,0l-24.1,24.1c-6.6,6.7-6.6,17.4,0,24.1l6,6c2.4,2.4,3.2,6.1,1.8,9.3C200.4,271.9,197.3,273.9,193.9,274z"
		/>
	<path style="clip-path:url(#SVGID_2_);fill:#27AE60;" d="M175.8,401.9c-13.8,0-26.2-8.3-31.5-21c-5.3-12.7-2.4-27.4,7.4-37.1
		c10.9-10.9,27.8-13.1,41.1-5.4c13.4,7.7,19.9,23.4,15.9,38.3C204.8,391.5,191.2,401.9,175.8,401.9 M175.8,350.8
		c-4.5,0-8.8,1.8-12,5c-5.7,5.7-6.6,14.7-2.1,21.5c4.5,6.7,13.2,9.4,20.7,6.3c7.5-3.1,11.8-11.1,10.2-19
		C190.9,356.5,183.9,350.8,175.8,350.8"/>
	<path style="clip-path:url(#SVGID_2_);fill:#27AE60;" d="M260.1,145.4c-11.3,0-22.1-4.5-30.1-12.5l-18.1-18.1
		c-3.3-3.3-3.3-8.7,0-12.1c3.3-3.3,8.7-3.3,12.1,0l18.1,18.1c10,10,26.1,10,36.1,0L386.6,12.5c16.6-16.6,43.6-16.6,60.2,0l18.1,18.1
		c16.6,16.6,16.6,43.6,0,60.2l-6,6c-2.2,2.2-5.3,3-8.3,2.2c-3-0.8-5.3-3.1-6-6c-0.8-3,0.1-6.1,2.2-8.3l6-6c10-10,10-26.1,0-36.1
		l-18.1-18.1c-10-10-26.1-10-36.1,0L290.2,132.9C282.3,140.9,271.4,145.4,260.1,145.4"/>
</g>
</svg>
