<?xml version="1.0" encoding="utf-8"?>
<!-- Generator: Adobe Illustrator 21.0.2, SVG Export Plug-In . SVG Version: 6.00 Build 0)  -->
<svg version="1.1" id="Layer_1" xmlns="http://www.w3.org/2000/svg" xmlns:xlink="http://www.w3.org/1999/xlink" x="0px" y="0px"
	 viewBox="0 0 512.9 512.9" style="enable-background:new 0 0 512.9 512.9;" xml:space="preserve">
<g>
	<defs>
		<rect id="SVGID_1_" x="0" y="0" width="512.9" height="512.9"/>
	</defs>
	<clipPath id="SVGID_2_">
		<use xlink:href="#SVGID_1_"  style="overflow:visible;"/>
	</clipPath>
	
		<path style="clip-path:url(#SVGID_2_);fill:none;stroke:#00AF5A;stroke-width:17.419;stroke-linecap:round;stroke-miterlimit:10;" d="
		M37.8,139.9C79.5,61.8,161.8,8.7,256.4,8.7c136.8,0,247.7,110.9,247.7,247.7c0,136.8-110.9,247.7-247.7,247.7
		C119.6,504.2,8.7,393.3,8.7,256.4"/>
	<path style="clip-path:url(#SVGID_2_);fill:#E7EBF4;" d="M449.2,148h23.3c4.3,0,7.8,3.5,7.8,7.8v286.9c0,4.3-3.5,7.8-7.8,7.8H293.3
		c-3.7,18.1-19.6,31-38,31c-18.4,0-34.3-13-38-31H38.2c-4.3,0-7.8-3.5-7.8-7.8V155.7c0-4.3,3.5-7.8,7.8-7.8H449.2z"/>
	<path style="clip-path:url(#SVGID_2_);fill:#CEEFDB;" d="M449.2,124.7v294.6c0-12.9-43.4-23.3-96.9-23.3c-40,0-74.4,5.8-89.2,14.1
		c-5,2.8-7.8,5.9-7.8,9.1c0-3.3-2.8-6.4-7.8-9.1c-14.8-8.3-49.2-14.1-89.2-14.1c-53.5,0-96.9,10.4-96.9,23.3V124.7
		c0-10.1,26.8-18.7,64.2-21.9H385C422.4,106,449.2,114.7,449.2,124.7"/>
	<path style="clip-path:url(#SVGID_2_);fill:#AFE0C3;" d="M480.2,155.7v286.9c0,4.3-3.5,7.7-7.8,7.8h-23.3c4.3,0,7.7-3.5,7.8-7.8
		V155.7c0-4.3-3.5-7.7-7.8-7.8h23.3C476.7,148,480.2,151.5,480.2,155.7"/>
	<path style="clip-path:url(#SVGID_2_);fill:#E7EBF4;" d="M449.2,124.7v294.6c0-5.8-8.8-11.1-23.3-15.1V124.7
		c0-10.1-26.8-18.7-64.2-21.9H385C422.4,106,449.2,114.7,449.2,124.7"/>
	<path style="clip-path:url(#SVGID_2_);fill:#E7EBF4;" d="M399.1,240.7c0.4,2.4,0.6,4.9,0.6,7.4c-0.2,22.1-16.5,40.6-38.4,43.7
		c-0.2,1.2-0.5,2.2-0.8,3.3c-0.2,0.6-0.4,1.2-0.5,1.9c-0.4,1.3-0.9,2.6-1.4,3.9c-0.4,1-0.9,2-1.4,3c-0.2,0.5-0.4,1.1-0.7,1.6
		c-0.4,0.8-0.8,1.5-1.2,2.2c-0.2,0.4-0.5,0.8-0.8,1.2c-0.9,1.5-1.8,2.9-2.9,4.2c-0.6,0.8-1.2,1.6-1.9,2.4c-2.6,3-5.6,5.8-8.9,8.1
		c-0.7,0.5-1.4,1-2.1,1.5c-2.1,1.4-4.4,2.7-6.7,3.7c-1.5,0.8-3,1.4-4.6,1.9c-1,0.4-2,0.7-3,1c-0.7,0.2-1.4,0.4-2.2,0.5
		c-1.7,0.5-3.5,0.9-5.3,1.1c-0.7,0.1-1.3,0.2-2,0.2c-2,0.3-4,0.4-6,0.4c-18.6,0.1-35.9-9.4-45.7-25.1c-5.1-8.1-7.8-17.4-7.8-27
		c0,9.5-2.7,18.9-7.8,27c-9.9,15.7-27.2,25.2-45.7,25.1c-2,0-4-0.1-6-0.4c-0.7,0-1.3-0.1-2-0.2c-1.8-0.2-3.6-0.6-5.3-1.1
		c-0.7-0.1-1.5-0.3-2.2-0.5c-1-0.3-2-0.6-3-1c-1.6-0.5-3.1-1.2-4.6-1.9c-2.3-1.1-4.6-2.3-6.7-3.7c-0.7-0.5-1.4-0.9-2.1-1.5
		c-3.3-2.4-6.3-5.1-8.9-8.1c-0.7-0.8-1.3-1.6-1.9-2.4c-1-1.3-2-2.7-2.9-4.2c-0.3-0.4-0.5-0.8-0.8-1.2c-0.5-0.8-0.9-1.5-1.2-2.2
		c-0.3-0.5-0.5-1-0.7-1.6c-0.5-1-1-2-1.4-3c-0.5-1.3-1-2.6-1.4-3.9c-0.2-0.6-0.4-1.2-0.5-1.9c-0.3-1.1-0.5-2.2-0.8-3.3
		c-21.8-3.1-38.1-21.7-38.4-43.7c0-2.5,0.2-4.9,0.6-7.4c0.2-0.9,0.4-1.9,0.6-2.9c0.3-1.4,0.7-2.8,1.2-4.2c0.4-1.2,0.9-2.3,1.4-3.4
		c1-2.2,2.2-4.3,3.5-6.3c0.6-1,1.3-2,2.1-2.9c-12.6-8.6-20.1-22.9-20.2-38.1c0-0.9,0.1-1.9,0.1-2.8c0-0.7,0.1-1.3,0.2-2
		c0.1-0.8,0.2-1.6,0.3-2.3c0.2-1,0.4-2,0.5-2.9c0.2-1.1,0.5-2.1,0.9-3.1c2-7,5.7-13.4,10.8-18.6c0.4-0.5,0.9-0.9,1.3-1.4
		c3.7-3.7,8.1-6.7,12.8-8.9c-3.6-6.2-5.5-13.3-5.5-20.5c0.3-23.3,19.5-42,42.8-41.7V76c0.1-11.9,5-23.3,13.5-31.6
		c8.5-8.3,20-12.9,31.9-12.8c14.3-0.4,28.1,5.5,37.7,16.1c5.1,6.1,7.9,13.8,7.8,21.7c-0.1-7.9,2.7-15.6,7.8-21.7
		c9.6-10.6,23.4-16.5,37.7-16.1c11.9-0.1,23.4,4.4,31.9,12.8c8.5,8.3,13.4,19.7,13.5,31.6v2.6c11.3,0,22.2,4.4,30.2,12.3
		c8,7.7,12.6,18.3,12.6,29.5c0,7.2-1.9,14.3-5.5,20.5c4.7,2.2,9.1,5.3,12.8,8.9c0.5,0.5,0.9,0.9,1.3,1.4c5,5.2,8.7,11.6,10.8,18.6
		c0.4,1,0.7,2,0.9,3.1c0.2,0.9,0.4,1.9,0.5,2.9c0.1,0.8,0.2,1.6,0.3,2.3c0.1,0.7,0.1,1.3,0.2,2c0,0.9,0.1,1.9,0.1,2.8
		c0,15.3-7.6,29.5-20.2,38.1c0.8,0.9,1.5,1.9,2.1,2.9c1.3,2,2.5,4.1,3.5,6.3c0.5,1.1,1,2.2,1.4,3.4c0.5,1.4,0.9,2.8,1.2,4.2
		C398.7,238.8,398.9,239.8,399.1,240.7"/>
	<path style="clip-path:url(#SVGID_2_);fill:#AFE0C3;" d="M399.1,240.7c0.4,2.4,0.6,4.9,0.6,7.4c-0.2,22.1-16.5,40.6-38.4,43.7
		c-0.2,1.2-0.5,2.2-0.8,3.3c-0.2,0.6-0.4,1.2-0.5,1.9c-0.4,1.3-0.9,2.6-1.4,3.9c-0.4,1-0.9,2-1.4,3c-0.2,0.5-0.4,1.1-0.7,1.6
		c-0.4,0.8-0.8,1.5-1.2,2.2c-0.2,0.4-0.5,0.8-0.8,1.2c-0.9,1.5-1.8,2.9-2.9,4.2c-0.6,0.8-1.2,1.6-1.9,2.4c-2.6,3-5.6,5.8-8.9,8.1
		c-0.7,0.5-1.4,1-2.1,1.5c-2.1,1.4-4.4,2.7-6.7,3.7c-1.5,0.8-3,1.4-4.6,1.9c-1,0.4-2,0.7-3,1c-0.7,0.2-1.4,0.4-2.2,0.5
		c-1.7,0.5-3.5,0.9-5.3,1.1c-0.7,0.1-1.3,0.2-2,0.2c-2,0.3-4,0.4-6,0.4c-4,0-7.9-0.4-11.8-1.2c0.6-0.1,1.3-0.3,1.9-0.5
		c0.7-0.1,1.5-0.3,2.2-0.5c1-0.3,2-0.6,3-1c1.6-0.5,3.1-1.2,4.6-1.9c2.3-1.1,4.6-2.3,6.7-3.7c0.7-0.5,1.4-0.9,2.1-1.5
		c3.3-2.4,6.3-5.1,8.9-8.1c0.7-0.8,1.3-1.6,1.9-2.4c1-1.3,2-2.7,2.9-4.2c0.3-0.4,0.5-0.8,0.8-1.2c0.5-0.8,0.9-1.5,1.2-2.2
		c0.3-0.5,0.5-1,0.7-1.6c0.5-1,1-2,1.4-3c0.5-1.3,1-2.6,1.4-3.9c0.2-0.6,0.4-1.2,0.5-1.9c0.3-1.1,0.5-2.2,0.8-3.3
		c21.8-3.1,38.1-21.7,38.4-43.7c0-2.5-0.2-4.9-0.6-7.4c-0.2-0.9-0.4-1.9-0.6-2.9c-0.3-1.4-0.7-2.8-1.2-4.2c-0.4-1.2-0.9-2.3-1.4-3.4
		c-1-2.2-2.2-4.3-3.5-6.3c-0.6-1-1.3-2-2.1-2.9c12.6-8.6,20.1-22.9,20.2-38.1c0-0.9-0.1-1.9-0.1-2.8c0-0.7-0.1-1.3-0.2-2
		c-0.1-0.8-0.2-1.6-0.3-2.3c-0.2-1-0.4-2-0.5-2.9c-0.2-1.1-0.6-2.1-0.9-3.1c-2-7-5.7-13.4-10.8-18.6c-0.4-0.5-0.9-0.9-1.3-1.4
		c-3.7-3.7-8.1-6.7-12.8-8.9c3.6-6.2,5.5-13.3,5.5-20.5c0-11.1-4.5-21.8-12.6-29.5c-8.1-7.9-18.9-12.3-30.2-12.3V76
		c-0.2-20.6-14.4-38.3-34.4-43c4-0.9,8.1-1.4,12.3-1.4c11.9-0.1,23.4,4.4,31.9,12.8c8.5,8.3,13.4,19.7,13.5,31.6v2.6
		c11.3,0,22.2,4.4,30.2,12.3c8,7.7,12.6,18.3,12.6,29.5c0,7.2-1.9,14.3-5.5,20.5c4.7,2.2,9.1,5.3,12.8,8.9c0.5,0.5,0.9,0.9,1.3,1.4
		c5,5.2,8.7,11.6,10.8,18.6c0.4,1,0.7,2,0.9,3.1c0.2,0.9,0.4,1.9,0.5,2.9c0.1,0.8,0.2,1.6,0.3,2.3c0.1,0.7,0.1,1.3,0.2,2
		c0,0.9,0.1,1.9,0.1,2.8c0,15.3-7.6,29.5-20.2,38.1c0.8,0.9,1.5,1.9,2.1,2.9c1.3,2,2.5,4.1,3.5,6.3c0.5,1.1,1,2.2,1.4,3.4
		c0.5,1.4,0.9,2.8,1.2,4.2C398.7,238.8,398.9,239.8,399.1,240.7"/>
	<path style="clip-path:url(#SVGID_2_);fill:#FFFFFF;" d="M38.2,450.4h23.3c-4.3,0-7.8-3.5-7.8-7.8V155.7c0-4.3,3.5-7.8,7.8-7.8
		H38.2c-4.3,0-7.8,3.5-7.8,7.8v286.9C30.5,446.9,33.9,450.4,38.2,450.4"/>
	<path style="clip-path:url(#SVGID_2_);fill:#FFFFFF;" d="M84.8,124.7c0-10.1,26.8-18.7,64.2-21.9c7.2-14.9,22.3-24.3,38.8-24.2V76
		c0.2-20.5,14.4-38.3,34.3-43c-4-0.9-8.1-1.4-12.2-1.4c-11.9-0.1-23.4,4.4-31.9,12.8c-8.5,8.3-13.4,19.7-13.5,31.6v2.6
		c-16.5-0.1-31.6,9.3-38.8,24.2c-37.4,3.3-64.2,11.9-64.2,21.9V148h23.3V124.7z"/>
	<path style="clip-path:url(#SVGID_2_);fill:#FFFFFF;" d="M61.5,155.7l-23.3,0l0,0l0,0v2.4v256.6l0,27.9l24.4,0h157.7
		c3.6-1.1,3.3,2.7,4.2,5c0.5,2.1,1.1,4.2,1.8,6.3c3.2,8.1,9.7,14.5,17.8,17.6c8.2,3.1,17.2,2.6,25-1.3c3.9-1.9,7.3-4.7,10-8
		c1.4-1.7,2.6-3.5,3.6-5.4c1.5-2.9,2.6-6,3.2-9.2c-0.3-7.4,7.3-4.6,12.2-5.1h121.5l52.7,0l0-64.2V184.8l0-29.1c-0.1,0,0,0,0,0
		l-7.1,0h-16.1v-15.5h23.2c0.6,0,1.3,0,1.9,0.1c6.9,0.8,12.4,6.2,13.5,13.1c0.1,0.7,0.2,1.3,0.2,2l0,1.1v221.9l0,64.9
		c-0.3,5.5-3.4,10.4-8.3,13c-2.3,1.2-4.9,1.8-7.5,1.8h-173c-0.7,2-1.5,4-2.6,5.9c-1.5,2.9-3.3,5.6-5.3,8.1c-4.1,5-9.2,9.1-15,12
		c-11.7,5.9-25.3,6.6-37.6,1.9c-12.2-4.7-21.9-14.3-26.7-26.5l-0.5-1.5h-173c-5.4,0.1-10.5-2.7-13.4-7.2c-1.5-2.3-2.3-4.9-2.4-7.6
		l0-4.4V155.7l0.1-1.6c0.7-6.5,5.3-11.8,11.6-13.4c1-0.3,2.1-0.4,3.1-0.5l1.9,0h22V155.7z"/>
	<path style="clip-path:url(#SVGID_2_);fill:#00AF5A;" d="M452,458.1h20.2c2.6,0,5.2-0.6,7.5-1.8c4.9-2.6,8-7.5,8.3-13l0-64.9V156.6
		l0-1.1c0-0.7-0.1-1.3-0.2-2c-1-6.9-6.5-12.3-13.5-13.1c-0.6-0.1-1.3-0.1-1.9-0.1h-15.4v-15.5c0-19.4-40.2-26.6-67.1-29.3
		c-7.8-13-21-21.8-36.1-24.1c-2.8-27.1-25.7-47.7-53-47.5c-17.6-0.5-34.4,7.3-45.5,21c-11.1-13.7-27.9-21.5-45.5-21
		c-27.3-0.2-50.2,20.3-53,47.5c-15,2.2-28.3,11-36.1,24.1c-26.9,2.7-67.1,9.9-67.1,29.3v15.5H38.2c-5.3,0-10.2,2.7-13,7.1
		c-1.1,1.7-1.6,3.7-1.6,5.7c0,0.9,0.2,1.7,0.5,2.5c0.2,0.5,0.6,0.9,0.9,1.2c1.4,1.5,3.4,2.3,5.5,2.3c2.1,0,4-0.8,5.5-2.3
		c0.4-0.3,0.7-0.8,1-1.1c0.2-0.1,0.5-0.1,0.7-0.1c0.2,0,0.4,0,0.6,0.1c0,0,0-0.1,0,0h15.5v263.6c-0.1,4.3,3.4,7.9,7.7,8.1
		c2,0.1,4-0.7,5.4-2.1c1.5-1.4,2.3-3.3,2.3-5.3c3-5.8,35.4-16.2,89.3-16.2s86.3,10.4,89.2,15.5c-0.1,4.3,3.4,7.9,7.7,8.1
		c2,0.1,4-0.7,5.4-2.1c1.5-1.4,2.3-3.3,2.3-5.3c3-5.8,35.4-16.2,89.3-16.2s86.3,10.4,89.2,15.5c0,4.3,3.5,7.8,7.8,7.8
		c4.3,0,7.8-3.5,7.8-7.8V155.7h8.4l7.1,0c0,0,0,0,0,0l0,29.1v193.6l0,64.2l-52.7,0H298.2c-4.9,0.6-12.5-2.3-12.2,5.1
		c-0.6,3.2-1.7,6.3-3.2,9.2c-1,1.9-2.2,3.7-3.6,5.4c-2.7,3.3-6.1,6.1-10,8c-7.8,3.9-16.9,4.4-25,1.3c-8.2-3.1-14.6-9.5-17.8-17.6
		c-0.7-2.1-1.3-4.2-1.8-6.3c-0.9-2.3-0.6-6.2-4.2-5H62.7l-24.4,0l0-27.9V213.4c0-4.3-3.5-7.8-7.8-7.8c-4.3,0-7.8,3.5-7.8,7.8v225.6
		l0,4.4c0.1,2.7,0.9,5.3,2.4,7.6c2.9,4.6,8,7.3,13.4,7.2h173l0.5,1.5c4.8,12.2,14.5,21.8,26.7,26.5c12.2,4.7,25.9,4,37.6-1.9
		c5.8-2.9,10.9-7,15-12c2.1-2.5,3.8-5.2,5.3-8.1c1-1.9,1.9-3.9,2.6-5.9H452z M300.8,39.4c18.7-0.2,34.7,13.6,37.2,32.1
		c-6,0.9-11.7,2.9-17,5.9c-3.7,2.1-5,6.8-3,10.6c2.1,3.7,6.8,5.1,10.5,3c5.3-3,11.4-4.6,17.5-4.6l0,0l0,0c19-0.3,34.7,14.9,35,34
		c0,3.6-0.6,7.2-1.8,10.6c-5.6-1.8-11.4-2.7-17.2-2.7c-4.3,0-7.8,3.5-7.8,7.8c0,4.3,3.5,7.8,7.8,7.8c6.2,0,12.3,1.4,17.9,4l0,0
		c4.1,2,7.8,4.6,11,7.8c0.3,0.2,0.5,0.5,0.8,0.8c4.3,4.5,7.4,9.9,9.1,15.9c0.3,0.7,0.5,1.5,0.6,2.2c0.2,0.8,0.4,1.6,0.5,2.2
		c0.1,0.6,0.2,1.2,0.3,2.6c0.1,0.4,0.1,0.8,0.1,1.2c0,0.7,0.1,1.5,0.1,2.3c-0.1,10.4-4.3,20.2-11.7,27.5c-6-5.6-13.2-9.8-21.1-12.1
		c-4.1-1.2-8.4,1.1-9.6,5.2c-1.2,4.1,1.1,8.4,5.2,9.6c7.5,2.2,14.1,6.7,18.8,12.9c0.6,0.7,1.1,1.4,1.6,2.3c1.1,1.6,2,3.3,2.9,5
		c0.4,0.8,0.7,1.6,1,2.5c0.1,0.2,0.2,0.4,0.2,0.7c0.4,1.1,0.7,2.2,1,3.4c0.2,0.7,0.4,1.5,0.5,2.2l0,0.1c0.3,1.9,0.5,3.9,0.5,5.9
		c-0.1,14.4-8.7,27.4-22,33.1c-0.1-12.8-4.4-25.2-12.3-35.3c-2.6-3.4-7.5-4-10.9-1.4c-3.4,2.6-4,7.5-1.4,10.9
		c5.9,7.6,9.1,16.9,9.1,26.5c0,2.8-0.3,5.6-0.8,8.4v0l0,0.1c-0.2,0.8-0.4,1.7-0.6,2.5c0,0.1-0.2,0.7-0.2,0.8l-0.4,1.2
		c-0.3,1.1-0.7,2.2-1.2,3.2c-0.3,0.7-0.6,1.4-0.9,2c-0.1,0.2-0.4,0.9-0.5,1.2c-0.1,0.2-0.3,0.5-0.4,0.7c-0.2,0.5-0.4,0.9-0.7,1.3
		c-0.1,0.2-0.3,0.5-0.4,0.7l-0.4,0.7c-0.8,1.2-1.6,2.4-2.4,3.5l-1.6,2.1c-2.3,2.7-4.9,5-7.7,7.1c-0.6,0.4-1.1,0.8-1.7,1.2
		c-1.9,1.2-3.9,2.3-5.9,3.3c-1.2,0.6-2.5,1.1-3.8,1.6c-0.9,0.3-1.8,0.6-2.6,0.9c-0.5,0.2-1.1,0.3-2,0.5c-1.5,0.4-3,0.7-4.5,0.9
		c-0.4,0.1-0.9,0.1-1.8,0.2c-1.7,0.2-3.4,0.3-5.1,0.3c-24.9,0.3-45.3-19.5-45.7-44.4c0-0.2-0.1-0.4-0.1-0.7c0-0.2,0.1-0.4,0.1-0.7
		v-8.6h23.3v15.5c0,4.3,3.5,7.8,7.8,7.8c4.3,0,7.8-3.5,7.8-7.8v-23.3c0-2.1-0.8-4-2.3-5.5c-1.5-1.5-3.4-2.3-5.5-2.3h-31V241h31
		c4.3,0,7.8-3.5,7.8-7.8c0-4.3-3.5-7.8-7.8-7.8h-31v-23.3h38.8c2.1,0,4-0.8,5.5-2.3c1.5-1.5,2.3-3.4,2.3-5.5V179h31
		c4.3,0,7.8-3.5,7.8-7.8c0-4.3-3.5-7.8-7.8-7.8h-38.8c-2.1,0-4,0.8-5.5,2.3c-1.5,1.5-2.3,3.4-2.3,5.5v15.5h-31V148h31
		c4.3,0,7.8-3.5,7.8-7.8c0-4.3-3.5-7.8-7.8-7.8h-31V93.7h23.3v7.8c0,4.3,3.5,7.8,7.8,7.8c4.3,0,7.8-3.5,7.8-7.8V86
		c0-2.1-0.8-4-2.3-5.5c-1.5-1.5-3.4-2.3-5.5-2.3h-31v-7.8c0-0.2-0.1-0.3-0.1-0.5c0-0.2,0.1-0.3,0.1-0.5
		C263.1,50,282.5,39.4,300.8,39.4 M164.5,86.4c5.9,0,11.8,1.4,17,4.3c2.4,1.3,5.4,1.2,7.8-0.2s3.8-4,3.7-6.8
		c-0.1-2.8-1.6-5.3-4.1-6.6c-5.1-2.7-10.6-4.6-16.2-5.4c2.6-18.6,18.5-32.3,37.2-32.1c18.3,0,37.7,10.5,37.7,30
		c0,0.2,0.1,0.3,0.1,0.5c0,0.2-0.1,0.3-0.1,0.5v7.8h-23.3v-7.8c0-4.3-3.5-7.8-7.8-7.8c-4.3,0-7.8,3.5-7.8,7.8V86
		c0,2.1,0.8,4,2.3,5.5c1.5,1.5,3.4,2.3,5.5,2.3h31v15.5h-31c-4.3,0-7.8,3.5-7.8,7.8c0,4.3,3.5,7.8,7.8,7.8h31V148h-38.8
		c-2.1,0-4,0.8-5.5,2.3c-1.5,1.5-2.3,3.4-2.3,5.5v7.8h-31c-4.3,0-7.8,3.5-7.8,7.8c0,4.3,3.5,7.8,7.8,7.8h38.8c2.1,0,4-0.8,5.5-2.3
		c1.5-1.5,2.3-3.4,2.3-5.5v-7.8h31v38.8h-31c-4.3,0-7.8,3.5-7.8,7.8c0,4.3,3.5,7.8,7.8,7.8h31v38.8h-31V241c0-4.3-3.5-7.8-7.8-7.8
		c-4.3,0-7.8,3.5-7.8,7.8v23.3c0,2.1,0.8,4,2.3,5.5c1.5,1.5,3.4,2.3,5.5,2.3h38.8v8.6c0,0.2,0.1,0.4,0.1,0.7c0,0.2-0.1,0.4-0.1,0.7
		c-0.4,24.9-20.9,44.7-45.7,44.4c-1.8,0-3.7-0.1-5.5-0.3c-0.5,0-0.9-0.1-1.5-0.2c-1.6-0.2-3.1-0.5-4.6-0.9c-0.5-0.1-1.1-0.3-1.6-0.4
		c-0.9-0.3-1.8-0.6-2.6-0.8c-1.4-0.5-2.7-1.1-4-1.7c-2-0.9-3.9-2-5.7-3.2c-0.6-0.4-1.1-0.8-1.8-1.3c-2.8-2-5.3-4.3-7.6-6.9l-1.7-2.1
		c-0.9-1.1-1.7-2.3-2.4-3.5l-0.4-0.7c-0.1-0.3-0.3-0.5-0.4-0.8c-0.3-0.4-0.5-0.9-0.7-1.3c-0.1-0.2-0.4-0.9-0.6-1.2
		c-0.1-0.2-0.2-0.5-0.3-0.7c-0.4-0.8-0.7-1.5-1-2.3c-0.4-1-0.8-1.9-1-2.9c0-0.1-0.3-1-0.4-1.1c-0.1-0.3-0.1-0.6-0.2-0.9
		c-0.3-0.8-0.5-1.7-0.6-2.5l0-0.1v0c-0.5-2.8-0.8-5.6-0.8-8.4c0-9.6,3.2-19,9.1-26.5c2.6-3.4,2-8.2-1.4-10.9
		c-3.4-2.6-8.2-2-10.9,1.4c-7.8,10.1-12.1,22.5-12.3,35.3c-13.3-5.7-21.9-18.7-22-33.1c0-2,0.2-4,0.5-6c0.1-0.7,0.3-1.5,0.6-2.6
		c0.2-1.2,0.6-2.4,1-3.5c0.3-0.9,0.7-1.7,1-2.6c0.9-1.8,1.9-3.6,3-5.3c0.5-0.7,1-1.4,1.5-2.1c0.1-0.1,0.1-0.1,0.2-0.2
		c4.8-6.1,11.3-10.5,18.7-12.7c4.1-1.2,6.4-5.5,5.2-9.6c-1.2-4.1-5.5-6.5-9.6-5.2c-7.9,2.3-15.1,6.5-21.1,12.1
		c-7.4-7.2-11.6-17.1-11.7-27.5c0-0.8,0-1.6,0.1-2.8c0-0.5,0.1-1,0.1-1.5c0-0.6,0.1-1.2,0.2-1.6c0.1-0.8,0.3-1.7,0.5-2.6
		c0.2-0.9,0.4-1.7,0.7-2.5c1.7-5.8,4.8-11.2,9.1-15.5c0.3-0.4,0.7-0.7,1.1-1.1c3.1-3.1,6.7-5.6,10.7-7.5l0,0
		c5.6-2.7,11.7-4.1,17.9-4c4.3,0,7.8-3.5,7.8-7.8c0-4.3-3.5-7.8-7.8-7.8c-5.8,0-11.6,0.9-17.2,2.7c-1.2-3.4-1.8-7-1.8-10.6
		C129.7,101.3,145.4,86.1,164.5,86.4 M158.4,388.4c-8,0-62,0.5-89.2,13.2V125.2c1.9-3,15.5-9.7,45.5-13.5
		c-1.6,8.7-0.8,17.6,2.4,25.8c-2.8,1.8-5.4,3.9-7.8,6.3c-0.7,0.6-1.3,1.2-1.9,1.9c-5.8,6-10.1,13.3-12.5,21.3
		c-0.5,1.3-0.8,2.7-1.1,4c-0.3,1.1-0.5,2.2-0.7,3.6c-0.1,0.7-0.2,1.4-0.2,2.1c-0.2,0.9-0.2,1.9-0.3,2.8c-0.1,1-0.1,2.1-0.1,3.2
		c0,15.1,6.4,29.5,17.5,39.7c-0.8,1.4-1.6,2.9-2.3,4.5c-0.6,1.3-1.2,2.7-1.4,3.6c0,0.1-0.1,0.2-0.1,0.4l0,0.1l0,0
		c-0.6,1.5-1,3-1.3,4.6c-0.3,1.2-0.6,2.5-0.8,3.6c-0.5,2.9-0.8,5.8-0.8,8.7c0.1,24,16.5,44.8,39.8,50.4c0.1,0.2,0.1,0.4,0.2,0.6
		c0.4,1.6,1,3.1,1.6,4.6c0.4,1.1,0.9,2.2,1.4,3.2c0.3,0.8,0.7,1.5,1,2.2c0.4,0.9,0.9,1.7,1.4,2.5c0.3,0.5,0.6,1,0.9,1.4
		c1,1.7,2.1,3.3,3.3,4.8c0.7,0.8,1.3,1.6,2.2,2.7c3,3.5,6.4,6.6,10.1,9.3c0.8,0.6,1.5,1.1,2.5,1.8c2.4,1.6,5,3,7.6,4.2
		c1.7,0.8,3.5,1.6,5.4,2.3c1.1,0.4,2.3,0.8,3.5,1.1c0.8,0.3,1.8,0.5,2.3,0.6c2,0.5,4,0.9,6,1.2c0.9,0.1,1.8,0.3,2.3,0.3
		c2.4,0.3,4.7,0.4,7.1,0.4c17.4,0,34-7.4,45.7-20.3v80C220.4,388.9,166.4,388.4,158.4,388.4 M352.3,388.4c-8,0-62,0.5-89.2,13.2v-80
		c11.7,12.9,28.3,20.3,45.7,20.3c2.2,0,4.5-0.1,6.7-0.4c0.9-0.1,1.9-0.2,2.6-0.3c2-0.3,3.9-0.6,5.8-1.2c0.8-0.2,1.8-0.4,2.7-0.7
		c1.1-0.3,2.3-0.7,3.5-1.1c1.8-0.7,3.6-1.4,5.2-2.2c2.7-1.3,5.4-2.8,7.9-4.4c0.8-0.5,1.5-1.1,2.2-1.5c3.9-2.8,7.4-6.1,10.5-9.7
		c0.7-0.8,1.3-1.6,1.9-2.4c1.2-1.5,2.3-3.1,3.3-4.7c0.3-0.5,0.6-1,0.9-1.5c0.5-0.8,1-1.7,1.4-2.5c0.3-0.6,0.7-1.3,0.9-1.9
		c0.5-1,1-2.1,1.4-3.2c0.6-1.5,1.2-2.9,1.6-4.5c0.1-0.3,0.2-0.7,0.3-1c23.3-5.6,39.7-26.4,39.8-50.4c0-2.9-0.2-5.8-0.8-8.6
		c-0.2-1.1-0.4-2.2-0.7-3.3c-0.3-1.7-0.8-3.3-1.4-4.9c-0.4-1.4-1-2.8-1.6-4.1l0-0.1l0-0.1c-0.1-0.1-0.1-0.2-0.2-0.3
		c-0.6-1.4-1.3-2.7-2.1-4c11.1-10.2,17.5-24.6,17.5-39.7c0-1.1-0.1-2.2-0.1-2.8c0-0.9,0-1.7-0.2-2.6c-0.1-1-0.2-1.9-0.3-3.1
		c-0.2-1.2-0.4-2.3-0.6-3.2c-0.2-1.3-0.6-2.5-1-3.7c-2.4-8.1-6.7-15.6-12.5-21.7c-0.5-0.6-1-1.1-1.6-1.6c-2.5-2.5-5.2-4.7-8.2-6.6
		c3.2-8.2,4-17.2,2.4-25.8c30.5,3.8,44.1,10.7,45.5,13v276.8C414.3,388.9,360.2,388.4,352.3,388.4"/>
	<path style="clip-path:url(#SVGID_2_);fill:#00AF5A;" d="M27.5,189.5c0.9,0.4,1.9,0.6,2.9,0.6c2.1,0,4-0.8,5.5-2.2c3-3.1,3-8,0-11
		l-1.2-0.9c-0.4-0.3-0.9-0.5-1.4-0.7c-0.4-0.2-0.9-0.4-1.4-0.5c-0.5-0.1-1-0.1-1.5-0.2c-2.1,0-4,0.8-5.5,2.2c-2.9,3.1-2.9,7.9,0,11
		C25.7,188.5,26.6,189.1,27.5,189.5"/>
	<path style="clip-path:url(#SVGID_2_);fill:#00AF5A;" d="M177.8,217.8h7.8c4.3,0,7.8-3.5,7.8-7.8c0-4.3-3.5-7.8-7.8-7.8h-7.8
		c-4.3,0-7.8,3.5-7.8,7.8C170,214.3,173.5,217.8,177.8,217.8"/>
	<path style="clip-path:url(#SVGID_2_);fill:#00AF5A;" d="M177.8,124.7h7.8c4.3,0,7.8-3.5,7.8-7.8c0-4.3-3.5-7.8-7.8-7.8h-7.8
		c-4.3,0-7.8,3.5-7.8,7.8C170,121.3,173.5,124.7,177.8,124.7"/>
	<path style="clip-path:url(#SVGID_2_);fill:#00AF5A;" d="M325.1,148h7.8c4.3,0,7.8-3.5,7.8-7.8c0-4.3-3.5-7.8-7.8-7.8h-7.8
		c-4.3,0-7.8,3.5-7.8,7.8C317.4,144.5,320.8,148,325.1,148"/>
	<path style="clip-path:url(#SVGID_2_);fill:#00AF5A;" d="M332.9,225.5h-7.8c-4.3,0-7.8,3.5-7.8,7.8c0,4.3,3.5,7.8,7.8,7.8h7.8
		c4.3,0,7.8-3.5,7.8-7.8C340.6,229,337.2,225.5,332.9,225.5"/>
</g>
</svg>
