<?xml version="1.0" encoding="utf-8"?>
<!-- Generator: Adobe Illustrator 21.0.2, SVG Export Plug-In . SVG Version: 6.00 Build 0)  -->
<svg version="1.1" id="Capa_1" xmlns="http://www.w3.org/2000/svg" xmlns:xlink="http://www.w3.org/1999/xlink" x="0px" y="0px"
	 viewBox="-49 141 512 512" style="enable-background:new -49 141 512 512;" xml:space="preserve">
<g transform="translate(0 -1)">
	<g transform="translate(0 1)">
		<g>
			<path style="fill:#E3E7F2;" d="M403.3,388.5v-59.7H12.8l-0.1-0.1l-3.4-3.3c-1.6-1.5-3.8-2.4-6.1-2.4H0.6l1.9,5.8H2.2v59.7
				c0,4.7,3.8,8.5,8.5,8.5h8.5v161.2c-9.6-11.1-18.2-23-25.6-35.7c-64-108.8-36-248.3,65.1-323.8s242.8-63,329,29.3
				s89.2,234.5,6.9,330.2V397c2.8,0,5.4-1.4,7-3.7C402.7,391.9,403.3,390.2,403.3,388.5z"/>
			<path style="fill:#E3E7F2;" d="M403.3,328.7v59.7c0,1.7-0.5,3.4-1.5,4.9c-1.6,2.3-4.2,3.7-7,3.7v161.2
				c-7.9,9.2-16.4,17.8-25.6,25.7c-11.3,10-23.6,18.8-36.6,26.5c-103.3,60.9-235.3,38.9-313.3-52.1V397h-8.5c-4.7,0-8.5-3.8-8.5-8.5
				v-59.7h0.3l-1.9-5.8h2.6c2.2,0,4.4,0.9,6.1,2.4l3.4,3.3l0.1,0.1H403.3z"/>
		</g>
		<path style="fill:#AFE0C3;" d="M394.7,397v196.3c0,9.4-7.7,17-17.1,17.1H36.3c-9.4,0-17-7.7-17.1-17.1V397H394.7z"/>
		<path style="fill:#E3E7F2;" d="M369.1,397v196.3c0,9.4-7.7,17-17.1,17.1H36.3c-9.4,0-17-7.7-17.1-17.1V397H369.1z"/>
		<path style="fill:#CEEFDB;" d="M403.3,328.7v59.7c0,1.7-0.5,3.4-1.5,4.9c-1.6,2.3-4.2,3.7-7,3.7h-384c-4.7,0-8.5-3.8-8.5-8.5
			v-59.7H403.3z"/>
		<path style="fill:#FFFFFF;" d="M96.1,456.7h213.3c4.7,0,8.5,3.8,8.5,8.5v68.3c0,4.7-3.8,8.5-8.5,8.5H96.1c-4.7,0-8.5-3.8-8.5-8.5
			v-68.3C87.5,460.6,91.4,456.7,96.1,456.7z"/>
		<path style="fill:#CEEFDB;" d="M387.8,216.7l-8.6,2.6h-0.1l-56,16.7l-11.7,3.5l-0.1,0.1l-11.6,3.5h-0.1l-53.5,15.9l-11.7,3.5
			l-11.3,3.4l-54.2,16.2l-11.5,3.4h-0.1l-11.5,3.4h-0.1L91.9,305l-11.6,3.5l-11.5,3.4h-0.1l-53.8,16l-2.2,0.7l-0.3,0.1l-9.1,2.7
			v-0.2l-0.9-2.6l-1.9-5.8l-0.9-2.8l-12-37.8l-2.1-6.7c-0.7-2.2-0.4-4.6,0.8-6.7c1.1-2,3.1-3.5,5.3-4.1l7.5-2.2l38.1-11.3l11.7-3.5
			l11.5-3.4h0.1l53.8-16.1l11.6-3.5l11.3-3.4h0.1l54-16.1l11.5-3.4l11.4-3.4l53.9-16h0.1l11.6-3.5l11.4-3.5h0.1l15.5-4.7h0.1
			l38.2-11.3h0.1l8.4-2.6l4.9-1.5c1.8-0.6,3.7-0.6,5.5,0l2.2,1.2v0.1c1.6,1,2.9,2.5,3.6,4.3L387.8,216.7z"/>
	</g>
	<g transform="translate(1 2)">
		<path style="fill:#FFFFFF;" d="M80.5,609.3c38,22.4,81.4,34.2,125.5,34.1c4.3,0,8.6-0.2,12.8-0.4c-39.7-2-78.4-13.5-112.7-33.7
			H80.5z"/>
		<path style="fill:#FFFFFF;" d="M365.5,155.5l-2.2-1.2c-1.8-0.6-3.7-0.6-5.5,0l-4.9,1.5l-8.4,2.6h-0.1l-23.3,6.9
			c3.6,1.4,7.2,2.9,10.7,4.4h0l36.7-10.9C367.7,157.5,366.7,156.4,365.5,155.5L365.5,155.5z"/>
		<path style="fill:#FFFFFF;" d="M-1.8,261.7L-1.8,261.7l-7.6,2.2c-2.2,0.6-4.2,2.1-5.3,4.1c-1.1,2-1.4,4.4-0.8,6.7l2.1,6.7l0,0
			c-39.6,75.7-37.3,166.5,6,240.2c7.4,12.7,16,24.6,25.6,35.7v35.1c0,9.4,7.7,17,17.1,17.1h25.6c-9.4,0-17-7.7-17.1-17.1v-35.1
			c-9.6-11.1-18.2-23-25.6-35.7c-43.3-73.7-45.5-164.5-6-240.2l0,0l-2.1-6.7c-0.7-2.2-0.4-4.6,0.8-6.7c1.1-2,3.1-3.5,5.3-4.1
			l7.5-2.2l0.1,0c43.1-66.8,115.6-108.7,195-112.8c-4.2-0.2-8.5-0.3-12.8-0.3C122,148.5,43.7,191.1-1.8,261.7z"/>
	</g>
	<g>
		<path style="fill:#FFFFFF;" d="M-4.8,287.3c-16.6,31.8-25.9,66.9-27,102.7l-0.1,8H-49l0.2-8.6c1.3-38.4,11.2-76,29-110.1
			L-4.8,287.3z"/>
		<g>
			<path style="fill:#00AF5A;" d="M-39.9,354.5c0.9,0.6,2,1,3.1,1.2c2.2,0.3,4.5-0.1,6.4-1.4c1.8-1.3,3.1-3.1,3.6-5.3
				c0.4-2.2,0-4.4-1.1-6.3l-1-1.3c-0.4-0.4-0.8-0.8-1.3-1.1c-0.4-0.4-0.9-0.6-1.4-0.9c-0.5-0.2-1.1-0.4-1.6-0.6
				c-2.2-0.5-4.5-0.1-6.5,1c-4,2.7-5.1,8.1-2.5,12.1C-41.7,353.1-40.9,353.9-39.9,354.5z"/>
			<path style="fill:#00AF5A;" d="M96.1,449.2c-9.4,0-17.1,7.6-17.1,17.1v68.3c0,9.4,7.6,17.1,17.1,17.1h213.3
				c9.4,0,17.1-7.6,17.1-17.1v-68.3c0-9.4-7.6-17.1-17.1-17.1H96.1z M96.1,534.5v-68.3h213.3l0,68.3H96.1z"/>
			<path style="fill:#00AF5A;" d="M395.4,221.7c1.1-2,1.3-4.4,0.6-6.6l-17.8-55.8c-3.1-9-12.7-13.9-21.8-11.1l-48.8,14.5
				C194.1,114,62.1,153.5-6.2,256.3l-4.7,1.4c-4.5,1.4-8.3,4.5-10.6,8.7c-2.1,4-2.5,8.6-1.1,12.9l1.1,3.4c-4.8,9.4-9,19.1-12.6,29
				c-0.8,2.2-0.7,4.5,0.3,6.6c1,2.1,2.8,3.6,5,4.4c4.4,1.4,9.1-0.9,10.8-5.2c1.3-3.6,2.8-7,4.2-10.5l7.4,23.4v59.2
				c0,9.4,7.6,17.1,17.1,17.1V534c-27.7-39.9-42.6-87.4-42.7-136l0.1-8l0.4-8.2c0.2-4.6-3.2-8.6-7.8-9.1c-2.3-0.2-4.6,0.5-6.3,2
				c-1.7,1.5-2.8,3.6-2.9,5.9l-0.5,8.8L-49,398c0,60.1,21.2,118.2,59.7,164.3v32c0,14.1,11.5,25.6,25.6,25.6h43
				c79,45.5,176.3,45.5,255.4,0h43c14.1,0,25.6-11.5,25.6-25.6v-32c83-99.1,79.1-244.6-9.2-339C394.6,222.8,395,222.3,395.4,221.7z
				 M377,212l-0.4,0.1l-47.8,14.3l33.3-61L377,212z M20.7,318.4l34.1-62.4l53.8-16.1l-34.1,62.4L20.7,318.4z M343.9,338.3h50.8
				l0,49.3L343.9,338.3z M319.5,338.3c0.1,0.1,0.1,0.2,0.2,0.3l52.5,50.9h-56.1l-52.8-51.2H319.5z M238.9,338.3
				c0.1,0.1,0.1,0.2,0.2,0.3l52.5,50.9h-56l-52.9-51.2H238.9z M158.3,338.3c0.1,0.1,0.1,0.2,0.2,0.3l52.5,50.9h-56.1l-52.8-51.2
				H158.3z M77.7,338.3c0.1,0.1,0.1,0.2,0.2,0.3l52.5,50.9h-56l-52.8-51.2H77.7z M10.7,389.5v-37.9l39.1,37.9H10.7z M1.1,272
				l0.2-0.1l30.2-9L5.4,310.8l-9.6-30.1l-1.8-6.6L1.1,272z M131.8,232.9l53.8-16.1l-34.1,62.4l-53.8,16.1L131.8,232.9z M208.9,209.9
				l53.8-16.1l-34.1,62.5l-53.9,16.1L208.9,209.9z M285.9,186.9L309,180c0.2,0,0.4-0.1,0.6-0.2l30.1-8.9l-34.1,62.4l-53.8,16
				L285.9,186.9z M207,159.1c25,0,49.9,3.9,73.7,11.6L20.9,248.2C66.1,191.8,134.6,158.9,207,159.1z M207,636.9
				c-30.3,0-60.4-5.8-88.5-17.1h177.1C267.4,631.1,237.3,636.9,207,636.9z M386.2,594.3c0,4.7-3.8,8.5-8.5,8.5H36.3
				c-4.7,0-8.5-3.8-8.5-8.5V406.5h358.4V594.3z M403.3,534V404.2c5.3-3,8.5-8.6,8.5-14.7v-59.7c0-4.7-3.8-8.5-8.5-8.5H70.9l11.6-3.5
				l0.1,0l76.7-22.9l0,0c0.2,0,0.3-0.1,0.5-0.1l0.1,0l153.9-45.9c0.3-0.1,0.6-0.2,0.9-0.3l62-18.5C457.8,311.6,469,439.5,403.3,534z
				"/>
		</g>
	</g>
</g>
</svg>
