<svg width="134" height="130" viewBox="0 0 134 130" fill="none" xmlns="http://www.w3.org/2000/svg">
<path d="M65.2187 122.478C62.6232 122.478 60.0277 122.263 57.6484 122.049C56.9996 122.049 56.567 121.405 56.7833 120.762C56.7833 120.118 57.4321 119.689 58.081 119.904C60.4603 120.118 62.8395 120.333 65.435 120.333C66.0839 120.333 66.5165 120.762 66.5165 121.405C66.3002 122.049 65.8676 122.478 65.2187 122.478ZM72.789 122.049C72.1401 122.049 71.7075 121.62 71.7075 121.191C71.7075 120.547 72.1401 120.118 72.5727 119.904C74.9519 119.689 77.3311 119.046 79.7104 118.402C80.3593 118.188 81.0081 118.617 81.0081 119.26C81.2244 119.904 80.7918 120.547 80.143 120.547C77.98 121.191 75.3845 121.62 72.789 122.049ZM50.5107 120.547H50.2945C47.9152 119.904 45.3197 119.046 43.1568 118.188C42.5079 117.973 42.2916 117.33 42.5079 116.686C42.7242 116.043 43.3731 115.828 44.0219 116.043C46.1849 116.901 48.5641 117.759 50.9433 118.402C51.5922 118.617 51.8085 119.26 51.8085 119.689C51.3759 120.333 50.9433 120.547 50.5107 120.547ZM87.2806 118.188C86.8481 118.188 86.4155 117.973 86.1992 117.544C85.9829 116.901 86.1992 116.257 86.8481 116.043C89.011 115.185 91.3902 114.112 93.3369 112.825C93.7694 112.611 94.6346 112.611 94.8509 113.254C95.0672 113.683 95.0672 114.541 94.4183 114.756C92.2554 116.043 89.8762 117.115 87.4969 118.188H87.2806ZM36.668 114.97C36.4517 114.97 36.2354 114.97 36.0191 114.756C33.8562 113.469 31.6932 112.182 29.7466 110.466C29.314 110.037 29.0977 109.393 29.5303 108.964C29.9629 108.535 30.6118 108.321 31.0443 108.75C32.991 110.251 34.9376 111.538 37.1006 112.825C37.5331 113.04 37.7494 113.898 37.5331 114.327C37.5331 114.756 37.1006 114.97 36.668 114.97ZM100.042 110.68C99.6094 110.68 99.3931 110.466 99.1768 110.251C98.7442 109.822 98.9605 109.179 99.3931 108.75C101.34 107.248 103.07 105.746 104.8 104.03C105.233 103.601 105.882 103.601 106.314 104.03C106.747 104.459 106.747 105.103 106.314 105.532C104.584 107.248 102.637 108.964 100.691 110.466C100.475 110.68 100.258 110.68 100.042 110.68ZM24.7718 105.961C24.5555 105.961 24.1229 105.961 23.9067 105.747C22.1763 104.03 20.446 102.1 18.9319 100.169C18.4993 99.7403 18.7156 99.0968 19.1482 98.6678C19.5808 98.2388 20.2297 98.4533 20.6623 98.8823C22.1763 100.813 23.6904 102.529 25.4207 104.245C25.8533 104.674 25.8533 105.317 25.4207 105.747C25.4207 105.747 25.2044 105.961 24.7718 105.961ZM110.64 100.384C110.424 100.384 110.208 100.384 109.991 100.169C109.559 99.7403 109.343 99.0968 109.775 98.6678C111.289 96.7372 112.587 94.8067 113.885 92.6616C114.101 92.2326 114.966 92.0181 115.399 92.2326C115.831 92.4471 116.048 93.3051 115.831 93.7342C114.534 95.8792 113.236 98.0243 111.506 99.9548C111.289 100.169 111.073 100.384 110.64 100.384ZM15.6875 94.1632C15.2549 94.1632 15.0386 93.9487 14.8223 93.5196C13.5246 91.3746 12.4431 89.015 11.3616 86.6554C11.1453 86.0119 11.3616 85.3684 12.0105 85.1539C12.6594 84.9394 13.3083 85.1539 13.5246 85.7974C14.3897 87.9425 15.4712 90.302 16.769 92.2326C16.9853 92.6616 16.9853 93.5196 16.3364 93.7342C16.1201 94.1632 15.9038 94.1632 15.6875 94.1632ZM118.211 87.5135C117.994 87.5135 117.994 87.5135 117.778 87.5135C117.129 87.299 116.913 86.6554 117.129 86.0119C117.994 83.8669 118.859 81.5073 119.508 79.1477C119.725 78.5042 120.374 78.2897 120.806 78.2897C121.455 78.5042 121.671 79.1477 121.671 79.5767C121.022 81.9363 120.157 84.5104 119.292 86.6554C118.859 87.299 118.643 87.5135 118.211 87.5135ZM10.0639 80.6493C9.63129 80.6493 9.1987 80.2203 8.98241 79.7912C8.33353 77.2172 7.68465 74.8576 7.46835 72.2835C7.46835 71.64 7.90094 71.211 8.33353 70.9965C8.98241 70.9965 9.41499 71.4255 9.63129 71.8545C9.84758 74.2141 10.4965 76.5737 11.1453 78.9332C11.3616 79.5767 10.929 80.2203 10.2802 80.2203C10.2802 80.4348 10.0639 80.6493 10.0639 80.6493ZM121.888 73.1416C121.239 73.1416 120.806 72.498 120.806 71.8545C121.022 69.4949 121.239 66.9209 121.239 64.5613V64.3468C121.239 63.7033 121.671 63.2743 122.32 63.2743C122.969 63.2743 123.402 63.7033 123.402 64.3468V64.5613C123.402 67.1354 123.185 69.7095 122.969 72.069C122.969 72.7125 122.536 73.1416 121.888 73.1416ZM8.11723 65.8483C7.46835 65.8483 7.03577 65.4193 7.03577 64.7758H8.11723H7.03577C7.03577 62.2017 7.25206 59.8422 7.46835 57.2681C7.46835 56.6246 8.11723 56.1956 8.76611 56.4101C9.41499 56.4101 9.84758 57.0536 9.63129 57.6971C9.41499 60.0567 9.1987 62.4162 9.1987 64.7758C9.1987 65.2048 8.76611 65.8483 8.11723 65.8483ZM121.888 58.1261C121.239 58.1261 120.806 57.6971 120.806 57.2681C120.374 54.9085 119.941 52.549 119.292 50.1894C119.076 49.5459 119.508 48.9024 120.157 48.9024C120.806 48.6878 121.455 49.1169 121.455 49.7604C122.104 52.1199 122.536 54.694 122.969 57.2681C123.185 57.4826 122.753 58.1261 121.888 58.1261C122.104 58.1261 121.888 58.1261 121.888 58.1261ZM10.0639 51.2619H9.84758C9.1987 51.0474 8.98241 50.4039 8.98241 49.9749C9.63129 47.4008 10.2802 45.0412 11.3616 42.6817C11.5779 42.0382 12.2268 41.8236 12.8757 42.0382C13.5246 42.2527 13.7409 42.8962 13.5246 43.5397C12.6594 45.6848 11.7942 48.0443 11.1453 50.4039C10.929 50.8329 10.4965 51.2619 10.0639 51.2619ZM117.994 43.7542C117.562 43.7542 117.129 43.5397 116.913 43.1107C116.048 40.9656 114.966 38.6061 113.668 36.6755C113.452 36.2465 113.452 35.3885 114.101 35.174C114.534 34.9594 115.399 34.9594 115.615 35.603C116.913 37.748 117.994 40.1076 119.076 42.4672C119.292 43.1107 119.076 43.7542 118.427 43.9687C118.211 43.7542 118.211 43.7542 117.994 43.7542ZM15.6875 37.5335C15.4712 37.5335 15.2549 37.5335 15.0386 37.319C14.606 37.1045 14.3897 36.2465 14.606 35.8175C15.9038 33.6724 17.2016 31.5273 18.9319 29.5968C19.3645 29.1678 20.0134 28.9533 20.446 29.3823C20.8785 29.8113 21.0948 30.4548 20.6623 30.8838C19.1482 32.8144 17.8504 34.7449 16.5527 36.89C16.3364 37.319 16.1201 37.5335 15.6875 37.5335ZM110.424 31.0983C109.991 31.0983 109.775 30.8838 109.559 30.6693C108.045 28.7388 106.531 27.0227 104.8 25.3067C104.368 24.8777 104.368 24.2341 104.8 23.8051C105.233 23.3761 105.882 23.3761 106.314 23.8051C108.045 25.5212 109.775 27.4517 111.289 29.3823C111.722 29.8113 111.506 30.4548 111.073 30.8838C111.073 31.0983 110.64 31.0983 110.424 31.0983ZM24.7718 25.7357C24.5555 25.7357 24.1229 25.7357 23.9067 25.5212C23.4741 25.0922 23.4741 24.4486 23.9067 24.0196C25.637 22.3036 27.5836 20.5875 29.5303 19.086C30.1792 18.4425 30.828 18.657 31.2606 19.086C31.6932 19.515 31.4769 20.1585 31.0443 20.5875C29.0977 22.0891 27.3673 23.5906 25.637 25.3067C25.2044 25.7357 24.9881 25.7357 24.7718 25.7357ZM99.8257 20.5875C99.6094 20.5875 99.3931 20.5875 99.1768 20.373C97.2301 18.8715 95.2835 17.5844 93.1206 16.2974C92.688 16.0829 92.4717 15.2249 92.688 14.7959C92.9043 14.3668 93.7694 14.1523 94.202 14.3668C96.365 15.6539 98.5279 16.9409 100.475 18.657C100.907 19.086 101.123 19.7295 100.691 20.1585C100.475 20.5875 100.258 20.5875 99.8257 20.5875ZM36.4517 16.7264C36.0191 16.7264 35.8028 16.5119 35.5865 16.0829C35.3702 15.6539 35.3702 14.7959 36.0191 14.5814C38.182 13.2943 40.5613 12.2218 42.9405 11.1493C43.5894 10.9347 44.2382 11.1493 44.4545 11.7928C44.6708 12.4363 44.4545 13.0798 43.8057 13.2943C41.6427 14.1523 39.2635 15.2249 37.3169 16.5119C36.8843 16.7264 36.668 16.7264 36.4517 16.7264ZM87.0643 13.2943C86.8481 13.2943 86.8481 13.2943 86.6318 13.2943C84.4688 12.4363 82.0896 11.5783 79.7104 10.9347C79.0615 10.7202 78.8452 10.0767 78.8452 9.64771C79.0615 9.00419 79.7104 8.78969 80.143 8.78969C82.5222 9.43321 85.1177 10.2912 87.2806 11.1493C87.9295 11.3638 88.1458 12.0073 87.9295 12.6508C87.7132 13.0798 87.4969 13.2943 87.0643 13.2943ZM50.2945 10.9347C49.8619 10.9347 49.4293 10.5057 49.213 10.0767C48.9967 9.43321 49.4293 8.78969 50.0782 8.78969C52.4574 8.14617 55.0529 7.71716 57.6484 7.28814C58.2973 7.28814 58.7299 7.71716 58.9462 8.14617C58.9462 8.78969 58.5136 9.2187 58.081 9.43321C55.7018 9.64771 53.3226 10.2912 50.9433 10.9347C50.5108 10.9347 50.2945 10.9347 50.2945 10.9347ZM72.5727 9.43321C72.3564 9.43321 72.5727 9.43321 72.5727 9.43321C69.9772 9.2187 67.5979 9.00419 65.2187 9.00419H65.0024C64.3535 9.00419 63.9209 8.57518 63.9209 7.93166C63.9209 7.28814 64.3535 6.85913 65.0024 6.85913H65.2187C67.8142 6.85913 70.1935 7.07364 72.5727 7.28814C73.2216 7.28814 73.6542 7.93166 73.4379 8.57518C73.6542 9.00419 73.0053 9.43321 72.5727 9.43321Z" fill="#1EB1FA"/>
<path d="M97.7294 96.9218C115.721 79.079 115.721 50.15 97.7294 32.3072C79.7379 14.4644 50.5679 14.4644 32.5765 32.3072C14.585 50.15 14.585 79.079 32.5765 96.9218C50.5679 114.765 79.7379 114.765 97.7294 96.9218Z" fill="#75DDFF"/>
<path d="M27.5836 50.1895C26.9347 52.7636 26.9347 54.9086 25.6369 57.4827C24.3392 59.8423 23.6903 60.9148 23.9066 63.9179C23.9066 67.5645 22.8251 78.5043 29.3139 76.7883C34.7213 75.2867 31.6931 68.4225 35.5864 65.2049C37.3168 63.7034 39.696 64.3469 40.7775 61.9873C41.8589 59.8423 40.5612 57.6972 42.2915 55.5521C45.5359 52.1201 52.0247 53.6216 54.404 49.3315C50.5107 47.1864 46.1848 45.2559 48.3477 39.4642C49.2129 37.3191 51.8084 35.6031 51.8084 33.029C51.8084 29.5969 49.4292 31.9565 47.2663 30.4549C45.5359 28.9534 47.2663 26.3793 45.5359 25.0923C44.887 24.6633 44.0219 24.6633 42.9404 25.0923C35.8027 28.5244 30.3954 33.458 26.9347 39.4642C32.7746 38.8207 28.0162 48.0444 27.5836 50.1895Z" fill="#00B298"/>
<path d="M44.2384 65.6337C42.9406 66.9207 40.994 65.6337 39.4799 66.9207C38.831 67.3497 38.1821 72.2834 38.6147 73.1414C40.5614 75.93 44.8872 67.7787 45.1035 66.0627C44.6709 65.4192 44.4546 65.4192 44.2384 65.6337Z" fill="#00B298"/>
<path d="M102.854 91.1605C102.421 90.0879 101.556 89.2299 101.123 88.8009C100.042 87.9429 98.7441 87.9429 97.6626 88.3719C96.5812 88.8009 94.6345 89.6589 92.6879 90.5169C89.6598 91.804 85.7665 90.946 82.5221 92.233C77.5473 94.3781 69.5445 103.173 80.1428 101.028C81.4406 100.813 83.171 99.7407 84.2524 100.384C84.2524 100.384 84.2524 103.173 84.2524 105.747C91.8227 102.958 98.0952 97.5957 102.854 91.1605Z" fill="#00B298"/>
<path d="M103.07 89.4443C103.719 89.2298 104.151 88.5863 104.367 87.7283C103.935 88.3718 103.502 88.8008 103.07 89.4443Z" fill="#00B298"/>
<path d="M102.421 82.7945C100.907 84.9396 103.07 87.0846 103.07 89.4442C103.503 89.0152 103.935 88.3716 104.368 87.7281C105.233 85.5831 104.584 82.3655 102.421 82.7945Z" fill="#00B298"/>
<path d="M98.5277 76.3595C96.7974 77.8611 94.2019 77.003 92.4715 78.2901C90.7412 79.5771 91.1738 82.3657 93.3367 83.2237C97.0137 84.7253 96.7974 81.0787 97.8788 79.1481C98.3114 78.2901 100.042 77.4321 100.042 76.3595C100.042 74.6435 99.1766 75.716 98.5277 76.3595Z" fill="#00B298"/>
<path d="M83.387 72.9274C83.387 74.6435 84.2521 76.3595 84.2521 77.8611C84.2521 78.9336 83.387 84.9398 86.1988 81.0787C87.2803 79.5771 86.4151 73.3564 84.6847 71.8549C84.0358 71.2114 83.387 72.4984 83.387 72.9274Z" fill="#00B298"/>
<path d="M105.016 67.3502C104.584 66.4922 102.637 66.2777 102.853 67.5647C103.07 71.4258 100.258 72.9274 102.853 76.7885C104.151 75.5015 104.151 74.2144 104.367 72.4984C104.367 72.0694 104.151 70.7823 104.151 70.3533C104.151 69.2808 105.233 68.6373 105.016 67.3502Z" fill="#00B298"/>
<path d="M62.4069 42.4677C61.3255 40.9662 61.3255 41.3952 61.1092 39.6791C60.8929 37.5341 61.5418 35.818 60.4603 34.102C60.0277 33.4585 58.9462 32.3859 57.8648 31.9569C57.2159 31.7424 56.567 31.5279 56.1344 31.9569C54.4041 31.9569 52.6737 32.1714 52.0249 33.673C51.376 34.96 51.5923 38.1776 51.376 39.8937C50.0782 46.3288 54.1878 46.3288 59.3788 46.3288C61.1092 46.3288 64.5699 47.1869 64.1373 44.6128C63.921 43.5403 62.8395 43.1112 62.4069 42.4677Z" fill="#00B298"/>
<path d="M103.286 61.9872C106.098 60.4856 102.854 59.4131 102.421 57.9115C101.988 55.981 104.368 54.4794 103.502 52.3344C106.531 50.6183 106.531 55.552 106.531 57.4825C109.342 57.4825 106.747 53.4069 106.531 51.9054C106.098 49.5458 107.396 48.0443 107.179 45.6847C107.179 45.2557 106.963 45.0412 106.963 44.6122C103.286 37.1044 97.6625 30.8838 90.7411 26.3791C90.5248 26.3791 90.5248 26.5936 90.3085 26.5936C87.2804 29.1677 90.9574 29.8112 90.5248 31.9563C90.3085 33.2433 88.5782 32.8143 87.713 33.0288C87.9293 33.0288 84.2523 33.4578 84.9012 33.6723C84.9012 33.8868 84.6849 33.8868 84.6849 33.8868C84.4686 31.3128 82.0894 28.9532 79.4939 30.6692C77.1146 28.3097 81.0079 26.3791 81.2242 24.0196C79.9265 24.0196 78.1961 23.5905 77.1146 24.6631C75.6006 25.7356 76.4658 27.2372 74.5191 27.6662C74.3028 27.6662 73.2214 27.0226 72.5725 27.2372C71.7073 27.6662 71.491 28.5242 71.0584 29.3822C70.1932 30.4547 69.5444 32.3853 68.2466 33.4578C66.9488 34.5304 66.3 35.6029 65.4348 33.4578C64.5696 31.0983 66.9488 31.3128 67.3814 29.3822C67.814 26.8081 62.4067 25.5211 62.8393 29.5967C60.8926 29.8112 59.3786 27.6662 56.9993 28.0952C53.7549 28.5242 54.8364 29.3822 57.6482 30.2402C63.0556 31.9563 62.623 34.3159 63.9207 39.035C65.4348 44.1831 71.0584 41.8236 71.0584 47.1862C71.0584 49.7603 71.9236 50.4038 72.7888 52.7634C73.8702 55.3375 72.7888 56.1955 72.3562 58.5551C71.9236 60.2711 70.8421 63.0597 73.0051 63.2742C75.168 62.2017 76.6821 61.9872 77.7635 59.6276C78.4124 58.5551 77.5472 57.9115 78.845 57.0535C79.9265 56.41 81.2242 57.268 82.3057 57.0535C84.2523 56.839 85.9827 55.123 87.9293 56.41C90.5248 58.3405 88.3619 60.4856 88.7945 62.6307C89.2271 64.7757 92.0389 65.2048 92.6878 67.1353C93.3367 69.0659 89.6597 70.1384 90.0922 72.069C90.9574 75.9301 92.6878 70.1384 93.1203 69.9239C93.7692 69.2804 95.4996 69.9239 95.9322 69.2804C96.3648 68.6368 96.1485 66.7063 96.1485 66.0628C95.9322 63.9177 94.8507 62.6307 97.4462 61.7727C98.9603 60.9146 101.34 62.8452 103.286 61.9872Z" fill="#00B298"/>
<path d="M65.0021 19.5152C64.7858 19.3007 64.5695 19.0862 64.5695 19.0862C61.1088 19.0862 57.6481 19.5152 54.1874 20.3732C54.62 20.5877 55.0526 20.8022 55.2688 21.2312C56.134 22.9473 53.5385 25.5214 55.9177 26.1649C57.4318 26.5939 57.4318 24.8778 58.5132 24.6633C59.5947 24.4488 60.0273 24.4488 61.1088 24.4488C63.0554 24.4488 64.5695 25.7359 65.8672 23.5908C65.6509 23.3763 65.4346 23.1618 64.7858 22.9473C65.2183 21.2312 65.8672 20.5877 65.0021 19.5152Z" fill="#00B298"/>
<path d="M44.8869 65.634C25.2042 65.634 9.41477 77.2174 9.41477 91.5893C9.41477 96.7374 11.5777 101.671 15.0384 105.532L3.14226 122.693L25.4205 113.254C31.0441 115.828 37.7492 117.545 44.8869 117.545C64.5696 117.545 80.359 105.961 80.359 91.5893C80.359 77.2174 64.3533 65.634 44.8869 65.634Z" fill="#FFCC33"/>
<path d="M50.9429 97.5955H37.5327L35.1535 103.387H29.7462L41.8586 75.9304H47.266L59.1621 103.387H53.5385L50.9429 97.5955ZM48.9963 93.0909L44.2378 81.5076L39.2631 93.0909H48.9963Z" fill="white"/>
<path d="M97.4466 1.92554C114.534 1.92554 128.593 12.0073 128.593 24.6632C128.593 29.1678 126.863 33.458 123.618 36.89L134 51.9055L114.534 43.5397C109.559 45.8993 103.719 47.1864 97.4466 47.1864C80.1432 47.1864 66.3004 37.1046 66.3004 24.4487C66.3004 12.0073 80.1432 1.92554 97.4466 1.92554Z" fill="#FF2B55"/>
<path d="M105.234 13.9377V16.7263L92.9049 31.3127H105.45V34.7448H87.4975V31.9563L99.8263 17.3698H87.9301V13.9377H105.234Z" fill="white"/>
</svg>
