<svg width="188" height="129" viewBox="0 0 188 129" fill="none" xmlns="http://www.w3.org/2000/svg">
<g clip-path="url(#clip0_567_32)">
<path d="M153.776 75.8504C153.776 79.0298 153.491 82.1406 152.943 85.1599C148.575 109.257 127.534 127.522 102.251 127.522C81.2215 127.522 63.1343 114.884 55.117 96.7682C54.0564 94.3779 53.1783 91.8961 52.494 89.3343C51.3308 85.0341 50.715 80.5166 50.715 75.8504C50.715 72.0305 51.1255 68.3136 51.9124 64.7339C54.0564 54.944 58.9603 46.1835 65.7801 39.3443C67.7074 37.4001 69.8058 35.6159 72.0182 33.9919C80.503 27.8161 90.9494 24.1792 102.24 24.1792C103.551 24.1792 104.851 24.2249 106.14 24.3279C107.953 24.4651 109.744 24.6939 111.5 25.0141C123.497 27.1985 134.046 33.5345 141.607 42.5009C143.135 44.3079 144.538 46.2178 145.804 48.2307C150.856 56.2135 153.776 65.6946 153.776 75.8504Z" fill="#D5F0F9"/>
<path d="M153.787 75.8505C153.787 79.0299 153.502 82.1407 152.955 85.16C150.856 84.8512 148.131 84.5538 146.443 84.7597C143.409 85.1142 140.364 91.393 134.115 91.6332C127.865 91.8848 120.179 87.0814 111.956 90.3065C103.734 93.5317 99.4456 90.1235 98.02 87.8019C96.5945 85.4688 101.59 80.0935 101.145 77.7719C100.689 75.4388 101.772 67.5588 108.74 67.5588C115.708 67.5588 118.924 63.9791 119.814 62.3666C120.703 60.754 126.063 62.012 128.926 58.9584C131.788 55.9162 126.782 50.541 128.926 46.9498C131.07 43.3701 141.607 42.4895 141.607 42.4895C149.203 51.5017 153.787 63.1443 153.787 75.8505Z" fill="#A6D3E1"/>
<path d="M77.823 67.0669C75.3255 70.6008 78.7125 77.9432 76.5685 81.7059C74.4245 85.4686 70.319 84.7481 67.274 86.5436C64.6396 88.099 63.579 94.515 55.117 96.7681C52.2888 90.3749 50.715 83.2956 50.715 75.8503C50.715 72.0304 51.1255 68.3135 51.9124 64.7338C53.6345 62.984 56.0066 61.4171 59.234 60.5594C69.418 57.8717 71.9498 57.2541 76.0097 57.9175C79.0889 58.4207 80.3205 63.5329 77.823 67.0669Z" fill="#A6D3E1"/>
<path d="M116.233 47.5787C116.233 47.5787 109.983 46.3206 106.585 48.4707C103.186 50.6208 96.3094 54.475 97.1989 56.7166C98.0884 58.9582 104.612 60.6623 107.292 60.5708C109.972 60.4793 117.829 56.4536 121.137 56.7166C124.455 56.9911 122.573 47.7845 116.233 47.5787Z" fill="#A6D3E1"/>
<path d="M86.4789 109.063C83.7418 111.064 83.0918 117.206 81.3469 118.063C80.4688 118.487 79.1231 120.031 77.9941 121.449C70.8892 117.64 64.7879 112.219 60.1691 105.655C63.2597 103.504 69.0645 99.8675 73.0902 99.7646C73.0902 99.7646 75.0974 99.7417 76.5913 95.6474C77.1844 94.0348 77.8116 92.6052 78.5415 91.5187C79.6591 89.8604 81.0162 89.0369 82.8181 89.6888C83.5936 89.9633 84.0726 90.3979 84.4375 90.9469C85.4753 92.5023 85.5437 94.9726 88.4746 97.3514C92.4205 100.577 89.2045 107.061 86.4789 109.063Z" fill="#A6D3E1"/>
<path d="M64.8905 105.814H64.2519V127.316H64.8905V105.814Z" fill="#333333"/>
<path d="M63.9781 105.071C63.9781 104.522 64.2404 104.076 64.5712 104.076C64.9019 104.076 65.1642 104.522 65.1642 105.071C65.1642 105.62 64.9019 106.066 64.5712 106.066C64.2519 106.055 63.9781 105.609 63.9781 105.071Z" fill="#333333"/>
<path d="M65.13 127.018H63.9781V127.522H65.13V127.018Z" fill="#333333"/>
<path d="M65.0502 105.643H64.0922V106.055H65.0502V105.643Z" fill="#333333"/>
<path d="M36.2429 111.682C32.6163 111.682 28.716 111.533 24.5649 111.178C13.9132 110.286 6.53466 108.479 6.45483 108.468L6.56888 107.221C6.6373 107.244 14.0045 109.028 24.6105 109.92C34.3954 110.744 49.0385 110.938 63.1913 107.221L63.3053 108.468C57.2952 110.046 48.1946 111.682 36.2429 111.682Z" fill="#F12C3E"/>
<path d="M95.1461 111.682C91.5195 111.682 87.6193 111.533 83.4681 111.178C72.8165 110.286 65.4379 108.479 65.3581 108.468L65.4721 107.221C65.5405 107.244 72.9077 109.028 83.5137 109.92C93.2986 110.744 107.942 110.938 122.094 107.221L122.209 108.468C116.198 110.046 107.098 111.682 95.1461 111.682Z" fill="#F12C3E"/>
<path d="M154.015 111.682C150.389 111.682 146.488 111.533 142.337 111.178C131.686 110.286 124.307 108.479 124.227 108.468L124.341 107.221C124.41 107.244 131.777 109.028 142.383 109.92C152.168 110.744 166.811 110.938 180.975 107.221L181.089 108.468C175.068 110.046 165.967 111.682 154.015 111.682Z" fill="#F12C3E"/>
<path d="M6.04428 105.814H5.40564V127.316H6.04428V105.814Z" fill="#333333"/>
<path d="M5.13193 105.071C5.13193 104.522 5.39423 104.076 5.72495 104.076C6.05568 104.076 6.31798 104.522 6.31798 105.071C6.31798 105.62 6.05568 106.066 5.72495 106.066C5.39423 106.055 5.13193 105.609 5.13193 105.071Z" fill="#333333"/>
<path d="M6.28376 127.018H5.13193V127.522H6.28376V127.018Z" fill="#333333"/>
<path d="M6.20393 105.643H5.24597V106.055H6.20393V105.643Z" fill="#333333"/>
<path d="M7.86896 107.404L7.70929 108.891L6.36359 108.525L6.53465 107.073L7.86896 107.404Z" fill="#333333"/>
<path d="M7.13908 107.542C7.09347 107.427 7.02504 107.347 6.94521 107.313H6.93381C6.9224 107.313 6.9224 107.301 6.911 107.301L6.51185 107.198L6.28376 107.141C6.19253 107.118 6.1127 107.153 6.03287 107.233C6.02146 107.244 6.02146 107.244 6.01006 107.256C5.93023 107.347 5.88461 107.484 5.87321 107.644C5.8504 107.885 5.91882 108.113 6.03287 108.239C6.07848 108.285 6.1241 108.319 6.16972 108.331L6.375 108.388L6.46623 108.411L6.79695 108.491C6.81976 108.491 6.83117 108.502 6.85398 108.502C7.02504 108.502 7.1733 108.285 7.20751 107.999C7.21891 107.827 7.19611 107.667 7.13908 107.542ZM7.12768 107.965C7.10487 108.216 6.96802 108.388 6.81976 108.342L6.48904 108.251L6.40921 108.228L6.20393 108.171C6.14691 108.159 6.08989 108.113 6.05567 108.045C5.99865 107.942 5.96444 107.805 5.97584 107.656C5.98725 107.553 6.01006 107.473 6.05567 107.404C6.06708 107.393 6.07848 107.37 6.08989 107.359C6.14691 107.29 6.22674 107.256 6.29517 107.278L6.52325 107.336L6.58027 107.347L6.9224 107.439C6.99083 107.45 7.05925 107.519 7.10487 107.622C7.11628 107.725 7.13908 107.839 7.12768 107.965Z" fill="#333333"/>
<path d="M62.5754 108.777L62.45 107.29L63.8071 106.97L63.8983 108.434L62.5754 108.777Z" fill="#333333"/>
<path d="M64.4229 107.564C64.4115 107.381 64.3431 107.221 64.2519 107.141C64.1835 107.073 64.1036 107.05 64.0238 107.061L63.8185 107.118L63.3966 107.221C63.3737 107.221 63.3623 107.233 63.3395 107.244C63.2939 107.267 63.2483 107.313 63.2141 107.359C63.1228 107.484 63.0772 107.69 63.0886 107.896C63.1 108.056 63.1571 108.193 63.2255 108.285C63.2483 108.319 63.2711 108.342 63.2939 108.354C63.3509 108.399 63.4194 108.411 63.4878 108.399L63.8869 108.296L64.115 108.239C64.1606 108.228 64.2063 108.205 64.2405 108.159C64.2861 108.113 64.3203 108.068 64.3431 107.999C64.4115 107.885 64.4458 107.724 64.4229 107.564ZM64.2975 107.93C64.2861 107.953 64.2747 107.976 64.2633 107.999C64.2291 108.056 64.172 108.09 64.1264 108.113L63.8983 108.171L63.4992 108.273C63.4308 108.285 63.3623 108.262 63.3053 108.193C63.3053 108.193 63.3053 108.193 63.2939 108.182C63.2369 108.113 63.2027 107.999 63.1913 107.885C63.1799 107.759 63.2027 107.633 63.2483 107.542C63.2939 107.45 63.3509 107.393 63.4194 107.37L63.8413 107.267L64.0466 107.221C64.1264 107.198 64.2063 107.244 64.2633 107.336C64.3089 107.404 64.3431 107.496 64.3545 107.61C64.3545 107.713 64.3317 107.827 64.2975 107.93Z" fill="#333333"/>
<path d="M123.794 105.814H123.155V127.316H123.794V105.814Z" fill="#333333"/>
<path d="M122.881 105.071C122.881 104.522 123.144 104.076 123.474 104.076C123.805 104.076 124.067 104.522 124.067 105.071C124.067 105.62 123.805 106.066 123.474 106.066C123.144 106.055 122.881 105.609 122.881 105.071Z" fill="#333333"/>
<path d="M124.033 127.018H122.881V127.522H124.033V127.018Z" fill="#333333"/>
<path d="M123.953 105.643H122.995V106.055H123.953V105.643Z" fill="#333333"/>
<path d="M66.7608 107.404L66.6126 108.891L65.2668 108.525L65.4379 107.073L66.7608 107.404Z" fill="#333333"/>
<path d="M66.0423 107.542C65.9967 107.427 65.9283 107.347 65.8485 107.313H65.8371C65.8257 107.313 65.8257 107.301 65.8143 107.301L65.4151 107.198L65.187 107.141C65.0958 107.118 65.016 107.153 64.9361 107.233C64.9247 107.244 64.9247 107.244 64.9133 107.256C64.8335 107.347 64.7879 107.484 64.7765 107.644C64.7537 107.885 64.8221 108.113 64.9361 108.239C64.9817 108.285 65.0274 108.319 65.073 108.331L65.2783 108.388L65.3695 108.411L65.7002 108.491C65.723 108.491 65.7344 108.502 65.7572 108.502C65.9283 108.502 66.0766 108.285 66.1108 107.999C66.1222 107.827 66.0994 107.667 66.0423 107.542ZM66.0309 107.965C66.0081 108.216 65.8713 108.388 65.723 108.342L65.3923 108.251L65.3125 108.228L65.1072 108.171C65.0502 108.159 64.9931 108.113 64.9589 108.045C64.9019 107.942 64.8677 107.805 64.8791 107.656C64.8905 107.553 64.9133 107.473 64.9589 107.404C64.9703 107.393 64.9817 107.37 64.9931 107.359C65.0502 107.29 65.13 107.256 65.1984 107.278L65.4265 107.336L65.4835 107.347L65.8257 107.439C65.8941 107.45 65.9625 107.519 66.0081 107.622C66.0195 107.725 66.0423 107.839 66.0309 107.965Z" fill="#333333"/>
<path d="M121.467 108.777L121.353 107.29L122.71 106.97L122.802 108.434L121.467 108.777Z" fill="#333333"/>
<path d="M123.326 107.564C123.315 107.381 123.246 107.221 123.155 107.141C123.087 107.073 123.007 107.05 122.927 107.061L122.722 107.118L122.3 107.221C122.277 107.221 122.266 107.233 122.243 107.244C122.197 107.267 122.152 107.313 122.117 107.359C122.026 107.484 121.98 107.69 121.992 107.896C122.003 108.056 122.06 108.193 122.129 108.285C122.152 108.319 122.174 108.342 122.197 108.354C122.254 108.399 122.323 108.411 122.391 108.399L122.79 108.296L123.018 108.239C123.064 108.228 123.109 108.205 123.144 108.159C123.189 108.113 123.223 108.068 123.246 107.999C123.315 107.885 123.338 107.724 123.326 107.564ZM123.189 107.93C123.178 107.953 123.166 107.976 123.155 107.999C123.121 108.056 123.064 108.09 123.018 108.113L122.79 108.171L122.391 108.273C122.323 108.285 122.254 108.262 122.197 108.193C122.197 108.193 122.197 108.193 122.186 108.182C122.129 108.113 122.094 107.999 122.083 107.885C122.072 107.759 122.094 107.633 122.14 107.542C122.186 107.45 122.243 107.393 122.311 107.37L122.733 107.267L122.938 107.221C123.018 107.198 123.098 107.244 123.155 107.336C123.201 107.404 123.235 107.496 123.246 107.61C123.258 107.713 123.235 107.827 123.189 107.93Z" fill="#333333"/>
<path d="M182.663 105.814H182.024V127.316H182.663V105.814Z" fill="#333333"/>
<path d="M181.75 105.071C181.75 104.522 182.013 104.076 182.343 104.076C182.674 104.076 182.936 104.522 182.936 105.071C182.936 105.62 182.674 106.066 182.343 106.066C182.013 106.066 181.75 105.609 181.75 105.071Z" fill="#333333"/>
<path d="M182.902 127.018H181.75V127.522H182.902V127.018Z" fill="#333333"/>
<path d="M182.822 105.643H181.864V106.055H182.822V105.643Z" fill="#333333"/>
<path d="M125.63 107.404L125.482 108.891L124.136 108.525L124.296 107.073L125.63 107.404Z" fill="#333333"/>
<path d="M124.911 107.542C124.866 107.427 124.797 107.347 124.717 107.313H124.706C124.695 107.313 124.695 107.301 124.683 107.301L124.284 107.198L124.056 107.141C123.965 107.118 123.885 107.153 123.805 107.233C123.794 107.244 123.794 107.244 123.782 107.256C123.703 107.347 123.657 107.484 123.645 107.644C123.623 107.885 123.691 108.113 123.805 108.239C123.851 108.285 123.896 108.319 123.942 108.331L124.147 108.388L124.239 108.411L124.569 108.491C124.592 108.491 124.603 108.502 124.626 108.502C124.797 108.502 124.946 108.285 124.98 107.999C124.991 107.827 124.968 107.667 124.911 107.542ZM124.889 107.965C124.866 108.216 124.729 108.388 124.581 108.342L124.25 108.251L124.17 108.228L123.965 108.171C123.908 108.159 123.851 108.113 123.817 108.045C123.76 107.942 123.725 107.805 123.737 107.656C123.748 107.553 123.771 107.473 123.817 107.404C123.828 107.393 123.839 107.37 123.851 107.359C123.908 107.29 123.988 107.256 124.056 107.278L124.284 107.336L124.341 107.347L124.683 107.439C124.752 107.45 124.82 107.519 124.866 107.622C124.889 107.725 124.9 107.839 124.889 107.965Z" fill="#333333"/>
<path d="M180.336 108.777L180.222 107.29L181.579 106.97L181.671 108.434L180.336 108.777Z" fill="#333333"/>
<path d="M182.195 107.564C182.184 107.381 182.115 107.221 182.024 107.141C181.956 107.073 181.876 107.05 181.796 107.061L181.591 107.118L181.169 107.221C181.146 107.221 181.135 107.233 181.112 107.244C181.066 107.267 181.021 107.313 180.986 107.359C180.895 107.484 180.85 107.69 180.861 107.896C180.872 108.056 180.929 108.193 180.998 108.285C181.021 108.319 181.043 108.342 181.066 108.354C181.123 108.399 181.192 108.411 181.26 108.399L181.659 108.296L181.887 108.239C181.933 108.228 181.979 108.205 182.013 108.159C182.058 108.113 182.093 108.068 182.115 107.999C182.184 107.885 182.207 107.724 182.195 107.564ZM182.058 107.93C182.047 107.953 182.036 107.976 182.024 107.999C181.99 108.056 181.933 108.09 181.887 108.113L181.659 108.171L181.26 108.273C181.192 108.285 181.123 108.262 181.066 108.193C181.066 108.193 181.066 108.193 181.055 108.182C180.998 108.113 180.964 107.999 180.952 107.885C180.941 107.759 180.964 107.633 181.009 107.542C181.055 107.45 181.112 107.393 181.18 107.37L181.602 107.267L181.807 107.221C181.887 107.198 181.967 107.244 182.024 107.336C182.07 107.404 182.104 107.496 182.115 107.61C182.127 107.713 182.104 107.827 182.058 107.93Z" fill="#333333"/>
<path d="M130.853 23.4358C125.847 23.4358 121.798 27.8046 121.798 33.2028C121.798 38.5895 130.853 47.2128 130.853 47.2128C130.853 47.2128 139.908 38.5895 139.908 33.2028C139.908 27.8161 135.859 23.4358 130.853 23.4358ZM130.853 37.9833C127.899 37.9833 125.516 35.593 125.516 32.6309C125.516 29.6803 127.899 27.2785 130.853 27.2785C133.795 27.2785 136.19 29.6803 136.19 32.6309C136.19 35.593 133.795 37.9833 130.853 37.9833Z" fill="#F12C3E"/>
<path d="M35.1709 64.185C35.1709 64.185 32.2286 62.6296 28.0204 62.3208C25.7623 62.1492 23.6753 63.5559 22.9683 65.706C22.9227 65.8318 22.8885 65.9576 22.8542 66.0949C21.8621 69.6632 22.4095 80.4594 25.7281 83.2843C29.0582 86.0977 35.1709 84.9083 35.1709 84.9083V64.185Z" fill="#23393D"/>
<path d="M44.5 87.6277C44.5 87.6277 43.9864 93.8175 43.5645 99.1927C42.9943 106.478 40.8274 124.651 40.8274 124.651C40.8274 124.651 41.2836 125.371 39.0598 124.903C39.0598 124.903 36.3227 118.715 35.7525 111.602C35.7411 111.487 35.7297 111.373 35.7297 111.247C35.2051 104.008 34.384 88.751 34.384 88.751L44.5 87.6277Z" fill="#C21C2C"/>
<path d="M42.7205 86.6809L29.2863 125.44C29.2863 125.44 27.8835 125.177 27.5642 124.548C27.5642 124.548 27.1765 108.159 29.4573 104.202C30.746 101.972 31.3961 95.7045 31.4873 93.5773C31.7496 87.2756 32.4224 85.5715 32.4224 85.5715L42.7205 86.6809Z" fill="#F12C3E"/>
<path d="M38.729 127.807H39.8238C40.1888 127.75 40.4625 127.647 40.8388 127.59C41.409 127.51 41.6713 127.75 41.7284 127.807C41.7398 127.819 41.7398 127.819 41.7398 127.819H46.3813C46.4954 127.647 46.3813 127.258 46.2787 126.984C46.2102 126.79 46.0392 126.641 45.8453 126.584C45.3549 126.435 44.3856 126.309 43.496 125.509C42.9942 125.051 41.0783 123.839 41.0783 123.839H41.0669C41.0213 123.839 40.8274 123.896 39.9493 124.639C39.4931 125.017 38.729 124.102 38.729 124.102C38.729 124.102 38.5808 124.216 38.4781 124.445C38.3869 124.617 38.3299 124.868 38.3755 125.166C38.4439 125.589 38.2158 126.366 38.0448 126.892C37.9421 127.213 37.8509 127.441 37.8509 127.441C37.8509 127.441 37.7939 127.693 38.729 127.807Z" fill="#23393D"/>
<path d="M38.729 127.83H39.8238C40.1888 127.773 40.4625 127.647 40.8388 127.602C41.409 127.522 41.6713 127.762 41.7284 127.819C41.7398 127.83 41.7398 127.83 41.7398 127.83H46.3813C46.4954 127.659 46.3813 127.27 46.2787 126.996C46.1418 126.87 46.0962 127.544 46.0164 127.647C45.9365 127.75 42.2301 127.682 42.0135 127.533C41.7968 127.373 41.1581 127.098 40.2572 127.316C39.4817 127.499 38.3299 127.018 38.0448 126.893C37.9421 127.213 37.8509 127.442 37.8509 127.442C37.8509 127.442 37.7939 127.705 38.729 127.83Z" fill="#233862"/>
<path d="M27.5642 127.807H28.659C29.024 127.75 29.2977 127.647 29.674 127.59C30.2442 127.51 30.5065 127.75 30.5635 127.807C30.5749 127.819 30.5749 127.819 30.5749 127.819H35.2165C35.3305 127.647 35.2165 127.258 35.1139 126.984C35.0454 126.79 34.8744 126.641 34.6805 126.584C34.1901 126.435 33.2207 126.309 32.3312 125.509C31.8294 125.051 29.9135 123.839 29.9135 123.839H29.9021C29.8565 123.839 29.6626 123.896 28.7845 124.639C28.3283 125.017 27.5642 124.102 27.5642 124.102C27.5642 124.102 27.416 124.216 27.3133 124.445C27.2221 124.617 27.1651 124.868 27.2107 125.166C27.2791 125.589 27.051 126.366 26.8799 126.892C26.7659 127.213 26.6747 127.441 26.6747 127.441C26.6747 127.441 26.6176 127.693 27.5642 127.807Z" fill="#23393D"/>
<path d="M27.5642 127.83H28.659C29.024 127.773 29.2977 127.647 29.674 127.602C30.2442 127.522 30.5065 127.762 30.5635 127.819C30.575 127.83 30.575 127.83 30.575 127.83H35.2165C35.3305 127.659 35.2165 127.27 35.1139 126.996C34.977 126.87 34.9314 127.544 34.8516 127.647C34.7717 127.75 31.0653 127.682 30.8487 127.533C30.632 127.373 29.9933 127.098 29.0924 127.316C28.3169 127.499 27.1651 127.018 26.88 126.893C26.7659 127.213 26.6747 127.442 26.6747 127.442C26.6747 127.442 26.6291 127.705 27.5642 127.83Z" fill="#233862"/>
<path d="M34.4638 63.5559C34.4638 63.5559 38.8203 65.706 41.3292 64.9055C41.3292 64.9055 40.7134 64.1163 39.63 63.5216C39.687 63.1556 39.744 62.824 39.7782 62.5152C39.9151 61.4287 39.9265 60.8226 39.9265 60.8226L37.2579 58.661L36.6649 58.1807C36.6877 58.6953 36.6535 59.1642 36.585 59.5988C36.585 59.6331 36.5736 59.6674 36.5736 59.7018C36.1289 62.3093 34.4638 63.5559 34.4638 63.5559Z" fill="#F2BEB7"/>
<path d="M31.9777 86.4179C31.9663 86.6924 32.5365 87.0012 32.7874 87.1156C33.8936 87.6074 34.9428 88.0191 36.0262 88.305C36.7789 88.5109 37.5544 88.6481 38.3641 88.7282C40.6906 88.9683 43.4504 88.4422 44.397 88.4537C44.4996 88.4537 44.5908 88.4194 44.6593 88.3507C44.7277 88.305 44.7733 85.4458 44.7277 81.8432C44.7277 81.706 44.7277 81.5573 44.7163 81.4086V81.3629C44.7049 79.9562 44.6479 78.4808 44.5908 77.0169C44.454 73.7803 44.2031 70.6581 43.7697 68.9312C43.2679 66.8954 41.3634 64.345 40.0975 63.6474C39.0255 63.0527 35.5016 62.4351 35.3305 62.5609C33.2664 64.1049 32.1259 68.691 32.1487 73.8833C32.1487 74.0434 32.1487 74.2149 32.1487 74.3751C32.1601 74.9126 32.183 75.4501 32.2058 75.9991C32.4338 79.8304 32.1944 83.1585 32.0689 85.0913C32.0119 85.6746 31.9891 86.1091 31.9777 86.4179Z" fill="#8BDBEE"/>
<path d="M36.5394 59.6673C36.5394 59.6673 36.5508 59.6788 36.5622 59.7016C36.7333 59.999 37.8851 61.9547 39.7782 62.5151C39.9151 61.4286 39.9265 60.8224 39.9265 60.8224L37.2579 58.6609C36.9043 59.0726 36.6648 59.45 36.5736 59.5987C36.5508 59.6444 36.5394 59.6673 36.5394 59.6673Z" fill="#EDA8A2"/>
<path d="M40.6906 60.7653C40.6906 60.7653 36.5394 61.4629 36.1403 58.8554C35.7525 56.2478 34.9542 54.5895 37.5886 54.0405C40.223 53.4915 40.8958 54.4065 41.2266 55.2414C41.5801 56.0762 41.7626 60.5137 40.6906 60.7653Z" fill="#F2BEB7"/>
<path d="M36.9157 58.1806C36.9157 58.1806 36.3683 57.6202 36.6763 57.2657C36.9956 56.9111 37.178 57.4487 37.4289 57.4372C37.6798 57.4258 38.136 56.6824 38.1702 56.0076C38.2044 55.3329 40.6221 56.3622 41.5915 56.0419C42.5609 55.7217 43.4162 54.4179 41.8994 53.7203C41.0099 53.3086 36.5508 51.1928 34.863 53.3429C32.7076 56.0877 35.5814 58.9583 35.9692 59.3929C36.3569 59.8275 36.5736 59.7017 36.5736 59.7017C36.5736 59.7017 37.2351 58.7868 36.9157 58.1806Z" fill="#4A190C"/>
<path d="M34.7603 53.5944C34.7717 53.3886 34.8174 52.8625 34.9998 52.5422C34.9998 52.5422 34.9884 53.0912 35.0683 53.3657C35.1367 53.6516 34.7603 53.5944 34.7603 53.5944Z" fill="#4A190C"/>
<path d="M34.3156 53.1484C34.3156 53.1484 34.8402 53.2056 34.8744 53.6173L34.6805 53.8575C34.6919 53.869 34.7261 53.3429 34.3156 53.1484Z" fill="#4A190C"/>
<path d="M32.0461 76.731L31.9207 75.9418C33.848 75.633 35.4104 74.6952 36.5508 73.1856C37.4176 72.0419 38.022 70.5437 38.2273 69.0683C38.615 66.2206 37.8623 64.5966 35.9464 64.1048C34.2243 63.6702 32.24 65.0197 32.2172 65.0312L31.761 64.3678C31.8523 64.2992 34.0647 62.801 36.1403 63.3271C37.7597 63.7388 39.573 65.0884 39.0256 69.1713C38.9001 70.1091 38.4896 71.9504 37.2009 73.6659C35.9122 75.3585 34.1787 76.3879 32.0461 76.731Z" fill="#23393D"/>
<path d="M39.6186 81.4774C39.6186 81.4774 40.166 81.2029 40.4625 81.0656C40.759 80.9284 41.3406 80.5739 41.3862 80.8255C41.4318 81.0771 41.6713 81.5803 41.1125 81.6718C40.5765 81.7633 39.6186 81.4774 39.6186 81.4774Z" fill="#F2BEB7"/>
<path d="M42.8574 79.5215L43.2338 79.6359C43.4276 79.6931 43.6215 79.5787 43.6785 79.3957L43.7469 79.1555C43.804 78.9611 43.6899 78.7667 43.5075 78.7095L43.1311 78.5951C42.9372 78.538 42.7434 78.6523 42.6863 78.8353L42.6179 79.0755C42.5609 79.2699 42.6635 79.4758 42.8574 79.5215Z" fill="#EB594C"/>
<path d="M41.5915 79.3043L40.2458 83.8447C40.1546 84.1535 40.3256 84.4737 40.6336 84.5652L42.3556 85.0798C42.6635 85.1713 42.9829 84.9998 43.0741 84.691L44.4198 80.1506C44.511 79.8418 44.34 79.5216 44.032 79.4301L42.31 78.9154C42.0021 78.824 41.6828 78.9955 41.5915 79.3043Z" fill="#CADEFF"/>
<path d="M41.5345 79.4873L40.2458 83.8447C40.1546 84.1535 40.3256 84.4737 40.6336 84.5652L42.3556 85.0799C42.6635 85.1714 42.9829 84.9998 43.0741 84.691L44.34 80.4251C44.0891 80.3451 43.5074 80.1621 43.0855 80.1964C42.6749 80.2193 41.8994 79.7389 41.5345 79.4873Z" fill="#95BEC9"/>
<path d="M40.5677 82.7421L43.3991 83.5854L44.2433 80.735L41.4119 79.8917L40.5677 82.7421Z" fill="#EB594C"/>
<path d="M42.1617 81.3744C41.3862 81.18 40.702 81.6603 39.6186 81.4888C39.6186 81.4888 34.3042 77.749 33.369 76.8112C32.6962 76.1364 35.399 73.0828 36.8131 70.7154C36.7447 70.7039 36.6649 70.6811 36.5964 70.6353C35.5244 69.9949 33.3576 68.8283 31.5671 68.6453C31.4987 68.6339 31.4303 68.6224 31.3733 68.5881C30.2328 71.0699 29.0468 74.2722 28.6932 77.5202C28.6476 77.932 28.8073 78.3437 29.1266 78.6067C30.4381 79.739 34.0305 81.7518 38.3527 82.9984C38.3527 82.9984 39.3221 83.6503 40.2344 83.8219C41.1581 83.9934 41.5459 83.4788 42.8916 84.2565C43.5074 84.611 43.7013 83.8562 43.6329 83.4559C43.5302 82.9412 43.0171 81.5917 42.1617 81.3744Z" fill="#F2BEB7"/>
<path d="M33.8594 64.2534C33.8594 64.2534 31.6584 66.4035 30.6206 69.4457C30.6206 69.4457 32.6848 71.2527 36.5394 71.6072C36.5394 71.6072 38.1246 68.6794 36.9614 67.2041C35.8095 65.7173 33.8594 64.2534 33.8594 64.2534Z" fill="#64CFE9"/>
<path d="M159.831 76.0562C159.831 76.0562 159.717 81.7059 159.991 83.3528C160.265 84.9997 159.626 92.6737 159.626 92.6737L158.303 92.5022C158.303 92.5022 154.996 79.9789 155.338 78.3664C155.669 76.7652 159.831 76.0562 159.831 76.0562Z" fill="#F2BEB7"/>
<path d="M159.626 92.6737C159.626 92.6737 160.139 94.3893 160.014 94.7209C159.888 95.0526 159.238 95.7388 158.714 96.1505C158.178 96.5622 158.645 95.0526 158.748 94.5608C158.85 94.069 158.064 94.0347 158.189 93.2685C158.314 92.5022 158.314 92.5022 158.314 92.5022L159.626 92.6737Z" fill="#F2BEB7"/>
<path d="M158.178 93.2686C158.178 93.2686 158.178 94.6867 158.166 94.9726C158.155 95.2585 158.44 94.9955 158.486 94.7553C158.531 94.5037 158.782 94.092 158.908 94.0577C159.033 94.0119 158.178 93.2686 158.178 93.2686Z" fill="#F2BEB7"/>
<path d="M150.092 114.461C150.571 119.253 152.282 126.607 152.282 126.607L153.616 125.646C153.616 125.646 155.965 109.131 156.342 107.782C158.999 98.4493 159.307 89.277 159.307 89.277L151.518 86.9668C150.719 88.3049 150.104 90.5122 150.297 92.994C151.118 103.87 149.522 108.719 150.092 114.461Z" fill="#64CFE9"/>
<path d="M142.223 92.9026C142.223 92.9026 142.2 93.4401 141.79 93.9548C141.699 94.0692 141.425 94.378 141.334 94.275C141.231 94.1607 141.619 93.3372 141.391 92.8226C141.311 92.6396 142.223 92.9026 142.223 92.9026Z" fill="#F2BEB7"/>
<path d="M157.984 127.087C157.927 126.927 157.79 126.813 157.63 126.767C157.231 126.652 156.444 126.55 155.726 125.898C155.327 125.532 153.776 124.548 153.776 124.548H153.764C153.73 124.548 153.57 124.594 152.863 125.2C152.498 125.509 151.883 124.765 151.883 124.765C151.883 124.765 151.769 124.857 151.677 125.04C151.609 125.177 151.552 125.372 151.597 125.623C151.654 125.966 151.472 126.595 151.324 127.018C151.233 127.281 151.164 127.464 151.164 127.464C151.164 127.464 151.118 127.682 151.883 127.773H152.761C153.057 127.728 153.274 127.636 153.582 127.602C154.038 127.545 154.255 127.728 154.3 127.773L154.312 127.785H158.064C158.166 127.625 158.075 127.316 157.984 127.087Z" fill="#333333"/>
<path d="M145.724 114.095C146.203 118.887 147.811 126.401 147.811 126.401L148.986 126.778C148.986 126.778 151.586 108.754 151.974 107.416C154.631 98.0834 155.053 87.0011 155.053 87.0011L147.161 86.6123C146.363 87.9504 145.747 90.1577 145.941 92.6395C146.751 103.516 145.154 108.365 145.724 114.095Z" fill="#8BDBEE"/>
<path d="M153.536 127.087C153.479 126.927 153.342 126.813 153.183 126.767C152.784 126.652 151.997 126.55 151.278 125.898C150.879 125.532 149.328 124.548 149.328 124.548H149.317C149.282 124.548 149.123 124.594 148.416 125.2C148.051 125.509 147.458 124.743 147.458 124.743C147.458 124.743 147.309 124.857 147.218 125.04C147.15 125.177 147.093 125.372 147.138 125.623C147.195 125.966 147.013 126.595 146.865 127.018C146.773 127.281 146.705 127.464 146.705 127.464C146.705 127.464 146.659 127.682 147.423 127.773H148.302C148.598 127.728 148.815 127.636 149.123 127.602C149.579 127.545 149.796 127.728 149.841 127.773L149.853 127.785H153.605C153.719 127.625 153.627 127.316 153.536 127.087Z" fill="#333333"/>
<path d="M127.751 125.886C128.048 126.573 127.728 127.362 127.021 127.648C126.325 127.945 125.504 127.625 125.208 126.938C124.911 126.252 125.231 125.463 125.938 125.177C126.645 124.891 127.455 125.212 127.751 125.886Z" fill="#333333"/>
<path d="M137.661 125.886C137.958 126.573 137.639 127.362 136.931 127.648C136.236 127.945 135.415 127.625 135.118 126.938C134.822 126.252 135.141 125.463 135.848 125.177C136.544 124.891 137.353 125.212 137.661 125.886Z" fill="#333333"/>
<path d="M124.9 125.726L126.861 126.412C127.055 126.481 127.272 126.515 127.477 126.515L138.619 126.401L139.84 124.434L124.9 125.726Z" fill="#23393D"/>
<path d="M131.229 104.019L134.343 96.4824V96.471C134.366 96.4023 134.845 94.7898 137.65 94.4238H137.661L139.965 94.0006C140.262 93.9206 141.128 93.7948 141.516 94.115C141.687 94.2637 141.767 94.481 141.733 94.8012C141.676 95.4302 139.6 100.325 138.22 103.447L138.665 103.63C139.018 102.83 142.12 95.7504 142.212 94.8355C142.257 94.3552 142.12 93.9892 141.824 93.749C141.174 93.2229 139.976 93.4974 139.851 93.5317L137.582 93.9434C134.559 94.3323 133.944 96.1164 133.887 96.3223L130.785 103.836L131.229 104.019Z" fill="#23393D"/>
<path d="M137.194 101.789L143.204 102.956C143.204 102.956 144.96 103.653 144.607 106.638C144.299 109.269 142.964 124.045 142.964 124.045C142.964 124.045 142.679 127.121 135.939 126.229L137.194 101.789Z" fill="#23393D"/>
<path d="M140.535 105.86L138.916 122.409C138.847 123.084 138.608 123.69 138.232 124.205C137.536 125.166 136.395 125.783 135.118 125.795L129.541 125.829H129.405L125.915 125.852C125.561 125.852 125.219 125.806 124.9 125.726C124.82 125.703 124.752 125.68 124.672 125.657C123.463 125.269 122.528 124.308 122.186 123.13C122.037 122.627 122.003 122.089 122.083 121.529L124.615 105.689C124.889 103.996 126.291 102.704 128.048 102.544L129.028 102.452L129.268 102.429L129.462 102.407L132.758 102.098L133.157 102.063L136.338 101.766C136.84 101.72 137.319 101.766 137.764 101.892C137.798 101.903 137.821 101.903 137.855 101.915L138.038 101.972C139.611 102.567 140.706 104.099 140.535 105.86Z" fill="#30545D"/>
<path d="M129.473 102.418C129.45 102.429 126.861 103.973 126.519 105.311C126.166 106.695 123.839 122.855 123.817 123.016C123.817 123.027 123.748 124.594 125.082 125.749L124.9 125.703C124.82 125.68 124.752 125.657 124.672 125.635C123.429 124.422 123.588 123.038 123.6 122.97C123.691 122.306 125.961 106.638 126.314 105.243C126.622 104.019 128.447 102.795 129.04 102.429L129.279 102.406L129.473 102.418Z" fill="#23393D"/>
<path d="M133.168 102.075C132.792 102.315 131.378 103.367 131.07 105.312C130.716 107.587 129.325 124.125 129.313 124.297V124.308V124.319C129.313 124.331 129.108 125.223 129.678 125.829H129.541H129.405C128.857 125.177 129.074 124.377 129.108 124.274C129.154 123.759 130.511 107.553 130.864 105.289C131.127 103.619 132.187 102.578 132.769 102.121L133.168 102.075Z" fill="#23393D"/>
<path d="M138.049 101.995C138.038 102.006 137.502 102.292 137.034 102.807C136.567 103.322 136.065 104.111 135.894 105.22C135.54 107.496 134.434 123.976 134.423 124.148V124.159V124.171C134.423 124.182 134.377 125.189 134.947 125.795H134.594C134.16 125.246 134.183 124.239 134.217 124.125C134.251 123.599 135.335 107.45 135.688 105.197C136.019 103.07 137.467 102.098 137.775 101.915C137.81 101.926 137.832 101.926 137.867 101.938L138.049 101.995Z" fill="#23393D"/>
<path d="M159.421 90.8783C158.737 91.6788 152.726 91.5302 151.381 91.2328C150.457 91.0269 149.739 90.0434 149.225 88.2936C149.054 89.5173 148.678 90.9469 147.823 91.0384C146.431 91.1871 145.85 90.9469 145.679 90.4094C145.656 90.3179 145.929 86.6238 146.18 82.9183C146.351 80.3565 146.5 77.7832 146.523 76.3765C146.523 76.2049 146.523 76.0448 146.523 75.9076C144.31 75.7818 143.443 75.8847 143.443 75.8847C143.443 75.8847 144.493 72.4651 146.91 69.6974C149.146 67.1356 154.471 67.8904 156.638 68.5309C157.995 68.9312 159.284 70.4065 158.622 73.5059C158.235 75.3357 158.794 78.2635 159.01 82.5866C159.227 86.7382 159.569 90.7067 159.421 90.8783Z" fill="#F12C3E"/>
<path d="M157.756 69.137C157.756 69.137 159.421 70.4979 160.379 76.6623C160.379 76.6623 159.843 77.4057 158.246 77.2113C156.661 77.0169 157.756 69.137 157.756 69.137Z" fill="#F12C3E"/>
<path d="M155.908 58.398C155.908 58.398 152.042 53.9834 150.138 56.9341C150.138 56.9341 148.678 57.5859 148.21 60.1363C147.731 62.7325 149.499 64.6424 150.366 64.1278C150.925 63.7961 151.381 64.7797 151.381 64.7797L155.908 58.398Z" fill="#4A190C"/>
<path d="M150.525 56.4651C150.525 56.4651 149.967 54.4637 147.024 55.1728C147.024 55.1728 148.438 54.9555 148.838 55.493C148.838 55.493 147.697 55.0127 147.013 55.4587C146.317 55.9047 146.249 57.3686 146.363 57.8032C146.477 58.2378 147.298 59.5416 147.811 59.5187C148.324 59.5073 148.917 59.0384 148.917 59.0384L150.525 56.4651Z" fill="#4A190C"/>
<path d="M151.096 67.8561C151.016 67.4215 151.449 66.6438 151.381 64.2078L151.575 64.2421L154.756 64.7796C154.756 64.7796 154.836 67.3757 154.859 68.325C154.87 69.1027 151.039 68.5537 151.096 67.8561Z" fill="#F2BEB7"/>
<path d="M154.756 64.7682C154.756 64.7682 154.779 65.7061 154.813 66.6553C153.034 66.6553 151.985 65.1228 151.575 64.2307L154.756 64.7682Z" fill="#EDA8A2"/>
<path d="M151.233 63.899C151.233 63.899 150.263 62.4579 150.001 61.1999C149.818 60.3078 150.183 56.9569 153.536 57.3457C153.536 57.3457 154.506 57.4143 155.441 58.009C156.182 58.4779 157.254 59.5073 156.171 62.4465L155.897 63.4415L151.233 63.899Z" fill="#4A190C"/>
<path d="M155.372 65.6487C155.372 65.6487 151.175 65.8317 151.107 63.2127C151.027 60.5937 150.434 58.8553 153.114 58.6151C155.794 58.3864 156.342 59.3699 156.581 60.2391C156.809 61.1198 156.456 65.5344 155.372 65.6487Z" fill="#F2BEB7"/>
<path d="M155.019 58.5008C155.019 58.5008 153.958 61.6116 152.202 62.1148C150.457 62.618 149.67 62.172 149.67 62.172C149.67 62.172 150.993 61.0512 151.221 59.1641C151.221 59.1641 154.106 57.0712 155.019 58.5008Z" fill="#4A190C"/>
<path d="M154.734 58.7639C154.734 58.7639 155.612 59.4273 155.84 60.0906C156.068 60.7539 156.205 62.1263 156.593 62.0691C156.593 62.0691 157.402 59.9533 156.399 58.7982C155.338 57.5631 154.734 58.7639 154.734 58.7639Z" fill="#4A190C"/>
<path d="M154.905 58.8668C154.905 58.8668 154.175 62.1148 151.985 63.2013C151.985 63.2013 154.152 61.1656 154.289 59.0269C154.403 56.8997 154.905 58.8668 154.905 58.8668Z" fill="#4A190C"/>
<path d="M141.254 90.6953C141.254 90.6953 140.205 91.919 140.091 92.5595C139.976 93.2 140.033 94.8926 140.364 94.9612C140.706 95.0298 140.912 93.8519 141.026 93.6117C141.402 92.834 142.132 93.2 142.235 92.914C142.337 92.6281 142.428 91.29 142.428 91.29L141.254 90.6953Z" fill="#F2BEB7"/>
<path d="M144.8 73.8833C144.8 73.8833 141.972 79.4187 141.813 81.7403C141.653 84.062 141.254 90.6953 141.254 90.6953L142.428 91.29C142.428 91.29 144.857 82.5523 145.006 81.2257C145.165 79.7503 149.978 74.8554 149.978 74.8554L144.8 73.8833Z" fill="#F2BEB7"/>
<path d="M149.841 71.7446H145.61L143.443 75.8733C143.443 75.8733 146.887 78.7325 150.32 77.5774C153.764 76.4108 149.841 71.7446 149.841 71.7446Z" fill="#F12C3E"/>
<path d="M187.818 128.128H0.182469C0.0798301 128.128 0 127.99 0 127.83C0 127.67 0.0798301 127.533 0.182469 127.533H187.829C187.932 127.533 188.011 127.67 188.011 127.83C188 127.99 187.92 128.128 187.818 128.128Z" fill="#23393D"/>
<path d="M85.1331 87.1841C85.1331 87.1841 85.3726 87.4586 85.5095 87.6301C85.6463 87.8017 85.8174 88.4536 85.7262 88.5565C85.6349 88.6709 85.0647 88.831 85.0419 88.4879C85.0305 88.1562 85.1331 87.1841 85.1331 87.1841Z" fill="#F2BEB7"/>
<path d="M106.243 84.5081C106.243 84.5081 106.767 85.686 107.759 85.9262C108.98 86.2121 109.504 87.7561 109.504 88.0992C109.504 88.4537 107.953 87.3101 107.337 87.2872C106.721 87.2643 106.391 87.5845 105.98 86.7611C105.558 85.9491 105.034 85.1485 105.034 85.1485L106.243 84.5081Z" fill="#F2BEB7"/>
<path d="M90.6984 84.9882C91.2458 84.9882 91.7362 84.8738 92.1582 84.668C97.4156 82.049 92.5345 64.0475 92.5345 64.0475C92.5345 64.0475 92.3178 63.1555 91.3257 62.8009C90.9607 62.6751 90.151 62.6866 89.1817 62.6179C86.0341 62.3892 85.8744 64.2305 85.7718 64.8824C85.6577 65.5343 83.1488 84.9539 90.6984 84.9882Z" fill="#F12C3E"/>
<path d="M92.1582 84.6681C97.4156 82.0491 92.5346 64.0476 92.5346 64.0476C92.5346 64.0476 92.2837 63.2356 91.3257 62.801C89.2957 63.3386 88.8738 64.2992 88.7597 64.8825C88.6685 65.4887 86.5131 82.1634 92.1582 84.6681Z" fill="#C21C2C"/>
<path d="M96.0357 124.891C96.0357 124.891 95.7392 127.236 96.2752 127.499C96.7998 127.762 103.084 127.67 103.084 127.67C103.084 127.67 103.084 126.881 102 126.698C100.917 126.527 99.0122 125.875 98.6929 124.445C98.385 123.004 96.0357 124.891 96.0357 124.891Z" fill="#30545D"/>
<path d="M101.726 89.0597C101.726 89.0597 101.373 93.5086 100.951 98.8496C100.381 106.112 99.6964 115.021 99.628 116.714C99.514 119.642 99.0464 124.342 99.0464 124.342C99.0464 124.342 97.9402 125.451 95.7163 124.983C95.7163 124.983 93.732 118.281 93.1732 111.201C93.1618 111.087 93.1504 110.973 93.1504 110.847C92.6144 103.63 91.8047 88.4421 91.8047 88.4421L101.726 89.0597Z" fill="white"/>
<path d="M100.107 89.5858C100.107 89.5858 93.6978 105.689 89.4896 113.248C85.2814 120.82 83.9585 122.924 83.9585 122.924C83.9585 122.924 81.5408 121.952 81.3241 121.3C81.3241 121.3 82.9321 106.695 85.7604 103.127C87.357 101.114 89.2273 95.0754 89.3185 92.9596C89.4098 90.8438 89.8887 86.6694 89.8887 86.6694L100.107 89.5858Z" fill="white"/>
<path d="M98.5104 66.0377C96.0129 66.8268 91.6792 64.6881 91.6792 64.6881C91.6792 64.6881 93.2986 63.4758 93.7548 60.9598C93.846 60.468 93.8917 59.9304 93.8689 59.3472L96.2067 61.2457L97.1191 61.9776C97.1191 61.9776 97.1191 62.2292 97.0735 62.6867C97.0393 63.1442 96.9594 63.8189 96.8226 64.6653C97.8946 65.2485 98.5104 66.0377 98.5104 66.0377Z" fill="#F2BEB7"/>
<path d="M106.277 85.9491C106.836 85.4916 106.95 85.137 106.95 85.137C106.95 85.137 102.422 78.9155 102.046 78.3093C101.669 77.7032 98.8069 67.9705 98.8069 67.9705L91.588 66.5066C91.588 66.5066 97.6095 78.9612 98.6016 80.4823C100.255 82.9869 105.433 86.418 105.433 86.418C105.433 86.418 105.866 86.2922 106.277 85.9491Z" fill="#23393D"/>
<path d="M89.3984 87.4244C89.387 87.5731 89.558 87.7332 89.7519 87.8704C89.9116 87.9848 90.094 88.0649 90.2081 88.122C90.7555 88.3737 91.3029 88.591 91.8389 88.7854C93.1162 89.2657 94.382 89.5859 95.7506 89.7118C97.2103 89.8604 98.8411 89.7118 100.084 89.5974C100.78 89.5173 101.35 89.4487 101.704 89.4487H101.749C101.852 89.4487 101.943 89.4144 102.012 89.3458C102.069 89.3115 102.114 87.1156 102.08 84.1649C102.08 83.7532 102.069 83.33 102.069 82.884C102.069 82.7468 102.069 82.5867 102.046 82.4494V82.4037C102.034 81.0198 101.989 79.5559 101.932 78.1035V78.0806C101.795 74.8554 101.544 71.7561 101.111 70.0406C100.723 68.4509 99.149 66.6553 97.9858 65.4887C97.4612 64.9512 96.8112 64.5624 96.0927 64.3336C94.8496 63.9448 92.9337 63.4301 92.5346 63.7732C92.2266 64.0134 91.9529 64.3222 91.702 64.6767C91.6792 64.6882 91.6792 64.6882 91.6792 64.6996C91.6678 64.6996 91.6678 64.6996 91.6678 64.6996C91.4625 64.997 91.2687 65.3286 91.0976 65.6946C90.8125 66.2779 90.573 66.9526 90.3563 67.696C89.7975 69.7203 89.5238 72.2593 89.5238 74.9812C89.5238 75.6789 89.5466 76.3765 89.5922 77.0856C89.6036 77.2915 89.615 77.4859 89.615 77.6803C89.6949 79.4416 89.6835 81.077 89.6379 82.5066V82.5524C89.5922 84.0048 89.5124 85.2285 89.444 86.1435C89.4326 86.681 89.4098 87.127 89.3984 87.4244Z" fill="#30545D"/>
<path d="M89.4782 86.1321C89.615 84.2107 89.8431 80.9055 89.615 77.0856C89.5694 76.3766 89.558 75.6675 89.5466 74.9813C90.4019 72.8998 91.0976 71.3901 91.0976 71.3901H93.253C93.2644 71.3787 94.8382 82.2207 89.4782 86.1321Z" fill="#23393D"/>
<path d="M97.1191 61.9661C97.1191 61.9661 97.1191 62.2178 97.0734 62.6752C95.2145 62.4579 93.8004 61.0055 93.7548 60.9597L96.2067 61.2342L97.1191 61.9661Z" fill="#EDA8A2"/>
<path d="M97.8832 61.9091C97.8832 61.9091 93.7548 62.5953 93.3557 60.0106C92.9679 57.4259 92.1696 55.7675 94.7926 55.2186C97.4156 54.6696 98.077 55.5846 98.4192 56.408C98.7613 57.2429 98.9438 61.6575 97.8832 61.9091Z" fill="#F2BEB7"/>
<path d="M93.3556 59.7589C93.3556 59.7589 93.7776 59.6902 93.7092 59.107C93.6408 58.5237 93.6407 57.7574 94.1197 57.8947C94.5987 58.0319 94.6215 58.4208 94.8154 58.192C95.0093 57.9747 95.0093 57.0255 96.4234 56.9683C97.8375 56.8997 98.4078 57.3914 99.0692 57.1055C99.7307 56.8196 99.7649 55.8132 99.7649 55.8132C99.7649 55.8132 99.5824 56.1677 99.2973 56.2821C99.2973 56.2821 100.392 54.7724 99.1262 53.7431C97.8603 52.7138 96.5603 53.3886 95.8304 53.4343C94.211 53.5373 93.1618 53.6288 92.6372 54.6924C92.1012 55.7674 92.3178 58.7295 93.3556 59.7589Z" fill="#4A190C"/>
<path d="M71.4936 125.383C71.8357 126.172 71.4594 127.075 70.6611 127.407C69.8514 127.739 68.9276 127.384 68.5855 126.595C68.2434 125.806 68.6197 124.902 69.418 124.571C70.2163 124.239 71.1515 124.605 71.4936 125.383Z" fill="#333333"/>
<path d="M82.8637 125.383C83.2058 126.172 82.8295 127.075 82.0312 127.407C81.2215 127.739 80.2977 127.384 79.9556 126.595C79.6135 125.806 79.9898 124.902 80.7881 124.571C81.5864 124.239 82.5216 124.605 82.8637 125.383Z" fill="#333333"/>
<path d="M68.2206 125.188L70.4786 125.977C70.7067 126.057 70.9462 126.092 71.1857 126.092L83.9699 125.966L85.3612 123.713L68.2206 125.188Z" fill="#23393D"/>
<path d="M75.4737 100.291L79.0432 91.6444V91.6329C79.066 91.5529 79.6248 89.7001 82.8409 89.277H82.8523L85.4981 88.7852C85.8402 88.6937 86.8324 88.545 87.2771 88.9224C87.4824 89.0826 87.5622 89.3456 87.528 89.7116C87.4596 90.4321 85.0875 96.0475 83.5023 99.6387L84.0041 99.856C84.4146 98.9296 87.9728 90.8095 88.0754 89.7688C88.121 89.2198 87.9728 88.7966 87.6307 88.5222C86.8894 87.916 85.5095 88.2362 85.3612 88.2706L82.7496 88.7509C79.2827 89.1969 78.5756 91.2441 78.5072 91.4728L74.9605 100.085L75.4737 100.291Z" fill="#23393D"/>
<path d="M82.3277 97.7288L89.2273 99.0783C89.2273 99.0783 91.2344 99.8789 90.8353 103.31C90.4818 106.329 88.9422 123.29 88.9422 123.29C88.9422 123.29 88.6229 126.824 80.8793 125.795L82.3277 97.7288Z" fill="#23393D"/>
<path d="M86.1595 102.395L84.3006 121.391C84.2208 122.158 83.9471 122.867 83.5137 123.461C82.7154 124.559 81.4039 125.268 79.9442 125.28L73.5464 125.314H73.3867L69.3838 125.337C68.9846 125.337 68.5969 125.291 68.2206 125.2C68.1293 125.177 68.0495 125.154 67.9697 125.131C66.5783 124.685 65.5177 123.587 65.1186 122.226C64.9475 121.654 64.9019 121.025 65.0045 120.396L67.9126 102.223C68.2206 100.291 69.84 98.8039 71.8471 98.6094L72.9761 98.5065L73.2498 98.4836L73.4779 98.4608L77.2528 98.1062L77.7203 98.0605L81.3697 97.7174C81.9399 97.6602 82.4987 97.7174 83.0119 97.866C83.0462 97.8775 83.0804 97.8889 83.1146 97.9004L83.3199 97.969C85.0989 98.6094 86.3534 100.382 86.1595 102.395Z" fill="#30545D"/>
<path d="M73.4665 98.4492C73.4437 98.4607 70.4672 100.233 70.0795 101.777C69.6803 103.367 67.0003 121.917 66.9661 122.1C66.9661 122.112 66.8863 123.907 68.4144 125.246L68.2091 125.2C68.1179 125.177 68.0381 125.154 67.9583 125.131C66.5213 123.747 66.7152 122.146 66.7266 122.078C66.8406 121.311 69.4408 103.333 69.84 101.732C70.1935 100.325 72.2919 98.9296 72.9647 98.5064L73.2385 98.4835L73.4665 98.4492Z" fill="#23393D"/>
<path d="M77.7089 98.0488C77.287 98.3347 75.6562 99.5356 75.3026 101.766C74.8921 104.373 73.3069 123.358 73.2841 123.553V123.564V123.576C73.2841 123.587 73.056 124.605 73.706 125.303H73.5464H73.3867C72.7595 124.559 73.0104 123.644 73.0446 123.507C73.0902 122.924 74.664 104.316 75.0631 101.72C75.3597 99.7986 76.5799 98.6092 77.2414 98.0831L77.7089 98.0488Z" fill="#23393D"/>
<path d="M83.3084 97.9574C83.297 97.9689 82.6812 98.3005 82.1452 98.8952C81.6092 99.4785 81.039 100.393 80.8337 101.663C80.4232 104.271 79.1573 123.187 79.1459 123.381V123.393V123.404C79.1459 123.416 79.0889 124.571 79.7389 125.268H79.3397C78.838 124.628 78.8722 123.484 78.9064 123.347C78.952 122.741 80.1837 104.213 80.5942 101.617C80.9706 99.1812 82.6356 98.0604 82.9891 97.8545C83.0233 97.8659 83.0575 97.8774 83.0918 97.8888L83.3084 97.9574Z" fill="#23393D"/>
<path d="M86.1253 84.5308L85.2244 86.7381C85.1103 87.0011 85.1103 87.2985 85.1902 87.5615C85.3726 88.1333 85.4867 89.2541 84.1638 90.0547C84.1638 90.0547 83.3541 90.455 83.2286 89.826C83.1032 89.197 83.24 89.4257 83.0462 88.5451C82.8751 87.7788 83.2628 87.2985 83.5251 86.7609C83.6506 86.4979 83.6962 86.2348 83.719 86.0175L83.9015 84.6337L86.1253 84.5308Z" fill="#F2BEB7"/>
<path d="M84.1866 87.0012C84.9621 87.1499 85.806 87.0927 85.806 87.0927C85.806 87.0927 88.1097 79.9447 88.4062 79.2928C88.7027 78.6409 95.2602 71.3786 95.2602 71.3786L91.109 65.6831C91.109 65.6831 85.4411 75.9304 84.7226 77.6002C83.5366 80.3564 83.1146 86.5437 83.1146 86.5437C83.1146 86.5437 83.5822 86.8754 84.1866 87.0012Z" fill="#30545D"/>
<path d="M89.672 82.4952V82.5409C90.8467 82.2664 91.8503 81.7175 92.717 80.9969C94.325 79.6817 95.4198 77.7489 96.1155 75.7246C97.1875 72.5795 97.2673 69.2057 96.7199 67.5359C96.6515 67.3186 96.5603 67.1356 96.469 66.9869C96.2523 66.621 96.0014 66.3007 95.7163 66.0491C94.8154 65.1914 93.6636 64.8597 92.8196 64.7339C92.5687 64.6996 92.3521 64.6882 92.1696 64.6767C91.9073 64.6653 91.7476 64.6767 91.702 64.6767C91.6906 64.6767 91.6906 64.6767 91.6906 64.6767C91.1546 64.8254 90.7441 65.2028 91.1204 65.6717C91.2915 65.6488 91.4397 65.6488 91.588 65.6488C92.238 65.626 92.7968 65.7175 93.2758 65.8776C94.0855 66.1406 94.6557 66.621 95.0549 67.1928C96.1953 68.7939 95.9444 71.0927 95.9444 71.0927C95.8532 72.305 95.6707 73.3801 95.4312 74.3293C94.8838 76.5023 94.0285 78.0577 93.1504 79.1442C91.5081 81.1914 89.7063 81.6374 89.7063 81.6374C89.7063 81.6374 89.6606 81.7975 89.6492 82.072C89.615 82.335 89.672 82.4952 89.672 82.4952Z" fill="#C21C2C"/>
<path d="M106.06 86.9097C106.06 86.9097 106.391 87.4243 106.756 87.5616C107.121 87.6988 107.691 88.1791 107.748 88.0533C107.805 87.9275 107.714 87.7102 107.497 87.5501C107.28 87.4015 107.212 87.207 107.269 87.0927C107.326 86.9783 106.06 86.9097 106.06 86.9097Z" fill="#F2BEB7"/>
<path d="M73.535 39.4243C68.1749 39.4243 63.8185 44.1134 63.8185 49.9004C63.8185 55.6874 73.535 64.9282 73.535 64.9282C73.535 64.9282 83.2514 55.6759 83.2514 49.9004C83.2514 44.1248 78.9064 39.4243 73.535 39.4243ZM73.535 55.024C70.3646 55.024 67.81 52.4622 67.81 49.2828C67.81 46.1148 70.3646 43.5415 73.535 43.5415C76.6825 43.5415 79.2599 46.1148 79.2599 49.2828C79.2599 52.4622 76.6939 55.024 73.535 55.024Z" fill="#F12C3E"/>
<path d="M76.6598 38.2921C76.6484 38.2921 76.6255 38.2921 76.6141 38.2921C76.4203 38.2692 76.2834 38.0862 76.3062 37.8918C76.3062 37.8804 76.3404 37.6287 76.4203 37.1713C76.4545 36.9769 76.637 36.8396 76.8308 36.8739C77.0247 36.9082 77.1615 37.0912 77.1273 37.2856C77.0589 37.7317 77.0247 37.9833 77.0247 37.9947C76.9905 38.1548 76.8422 38.2921 76.6598 38.2921Z" fill="#30545D"/>
<path d="M77.0133 36.1305C76.9905 36.1305 76.9677 36.1305 76.9449 36.1191C76.751 36.0848 76.6141 35.9018 76.6598 35.6959C76.7396 35.227 76.8308 34.7352 76.9335 34.2434C76.9677 34.049 77.1615 33.9232 77.3554 33.9575C77.5493 33.9918 77.6747 34.1863 77.6405 34.3807C77.5493 34.861 77.4581 35.3528 77.3668 35.8217C77.3326 36.0047 77.1844 36.1305 77.0133 36.1305ZM77.5835 33.2485C77.5607 33.2485 77.5379 33.2485 77.5037 33.237C77.3098 33.1913 77.1844 33.0083 77.23 32.8139C77.3326 32.3335 77.4352 31.8532 77.5493 31.3728C77.5949 31.1784 77.7888 31.0526 77.9827 31.0983C78.1765 31.1441 78.302 31.3385 78.2564 31.5329C78.1537 32.0133 78.0397 32.4936 77.9484 32.9625C77.8914 33.1341 77.7432 33.2485 77.5835 33.2485ZM78.2221 30.3778C78.1993 30.3778 78.1651 30.3778 78.1423 30.3664C77.9484 30.3206 77.8344 30.1262 77.88 29.9318C77.9941 29.4515 78.1195 28.9711 78.2335 28.5022C78.2792 28.3078 78.4844 28.1934 78.6669 28.2392C78.8608 28.2849 78.9748 28.4908 78.9292 28.6738C78.8038 29.1427 78.6897 29.623 78.5757 30.0919C78.5301 30.2749 78.3818 30.3778 78.2221 30.3778ZM78.952 27.5415C78.9178 27.5415 78.8836 27.5415 78.8608 27.5301C78.6669 27.4729 78.5529 27.2785 78.6099 27.084C78.7353 26.6037 78.8722 26.1348 79.009 25.6659C79.0661 25.4715 79.2599 25.3685 79.4538 25.4257C79.6477 25.4829 79.7503 25.6773 79.6933 25.8718C79.5564 26.3292 79.431 26.8096 79.2941 27.2785C79.2599 27.4386 79.1117 27.5415 78.952 27.5415ZM79.7731 24.7166C79.7389 24.7166 79.7047 24.7166 79.6705 24.7052C79.4766 24.648 79.374 24.4422 79.431 24.2592C79.5793 23.7903 79.7275 23.3099 79.8758 22.8525C79.9328 22.658 80.1381 22.5551 80.3319 22.6237C80.5258 22.6809 80.6285 22.8868 80.56 23.0812C80.4118 23.5387 80.2635 24.0076 80.1153 24.4765C80.0696 24.6251 79.9214 24.7166 79.7731 24.7166ZM80.6741 21.9261C80.6399 21.9261 80.5942 21.9146 80.56 21.9032C80.3776 21.8346 80.2749 21.6287 80.3433 21.4457C80.503 20.9768 80.6741 20.5079 80.8337 20.0619C80.9022 19.8789 81.1074 19.776 81.2899 19.8446C81.4724 19.9132 81.575 20.1191 81.5066 20.3021C81.3469 20.7481 81.1759 21.217 81.0162 21.6745C80.9592 21.8346 80.8223 21.9261 80.6741 21.9261ZM123.224 21.0683C123.087 21.0683 122.961 20.9883 122.893 20.8625C122.699 20.4279 122.482 19.9818 122.266 19.5472C122.174 19.3642 122.254 19.1584 122.425 19.0669C122.608 18.9754 122.813 19.0555 122.904 19.227C123.121 19.673 123.338 20.1191 123.531 20.5651C123.611 20.7481 123.531 20.9654 123.349 21.0454C123.326 21.0569 123.281 21.0683 123.224 21.0683ZM81.6891 19.1813C81.6434 19.1813 81.5978 19.1698 81.5636 19.1584C81.3811 19.0898 81.2899 18.8725 81.3583 18.6895C81.5408 18.232 81.7233 17.7745 81.9057 17.3285C81.9856 17.1455 82.1908 17.054 82.3733 17.1341C82.5558 17.2141 82.647 17.42 82.5672 17.603C82.3847 18.049 82.2022 18.4951 82.0198 18.9525C81.9628 19.0898 81.8259 19.1813 81.6891 19.1813ZM121.935 18.4379C121.809 18.4379 121.684 18.3692 121.616 18.2434C121.387 17.8088 121.159 17.3857 120.92 16.9625C120.829 16.791 120.886 16.5737 121.057 16.4708C121.228 16.3793 121.444 16.4364 121.547 16.608C121.787 17.0312 122.015 17.4657 122.243 17.9118C122.334 18.0833 122.266 18.3006 122.095 18.4036C122.049 18.4264 121.992 18.4379 121.935 18.4379ZM82.8181 16.4708C82.7725 16.4708 82.7154 16.4593 82.6698 16.4364C82.4874 16.3564 82.4075 16.1391 82.4874 15.9561C82.6926 15.4986 82.8979 15.0526 83.1032 14.618C83.1944 14.435 83.3997 14.3664 83.5822 14.4464C83.7646 14.5379 83.8331 14.7438 83.7532 14.9268C83.548 15.3614 83.3427 15.8074 83.1374 16.2535C83.0804 16.3907 82.9549 16.4708 82.8181 16.4708ZM120.509 15.876C120.384 15.876 120.27 15.8074 120.201 15.7045C119.951 15.2813 119.7 14.8696 119.449 14.4579C119.346 14.2863 119.392 14.069 119.563 13.9661C119.734 13.8632 119.951 13.9089 120.053 14.0805C120.315 14.4922 120.566 14.9154 120.817 15.3385C120.92 15.5101 120.863 15.7274 120.692 15.8303C120.635 15.8532 120.578 15.876 120.509 15.876ZM84.084 13.8289C84.0269 13.8289 83.9699 13.8174 83.9243 13.7831C83.7532 13.6916 83.6734 13.4743 83.7646 13.3028C83.9927 12.8567 84.2208 12.4221 84.4603 11.999C84.5515 11.8274 84.7796 11.7588 84.9507 11.8617C85.1218 11.9532 85.1902 12.182 85.0875 12.3535C84.8594 12.7652 84.6314 13.1998 84.4033 13.6344C84.3349 13.7488 84.2094 13.8289 84.084 13.8289ZM118.958 13.3943C118.844 13.3943 118.73 13.3371 118.662 13.2342C118.388 12.8339 118.114 12.4221 117.841 12.0333C117.727 11.8732 117.761 11.6444 117.921 11.5301C118.08 11.4157 118.308 11.45 118.422 11.6101C118.707 12.0104 118.981 12.4107 119.266 12.8224C119.38 12.9825 119.335 13.2113 119.164 13.3256C119.095 13.3714 119.027 13.3943 118.958 13.3943ZM85.4981 11.267C85.4297 11.267 85.3726 11.2556 85.3156 11.2098C85.1446 11.1069 85.0875 10.8896 85.1902 10.7181C85.4525 10.2949 85.7148 9.87175 85.9771 9.46003C86.0911 9.28848 86.3078 9.24273 86.4789 9.3571C86.6499 9.47146 86.6955 9.68876 86.5815 9.86031C86.3192 10.2606 86.0683 10.6723 85.806 11.084C85.7376 11.1984 85.6235 11.267 85.4981 11.267ZM117.248 11.004C117.145 11.004 117.031 10.9582 116.963 10.8667C116.666 10.4779 116.358 10.1005 116.062 9.72307C115.936 9.5744 115.959 9.34566 116.107 9.21986C116.256 9.09405 116.484 9.11693 116.609 9.2656C116.917 9.64302 117.225 10.0319 117.521 10.4207C117.647 10.5808 117.613 10.8096 117.453 10.9239C117.407 10.9811 117.328 11.004 117.248 11.004ZM87.1061 8.81957C87.0377 8.81957 86.9578 8.7967 86.9008 8.75095C86.7412 8.63658 86.7069 8.40785 86.821 8.24773C87.1175 7.83601 87.414 7.44716 87.7219 7.06975C87.8474 6.90964 88.0755 6.88676 88.2237 7.01257C88.3834 7.13837 88.4062 7.3671 88.2807 7.51578C87.9842 7.88176 87.6877 8.27061 87.4026 8.67089C87.3342 8.76239 87.2201 8.81957 87.1061 8.81957ZM115.389 8.73951C115.286 8.73951 115.195 8.69377 115.115 8.61371C114.796 8.24773 114.454 7.89319 114.134 7.55009C113.997 7.41285 113.997 7.18412 114.146 7.03544C114.283 6.8982 114.511 6.8982 114.659 7.04688C114.99 7.38998 115.332 7.75595 115.662 8.13337C115.799 8.28204 115.777 8.51078 115.628 8.63658C115.56 8.7052 115.48 8.73951 115.389 8.73951ZM113.359 6.63515C113.268 6.63515 113.188 6.60084 113.108 6.53222C112.754 6.20056 112.389 5.86889 112.036 5.57154C111.888 5.44573 111.865 5.217 111.99 5.06832C112.116 4.91964 112.344 4.89677 112.492 5.02257C112.857 5.33136 113.233 5.66303 113.598 6.00613C113.747 6.14337 113.747 6.37211 113.61 6.52079C113.541 6.60084 113.45 6.63515 113.359 6.63515ZM88.9422 6.53222C88.8624 6.53222 88.7711 6.49791 88.7027 6.44073C88.5544 6.30349 88.543 6.07475 88.6799 5.93751C89.0106 5.5601 89.3642 5.20556 89.7063 4.86246C89.8431 4.72522 90.0712 4.72522 90.2195 4.86246C90.3563 4.9997 90.3563 5.22843 90.2195 5.37711C89.8887 5.70878 89.5466 6.05188 89.2273 6.41786C89.1361 6.48648 89.0334 6.53222 88.9422 6.53222ZM111.124 4.74809C111.044 4.74809 110.975 4.72522 110.907 4.67947C110.519 4.38211 110.12 4.10763 109.732 3.84459C109.561 3.73022 109.516 3.51292 109.63 3.34137C109.744 3.16982 109.96 3.12407 110.131 3.23844C110.531 3.50149 110.941 3.79884 111.34 4.0962C111.5 4.21056 111.534 4.4393 111.409 4.59941C111.34 4.69091 111.238 4.74809 111.124 4.74809ZM91.0292 4.48505C90.9265 4.48505 90.8239 4.4393 90.7555 4.35924C90.63 4.21056 90.6414 3.98183 90.8011 3.85602C91.1888 3.52436 91.5766 3.21557 91.9757 2.92965C92.1354 2.81528 92.3635 2.84959 92.4775 3.00971C92.5916 3.16982 92.5574 3.39856 92.3977 3.51292C92.0214 3.78741 91.645 4.08476 91.2687 4.39355C91.1888 4.45074 91.109 4.48505 91.0292 4.48505ZM108.683 3.13551C108.626 3.13551 108.558 3.12407 108.501 3.08976C108.079 2.84959 107.657 2.63229 107.223 2.42643C107.041 2.34638 106.972 2.12908 107.052 1.94609C107.132 1.7631 107.349 1.69448 107.531 1.77454C107.976 1.9804 108.421 2.20913 108.854 2.46074C109.025 2.56367 109.082 2.78097 108.991 2.95252C108.934 3.06689 108.808 3.13551 108.683 3.13551ZM93.3899 2.78097C93.2644 2.78097 93.1504 2.71235 93.082 2.60942C92.9793 2.43787 93.0363 2.22057 93.2074 2.11764C93.6408 1.86603 94.0855 1.62586 94.5303 1.42C94.7128 1.33994 94.9295 1.42 95.0093 1.59155C95.0891 1.77454 95.0093 1.99184 94.8382 2.07189C94.4163 2.26632 93.9943 2.49505 93.5837 2.73522C93.5153 2.7581 93.4583 2.78097 93.3899 2.78097ZM106.049 1.88891C106.003 1.88891 105.969 1.87747 105.923 1.86603C105.478 1.69448 105.022 1.5458 104.566 1.42C104.372 1.36282 104.258 1.16839 104.315 0.973967C104.372 0.779542 104.566 0.665174 104.76 0.722358C105.228 0.859599 105.707 1.00828 106.174 1.19126C106.357 1.25989 106.459 1.46575 106.379 1.66017C106.334 1.79741 106.197 1.88891 106.049 1.88891ZM96.0357 1.55724C95.8874 1.55724 95.7506 1.46575 95.6935 1.31707C95.6251 1.13408 95.7278 0.92822 95.9216 0.859599C96.3892 0.699485 96.8796 0.562244 97.3586 0.459313C97.5524 0.413566 97.7463 0.53937 97.7919 0.733795C97.8376 0.92822 97.7121 1.12264 97.5182 1.16839C97.0621 1.27132 96.6059 1.39713 96.1497 1.5458C96.1155 1.5458 96.0699 1.55724 96.0357 1.55724ZM103.232 1.09977C103.209 1.09977 103.186 1.09977 103.163 1.08833C102.696 1.00828 102.217 0.939656 101.749 0.893909C101.555 0.871036 101.407 0.699485 101.419 0.50506C101.441 0.310636 101.612 0.161958 101.806 0.173395C102.297 0.219142 102.798 0.287762 103.289 0.367819C103.483 0.402129 103.608 0.596554 103.574 0.790979C103.563 0.985403 103.403 1.09977 103.232 1.09977ZM98.8753 0.92822C98.6929 0.92822 98.5332 0.790979 98.5218 0.607991C98.499 0.413566 98.6473 0.230578 98.8411 0.207705C98.9894 0.196268 99.149 0.173395 99.2973 0.161958C99.6394 0.139084 99.993 0.127648 100.335 0.116211C100.54 0.116211 100.7 0.276325 100.7 0.47075C100.7 0.665174 100.54 0.836726 100.347 0.836726C100.016 0.836726 99.6851 0.848162 99.3543 0.871036C99.2175 0.882473 99.0692 0.893909 98.921 0.905346C98.8982 0.92822 98.8867 0.92822 98.8753 0.92822Z" fill="#0382A9"/>
<path d="M124.067 23.0469C123.919 23.0469 123.782 22.9554 123.737 22.8181C123.737 22.8181 123.646 22.578 123.474 22.1662C123.395 21.9833 123.486 21.766 123.668 21.6973C123.851 21.6173 124.067 21.7088 124.136 21.8918C124.318 22.3264 124.41 22.5551 124.41 22.5665C124.478 22.7495 124.387 22.9554 124.204 23.0354C124.159 23.0354 124.113 23.0469 124.067 23.0469Z" fill="#30545D"/>
</g>
<defs>
<clipPath id="clip0_567_32">
<rect width="188" height="128" fill="white" transform="translate(0 0.127686)"/>
</clipPath>
</defs>
</svg>
