<svg width="158" height="168" viewBox="0 0 158 168" fill="none" xmlns="http://www.w3.org/2000/svg">
<path d="M23.5451 77.3669L12.3815 80.8376L10.5547 117.654H23.5451V77.3669Z" fill="#A6D3E1"/>
<path d="M23.5452 77.3669L34.7088 80.8376L36.6032 117.654H23.5452V77.3669Z" fill="#40A1BE"/>
<path d="M17.9295 38.7814L9.81055 30.2749L20.5006 37.2162L18.7414 38.9175L17.9295 38.7814Z" fill="#A6D3E1"/>
<path d="M18.6737 41.3675L7.0365 38.3052L19.9592 38.7815L19.418 41.0953L18.6737 41.3675Z" fill="#A6D3E1"/>
<path d="M20.6358 36.1274L17.3882 25.0349L23.6804 35.7872L21.3124 36.6038L20.6358 36.1274Z" fill="#A6D3E1"/>
<path d="M32.2054 38.7814L40.3921 30.2749L29.6344 37.2162L31.3935 38.9175L32.2054 38.7814Z" fill="#A6D3E1"/>
<path d="M31.5288 41.3675L43.1661 38.3052L30.1757 38.7815L30.7169 41.0953L31.5288 41.3675Z" fill="#A6D3E1"/>
<path d="M29.4991 36.1274L32.8143 25.0349L26.5221 35.7872L28.8901 36.6038L29.4991 36.1274Z" fill="#A6D3E1"/>
<path d="M17.7942 38.1008V55.9985L22.0567 56.8832L21.4477 40.5507L17.7942 38.1008Z" fill="#0082A9"/>
<path d="M32.4084 38.1008V55.9985L28.1459 56.8832L28.7548 40.5507L32.4084 38.1008Z" fill="#0082A9"/>
<path d="M16.7793 41.6394C16.7793 41.6394 20.1622 43.2727 24.763 43.2727V37.6924C24.763 37.6924 17.8618 39.6659 16.7793 41.6394Z" fill="#0082A9"/>
<path d="M33.4233 41.6394C33.4233 41.6394 30.0403 43.2727 25.4396 43.2727V37.6924C25.4396 37.6924 32.2731 39.6659 33.4233 41.6394Z" fill="#0082A9"/>
<path d="M25.1013 21.0876L23.6128 35.3105H26.5898L25.1013 21.0876Z" fill="#A6D3E1"/>
<path d="M28.5519 47.4919H21.7184V54.5694H28.5519V47.4919Z" fill="#A6D3E1"/>
<path d="M8.66031 38.5092L9.06626 23.6738H5.34505L3.78891 38.9856C3.65359 42.3201 5.54803 45.7227 8.38968 53.1404L13.5317 47.0838C14.6142 48.3087 8.525 41.6396 8.66031 38.5092Z" fill="#A6D3E1"/>
<path d="M4.73608 12.7173C4.73608 12.7173 -1.01488 8.83836 3.78886 4.00666L4.73608 6.32043C4.73608 6.32043 6.96881 2.91782 6.08925 0.127686C6.08925 0.127686 8.79558 1.69289 9.13387 5.3677L10.0811 3.19003C14.5465 7.27316 11.2989 12.0368 8.52495 12.7173H4.73608Z" fill="#F12C3E"/>
<path d="M8.52495 12.7173H4.73608V14.7589H8.52495V12.7173Z" fill="#0082A9"/>
<path d="M4.46545 18.2976L5.48033 33.4732H7.78071L8.86325 18.2976H4.46545Z" fill="#0082A9"/>
<path d="M11.2313 14.759H2.02979V19.3185H11.2313V14.759Z" fill="#40A1BE"/>
<path d="M9.06621 23.6737C9.06621 24.014 8.79557 24.2862 8.38962 24.2862H6.22456C5.88627 24.2862 5.54797 24.014 5.54797 23.6737C5.54797 23.3335 5.81861 23.0613 6.22456 23.0613H8.38962C8.79557 23.0613 9.06621 23.3335 9.06621 23.6737Z" fill="#A6D3E1"/>
<path d="M25.1012 36.6038V49.4656C21.2447 49.4656 19.4856 46.1311 18.6737 43.0687C17.9971 40.6188 17.9294 38.4412 17.9294 38.169L25.1012 36.6038Z" fill="#A6D3E1"/>
<path d="M25.1012 36.6038V38.3731C24.0864 42.0479 20.7034 42.8646 18.6737 43.0007C17.9971 40.5508 17.9294 38.3731 17.9294 38.1009C17.9971 37.8968 18.0648 37.4884 18.0648 37.4884L25.1012 36.6038Z" fill="#0082A9"/>
<path d="M25.1012 36.6038V49.4656C28.9577 49.4656 30.7168 46.1311 31.5287 43.0687C32.2053 40.6188 32.273 38.4412 32.273 38.169L25.1012 36.6038Z" fill="#A6D3E1"/>
<path d="M25.1012 36.6038V38.3731C26.1161 42.0479 29.499 42.8646 31.5287 43.0007C32.2053 40.5508 32.273 38.3731 32.273 38.1009C32.2053 37.8968 32.1377 37.4884 32.1377 37.4884L25.1012 36.6038Z" fill="#0082A9"/>
<path d="M16.7793 38.0327V41.6394C22.1243 38.0327 27.6723 37.7605 33.4233 41.6394V38.1007C30.311 33.8134 20.3652 33.201 16.7793 38.0327Z" fill="#A6D3E1"/>
<path d="M34.5734 53.1405H22.9361L14.5465 45.3145L4.60071 50.5545C4.60071 50.5545 5.61558 55.3181 8.38958 59.6054L6.69812 87.0304C6.69812 87.0304 25.6425 87.0304 34.5734 73.8964L42.76 69.8813C47.6991 67.4995 44.1808 53.1405 34.5734 53.1405Z" fill="#40A1BE"/>
<path d="M32.679 62.3274L38.9036 67.7035L34.3028 72.8074L29.9727 67.5674L32.679 62.3274Z" fill="#A6D3E1"/>
<path d="M50.6084 71.3783L40.8656 87.0303L28.4841 80.0209L38.2269 64.3689L50.6084 71.3783Z" fill="#0082A9"/>
<path d="M47.6314 75.3933C48.511 75.8696 48.7816 77.0265 48.2404 77.8431L46.6165 80.4291C46.0753 81.2457 44.9251 81.518 44.0455 81.0416L43.0307 80.4291C42.1511 79.9528 41.8805 78.7959 42.4217 77.9792L44.0455 75.3933C44.5868 74.5766 45.737 74.3044 46.6165 74.7808L47.6314 75.3933Z" fill="#A6D3E1"/>
<path d="M33.5586 52.3918C33.5586 52.3918 24.966 67.7716 6.96883 70.6298L5.48035 79.8849C5.48035 79.8849 35.7913 77.9795 37.4151 52.6641L33.5586 52.3918Z" fill="#A6D3E1"/>
<path d="M16.441 82.0625L14.9525 117.654L21.7183 117.994L22.0566 81.314L16.441 82.0625Z" fill="#40A1BE"/>
<path d="M41.0009 127.113H4.60071V137.865H41.0009V127.113Z" fill="#0082A9"/>
<path d="M41.0009 141.268H4.60071V155.627H41.0009V141.268Z" fill="#0082A9"/>
<path d="M45.5341 158.961H0V166.107H45.5341V158.961Z" fill="#0082A9"/>
<path d="M43.7073 137.933H1.89441V141.268H43.7073V137.933Z" fill="#A6D3E1"/>
<path d="M43.7073 155.627H1.89441V158.962H43.7073V155.627Z" fill="#A6D3E1"/>
<path d="M38.7005 117.109H6.90112V127.113H38.7005V117.109Z" fill="#0082A9"/>
<path d="M7.23946 27.2806C7.23946 28.0972 6.56288 28.7777 5.68332 28.7777H4.66845C3.78889 28.7777 3.1123 28.0972 3.1123 27.2806V25.171C3.1123 24.3544 3.78889 23.6738 4.66845 23.6738H5.68332C6.56288 23.6738 7.23946 24.3544 7.23946 25.171V27.2806Z" fill="#A6D3E1"/>
<path d="M90.2563 88.7996H86.4674L85.7231 72.467H91.0005L90.2563 88.7996Z" fill="#6D2C00"/>
<path d="M97.9017 76.6863H87.2117V79.0001H97.9017V76.6863Z" fill="#6D2C00"/>
<path d="M88.1588 85.8053C88.1588 85.8053 43.9779 65.7299 36.0619 100.3C31.8671 118.674 43.3014 141.54 52.7059 156.239C58.4568 165.29 69.5528 169.305 79.7015 165.971L88.2265 163.249V85.8053H88.1588Z" fill="#F12C3E"/>
<path d="M53.2317 94.7903L48.5905 99.4573L53.2304 104.126L57.8716 99.4586L53.2317 94.7903Z" fill="#F7FAFF"/>
<path d="M111.027 77.9794L95.1953 77.8433C94.9923 73.8282 96.4132 71.1742 100.405 71.2422C104.803 71.3783 111.027 77.9794 111.027 77.9794Z" fill="#A3C902"/>
<path d="M111.027 77.9794C111.027 77.9794 104.532 84.4444 100.134 84.3763C95.8043 84.3083 95.1277 81.4501 95.1277 77.9114L111.027 77.9794Z" fill="#7AA004"/>
<path d="M88.1588 85.8053C88.1588 85.8053 132.204 65.7299 140.12 100.3C144.315 118.674 132.813 141.54 123.476 156.239C117.726 165.29 106.765 169.305 96.6161 165.971L88.2265 163.249V85.8053H88.1588Z" fill="#D91B2C"/>
<path fill-rule="evenodd" clip-rule="evenodd" d="M105.789 112.128L157.218 127.433L156.715 129.126C156.678 129.11 156.64 129.097 156.601 129.085L151.773 127.648C151.244 127.491 150.687 127.792 150.53 128.321L150.097 129.777C149.939 130.306 150.24 130.863 150.77 131.021L155.598 132.457C155.637 132.469 155.676 132.478 155.715 132.485L147.933 158.635C147.896 158.619 147.858 158.606 147.819 158.594L142.992 157.157C142.462 157 141.905 157.301 141.748 157.83L141.315 159.286C141.157 159.815 141.459 160.372 141.988 160.53L146.816 161.966C146.855 161.978 146.894 161.987 146.933 161.994L146.429 163.687L95 148.381L95.5039 146.688C95.5404 146.704 95.5782 146.718 95.6172 146.729L100.445 148.166C100.974 148.324 101.531 148.022 101.689 147.493L102.122 146.037C102.28 145.508 101.978 144.951 101.449 144.794L96.6209 143.357C96.5818 143.345 96.5426 143.336 96.5034 143.329L104.286 117.179C104.322 117.195 104.36 117.209 104.399 117.221L109.227 118.657C109.756 118.815 110.313 118.513 110.471 117.984L110.904 116.529C111.061 115.999 110.76 115.442 110.231 115.285L105.403 113.848C105.364 113.836 105.325 113.827 105.285 113.821L105.789 112.128ZM114.677 116.608C114.147 116.451 113.591 116.752 113.433 117.281L113 118.737C112.842 119.266 113.144 119.823 113.673 119.98L118.501 121.417C119.03 121.575 119.587 121.273 119.745 120.744L120.178 119.289C120.335 118.759 120.034 118.202 119.505 118.045L114.677 116.608ZM122.707 120.041C122.865 119.512 123.422 119.211 123.951 119.368L128.779 120.805C129.308 120.962 129.61 121.519 129.452 122.049L129.019 123.504C128.861 124.033 128.305 124.335 127.775 124.177L122.947 122.741C122.418 122.583 122.117 122.026 122.274 121.497L122.707 120.041ZM133.225 122.128C132.696 121.97 132.139 122.272 131.981 122.801L131.548 124.257C131.391 124.786 131.692 125.343 132.221 125.5L137.049 126.937C137.579 127.095 138.136 126.793 138.293 126.264L138.726 124.808C138.884 124.279 138.582 123.722 138.053 123.565L133.225 122.128ZM141.256 125.561C141.413 125.032 141.97 124.731 142.499 124.888L147.327 126.325C147.857 126.482 148.158 127.039 148 127.569L147.567 129.024C147.41 129.553 146.853 129.855 146.324 129.697L141.496 128.26C140.966 128.103 140.665 127.546 140.822 127.017L141.256 125.561ZM105.895 146.117C105.366 145.96 104.809 146.261 104.651 146.79L104.218 148.246C104.061 148.775 104.362 149.332 104.891 149.489L109.719 150.926C110.249 151.084 110.805 150.782 110.963 150.253L111.396 148.798C111.554 148.268 111.252 147.711 110.723 147.554L105.895 146.117ZM113.925 149.55C114.083 149.021 114.64 148.72 115.169 148.877L119.997 150.314C120.526 150.471 120.828 151.028 120.67 151.558L120.237 153.013C120.08 153.542 119.523 153.844 118.993 153.686L114.165 152.25C113.636 152.092 113.335 151.535 113.492 151.006L113.925 149.55ZM124.443 151.637C123.914 151.479 123.357 151.781 123.2 152.31L122.766 153.766C122.609 154.295 122.91 154.852 123.44 155.009L128.267 156.446C128.797 156.604 129.354 156.302 129.511 155.773L129.944 154.317C130.102 153.788 129.8 153.231 129.271 153.074L124.443 151.637ZM132.474 155.07C132.631 154.541 133.188 154.24 133.717 154.397L138.545 155.834C139.075 155.991 139.376 156.548 139.219 157.078L138.785 158.533C138.628 159.062 138.071 159.364 137.542 159.206L132.714 157.769C132.184 157.612 131.883 157.055 132.041 156.526L132.474 155.07Z" fill="#2F2F3B"/>
<rect x="111.962" y="122.225" width="36.0655" height="21.9912" rx="2" transform="rotate(16.5732 111.962 122.225)" fill="white"/>
</svg>
