<svg width="154" height="96" viewBox="0 0 154 96" fill="none" xmlns="http://www.w3.org/2000/svg">
<g clip-path="url(#clip0_549_517)">
<path d="M129.254 7.1391V87.5973C129.254 91.4721 126.131 94.6087 122.273 94.6087H6.98048C3.12285 94.5972 0 91.4605 0 87.5858V7.1391C0 3.26437 3.12285 0.127686 6.98048 0.127686H122.273C126.119 0.127686 129.254 3.26437 129.254 7.1391Z" fill="#2F2F3B"/>
<path d="M124 12.3202V82.9352C124 86.9115 120.775 90.1277 116.814 90.1277H12.1863C8.21337 90.1277 5 86.8998 5 82.9352V12.3202C5 8.34387 8.22506 5.12772 12.1863 5.12772H116.814C120.787 5.11602 124 8.34387 124 12.3202Z" fill="#F5FCFF"/>
<path d="M18.1735 33.0896H25.6132V23.3913H18.1735V33.0896Z" fill="#5FD6FF"/>
<path d="M24.8408 32.2062V24.2722H18.951V32.2062H24.8408Z" fill="#F5FCFF"/>
<path d="M15.9129 19.6742C16.154 19.5243 16.4525 19.6165 16.5788 19.8933L21.9634 30.8717L23.5478 26.4204C23.6511 26.1321 23.9382 25.9937 24.1907 26.109C24.4433 26.2243 24.5581 26.5472 24.4663 26.8355L22.1242 33.4433L15.7407 20.4353C15.5914 20.1701 15.6718 19.8241 15.9129 19.6742Z" fill="#FF5353"/>
<path d="M18.1735 49.0371H25.6132V39.3388H18.1735V49.0371Z" fill="#5FD6FF"/>
<path d="M24.8401 48.1542V40.2202H18.9503V48.1542H24.8401Z" fill="#F5FCFF"/>
<path d="M15.9127 34.7003C16.1539 34.5504 16.4524 34.6427 16.5786 34.9194L21.9633 45.8978L23.5477 41.4465C23.651 41.1582 23.938 41.0198 24.1906 41.1351C24.4432 41.2505 24.558 41.5733 24.4661 41.8616L22.124 48.4694L15.7405 35.4614C15.5913 35.1962 15.6716 34.8502 15.9127 34.7003Z" fill="#FF5353"/>
<path d="M18.1735 64.3518H25.6132V54.6535H18.1735V64.3518Z" fill="#5FD6FF"/>
<path d="M24.8344 63.463V55.5291H18.9447V63.463H24.8344Z" fill="#F5FCFF"/>
<path d="M15.9127 50.0148C16.1538 49.8649 16.4524 49.9571 16.5786 50.2339L21.9633 61.2123L23.5476 56.761C23.651 56.4727 23.938 56.3343 24.1906 56.4496C24.4432 56.5649 24.558 56.8878 24.4661 57.1761L22.1125 63.7839L15.729 50.7759C15.5913 50.4991 15.6716 50.1647 15.9127 50.0148Z" fill="#FF5353"/>
<path d="M18.1735 79.6543H25.6132V69.956H18.1735V79.6543Z" fill="#5FD6FF"/>
<path d="M24.8402 78.7714V70.8374H18.9505V78.7714H24.8402Z" fill="#F5FCFF"/>
<path d="M15.9127 65.3175C16.1539 65.1676 16.4524 65.2599 16.5786 65.5366L21.9633 76.515L23.5477 72.0637C23.651 71.7754 23.938 71.637 24.1906 71.7523C24.4432 71.8676 24.558 72.1905 24.4661 72.4788L22.124 79.0866L15.7405 66.0786C15.5913 65.8134 15.6716 65.4674 15.9127 65.3175Z" fill="#FF5353"/>
<path d="M73.6854 26.259H29.7245C29.4604 26.259 29.2422 26.0399 29.2422 25.7746C29.2422 25.5094 29.4604 25.2903 29.7245 25.2903H73.6854C73.9495 25.2903 74.1676 25.5094 74.1676 25.7746C74.1676 26.0399 73.9495 26.259 73.6854 26.259Z" fill="#5FD6FF"/>
<path d="M73.6854 29.0265H29.7245C29.4604 29.0265 29.2422 28.8074 29.2422 28.5422C29.2422 28.277 29.4604 28.0579 29.7245 28.0579H73.6854C73.9495 28.0579 74.1676 28.277 74.1676 28.5422C74.1676 28.819 73.9495 29.0265 73.6854 29.0265Z" fill="#5FD6FF"/>
<path d="M51.4351 30.8486H29.7474C29.4948 30.8486 29.2767 31.0331 29.2537 31.2753C29.2308 31.5636 29.4489 31.8058 29.7245 31.8058H51.4236C51.6877 31.8058 51.9059 31.5867 51.9059 31.3214C51.9059 31.0677 51.6877 30.8486 51.4351 30.8486Z" fill="#5FD6FF"/>
<path d="M73.8921 42.5766H29.9196C29.6556 42.5766 29.4374 42.3575 29.4374 42.0922C29.4374 41.827 29.6556 41.6079 29.9196 41.6079H73.8806C74.1447 41.6079 74.3628 41.827 74.3628 42.0922C74.3628 42.3575 74.1447 42.5766 73.8921 42.5766Z" fill="#5FD6FF"/>
<path d="M73.8921 45.3559H29.9196C29.6556 45.3559 29.4374 45.1368 29.4374 44.8715C29.4374 44.6063 29.6556 44.3872 29.9196 44.3872H73.8806C74.1447 44.3872 74.3628 44.6063 74.3628 44.8715C74.3628 45.1368 74.1447 45.3559 73.8921 45.3559Z" fill="#5FD6FF"/>
<path d="M51.6303 47.1663H29.9426C29.69 47.1663 29.4719 47.3508 29.4489 47.5929C29.4259 47.8812 29.6441 48.1234 29.9196 48.1234H51.6188C51.8829 48.1234 52.101 47.9043 52.101 47.6391C52.101 47.3854 51.8944 47.1663 51.6303 47.1663Z" fill="#5FD6FF"/>
<path d="M73.6854 57.1991H29.7245C29.4604 57.1991 29.2422 56.98 29.2422 56.7148C29.2422 56.4496 29.4604 56.2305 29.7245 56.2305H73.6854C73.9495 56.2305 74.1676 56.4496 74.1676 56.7148C74.1676 56.98 73.9495 57.1991 73.6854 57.1991Z" fill="#5FD6FF"/>
<path d="M73.6854 59.9784H29.7245C29.4604 59.9784 29.2422 59.7593 29.2422 59.4941C29.2422 59.2289 29.4604 59.0098 29.7245 59.0098H73.6854C73.9495 59.0098 74.1676 59.2289 74.1676 59.4941C74.1676 59.7593 73.9495 59.9784 73.6854 59.9784Z" fill="#5FD6FF"/>
<path d="M51.4351 61.7888H29.7474C29.4948 61.7888 29.2767 61.9733 29.2537 62.2155C29.2308 62.5038 29.4489 62.746 29.7245 62.746H51.4236C51.6877 62.746 51.9059 62.5269 51.9059 62.2616C51.9059 62.0079 51.6877 61.7888 51.4351 61.7888Z" fill="#5FD6FF"/>
<path d="M73.8921 72.7097H29.9196C29.6556 72.7097 29.4374 72.4905 29.4374 72.2253C29.4374 71.9601 29.6556 71.741 29.9196 71.741H73.8806C74.1447 71.741 74.3628 71.9601 74.3628 72.2253C74.3628 72.5021 74.1447 72.7097 73.8921 72.7097Z" fill="#5FD6FF"/>
<path d="M73.8921 75.4889H29.9196C29.6556 75.4889 29.4374 75.2698 29.4374 75.0046C29.4374 74.7394 29.6556 74.5203 29.9196 74.5203H73.8806C74.1447 74.5203 74.3628 74.7394 74.3628 75.0046C74.3628 75.2814 74.1447 75.4889 73.8921 75.4889Z" fill="#5FD6FF"/>
<path d="M51.6303 77.3108H29.9426C29.69 77.3108 29.4719 77.4953 29.4489 77.7375C29.4259 78.0258 29.6441 78.2679 29.9196 78.2679H51.6188C51.8829 78.2679 52.101 78.0488 52.101 77.7836C52.101 77.5299 51.8944 77.3108 51.6303 77.3108Z" fill="#5FD6FF"/>
<path d="M123.513 94.5972H100.896C97.7267 94.5972 95.155 92.014 95.155 88.8312V72.0177C95.155 68.8349 97.7267 66.2517 100.896 66.2517H123.513C126.682 66.2517 129.254 68.8349 129.254 72.0177V88.8312C129.254 92.014 126.682 94.5972 123.513 94.5972Z" fill="#045B89"/>
<path d="M106.98 16.9874C107.474 16.826 107.956 16.63 108.427 16.4108C108.955 16.1571 109.644 15.8573 110.08 15.7881C110.999 15.6497 112.56 15.742 113.433 16.6876C114.512 17.8639 116.429 16.8952 116.039 23.0417C115.603 29.9955 111.745 29.2343 111.642 29.1075C111.55 28.9922 108.197 24.6562 108.197 24.6562C108.197 24.6562 107.026 27.2163 107.026 27.124C107.038 27.0318 101.056 18.9825 106.98 16.9874Z" fill="#2F2F3B"/>
<path d="M91.3662 89.3618L90.8152 92.2909C90.7807 92.6715 90.7922 93.6402 90.7118 93.9631C90.4018 95.2085 85.1665 92.1756 86.5442 91.9335C86.6705 91.9104 87.566 90.9994 87.7727 90.6073C88.1286 89.9269 88.4615 88.6699 88.4615 88.6699L91.3662 89.3618Z" fill="#F7A491"/>
<path d="M86.7968 91.7603C86.7968 91.7603 88.1515 92.0948 88.8404 92.164C89.5293 92.2332 90.4133 91.1607 90.907 91.3683C91.4466 91.5874 91.7451 95.0008 91.7451 95.0008C91.7451 95.0008 83.1114 95.3929 81.0677 94.8278C80.2641 94.5972 84.1102 92.7982 86.7968 91.7603Z" fill="#F5FCFF"/>
<path d="M79.3226 89.2349L78.7715 92.164C78.7371 92.5445 78.7486 93.5132 78.6682 93.8361C78.3582 95.0816 73.2262 92.2447 74.5924 92.0025C74.7187 91.9795 75.5224 90.8609 75.729 90.4803C76.085 89.8115 76.4179 88.543 76.4179 88.543L79.3226 89.2349Z" fill="#F7A491"/>
<path d="M74.8909 91.7603C74.8909 91.7603 76.2457 92.0948 76.9346 92.164C77.6234 92.2332 78.5075 91.1607 79.0011 91.3683C79.5408 91.5874 79.8393 95.0008 79.8393 95.0008C79.8393 95.0008 71.2055 95.3929 69.1619 94.8278C68.3467 94.5972 72.2044 92.7982 74.8909 91.7603Z" fill="#F5FCFF"/>
<path d="M109.265 59.967L93.5591 56.3114C93.5591 56.3114 86.5098 54.4432 84.8106 56.6343C83.1114 58.8254 75.8898 89.1428 75.8898 89.1428C75.8898 89.1428 79.6096 89.4657 79.8622 89.3042L88.5878 73.7592C89.4145 72.2831 89.9656 70.6571 90.1952 68.9734L90.8152 64.5221L97.2101 66.3903C97.2101 66.3903 104.581 68.0163 107.577 66.1481C110.563 64.2684 109.265 59.967 109.265 59.967Z" fill="#C21C2C"/>
<path d="M103.226 32.7515C102.974 32.763 102.296 32.9936 101.309 34.8733C100.034 37.272 98.186 44.5371 98.186 44.5371L103.731 46.6013L104.443 45.0906L105.614 33.4318C105.603 33.4203 103.295 32.7515 103.226 32.7515Z" fill="#64CFE9"/>
<path d="M110.551 31.7136C108.967 31.7136 105.052 32.1749 103.226 32.763C103.226 32.763 101.894 44.2603 104.432 53.0015C105.006 54.962 103.961 61.1085 103.961 61.1085L120.379 60.8894C120.379 60.8894 118.439 46.0132 119.162 43.6145C119.897 41.2159 119.908 32.8437 119.908 32.8437C119.908 32.8437 119.793 32.8207 116.223 32.2095C114.558 31.9096 112.25 31.7021 110.551 31.7136Z" fill="#8BDBEE"/>
<path d="M120.103 34.1124C118.565 33.5358 117.819 47.3857 117.612 53.0825C114.891 53.3477 110.161 53.0825 108.978 52.9902C108.427 52.9441 107.141 52.4828 106.59 52.4021C106.028 52.3329 105.511 52.2868 105.235 52.3329C105.132 52.3559 102.296 53.5091 102.055 53.7628C101.757 54.0742 100.941 54.8699 101.079 55.2159C101.217 55.5618 102.641 54.2587 102.641 54.2587L103.341 53.8666C102.468 54.72 100.815 55.8271 101.056 56.2422C101.286 56.6343 102.778 55.5042 103.846 54.7315C102.939 55.5618 101.803 57.0379 102.067 57.257C102.296 57.4646 103.594 55.7579 104.971 55.262C105.476 55.0775 105.993 55.5849 106.395 55.6425C106.693 55.6887 107.141 55.7809 107.44 55.7002L108.829 55.5618C109.334 55.6079 109.46 55.6195 109.966 55.7233C110.563 55.8501 111.538 55.9885 112.296 56.173C116.67 57.2455 118.117 57.7414 119.46 57.7414C123.49 57.7644 123.72 35.4732 120.103 34.1124Z" fill="#F7A491"/>
<path d="M123.008 47.1087C123.295 41.2736 123.249 34.0777 119.989 32.8553C118.703 32.3709 116.429 35.2885 116.831 47.2356C118.576 47.374 121.137 47.4893 123.008 47.1087Z" fill="#64CFE9"/>
<path d="M86.6016 43.5456L102.067 44.5604C102.48 44.5834 102.824 44.8602 102.962 45.2523L106.969 57.234L115.499 57.799C115.741 57.8106 115.924 58.0181 115.901 58.2603C115.89 58.5025 115.683 58.6755 115.442 58.6639L91.1711 57.0725C90.5052 57.0264 89.9196 56.5997 89.69 55.9655L85.5913 44.9179C85.3387 44.2144 85.8783 43.4994 86.6016 43.5456Z" fill="#FFC3A4"/>
<path d="M94.3169 50.9491C94.3513 51.4795 94.7532 51.8947 95.2124 51.8716C95.6831 51.8486 96.0276 51.3873 96.0046 50.8568C95.9702 50.3264 95.5683 49.9112 95.1091 49.9343C94.6383 49.9573 94.2824 50.4071 94.3169 50.9491Z" fill="#F5FCFF"/>
<path d="M120.367 60.509L103.249 57.5453C103.249 57.5453 95.8439 56.4152 94.1447 58.6062C92.4455 60.7973 87.5086 89.2696 87.5086 89.2696C87.5086 89.2696 91.2285 89.5925 91.4811 89.4311C91.6648 89.3042 96.1768 79.8134 98.209 75.5351C98.8519 74.1743 99.2997 72.7328 99.5522 71.2567L100.207 67.382L102.365 68.1316C106.154 69.4462 110.184 69.896 114.156 69.4001C115.821 69.1925 117.371 68.835 118.335 68.2354C121.32 66.3557 120.367 60.509 120.367 60.509Z" fill="#F12C3E"/>
<path d="M109.908 29.6149L109.575 32.0943C109.575 32.0943 108.829 35.6692 109.793 36.3611C110.758 37.053 113.881 31.9905 113.881 31.9905L113.548 25.6941L109.908 29.6149Z" fill="#F7A491"/>
<path d="M113.651 27.7352C112.859 29.8802 110.964 31.2064 109.621 31.7138L109.908 29.6034L113.548 25.6941L113.651 27.7352Z" fill="#F47458"/>
<path d="M110.103 18.8556C108.071 18.5211 106.246 20.1702 106.292 22.1998C106.315 23.0878 106.383 24.1948 106.567 25.3826C107.015 28.2541 108.967 30.768 110.253 30.5489C111.55 30.3183 114.799 27.8505 114.225 23.7682C113.881 21.2542 112.239 19.2015 110.103 18.8556Z" fill="#F7A491"/>
<path d="M113.341 24.2641C113.444 24.8984 113.949 25.3366 114.466 25.2443C114.983 25.1521 115.304 24.5755 115.201 23.9412C115.098 23.307 114.592 22.8687 114.076 22.961C113.559 23.0417 113.226 23.6298 113.341 24.2641Z" fill="#F7A491"/>
<path d="M114.064 22.9609C114.064 22.9609 112.503 23.353 111.917 22.3382C111.343 21.3349 109.265 19.1669 106.625 20.0664C103.995 20.9659 108.944 17.8754 109.15 17.8754C109.357 17.8754 111.894 17.8523 111.894 17.8523C111.894 17.8523 113.846 19.4552 113.915 19.6397C113.984 19.8127 114.546 21.7386 114.546 21.7386L114.064 22.9609Z" fill="#2F2F3B"/>
<path d="M136.623 37.0503L137.171 43.6946L141.004 39.3543L153.42 29.1426L142.839 32.487C142.839 32.487 137.63 35.0288 137.393 35.3707C137.141 35.6977 136.623 37.0503 136.623 37.0503Z" fill="#D64747"/>
<path d="M131 34.1964L153.42 29.1277L136.623 37.0503L131 34.1964Z" fill="#FF5353"/>
<path d="M145.251 41.9703L138.34 38.507L153.42 29.1277L145.251 41.9703Z" fill="#FF5353"/>
<path d="M134.937 25.5671C135.741 25.2673 136.338 25.1981 136.338 25.1981L136.303 24.8291C136.28 24.8291 135.66 24.8983 134.811 25.2212L134.937 25.5671Z" fill="#F5FCFF"/>
<path d="M124 10.1556V13.1277H5V10.1556C5 7.3735 7.34845 5.12769 10.2577 5.12769H118.742C121.652 5.12769 124 7.38467 124 10.1556Z" fill="#5FD6FF"/>
<path d="M19.28 10.699C19.9869 10.699 20.56 10.1234 20.56 9.41336C20.56 8.7033 19.9869 8.12769 19.28 8.12769C18.5731 8.12769 18 8.7033 18 9.41336C18 10.1234 18.5731 10.699 19.28 10.699Z" fill="#40A1BE"/>
<path d="M23.0044 10.699C23.7114 10.699 24.2844 10.1234 24.2844 9.41336C24.2844 8.7033 23.7114 8.12769 23.0044 8.12769C22.2975 8.12769 21.7244 8.7033 21.7244 9.41336C21.7244 10.1234 22.2975 10.699 23.0044 10.699Z" fill="#40A1BE"/>
<path d="M26.72 10.699C27.4269 10.699 28 10.1234 28 9.41336C28 8.7033 27.4269 8.12769 26.72 8.12769C26.0131 8.12769 25.44 8.7033 25.44 9.41336C25.44 10.1234 26.0131 10.699 26.72 10.699Z" fill="#40A1BE"/>
</g>
<defs>
<clipPath id="clip0_549_517">
<rect width="153.42" height="95.0056" fill="white" transform="translate(0 0.127686)"/>
</clipPath>
</defs>
</svg>
