<svg width="130" height="95" viewBox="0 0 130 95" fill="none" xmlns="http://www.w3.org/2000/svg">
<path d="M129.254 7.01141V87.4696C129.254 91.3444 126.131 94.4811 122.273 94.4811H6.98048C3.12285 94.4695 0 91.3328 0 87.4581V7.01141C0 3.13668 3.12285 0 6.98048 0H122.273C126.119 0 129.254 3.13668 129.254 7.01141Z" fill="#2F2F3B"/>
<path d="M124 12.1925V82.8075C124 86.7838 120.775 90 116.814 90H12.1863C8.21337 90 5 86.7722 5 82.8075V12.1925C5 8.21618 8.22506 5.00003 12.1863 5.00003H116.814C120.787 4.98834 124 8.21618 124 12.1925Z" fill="#F5FCFF"/>
<path d="M18.1736 32.9622H25.6133V23.2638H18.1736V32.9622Z" fill="#5FD6FF"/>
<path d="M24.8408 32.0786V24.1447H18.951V32.0786H24.8408Z" fill="#F5FCFF"/>
<path d="M15.9135 19.5466C16.1547 19.3967 16.4532 19.489 16.5794 19.7657L21.9641 30.7441L23.5485 26.2928C23.6518 26.0045 23.9388 25.8661 24.1914 25.9815C24.444 26.0968 24.5588 26.4197 24.4669 26.708L22.1248 33.3158L15.7413 20.3077C15.5921 20.0425 15.6724 19.6966 15.9135 19.5466Z" fill="#FF5353"/>
<path d="M18.1726 48.9097H25.6123V39.2113H18.1726V48.9097Z" fill="#5FD6FF"/>
<path d="M24.8398 48.0266V40.0927H18.9501V48.0266H24.8398Z" fill="#F5FCFF"/>
<path d="M15.9126 34.5728C16.1537 34.4228 16.4522 34.5151 16.5785 34.7919L21.9631 45.7703L23.5475 41.3189C23.6508 41.0306 23.9378 40.8923 24.1904 41.0076C24.443 41.1229 24.5578 41.4458 24.466 41.7341L22.1238 48.3419L15.7404 35.3339C15.5911 35.0686 15.6715 34.7227 15.9126 34.5728Z" fill="#FF5353"/>
<path d="M18.1736 64.2242H25.6133V54.5259H18.1736V64.2242Z" fill="#5FD6FF"/>
<path d="M24.835 63.3352V55.4012H18.9452V63.3352H24.835Z" fill="#F5FCFF"/>
<path d="M15.913 49.8871C16.1541 49.7372 16.4526 49.8294 16.5789 50.1062L21.9635 61.0846L23.5479 56.6333C23.6512 56.345 23.9383 56.2066 24.1908 56.3219C24.4434 56.4372 24.5582 56.7601 24.4664 57.0484L22.1128 63.6562L15.7293 50.6482C15.5915 50.3714 15.6719 50.037 15.913 49.8871Z" fill="#FF5353"/>
<path d="M18.1726 79.527H25.6123V69.8286H18.1726V79.527Z" fill="#5FD6FF"/>
<path d="M24.8398 78.6439V70.71H18.9501V78.6439H24.8398Z" fill="#F5FCFF"/>
<path d="M15.9126 65.1899C16.1537 65.04 16.4522 65.1323 16.5785 65.4091L21.9631 76.3874L23.5475 71.9361C23.6508 71.6478 23.9378 71.5094 24.1904 71.6248C24.443 71.7401 24.5578 72.063 24.466 72.3513L22.1238 78.9591L15.7404 65.9511C15.5911 65.6858 15.6715 65.3399 15.9126 65.1899Z" fill="#FF5353"/>
<path d="M73.6854 26.1314H29.7244C29.4603 26.1314 29.2422 25.9123 29.2422 25.6471C29.2422 25.3818 29.4603 25.1627 29.7244 25.1627H73.6854C73.9494 25.1627 74.1676 25.3818 74.1676 25.6471C74.1676 25.9123 73.9494 26.1314 73.6854 26.1314Z" fill="#5FD6FF"/>
<path d="M73.6854 28.8991H29.7244C29.4603 28.8991 29.2422 28.68 29.2422 28.4148C29.2422 28.1495 29.4603 27.9304 29.7244 27.9304H73.6854C73.9494 27.9304 74.1676 28.1495 74.1676 28.4148C74.1676 28.6915 73.9494 28.8991 73.6854 28.8991Z" fill="#5FD6FF"/>
<path d="M51.435 30.7211H29.7473C29.4947 30.7211 29.2766 30.9056 29.2536 31.1478C29.2307 31.4361 29.4488 31.6782 29.7243 31.6782H51.4235C51.6876 31.6782 51.9057 31.4591 51.9057 31.1939C51.9057 30.9402 51.6876 30.7211 51.435 30.7211Z" fill="#5FD6FF"/>
<path d="M73.8921 42.449H29.9197C29.6556 42.449 29.4375 42.2299 29.4375 41.9647C29.4375 41.6995 29.6556 41.4803 29.9197 41.4803H73.8807C74.1447 41.4803 74.3629 41.6995 74.3629 41.9647C74.3629 42.2299 74.1447 42.449 73.8921 42.449Z" fill="#5FD6FF"/>
<path d="M73.8921 45.2282H29.9197C29.6556 45.2282 29.4375 45.0091 29.4375 44.7439C29.4375 44.4786 29.6556 44.2595 29.9197 44.2595H73.8807C74.1447 44.2595 74.3629 44.4786 74.3629 44.7439C74.3629 45.0091 74.1447 45.2282 73.8921 45.2282Z" fill="#5FD6FF"/>
<path d="M51.6303 47.0387H29.9426C29.69 47.0387 29.4719 47.2232 29.4489 47.4654C29.426 47.7537 29.6441 47.9958 29.9197 47.9958H51.6188C51.8829 47.9958 52.101 47.7767 52.101 47.5115C52.101 47.2578 51.8944 47.0387 51.6303 47.0387Z" fill="#5FD6FF"/>
<path d="M73.6854 57.0715H29.7244C29.4603 57.0715 29.2422 56.8524 29.2422 56.5871C29.2422 56.3219 29.4603 56.1028 29.7244 56.1028H73.6854C73.9494 56.1028 74.1676 56.3219 74.1676 56.5871C74.1676 56.8524 73.9494 57.0715 73.6854 57.0715Z" fill="#5FD6FF"/>
<path d="M73.6854 59.8506H29.7244C29.4603 59.8506 29.2422 59.6315 29.2422 59.3663C29.2422 59.1011 29.4603 58.882 29.7244 58.882H73.6854C73.9494 58.882 74.1676 59.1011 74.1676 59.3663C74.1676 59.6315 73.9494 59.8506 73.6854 59.8506Z" fill="#5FD6FF"/>
<path d="M51.435 61.6611H29.7473C29.4947 61.6611 29.2766 61.8456 29.2536 62.0878C29.2307 62.3761 29.4488 62.6183 29.7243 62.6183H51.4235C51.6876 62.6183 51.9057 62.3992 51.9057 62.1339C51.9057 61.8802 51.6876 61.6611 51.435 61.6611Z" fill="#5FD6FF"/>
<path d="M73.8921 72.582H29.9197C29.6556 72.582 29.4375 72.3629 29.4375 72.0976C29.4375 71.8324 29.6556 71.6133 29.9197 71.6133H73.8807C74.1447 71.6133 74.3629 71.8324 74.3629 72.0976C74.3629 72.3744 74.1447 72.582 73.8921 72.582Z" fill="#5FD6FF"/>
<path d="M73.8921 75.3611H29.9197C29.6556 75.3611 29.4375 75.142 29.4375 74.8768C29.4375 74.6116 29.6556 74.3925 29.9197 74.3925H73.8807C74.1447 74.3925 74.3629 74.6116 74.3629 74.8768C74.3629 75.1536 74.1447 75.3611 73.8921 75.3611Z" fill="#5FD6FF"/>
<path d="M51.6303 77.1832H29.9426C29.69 77.1832 29.4719 77.3677 29.4489 77.6099C29.426 77.8982 29.6441 78.1404 29.9197 78.1404H51.6188C51.8829 78.1404 52.101 77.9213 52.101 77.656C52.101 77.4023 51.8944 77.1832 51.6303 77.1832Z" fill="#5FD6FF"/>
<path d="M123.513 94.4695H100.896C97.727 94.4695 95.1553 91.8863 95.1553 88.7035V71.89C95.1553 68.7072 97.727 66.124 100.896 66.124H123.513C126.682 66.124 129.254 68.7072 129.254 71.89V88.7035C129.254 91.8863 126.682 94.4695 123.513 94.4695Z" fill="#045B89"/>
<path d="M106.98 16.8596C107.474 16.6982 107.956 16.5021 108.427 16.283C108.955 16.0293 109.644 15.7295 110.08 15.6603C110.998 15.5219 112.56 15.6142 113.432 16.5598C114.512 17.7361 116.429 16.7674 116.038 22.9139C115.602 29.8676 111.745 29.1065 111.641 28.9797C111.549 28.8644 108.197 24.5284 108.197 24.5284C108.197 24.5284 107.026 27.0885 107.026 26.9962C107.037 26.9039 101.056 18.8547 106.98 16.8596Z" fill="#2F2F3B"/>
<path d="M91.366 89.234L90.8149 92.1631C90.7805 92.5437 90.792 93.5124 90.7116 93.8353C90.4016 95.0807 85.1663 92.0478 86.544 91.8056C86.6703 91.7826 87.5658 90.8716 87.7725 90.4795C88.1284 89.7991 88.4613 88.5421 88.4613 88.5421L91.366 89.234Z" fill="#F7A491"/>
<path d="M86.7963 91.6327C86.7963 91.6327 88.1511 91.9671 88.8399 92.0363C89.5288 92.1055 90.4128 91.033 90.9065 91.2406C91.4461 91.4597 91.7446 94.8731 91.7446 94.8731C91.7446 94.8731 83.1109 95.2652 81.0673 94.7002C80.2636 94.4695 84.1097 92.6705 86.7963 91.6327Z" fill="#F5FCFF"/>
<path d="M79.3223 89.1072L78.7712 92.0363C78.7368 92.4169 78.7483 93.3855 78.6679 93.7084C78.3579 94.9539 73.2259 92.117 74.5921 91.8749C74.7184 91.8518 75.5221 90.7332 75.7288 90.3526C76.0847 89.6838 76.4176 88.4153 76.4176 88.4153L79.3223 89.1072Z" fill="#F7A491"/>
<path d="M74.8907 91.6327C74.8907 91.6327 76.2455 91.9671 76.9343 92.0363C77.6232 92.1055 78.5072 91.033 79.0009 91.2406C79.5405 91.4597 79.8391 94.8731 79.8391 94.8731C79.8391 94.8731 71.2053 95.2652 69.1617 94.7002C68.3465 94.4695 72.2041 92.6705 74.8907 91.6327Z" fill="#F5FCFF"/>
<path d="M109.265 59.8391L93.559 56.1835C93.559 56.1835 86.5096 54.3153 84.8104 56.5064C83.1112 58.6974 75.8896 89.0149 75.8896 89.0149C75.8896 89.0149 79.6095 89.3378 79.8621 89.1763L88.5877 73.6313C89.4143 72.1552 89.9654 70.5292 90.195 68.8455L90.815 64.3942L97.21 66.2624C97.21 66.2624 104.581 67.8884 107.577 66.0202C110.562 64.1405 109.265 59.8391 109.265 59.8391Z" fill="#C21C2C"/>
<path d="M103.226 32.6238C102.973 32.6353 102.296 32.8659 101.308 34.7457C100.034 37.1443 98.1855 44.4094 98.1855 44.4094L103.731 46.4736L104.443 44.9629L105.614 33.3042C105.602 33.2926 103.295 32.6238 103.226 32.6238Z" fill="#64CFE9"/>
<path d="M110.551 31.5859C108.967 31.5859 105.052 32.0472 103.226 32.6353C103.226 32.6353 101.894 44.1326 104.432 52.8738C105.006 54.8343 103.961 60.9808 103.961 60.9808L120.379 60.7617C120.379 60.7617 118.439 45.8855 119.162 43.4869C119.897 41.0882 119.908 32.716 119.908 32.716C119.908 32.716 119.793 32.693 116.223 32.0818C114.558 31.782 112.25 31.5744 110.551 31.5859Z" fill="#8BDBEE"/>
<path d="M120.103 33.9845C118.565 33.4079 117.818 47.2578 117.612 52.9545C114.891 53.2198 110.16 52.9545 108.978 52.8623C108.427 52.8161 107.141 52.3549 106.59 52.2741C106.027 52.2049 105.511 52.1588 105.235 52.205C105.132 52.228 102.296 53.3812 102.055 53.6349C101.756 53.9463 100.941 54.742 101.079 55.0879C101.217 55.4339 102.64 54.1308 102.64 54.1308L103.341 53.7387C102.468 54.5921 100.815 55.6991 101.056 56.1143C101.286 56.5064 102.778 55.3762 103.846 54.6036C102.939 55.4339 101.802 56.91 102.066 57.1291C102.296 57.3367 103.593 55.6299 104.971 55.1341C105.476 54.9495 105.993 55.457 106.395 55.5146C106.693 55.5607 107.141 55.653 107.439 55.5723L108.829 55.4339C109.334 55.48 109.46 55.4916 109.965 55.5953C110.562 55.7222 111.538 55.8606 112.296 56.0451C116.67 57.1176 118.117 57.6134 119.46 57.6134C123.49 57.6365 123.72 35.3453 120.103 33.9845Z" fill="#F7A491"/>
<path d="M123.008 46.981C123.295 41.1459 123.249 33.95 119.988 32.7276C118.703 32.2432 116.429 35.1608 116.831 47.1079C118.576 47.2463 121.137 47.3616 123.008 46.981Z" fill="#64CFE9"/>
<path d="M86.6018 43.4176L102.067 44.4325C102.48 44.4555 102.825 44.7323 102.962 45.1244L106.969 57.106L115.5 57.6711C115.741 57.6826 115.924 57.8902 115.901 58.1324C115.89 58.3746 115.683 58.5475 115.442 58.536L91.1712 56.9446C90.5053 56.8985 89.9198 56.4718 89.6902 55.8375L85.5914 44.7899C85.3389 44.0865 85.8785 43.3715 86.6018 43.4176Z" fill="#FFC3A4"/>
<path d="M94.3168 50.8211C94.3512 51.3516 94.753 51.7668 95.2123 51.7437C95.683 51.7206 96.0274 51.2594 96.0045 50.7289C95.97 50.1984 95.5682 49.7833 95.109 49.8063C94.6382 49.8294 94.2823 50.2791 94.3168 50.8211Z" fill="#F5FCFF"/>
<path d="M120.368 60.3811L103.249 57.4174C103.249 57.4174 95.844 56.2872 94.1448 58.4783C92.4456 60.6694 87.5088 89.1417 87.5088 89.1417C87.5088 89.1417 91.2286 89.4646 91.4812 89.3031C91.6649 89.1763 96.177 79.6855 98.2091 75.4072C98.8521 74.0464 99.2998 72.6049 99.5524 71.1288L100.207 67.2541L102.365 68.0037C106.154 69.3183 110.184 69.7681 114.156 69.2722C115.821 69.0646 117.371 68.7071 118.335 68.1075C121.32 66.2277 120.368 60.3811 120.368 60.3811Z" fill="#F12C3E"/>
<path d="M109.908 29.4871L109.575 31.9665C109.575 31.9665 108.829 35.5414 109.793 36.2333C110.758 36.9252 113.881 31.8627 113.881 31.8627L113.548 25.5663L109.908 29.4871Z" fill="#F7A491"/>
<path d="M113.651 27.6074C112.859 29.7524 110.964 31.0785 109.621 31.5859L109.908 29.4756L113.548 25.5663L113.651 27.6074Z" fill="#F47458"/>
<path d="M110.104 18.7278C108.071 18.3933 106.246 20.0424 106.292 22.072C106.315 22.96 106.384 24.067 106.567 25.2548C107.015 28.1263 108.967 30.6402 110.253 30.4211C111.55 30.1905 114.799 27.7227 114.225 23.6404C113.881 21.1264 112.239 19.0737 110.104 18.7278Z" fill="#F7A491"/>
<path d="M113.341 24.1363C113.444 24.7705 113.95 25.2088 114.466 25.1165C114.983 25.0243 115.304 24.4477 115.201 23.8134C115.098 23.1791 114.592 22.7409 114.076 22.8332C113.559 22.9139 113.226 23.502 113.341 24.1363Z" fill="#F7A491"/>
<path d="M114.064 22.8331C114.064 22.8331 112.503 23.2252 111.917 22.2104C111.343 21.2071 109.265 19.0391 106.624 19.9386C103.995 20.8381 108.944 17.7476 109.15 17.7476C109.357 17.7476 111.894 17.7245 111.894 17.7245C111.894 17.7245 113.846 19.3274 113.915 19.5119C113.984 19.6849 114.546 21.6107 114.546 21.6107L114.064 22.8331Z" fill="#2F2F3B"/>
<path d="M124 10.0279V13H5V10.0279C5 7.24581 7.34845 5 10.2577 5H118.742C121.652 5 124 7.25698 124 10.0279Z" fill="#5FD6FF"/>
<path d="M19.28 10.5713C19.9869 10.5713 20.56 9.99573 20.56 9.28567C20.56 8.57561 19.9869 8 19.28 8C18.5731 8 18 8.57561 18 9.28567C18 9.99573 18.5731 10.5713 19.28 10.5713Z" fill="#40A1BE"/>
<path d="M23.0046 10.5713C23.7115 10.5713 24.2846 9.99573 24.2846 9.28567C24.2846 8.57561 23.7115 8 23.0046 8C22.2977 8 21.7246 8.57561 21.7246 9.28567C21.7246 9.99573 22.2977 10.5713 23.0046 10.5713Z" fill="#40A1BE"/>
<path d="M26.7204 10.5713C27.4274 10.5713 28.0004 9.99573 28.0004 9.28567C28.0004 8.57561 27.4274 8 26.7204 8C26.0135 8 25.4404 8.57561 25.4404 9.28567C25.4404 9.99573 26.0135 10.5713 26.7204 10.5713Z" fill="#40A1BE"/>
</svg>
