<svg width="188" height="114" viewBox="0 0 188 114" fill="none" xmlns="http://www.w3.org/2000/svg">
<g clip-path="url(#clip0_547_227)">
<path d="M144.736 72.1044V109.694L24.4916 109.276V68.8559H49.0294V40.223H50.6438V44.9565L56.3631 51.6855L58.8999 66.582H90.5407V39.3413L96.4445 39.4341V62.4054H124.349L132.882 72.1044H144.736Z" fill="#D5F0F9"/>
<path d="M47.738 56.6511H31.1796V109.369H47.738V56.6511Z" fill="#0082A9"/>
<path d="M45.0167 53.124H33.8547V56.6509H45.0167V53.124Z" fill="#0082A9"/>
<path d="M42.2492 48.9475H36.6683V53.1241H42.2492V48.9475Z" fill="#A6D3E1"/>
<path d="M36.6222 60.7349H34.7772V109.369H36.6222V60.7349Z" fill="#F12C3E"/>
<path d="M44.1403 60.7349H42.2953V109.369H44.1403V60.7349Z" fill="#F12C3E"/>
<path d="M117.846 37.7168H109.313L107.514 39.8515V109.693H119.645V39.8515L117.846 37.7168Z" fill="#0082A9"/>
<path d="M117.708 34.0044H109.451V37.6705H117.708V34.0044Z" fill="#40A1BE"/>
<path d="M117.708 32.4729H109.451V34.0043H117.708V32.4729Z" fill="#A6D3E1"/>
<path d="M115.77 93.9153H111.389V109.694H115.77V93.9153Z" fill="#40A1BE"/>
<path d="M114.248 11.2188H112.957V24.9087H114.248V11.2188Z" fill="#0082A9"/>
<path d="M111.389 93.9153H102.763V109.694H111.389V93.9153Z" fill="#A6D3E1"/>
<path d="M102.717 96.8389H100.227V109.693H102.717V96.8389Z" fill="#40A1BE"/>
<path d="M105.485 95.4004H103.686V98.2776H105.485V95.4004Z" fill="white"/>
<path d="M107.975 95.4004H106.177V98.2776H107.975V95.4004Z" fill="white"/>
<path d="M110.466 95.4004H108.667V98.2776H110.466V95.4004Z" fill="white"/>
<path d="M105.485 99.5305H103.686V102.408H105.485V99.5305Z" fill="white"/>
<path d="M107.975 99.5305H106.177V102.408H107.975V99.5305Z" fill="white"/>
<path d="M110.466 99.5305H108.667V102.408H110.466V99.5305Z" fill="white"/>
<path d="M105.485 103.661H103.686V106.538H105.485V103.661Z" fill="white"/>
<path d="M107.975 103.661H106.177V106.538H107.975V103.661Z" fill="white"/>
<path d="M110.466 103.661H108.667V106.538H110.466V103.661Z" fill="white"/>
<path d="M124.395 93.9153H115.77V109.694H124.395V93.9153Z" fill="#A6D3E1"/>
<path d="M126.886 96.8389H124.396V109.693H126.886V96.8389Z" fill="#40A1BE"/>
<path d="M123.473 95.4004H121.674V98.2776H123.473V95.4004Z" fill="white"/>
<path d="M120.982 95.4004H119.183V98.2776H120.982V95.4004Z" fill="white"/>
<path d="M118.538 95.4004H116.739V98.2776H118.538V95.4004Z" fill="white"/>
<path d="M123.473 99.5305H121.674V102.408H123.473V99.5305Z" fill="white"/>
<path d="M120.982 99.5305H119.183V102.408H120.982V99.5305Z" fill="white"/>
<path d="M118.538 99.5305H116.739V102.408H118.538V99.5305Z" fill="white"/>
<path d="M123.473 103.661H121.674V106.538H123.473V103.661Z" fill="white"/>
<path d="M120.982 103.661H119.183V106.538H120.982V103.661Z" fill="white"/>
<path d="M118.538 103.661H116.739V106.538H118.538V103.661Z" fill="white"/>
<path d="M109.913 42.7751H105.3V51.6388H109.913V42.7751Z" fill="#A6D3E1"/>
<path d="M110.789 52.9846H104.378V93.9616H110.789V52.9846Z" fill="#A6D3E1"/>
<path d="M110.789 92.1055H103.917V93.9153H110.789V92.1055Z" fill="#0082A9"/>
<path d="M109.913 51.6389H105.3V52.9847H109.913V51.6389Z" fill="#0082A9"/>
<path d="M121.859 42.7751H117.246V51.6388H121.859V42.7751Z" fill="#A6D3E1"/>
<path d="M122.735 52.9846H116.324V93.9616H122.735V52.9846Z" fill="#A6D3E1"/>
<path d="M123.196 92.1055H116.324V93.9153H123.196V92.1055Z" fill="#0082A9"/>
<path d="M121.859 51.6389H117.246V52.9847H121.859V51.6389Z" fill="#0082A9"/>
<path d="M115.54 52.9846H111.619V55.1657H115.54V52.9846Z" fill="#A6D3E1"/>
<path d="M115.54 64.6328H111.619V66.8139H115.54V64.6328Z" fill="#A6D3E1"/>
<path d="M115.54 75.2134H111.619V77.3945H115.54V75.2134Z" fill="#A6D3E1"/>
<path d="M115.079 21.7529H112.08L110.097 32.4728H117.062L115.079 21.7529Z" fill="#0082A9"/>
<path d="M17.8037 74.5637V77.8586H12.9146V109.369H32.9784V74.5637H17.8037Z" fill="#A6D3E1"/>
<path d="M20.2483 80.4573H14.5289V81.7103H20.2483V80.4573Z" fill="#F12C3E"/>
<path d="M20.2483 82.4062H14.5289V83.6592H20.2483V82.4062Z" fill="#40A1BE"/>
<path d="M20.2483 84.3555H14.5289V85.6084H20.2483V84.3555Z" fill="#40A1BE"/>
<path d="M20.2483 86.3044H14.5289V87.5574H20.2483V86.3044Z" fill="#E50500"/>
<path d="M20.2483 88.2537H14.5289V89.5066H20.2483V88.2537Z" fill="#40A1BE"/>
<path d="M20.2483 90.2026H14.5289V91.4556H20.2483V90.2026Z" fill="#40A1BE"/>
<path d="M20.2483 92.1516H14.5289V93.4046H20.2483V92.1516Z" fill="#40A1BE"/>
<path d="M20.2483 94.7505H14.5289V96.0035H20.2483V94.7505Z" fill="#F12C3E"/>
<path d="M20.2483 96.6995H14.5289V97.9524H20.2483V96.6995Z" fill="#406683"/>
<path d="M20.2483 98.6487H14.5289V99.9017H20.2483V98.6487Z" fill="#406683"/>
<path d="M20.2483 100.598H14.5289V101.851H20.2483V100.598Z" fill="#406683"/>
<path d="M20.2483 102.547H14.5289V103.8H20.2483V102.547Z" fill="#406683"/>
<path d="M20.2483 104.496H14.5289V105.749H20.2483V104.496Z" fill="#F12C3E"/>
<path d="M20.2483 106.445H14.5289V107.698H20.2483V106.445Z" fill="#406683"/>
<path d="M31.6408 80.4573H21.7242V81.7103H31.6408V80.4573Z" fill="#F12C3E"/>
<path d="M31.6408 82.4062H21.7242V83.6592H31.6408V82.4062Z" fill="#406683"/>
<path d="M31.6408 84.3555H21.7242V85.6084H31.6408V84.3555Z" fill="#406683"/>
<path d="M31.6408 86.3044H21.7242V87.5574H31.6408V86.3044Z" fill="#F12C3E"/>
<path d="M31.6408 88.2537H21.7242V89.5066H31.6408V88.2537Z" fill="#406683"/>
<path d="M31.6408 90.2026H21.7242V91.4556H31.6408V90.2026Z" fill="#406683"/>
<path d="M31.6408 92.1516H21.7242V93.4046H31.6408V92.1516Z" fill="#406683"/>
<path d="M31.6408 94.7505H21.7242V96.0035H31.6408V94.7505Z" fill="#406683"/>
<path d="M31.6408 96.6995H21.7242V97.9524H31.6408V96.6995Z" fill="#406683"/>
<path d="M31.6408 98.6487H21.7242V99.9017H31.6408V98.6487Z" fill="#F12C3E"/>
<path d="M31.6408 100.598H21.7242V101.851H31.6408V100.598Z" fill="#406683"/>
<path d="M31.6408 102.547H21.7242V103.8H31.6408V102.547Z" fill="#406683"/>
<path d="M31.6408 104.496H21.7242V105.749H31.6408V104.496Z" fill="#406683"/>
<path d="M31.6408 106.445H21.7242V107.698H31.6408V106.445Z" fill="#406683"/>
<path d="M66.6948 29.4565H58.6693V33.4011H66.6948V29.4565Z" fill="#0082A9"/>
<path d="M62.6359 30.8953L56.3631 32.4731V109.369H62.6359V30.8953Z" fill="#A6D3E1"/>
<path d="M62.6359 30.8953L68.9549 32.4731V109.369H62.6359V30.8953Z" fill="#0082A9"/>
<path d="M63.0972 19.5256H62.1747V30.292H63.0972V19.5256Z" fill="#0082A9"/>
<path d="M98.6585 80.7824V93.7298H97.5977V78.6941C97.9205 79.3438 98.2434 80.0399 98.6585 80.7824Z" fill="#003359"/>
<path d="M102.026 85.4695V93.6835H100.965V84.1702C101.288 84.6806 101.657 85.0983 102.026 85.4695Z" fill="#003359"/>
<path d="M105.346 88.4395V93.7299H104.286V87.6506C104.655 87.9291 104.977 88.1611 105.346 88.4395Z" fill="#003359"/>
<path d="M108.713 90.1564V93.7298H107.653V89.6924C107.975 89.878 108.344 90.0172 108.713 90.1564Z" fill="#003359"/>
<path d="M112.034 90.899V93.7298H110.974V90.7598C111.342 90.8062 111.711 90.8526 112.034 90.899Z" fill="#003359"/>
<path d="M115.401 90.7598V93.7298H114.341V90.899C114.663 90.8526 115.032 90.8062 115.401 90.7598Z" fill="#003359"/>
<path d="M118.722 89.6924V93.6834H117.661V90.1564C118.03 90.0172 118.399 89.878 118.722 89.6924Z" fill="#003359"/>
<path d="M122.089 87.6506V93.7299H121.028V88.4395C121.397 88.1611 121.72 87.9291 122.089 87.6506Z" fill="#003359"/>
<path d="M125.456 84.2166V93.7299H124.396V85.5159C124.718 85.0983 125.087 84.6806 125.456 84.2166Z" fill="#003359"/>
<path d="M128.777 78.6477V93.6834H127.716V80.736C128.085 80.0399 128.454 79.3438 128.777 78.6477Z" fill="#003359"/>
<path d="M131.96 71.4083C130.345 78.7869 125.364 88.3003 117.661 90.7598C114.571 91.7808 111.02 91.7808 107.607 90.3422C100.134 87.2329 95.7066 77.5804 94.369 71.3619L94.9686 71.2227C96.4907 78.1372 100.919 86.5832 107.607 89.6461C111.204 91.3167 115.125 91.2703 118.722 89.6461C125.733 86.444 129.93 77.6268 131.36 71.2227L131.96 71.4083Z" fill="#003359"/>
<path d="M94.6458 75.7705H86.3435V77.5804H94.6458V75.7705Z" fill="#F12C3E"/>
<path d="M94.6458 80.272H86.3435V82.0818H94.6458V80.272Z" fill="#40A1BE"/>
<path d="M94.6458 84.7268H86.3435V86.5367H94.6458V84.7268Z" fill="#40A1BE"/>
<path d="M98.7508 105.935H89.157V109.23H98.7508V105.935Z" fill="#F12C3E"/>
<path d="M94.9686 70.2481L93.9539 68.531L92.9392 70.2481L92.2473 103.939H95.6605L94.9686 70.2481Z" fill="#003359"/>
<path d="M96.4446 102.918H91.5093V105.935H96.4446V102.918Z" fill="#0082A9"/>
<path d="M79.1021 85.3301V93.7761H80.1629V84.0308C79.9323 84.3556 79.5172 84.8661 79.1021 85.3301Z" fill="#24B592"/>
<path d="M82.4691 80.4575V93.7761H83.5299V78.3228C83.2532 78.8796 82.8842 79.715 82.4691 80.4575Z" fill="#24B592"/>
<path d="M75.8734 88.2074V93.6834H76.9343V87.3721C76.7036 87.6041 76.3808 87.8825 75.8734 88.2074Z" fill="#24B592"/>
<path d="M72.6448 89.9709V94.1939H73.7056V89.5068C73.3828 89.6925 73.0138 89.8317 72.6448 89.9709Z" fill="#24B592"/>
<path d="M71.5378 90.3885V90.9918C75.0432 90.0637 77.7645 87.9754 80.0707 85.191C82.9303 81.7569 85.5132 76.4202 86.6202 71.4083L86.0206 71.269C85.052 75.492 82.8842 80.5504 80.0707 84.1701C77.8567 87.0009 74.9509 89.3676 71.5378 90.3885Z" fill="#01776B"/>
<path d="M146.627 85.3301V93.7761H145.566V84.0308C145.797 84.3556 146.212 84.8661 146.627 85.3301Z" fill="#003359"/>
<path d="M143.26 80.4575V93.7761H142.199V78.3228C142.43 78.8796 142.845 79.715 143.26 80.4575Z" fill="#003359"/>
<path d="M149.81 88.2074V93.6834H148.749V87.3721C149.026 87.6041 149.348 87.8825 149.81 88.2074Z" fill="#003359"/>
<path d="M153.038 89.9709V94.1939H151.977V89.5068C152.346 89.6925 152.715 89.8317 153.038 89.9709Z" fill="#003359"/>
<path d="M154.191 90.3885V90.9918C150.686 90.0637 147.965 87.9754 145.658 85.191C142.799 81.7569 140.216 76.4202 139.109 71.4083L139.709 71.269C140.677 75.492 142.845 80.5504 145.658 84.1701C147.872 87.0009 150.778 89.3676 154.191 90.3885Z" fill="#003359"/>
<path d="M91.3709 105.935H81.7772V109.23H91.3709V105.935Z" fill="#F12C3E"/>
<path d="M87.5888 70.2481L86.5741 68.531L85.5593 70.2481L84.8675 103.939H88.2806L87.5888 70.2481Z" fill="#003359"/>
<path d="M89.0186 102.918H84.0834V105.935H89.0186V102.918Z" fill="#0082A9"/>
<path d="M139.662 75.7705H131.36V77.5804H139.662V75.7705Z" fill="#40A1BE"/>
<path d="M139.662 80.272H131.36V82.0818H139.662V80.272Z" fill="#40A1BE"/>
<path d="M139.662 84.7268H131.36V86.5367H139.662V84.7268Z" fill="#F12C3E"/>
<path d="M143.998 105.935H134.404V109.23H143.998V105.935Z" fill="#F12C3E"/>
<path d="M140.216 70.2481L139.201 68.531L138.186 70.2481L137.495 103.939H140.908L140.216 70.2481Z" fill="#003359"/>
<path d="M141.692 102.918H136.757V105.935H141.692V102.918Z" fill="#0082A9"/>
<path d="M136.618 105.935H127.025V109.23H136.618V105.935Z" fill="#F12C3E"/>
<path d="M132.836 70.2481L131.821 68.531L130.761 70.2481L130.115 103.939H133.482L132.836 70.2481Z" fill="#003359"/>
<path d="M134.266 102.918H129.331V105.935H134.266V102.918Z" fill="#0082A9"/>
<path d="M153.822 93.7297H70.3847V96.6998H153.822V93.7297Z" fill="#F12C3E"/>
<path d="M82.8842 65.0042V61.5237H69.5083V65.0042H66.6487V109.369H85.7439V65.0042H82.8842Z" fill="#40A1BE"/>
<path d="M70.2002 66.582H67.3867V69.4128H70.2002V66.582Z" fill="#A6D3E1"/>
<path d="M73.8901 66.582H71.0765V69.4128H73.8901V66.582Z" fill="#A6D3E1"/>
<path d="M77.6261 66.582H74.8126V69.4128H77.6261V66.582Z" fill="#A6D3E1"/>
<path d="M81.316 66.582H78.5024V69.4128H81.316V66.582Z" fill="#A6D3E1"/>
<path d="M85.052 66.582H82.2385V69.4128H85.052V66.582Z" fill="#A6D3E1"/>
<path d="M70.2002 70.1553H67.3867V72.9861H70.2002V70.1553Z" fill="#A6D3E1"/>
<path d="M73.8901 70.1553H71.0765V72.9861H73.8901V70.1553Z" fill="#A6D3E1"/>
<path d="M77.6261 70.1553H74.8126V72.9861H77.6261V70.1553Z" fill="#A6D3E1"/>
<path d="M81.316 70.1553H78.5024V72.9861H81.316V70.1553Z" fill="#A6D3E1"/>
<path d="M85.052 70.1553H82.2385V72.9861H85.052V70.1553Z" fill="#A6D3E1"/>
<path d="M70.2002 73.7288H67.3867V76.5596H70.2002V73.7288Z" fill="#A6D3E1"/>
<path d="M73.8901 73.7288H71.0765V76.5596H73.8901V73.7288Z" fill="#A6D3E1"/>
<path d="M77.6261 73.7288H74.8126V76.5596H77.6261V73.7288Z" fill="#A6D3E1"/>
<path d="M81.316 73.7288H78.5024V76.5596H81.316V73.7288Z" fill="#A6D3E1"/>
<path d="M85.052 73.7288H82.2385V76.5596H85.052V73.7288Z" fill="#A6D3E1"/>
<path d="M70.2002 77.302H67.3867V80.1328H70.2002V77.302Z" fill="#A6D3E1"/>
<path d="M73.8901 77.302H71.0765V80.1328H73.8901V77.302Z" fill="#A6D3E1"/>
<path d="M77.6261 77.302H74.8126V80.1328H77.6261V77.302Z" fill="#A6D3E1"/>
<path d="M81.316 77.302H78.5024V80.1328H81.316V77.302Z" fill="#A6D3E1"/>
<path d="M85.052 77.302H82.2385V80.1328H85.052V77.302Z" fill="#A6D3E1"/>
<path d="M70.2002 80.8752H67.3867V83.706H70.2002V80.8752Z" fill="#A6D3E1"/>
<path d="M73.8901 80.8752H71.0765V83.706H73.8901V80.8752Z" fill="#A6D3E1"/>
<path d="M77.6261 80.8752H74.8126V83.706H77.6261V80.8752Z" fill="#A6D3E1"/>
<path d="M81.316 80.8752H78.5024V83.706H81.316V80.8752Z" fill="#A6D3E1"/>
<path d="M85.052 80.8752H82.2385V83.706H85.052V80.8752Z" fill="#A6D3E1"/>
<path d="M70.2002 84.4485H67.3867V87.2793H70.2002V84.4485Z" fill="#A6D3E1"/>
<path d="M73.8901 84.4485H71.0765V87.2793H73.8901V84.4485Z" fill="#A6D3E1"/>
<path d="M77.6261 84.4485H74.8126V87.2793H77.6261V84.4485Z" fill="#A6D3E1"/>
<path d="M81.316 84.4485H78.5024V87.2793H81.316V84.4485Z" fill="#A6D3E1"/>
<path d="M85.052 84.4485H82.2385V87.2793H85.052V84.4485Z" fill="#A6D3E1"/>
<path d="M70.2002 88.022H67.3867V90.8528H70.2002V88.022Z" fill="#A6D3E1"/>
<path d="M73.8901 88.022H71.0765V90.8528H73.8901V88.022Z" fill="#A6D3E1"/>
<path d="M77.6261 88.022H74.8126V90.8528H77.6261V88.022Z" fill="#A6D3E1"/>
<path d="M81.316 88.022H78.5024V90.8528H81.316V88.022Z" fill="#A6D3E1"/>
<path d="M85.052 88.022H82.2385V90.8528H85.052V88.022Z" fill="#A6D3E1"/>
<path d="M70.2002 91.5952H67.3867V94.426H70.2002V91.5952Z" fill="#A6D3E1"/>
<path d="M73.8901 91.5952H71.0765V94.426H73.8901V91.5952Z" fill="#A6D3E1"/>
<path d="M77.6261 91.5952H74.8126V94.426H77.6261V91.5952Z" fill="#A6D3E1"/>
<path d="M81.316 91.5952H78.5024V94.426H81.316V91.5952Z" fill="#A6D3E1"/>
<path d="M85.052 91.5952H82.2385V94.426H85.052V91.5952Z" fill="#A6D3E1"/>
<path d="M70.2002 95.1685H67.3867V97.9993H70.2002V95.1685Z" fill="#A6D3E1"/>
<path d="M73.8901 95.1685H71.0765V97.9993H73.8901V95.1685Z" fill="#A6D3E1"/>
<path d="M77.6261 95.1685H74.8126V97.9993H77.6261V95.1685Z" fill="#A6D3E1"/>
<path d="M81.316 95.1685H78.5024V97.9993H81.316V95.1685Z" fill="#A6D3E1"/>
<path d="M85.052 95.1685H82.2385V97.9993H85.052V95.1685Z" fill="#A6D3E1"/>
<path d="M70.2002 98.7417H67.3867V101.573H70.2002V98.7417Z" fill="#A6D3E1"/>
<path d="M73.8901 98.7417H71.0765V101.573H73.8901V98.7417Z" fill="#A6D3E1"/>
<path d="M77.6261 98.7417H74.8126V101.573H77.6261V98.7417Z" fill="#A6D3E1"/>
<path d="M81.316 98.7417H78.5024V101.573H81.316V98.7417Z" fill="#A6D3E1"/>
<path d="M85.052 98.7417H82.2385V101.573H85.052V98.7417Z" fill="#A6D3E1"/>
<path d="M70.2002 102.315H67.3867V105.146H70.2002V102.315Z" fill="#A6D3E1"/>
<path d="M73.8901 102.315H71.0765V105.146H73.8901V102.315Z" fill="#A6D3E1"/>
<path d="M77.6261 102.315H74.8126V105.146H77.6261V102.315Z" fill="#A6D3E1"/>
<path d="M81.316 102.315H78.5024V105.146H81.316V102.315Z" fill="#A6D3E1"/>
<path d="M85.052 102.315H82.2385V105.146H85.052V102.315Z" fill="#A6D3E1"/>
<path d="M73.3366 77.8589H71.6761V79.5295H73.3366V77.8589Z" fill="#F12C3E"/>
<path d="M69.6006 67.1389H67.9401V68.8096H69.6006V67.1389Z" fill="#F12C3E"/>
<path d="M80.7625 74.2854H79.1021V75.956H80.7625V74.2854Z" fill="#F12C3E"/>
<path d="M80.7625 92.1521H79.1021V93.8227H80.7625V92.1521Z" fill="#F12C3E"/>
<path d="M77.0265 95.7253H75.366V97.396H77.0265V95.7253Z" fill="#F12C3E"/>
<path d="M73.3366 85.0054H71.6761V86.676H73.3366V85.0054Z" fill="#F12C3E"/>
<path d="M188 109.276H0V113.128H188V109.276Z" fill="#8BDBEE"/>
<path d="M9.63988 103.243H8.71741V109.23H9.63988V103.243Z" fill="#003359"/>
<path d="M9.04025 97.1638V105.656C7.42592 105.563 6.18058 103.707 6.18058 101.387C6.13446 99.1129 7.42592 97.2566 9.04025 97.1638Z" fill="#FFAA9E"/>
<path d="M12.1766 101.387C12.1766 103.754 10.839 105.656 9.17859 105.656C9.13247 105.656 9.08635 105.656 9.04022 105.656V97.1638C9.08635 97.1638 9.13247 97.1638 9.17859 97.1638C10.839 97.1638 12.1766 99.0665 12.1766 101.387Z" fill="#FF8E7E"/>
<path d="M48.0608 103.243H47.1384V109.23H48.0608V103.243Z" fill="#003359"/>
<path d="M47.4612 97.1638V105.656C45.8469 105.563 44.6016 103.707 44.6016 101.387C44.6016 99.1129 45.8469 97.2566 47.4612 97.1638Z" fill="#FFAA9E"/>
<path d="M50.5976 101.387C50.5976 103.754 49.2601 105.656 47.5996 105.656C47.5535 105.656 47.5074 105.656 47.4612 105.656V97.1638C47.5074 97.1638 47.5535 97.1638 47.5996 97.1638C49.2601 97.1638 50.5976 99.0665 50.5976 101.387Z" fill="#FF8E7E"/>
<path d="M42.2954 60.5955H36.6222V109.23H42.2954V60.5955Z" fill="#A6D3E1"/>
<path d="M160.879 50.8965L153.961 53.2168L152.762 77.3946H160.879V50.8965Z" fill="#A6D3E1"/>
<path d="M160.879 50.8965L167.798 53.2168L168.951 77.3946H160.879V50.8965Z" fill="#40A1BE"/>
<path d="M157.42 25.5121L152.3 19.9434L158.988 24.4912L157.881 25.6514L157.42 25.5121Z" fill="#A6D3E1"/>
<path d="M157.835 27.2291L150.594 25.2336L158.665 25.5121L158.296 27.0899L157.835 27.2291Z" fill="#A6D3E1"/>
<path d="M159.08 23.7951L157.005 16.5093L160.972 23.6095L159.449 24.12L159.08 23.7951Z" fill="#A6D3E1"/>
<path d="M166.23 25.5121L171.349 19.9434L164.661 24.4912L165.768 25.6514L166.23 25.5121Z" fill="#A6D3E1"/>
<path d="M165.814 27.2291L173.056 25.2336L164.984 25.5121L165.353 27.0899L165.814 27.2291Z" fill="#A6D3E1"/>
<path d="M164.569 23.7951L166.645 16.5093L162.678 23.6095L164.2 24.12L164.569 23.7951Z" fill="#A6D3E1"/>
<path d="M157.282 25.0945V36.8353L159.911 37.4386L159.542 26.7187L157.282 25.0945Z" fill="#0082A9"/>
<path d="M166.368 25.0945V36.8353L163.739 37.4386L164.108 26.7187L166.368 25.0945Z" fill="#0082A9"/>
<path d="M156.682 27.4147C156.682 27.4147 158.758 28.5284 161.617 28.5284V24.8623C161.617 24.8159 157.328 26.1153 156.682 27.4147Z" fill="#0082A9"/>
<path d="M166.968 27.4147C166.968 27.4147 164.892 28.5284 162.032 28.5284V24.8623C162.032 24.8159 166.322 26.1153 166.968 27.4147Z" fill="#0082A9"/>
<path d="M161.848 13.9104L160.879 23.2845H162.724L161.848 13.9104Z" fill="#A6D3E1"/>
<path d="M163.97 31.2666H159.726V35.9073H163.97V31.2666Z" fill="#A6D3E1"/>
<path d="M151.608 25.3264L151.885 15.5811H149.579L148.564 25.6513C148.472 27.8324 149.671 30.0599 151.424 34.9326L154.653 30.988C155.298 31.8234 151.562 27.4147 151.608 25.3264Z" fill="#A6D3E1"/>
<path d="M149.21 8.38805C149.21 8.38805 145.612 5.83569 148.61 2.68005L149.21 4.21146C149.21 4.21146 150.594 1.98395 150.04 0.127686C150.04 0.127686 151.701 1.14863 151.931 3.60818L152.485 2.16957C155.252 4.86116 153.223 7.9704 151.516 8.43446H149.21V8.38805Z" fill="#F12C3E"/>
<path d="M151.562 8.38794H149.21V9.73373H151.562V8.38794Z" fill="#0082A9"/>
<path d="M149.026 12.1006L149.625 22.0316H151.101L151.701 12.1006H149.026Z" fill="#0082A9"/>
<path d="M153.223 9.73389H147.503V12.7039H153.223V9.73389Z" fill="#40A1BE"/>
<path d="M151.885 15.6274C151.885 15.8594 151.701 16.045 151.47 16.045H150.132C149.902 16.045 149.717 15.8594 149.717 15.6274C149.717 15.3953 149.902 15.2097 150.132 15.2097H151.47C151.701 15.2097 151.885 15.3953 151.885 15.6274Z" fill="#A6D3E1"/>
<path d="M161.848 24.1199V32.5659C159.449 32.5659 158.342 30.3848 157.835 28.3429C157.42 26.765 157.374 25.28 157.374 25.0944L161.848 24.1199Z" fill="#A6D3E1"/>
<path d="M161.848 24.1199V25.28C161.248 27.6932 159.127 28.2501 157.835 28.3429C157.42 26.765 157.374 25.28 157.374 25.0944C157.42 24.9552 157.466 24.7232 157.466 24.7232L161.848 24.1199Z" fill="#0082A9"/>
<path d="M161.848 24.1199V32.5659C164.246 32.5659 165.353 30.3848 165.861 28.3429C166.276 26.765 166.322 25.28 166.322 25.0944L161.848 24.1199Z" fill="#A6D3E1"/>
<path d="M161.848 24.1199V25.28C162.448 27.6932 164.569 28.2501 165.861 28.3429C166.276 26.765 166.322 25.28 166.322 25.0944C166.276 24.9552 166.23 24.7232 166.23 24.7232L161.848 24.1199Z" fill="#0082A9"/>
<path d="M156.682 25.0479V27.4147C160.003 25.0479 163.462 24.8623 167.014 27.4147V25.0479C165.077 22.2635 158.85 21.8459 156.682 25.0479Z" fill="#A6D3E1"/>
<path d="M167.752 34.979H160.51L155.252 29.8279L149.072 33.262C149.072 33.262 149.671 36.4176 151.424 39.2484L150.363 57.3006C150.363 57.3006 162.171 57.3006 167.706 48.6689L172.779 46.0238C175.869 44.446 173.702 34.979 167.752 34.979Z" fill="#40A1BE"/>
<path d="M166.553 41.012L170.381 44.5389L167.567 47.9265L164.846 44.446L166.553 41.012Z" fill="#A6D3E1"/>
<path d="M170.01 42.387L163.923 52.6753L171.612 57.2803L177.699 46.9919L170.01 42.387Z" fill="#0082A9"/>
<path d="M175.823 49.597C176.377 49.9219 176.561 50.6644 176.238 51.2212L175.224 52.9383C174.901 53.4952 174.163 53.6808 173.609 53.3559L172.964 52.9847C172.41 52.6598 172.226 51.9173 172.549 51.3605L173.563 49.6434C173.886 49.0865 174.624 48.9009 175.178 49.2258L175.823 49.597Z" fill="#A6D3E1"/>
<path d="M167.106 34.4685C167.106 34.4685 161.756 44.5851 150.594 46.4414L149.671 52.5207C149.671 52.5207 168.49 51.2677 169.504 34.6541L167.106 34.4685Z" fill="#A6D3E1"/>
<path d="M156.451 54.0058L155.529 77.3947L159.726 77.6268L159.911 53.4954L156.451 54.0058Z" fill="#40A1BE"/>
<path d="M171.672 83.613H149.072V90.7132H171.672V83.613Z" fill="#0082A9"/>
<path d="M171.672 92.8945H149.072V102.315H171.672V92.8945Z" fill="#0082A9"/>
<path d="M174.532 104.542H146.212V109.276H174.532V104.542Z" fill="#0082A9"/>
<path d="M173.379 90.7134H147.411V92.8945H173.379V90.7134Z" fill="#A6D3E1"/>
<path d="M173.379 102.361H147.411V104.542H173.379V102.361Z" fill="#A6D3E1"/>
<path d="M170.289 77.0698H150.501V83.6596H170.289V77.0698Z" fill="#0082A9"/>
<path d="M150.732 17.9942C150.732 18.5511 150.317 18.9687 149.763 18.9687H149.118C148.564 18.9687 148.149 18.5511 148.149 17.9942V16.602C148.149 16.0451 148.564 15.6274 149.118 15.6274H149.763C150.317 15.6274 150.732 16.0451 150.732 16.602V17.9942Z" fill="#A6D3E1"/>
</g>
<defs>
<clipPath id="clip0_547_227">
<rect width="188" height="113" fill="white" transform="translate(0 0.127686)"/>
</clipPath>
</defs>
</svg>
